<?xml version="1.0" encoding="UTF-8" standalone="no"?>
<svg
   width="96.995003"
   zoomAndPan="magnify"
   viewBox="0 0 72.746271 121.91219"
   height="162.54955"
   preserveAspectRatio="xMidYMid"
   version="1.0"
   id="svg183"
   sodipodi:docname="ERNEST_cat_yellow.svg"
   inkscape:version="1.4.2 (ebf0e940, 2025-05-08)"
   xmlns:inkscape="http://www.inkscape.org/namespaces/inkscape"
   xmlns:sodipodi="http://sodipodi.sourceforge.net/DTD/sodipodi-0.dtd"
   xmlns="http://www.w3.org/2000/svg"
   xmlns:svg="http://www.w3.org/2000/svg">
  <sodipodi:namedview
     id="namedview183"
     pagecolor="#ffffff"
     bordercolor="#000000"
     borderopacity="0.25"
     inkscape:showpageshadow="2"
     inkscape:pageopacity="0.0"
     inkscape:pagecheckerboard="0"
     inkscape:deskcolor="#d1d1d1"
     inkscape:zoom="1.8738739"
     inkscape:cx="146.48798"
     inkscape:cy="85.651441"
     inkscape:window-width="1576"
     inkscape:window-height="1022"
     inkscape:window-x="2362"
     inkscape:window-y="44"
     inkscape:window-maximized="0"
     inkscape:current-layer="g181" />
  <defs
     id="defs8">
    <g
       id="g1" />
    <clipPath
       id="9c3bfe207c">
      <path
         d="M 1,0 H 332 V 160.50391 H 1 Z m 0,0"
         clip-rule="nonzero"
         id="path1" />
    </clipPath>
    <clipPath
       id="00f0aa38d9">
      <path
         d="M 1.515625,0 H 331.48437 V 160.50391 H 1.515625 Z m 0,0"
         clip-rule="nonzero"
         id="path2" />
    </clipPath>
    <clipPath
       id="35a8eb73f8">
      <path
         d="M 0.515625,0 H 330.48437 V 160.17969 H 0.515625 Z m 0,0"
         clip-rule="nonzero"
         id="path3" />
    </clipPath>
    <clipPath
       id="5750090980">
      <path
         d="M 65.761719,16.050781 H 128.34375 V 138.23437 H 65.761719 Z m 0,0"
         clip-rule="nonzero"
         id="path4" />
    </clipPath>
    <clipPath
       id="51a997000e">
      <path
         d="M 1,0.0507812 H 63.25 V 122.23438 H 1 Z m 0,0"
         clip-rule="nonzero"
         id="path5" />
    </clipPath>
    <clipPath
       id="4fc663427f">
      <rect
         x="0"
         width="64"
         y="0"
         height="123"
         id="rect5" />
    </clipPath>
    <clipPath
       id="757956b0b6">
      <rect
         x="0"
         width="144"
         y="0"
         height="85"
         id="rect6" />
    </clipPath>
    <clipPath
       id="74ea05e29a">
      <path
         d="M 55.394531,99.660156 H 90 V 133.93359 H 55.394531 Z m 0,0"
         clip-rule="nonzero"
         id="path6" />
    </clipPath>
    <clipPath
       id="788694aeb0">
      <path
         d="m 82,116 h 18.09375 v 17.93359 H 82 Z m 0,0"
         clip-rule="nonzero"
         id="path7" />
    </clipPath>
    <clipPath
       id="013393d7bc">
      <rect
         x="0"
         width="137"
         y="0"
         height="45"
         id="rect7" />
    </clipPath>
    <clipPath
       id="5654850c32">
      <rect
         x="0"
         width="331"
         y="0"
         height="161"
         id="rect8" />
    </clipPath>
  </defs>
  <g
     clip-path="url(#00f0aa38d9)"
     id="g183"
     transform="translate(-56.394531,-16.321946)">
    <g
       transform="translate(1)"
       id="g182">
      <g
         clip-path="url(#5654850c32)"
         id="g181">
        <g
           clip-path="url(#5750090980)"
           id="g18">
          <g
             transform="translate(65,16)"
             id="g17">
            <g
               clip-path="url(#4fc663427f)"
               id="g16">
              <g
                 clip-path="url(#51a997000e)"
                 id="g9">
                <path
                   fill="#151516"
                   d="m 2.703125,18.484375 c 4.386719,-5.050781 13.898437,3.980469 17.667969,6.96875 0.675781,0.539063 1.390625,1.078125 2.230468,1.296875 0.90625,0.234375 1.878907,0.05859 2.742188,-0.308594 1.300781,-0.550781 2.453125,-1.453125 3.703125,-2.117187 1.304687,-0.695313 2.640625,-1.332031 4,-1.910157 1.378906,-0.585937 2.785156,-1.117187 4.210937,-1.582031 1.378907,-0.457031 2.957032,-0.660156 4.285157,-1.222656 1.25,-0.53125 2.113281,-1.695313 2.257812,-3.042969 0.511719,-4.773437 2.261719,-15.8125 7.585938,-16.238281 3.488281,-0.28125 6.949219,9.121094 7.824219,11.390625 0.964843,2.507812 2.570312,6.035156 3.398437,8.582031 0.5625,1.722657 0.53125,101.933599 0.53125,101.933599 -1.894531,-0.34375 -3.28125,-3.96875 -4.082031,-7.6875 -1.175782,-5.45704 -3.773438,-9.19532 -7.945313,-13.05079 C 44.625,95.488281 41.632812,89.507812 39.871094,81.136719 38.484375,74.527344 31.300781,73.777344 26.605469,70.238281 17.84375,63.625 16.375,53.648438 11.59375,44.617188 9.136719,39.976562 6.214844,35.605469 4.109375,30.804688 2.898438,28.046875 0.734375,20.753906 2.703125,18.484375"
                   fill-opacity="1"
                   fill-rule="nonzero"
                   id="path8"
                   style="fill:#ffe548;fill-opacity:1" />
              </g>
              <path
                 fill="#ffffff"
                 d="m 30.933594,55.207031 c -3.835938,-0.03906 -6.90625,-4.074219 -6.90625,-4.074219 0,0 3.152344,-3.976562 6.988281,-3.9375 3.839844,0.03906 6.90625,4.078126 6.90625,4.078126 0,0 -3.148437,3.972656 -6.988281,3.933593"
                 fill-opacity="1"
                 fill-rule="nonzero"
                 id="path9"
                 style="fill:#ffffff;fill-opacity:1" />
              <path
                 fill="#151516"
                 d="m 29.539062,51.914062 c 0.929688,1.878907 3.199219,2.648438 3.199219,2.648438 0,0 0.753907,-2.273438 -0.175781,-4.152344 -0.933594,-1.875 -3.199219,-2.648437 -3.199219,-2.648437 0,0 -0.757812,2.273437 0.175781,4.152343"
                 fill-opacity="1"
                 fill-rule="nonzero"
                 id="path10"
                 style="fill:#ffe548;fill-opacity:1" />
              <path
                 fill="#ffffff"
                 d="m 58.402344,43.140625 c 2.550781,-2.871094 1.625,-7.859375 1.625,-7.859375 0,0 -5.058594,-0.335938 -7.609375,2.535156 -2.550781,2.867188 -1.625,7.855469 -1.625,7.855469 0,0 5.058593,0.335937 7.609375,-2.53125"
                 fill-opacity="1"
                 fill-rule="nonzero"
                 id="path11" />
              <path
                 fill="#151516"
                 d="m 53.910156,41.222656 c 0.933594,1.878906 3.199219,2.648438 3.199219,2.648438 0,0 0.753906,-2.273438 -0.175781,-4.152344 C 56,37.84375 53.734375,37.074219 53.734375,37.074219 c 0,0 -0.757813,2.269531 0.175781,4.148437"
                 fill-opacity="1"
                 fill-rule="nonzero"
                 id="path12"
                 style="fill:#ffe548;fill-opacity:1" />
              <path
                 fill="#151516"
                 d="m 17.199219,87.929688 c -0.03125,0.132812 -0.05859,0.265624 -0.08594,0.398437 0,0 0.02734,-0.140625 0.08594,-0.398437"
                 fill-opacity="1"
                 fill-rule="nonzero"
                 id="path13"
                 style="display:inline;fill:#ffe548;fill-opacity:1" />
              <path
                 fill="#151516"
                 d="m 38.199219,65.15625 c -0.289063,0.06641 -0.605469,0.08203 -0.898438,0.136719 -0.828125,0.148437 -1.652343,0.355469 -2.464843,0.597656 -2.09375,0.625 -4.144532,1.558594 -6.03125,2.640625 -3.714844,2.125 -6.867188,4.925781 -9.277344,8.027344 -1.113282,1.433594 -2.03125,2.984375 -2.925782,4.496094 0.210938,-0.285157 0.523438,-0.597657 0.753907,-0.867188 0.589843,-0.691406 1.171875,-1.382812 1.734375,-2.085938 1.171875,-1.464843 2.492187,-2.867187 3.9375,-4.1875 2.886718,-2.640624 6.269531,-4.945312 9.9375,-6.757812 1.308594,-0.648438 2.683594,-1.148438 4.058594,-1.636719 0.734374,-0.261719 1.175781,-0.363281 1.175781,-0.363281"
                 fill-opacity="1"
                 fill-rule="nonzero"
                 id="path16"
                 inkscape:label="path16"
                 style="fill:#ffe548;fill-opacity:1" />
              <path
                 fill="#151516"
                 d="m 39.816406,62.601562 c -0.304687,-0.05469 -0.597656,-0.183593 -0.894531,-0.253906 -0.839844,-0.203125 -1.714844,-0.34375 -2.601563,-0.433594 -2.015624,-0.199218 -4.171874,-0.07812 -6.277343,0.222657 -4.636719,0.664062 -9.195313,2.367187 -13.242188,4.808593 -1.578125,0.949219 -3.03125,2.019532 -4.515625,3.074219 3.59375,-2.054687 7.34375,-3.917969 11.269532,-5.292969 4.269531,-1.5 8.660156,-2.316406 12.984374,-2.316406 0.695313,0 1.414063,-0.02344 2.082032,0.07422 0.769531,0.03906 1.195312,0.117187 1.195312,0.117187"
                 fill-opacity="1"
                 fill-rule="nonzero"
                 id="path14"
                 style="fill:#ffe548;fill-opacity:1" />
              <path
                 fill="#151516"
                 d="m 38.929688,63.757812 c -0.292969,0.0078 -0.59375,-0.04687 -0.882813,-0.05469 -0.820313,-0.02734 -1.652344,0.0078 -2.488281,0.07813 -2.199219,0.191406 -4.441406,0.734375 -6.589844,1.457031 -4.484375,1.507813 -8.515625,3.914063 -11.902344,6.949219 -1.003906,0.902344 -1.960937,1.839844 -2.890625,2.792969 -0.363281,0.375 -0.730469,0.746093 -1.082031,1.125 0.234375,-0.203125 0.53125,-0.402344 0.765625,-0.589844 0.671875,-0.519531 1.359375,-1.039063 2,-1.585937 1.539063,-1.320313 3.203125,-2.472657 4.933594,-3.605469 1.589843,-1.042969 3.191406,-1.910157 4.90625,-2.761719 1.0625,-0.527344 2.152343,-1.007812 3.257812,-1.433594 2.21875,-0.859375 4.515625,-1.511718 6.820313,-1.941406 0.636718,-0.121094 1.265625,-0.210938 1.902344,-0.300781 0.796874,-0.117188 1.25,-0.128907 1.25,-0.128907"
                 fill-opacity="1"
                 fill-rule="nonzero"
                 id="path15"
                 style="fill:#ffe548;fill-opacity:1" />
            </g>
          </g>
        </g>
        <g
           clip-path="url(#74ea05e29a)"
           id="g39">
          <path
             fill="#231f20"
             d="m 72.777344,108.79297 c 0.05078,0.47266 0.144531,0.94141 0.273437,1.39844 0.132813,0.46093 0.300781,0.90625 0.507813,1.33593 0.207031,0.4336 0.445312,0.84375 0.722656,1.23047 0.273438,0.39063 0.582031,0.75391 0.917969,1.09375 0.339843,0.33594 0.703125,0.64453 1.089843,0.92188 0.390626,0.27344 0.800782,0.51562 1.230469,0.72265 0.429688,0.20704 0.875,0.375 1.335938,0.50782 0.457031,0.1289 0.925781,0.22265 1.398437,0.27343 3.019532,0.30079 6.046875,0.44141 9.082032,0.41407 -3.035157,-0.0234 -6.0625,0.11328 -9.082032,0.41406 -0.472656,0.0547 -0.941406,0.14453 -1.398437,0.27734 -0.460938,0.12891 -0.90625,0.29688 -1.335938,0.50391 -0.429687,0.20703 -0.839843,0.44922 -1.230469,0.72656 -0.386718,0.27344 -0.75,0.58203 -1.089843,0.91797 -0.335938,0.33984 -0.644531,0.70313 -0.917969,1.09375 -0.277344,0.39063 -0.515625,0.80078 -0.722656,1.23047 -0.207032,0.42969 -0.375,0.875 -0.507813,1.33594 -0.128906,0.46093 -0.222656,0.92578 -0.273437,1.40234 -0.300782,3.02344 -0.4375,6.05469 -0.414063,9.09375 0.02734,-3.03906 -0.113281,-6.07031 -0.414062,-9.09375 -0.05078,-0.47656 -0.140625,-0.94141 -0.273438,-1.40234 -0.128906,-0.46094 -0.300781,-0.90625 -0.503906,-1.33594 -0.207031,-0.42969 -0.449219,-0.83984 -0.726563,-1.23047 -0.273437,-0.39062 -0.582031,-0.75391 -0.917968,-1.09375 -0.335938,-0.33594 -0.699219,-0.64453 -1.089844,-0.91797 -0.390625,-0.27734 -0.800781,-0.51953 -1.230469,-0.72656 -0.429687,-0.20703 -0.875,-0.375 -1.332031,-0.50391 -0.460938,-0.13281 -0.925781,-0.22265 -1.402344,-0.27734 -3.019531,-0.30078 -6.046875,-0.4375 -9.078125,-0.41406 3.03125,0.0273 6.058594,-0.11328 9.078125,-0.41407 0.476563,-0.0508 0.941406,-0.14453 1.402344,-0.27343 0.457031,-0.13282 0.902344,-0.30078 1.332031,-0.50782 0.429688,-0.20703 0.839844,-0.44921 1.230469,-0.72265 0.390625,-0.27735 0.753906,-0.58594 1.089844,-0.92188 0.335937,-0.33984 0.644531,-0.70312 0.917968,-1.09375 0.277344,-0.38672 0.519532,-0.79687 0.726563,-1.23047 0.203125,-0.42968 0.375,-0.875 0.503906,-1.33593 0.132813,-0.45703 0.222657,-0.92578 0.273438,-1.39844 0.300781,-3.02734 0.441406,-6.05859 0.414062,-9.097658 -0.02344,3.039068 0.113281,6.070318 0.414063,9.097658 z m 0,0"
             fill-opacity="1"
             fill-rule="nonzero"
             id="path38"
             style="fill:#ffe548;fill-opacity:1" />
        </g>
        <g
           clip-path="url(#788694aeb0)"
           id="g40">
          <path
             fill="#231f20"
             d="m 91.726562,121.29297 c 0.05078,0.48437 0.183594,0.94531 0.394532,1.38672 0.210937,0.4375 0.484375,0.83203 0.828125,1.17578 0.347656,0.34375 0.738281,0.62109 1.175781,0.83203 0.4375,0.21094 0.898438,0.34375 1.382812,0.39453 1.527344,0.15235 3.058594,0.22266 4.597658,0.21094 -1.539064,-0.0117 -3.070314,0.0586 -4.597658,0.21094 -0.484374,0.0508 -0.945312,0.18359 -1.382812,0.39453 -0.4375,0.21094 -0.828125,0.48828 -1.175781,0.83203 -0.34375,0.34375 -0.617188,0.73437 -0.828125,1.17578 -0.210938,0.4375 -0.34375,0.89844 -0.394532,1.38281 -0.152343,1.53125 -0.222656,3.06641 -0.210937,4.60547 0.01172,-1.53906 -0.05859,-3.07422 -0.210937,-4.60547 -0.05078,-0.48437 -0.183594,-0.94531 -0.394532,-1.38281 -0.210937,-0.44141 -0.484375,-0.83203 -0.832031,-1.17578 -0.34375,-0.34375 -0.734375,-0.62109 -1.171875,-0.83203 -0.4375,-0.21094 -0.898438,-0.34375 -1.382812,-0.39453 -1.527344,-0.15235 -3.058594,-0.22266 -4.597657,-0.21094 1.539063,0.0117 3.070313,-0.0586 4.597657,-0.21094 0.484374,-0.0508 0.945312,-0.18359 1.382812,-0.39453 0.4375,-0.21094 0.828125,-0.48828 1.171875,-0.83203 0.347656,-0.34375 0.621094,-0.73828 0.832031,-1.17578 0.210938,-0.44141 0.34375,-0.90235 0.394532,-1.38672 0.152343,-1.52734 0.222656,-3.0625 0.210937,-4.60156 -0.01172,1.53906 0.05859,3.07422 0.210937,4.60156 z m 0,0"
             fill-opacity="1"
             fill-rule="nonzero"
             id="path39"
             style="fill:#ffe548;fill-opacity:1" />
        </g>
        <path
           fill="#231f20"
           d="m 85.269531,104.32422 c 0.03125,0.29297 0.113281,0.57422 0.242188,0.84375 0.128906,0.26953 0.296875,0.50781 0.507812,0.71875 0.207031,0.21094 0.449219,0.37891 0.714844,0.50781 0.269531,0.12891 0.550781,0.20703 0.84375,0.24219 0.933594,0.0937 1.871094,0.13281 2.808594,0.125 -0.9375,-0.008 -1.875,0.0352 -2.808594,0.12891 -0.292969,0.0352 -0.574219,0.11328 -0.84375,0.24218 -0.265625,0.12891 -0.507813,0.29688 -0.714844,0.50782 -0.210937,0.21093 -0.378906,0.44921 -0.507812,0.71875 -0.128907,0.26953 -0.210938,0.55078 -0.242188,0.84375 -0.09375,0.9375 -0.136719,1.87109 -0.128906,2.8125 0.0078,-0.94141 -0.03516,-1.875 -0.128906,-2.8125 -0.03125,-0.29297 -0.109375,-0.57422 -0.238281,-0.84375 -0.128907,-0.26954 -0.296876,-0.50782 -0.507813,-0.71875 -0.210937,-0.21094 -0.449219,-0.37891 -0.71875,-0.50782 -0.265625,-0.1289 -0.546875,-0.20703 -0.84375,-0.24218 -0.933594,-0.0937 -1.867187,-0.13672 -2.804687,-0.12891 0.9375,0.008 1.871093,-0.0312 2.804687,-0.125 0.296875,-0.0352 0.578125,-0.11328 0.84375,-0.24219 0.269531,-0.1289 0.507813,-0.29687 0.71875,-0.50781 0.207031,-0.21094 0.378906,-0.44922 0.507813,-0.71875 0.125,-0.26953 0.207031,-0.55078 0.238281,-0.84375 0.09375,-0.9375 0.136719,-1.875 0.128906,-2.8125 -0.0078,0.9375 0.03516,1.875 0.128906,2.8125 z m 0,0"
           fill-opacity="1"
           fill-rule="nonzero"
           id="path40"
           style="fill:#ffe548;fill-opacity:1" />
      </g>
    </g>
  </g>
</svg>
