<?xml version="1.0" encoding="UTF-8" standalone="no"?>
<svg
   width="760"
   zoomAndPan="magnify"
   viewBox="0 0 760 140"
   height="140"
   preserveAspectRatio="xMidYMid"
   version="1.0"
   id="svg183"
   sodipodi:docname="ERNEST_long_yellow.svg"
   inkscape:version="1.4.2 (ebf0e940, 2025-05-08)"
   xmlns:inkscape="http://www.inkscape.org/namespaces/inkscape"
   xmlns:sodipodi="http://sodipodi.sourceforge.net/DTD/sodipodi-0.dtd"
   xmlns="http://www.w3.org/2000/svg"
   xmlns:svg="http://www.w3.org/2000/svg">
  <sodipodi:namedview
     id="namedview183"
     pagecolor="#ffffff"
     bordercolor="#000000"
     borderopacity="0.25"
     inkscape:showpageshadow="2"
     inkscape:pageopacity="0.0"
     inkscape:pagecheckerboard="0"
     inkscape:deskcolor="#d1d1d1"
     inkscape:zoom="1.15"
     inkscape:cx="390"
     inkscape:cy="134.34783"
     inkscape:window-width="1688"
     inkscape:window-height="1022"
     inkscape:window-x="2186"
     inkscape:window-y="30"
     inkscape:window-maximized="0"
     inkscape:current-layer="g18"
     showguides="true" />
  <defs
     id="defs8">
    <g
       id="g1" />
    <clipPath
       id="9c3bfe207c">
      <path
         d="M 1,0 H 332 V 160.50391 H 1 Z m 0,0"
         clip-rule="nonzero"
         id="path1" />
    </clipPath>
    <clipPath
       id="00f0aa38d9">
      <path
         d="M 1.515625,0 H 331.48437 V 160.50391 H 1.515625 Z m 0,0"
         clip-rule="nonzero"
         id="path2" />
    </clipPath>
    <clipPath
       id="35a8eb73f8">
      <path
         d="M 0.515625,0 H 330.48437 V 160.17969 H 0.515625 Z m 0,0"
         clip-rule="nonzero"
         id="path3" />
    </clipPath>
    <clipPath
       id="5750090980">
      <path
         d="M 65.761719,16.050781 H 128.34375 V 138.23437 H 65.761719 Z m 0,0"
         clip-rule="nonzero"
         id="path4" />
    </clipPath>
    <clipPath
       id="51a997000e">
      <path
         d="M 1,0.0507812 H 63.25 V 122.23438 H 1 Z m 0,0"
         clip-rule="nonzero"
         id="path5" />
    </clipPath>
    <clipPath
       id="4fc663427f">
      <rect
         x="0"
         width="64"
         y="0"
         height="123"
         id="rect5" />
    </clipPath>
    <clipPath
       id="757956b0b6">
      <rect
         x="0"
         width="144"
         y="0"
         height="85"
         id="rect6" />
    </clipPath>
    <clipPath
       id="74ea05e29a">
      <path
         d="M 55.394531,99.660156 H 90 V 133.93359 H 55.394531 Z m 0,0"
         clip-rule="nonzero"
         id="path6" />
    </clipPath>
    <clipPath
       id="788694aeb0">
      <path
         d="m 82,116 h 18.09375 v 17.93359 H 82 Z m 0,0"
         clip-rule="nonzero"
         id="path7" />
    </clipPath>
    <clipPath
       id="013393d7bc">
      <rect
         x="0"
         width="137"
         y="0"
         height="45"
         id="rect7" />
    </clipPath>
    <clipPath
       id="5654850c32">
      <rect
         x="0"
         width="331"
         y="0"
         height="161"
         id="rect8" />
    </clipPath>
  </defs>
  <g
     id="g184"
     transform="translate(-47.698879,-10.23499)">
    <g
       clip-path="url(#5654850c32)"
       id="g181"
       style="display:inline;fill:#1f2041;fill-opacity:1"
       transform="translate(1)" />
    <g
       transform="matrix(2.8225127,0,0,2.8225127,418.1917,27.076344)"
       id="g180"
       style="display:inline;fill:#ffe548;fill-opacity:1">
      <g
         clip-path="url(#013393d7bc)"
         id="g179"
         style="fill:#ffe548;fill-opacity:1">
        <g
           fill="#000000"
           fill-opacity="1"
           id="g43"
           style="fill:#ffe548;fill-opacity:1">
          <g
             transform="translate(0.383085,15.909674)"
             id="g42"
             style="fill:#ffe548;fill-opacity:1">
            <g
               id="g41"
               style="fill:#ffe548;fill-opacity:1">
              <path
                 d="M 0.6875,-12.59375 V 0 H 4.921875 V -1.90625 H 2.53125 V -5.359375 H 4.25 v -2.03125 H 2.53125 v -3.3125 h 2.390625 v -1.890625 z m 0,0"
                 id="path41"
                 style="fill:#ffe548;fill-opacity:1" />
            </g>
          </g>
        </g>
        <g
           fill="#000000"
           fill-opacity="1"
           id="g46"
           style="fill:#ffe548;fill-opacity:1">
          <g
             transform="translate(5.643478,15.909674)"
             id="g45"
             style="fill:#ffe548;fill-opacity:1">
            <g
               id="g44"
               style="fill:#ffe548;fill-opacity:1">
              <path
                 d="m 3.359375,-9.375 v 7.390625 C 3.335938,-1.941406 3.3125,-1.898438 3.28125,-1.859375 3.25,-1.816406 3.222656,-1.785156 3.203125,-1.765625 3.148438,-1.710938 3.09375,-1.660156 3.03125,-1.609375 c -0.0625,0.042969 -0.140625,0.0625 -0.234375,0.0625 -0.105469,0 -0.203125,-0.019531 -0.296875,-0.0625 C 2.414062,-1.660156 2.375,-1.773438 2.375,-1.953125 V -9.375 H 0.65625 v 7.671875 c 0,0.199219 0.023438,0.40625 0.078125,0.625 0.050781,0.21875 0.125,0.414063 0.21875,0.578125 0.101563,0.1875 0.238281,0.34375 0.40625,0.46875 0.164063,0.1132812 0.363281,0.171875 0.59375,0.171875 0.144531,0 0.300781,-0.046875 0.46875,-0.140625 0.15625,-0.09375 0.289063,-0.191406 0.40625,-0.296875 0.125,-0.113281 0.238281,-0.21875 0.34375,-0.3125 0.101563,-0.101563 0.164063,-0.160156 0.1875,-0.171875 V 0 H 5.09375 v -9.375 z m 0,0"
                 id="path43"
                 style="fill:#ffe548;fill-opacity:1" />
            </g>
          </g>
        </g>
        <g
           fill="#000000"
           fill-opacity="1"
           id="g49"
           style="fill:#ffe548;fill-opacity:1">
          <g
             transform="translate(11.417915,15.909674)"
             id="g48"
             style="fill:#ffe548;fill-opacity:1">
            <g
               id="g47"
               style="fill:#ffe548;fill-opacity:1">
              <path
                 d="m 4.140625,-7.59375 v -1.921875 c -0.3125,0 -0.578125,0.054687 -0.796875,0.15625 -0.210938,0.105469 -0.382812,0.21875 -0.515625,0.34375 -0.136719,0.136719 -0.234375,0.273437 -0.296875,0.40625 -0.0625,0.125 -0.101562,0.21875 -0.109375,0.28125 V -9.375 H 0.6875 V 0 h 1.734375 v -6.515625 c 0,-0.144531 0.019531,-0.289063 0.0625,-0.4375 0.039063,-0.144531 0.144531,-0.285156 0.3125,-0.421875 0.132813,-0.125 0.28125,-0.203125 0.4375,-0.234375 0.15625,-0.03125 0.300781,-0.046875 0.4375,-0.046875 0.070313,0 0.148437,0.00781 0.234375,0.015625 0.082031,0.011719 0.160156,0.027344 0.234375,0.046875 z m 0,0"
                 id="path46"
                 style="fill:#ffe548;fill-opacity:1" />
            </g>
          </g>
        </g>
        <g
           fill="#000000"
           fill-opacity="1"
           id="g52"
           style="fill:#ffe548;fill-opacity:1">
          <g
             transform="translate(15.564534,15.909674)"
             id="g51"
             style="fill:#ffe548;fill-opacity:1">
            <g
               id="g50"
               style="fill:#ffe548;fill-opacity:1">
              <path
                 d="m 4.96875,-2.28125 v -4.8125 C 4.957031,-7.320312 4.925781,-7.53125 4.875,-7.71875 4.832031,-7.914062 4.773438,-8.109375 4.703125,-8.296875 4.554688,-8.585938 4.332031,-8.863281 4.03125,-9.125 3.726562,-9.382812 3.300781,-9.515625 2.75,-9.515625 c -0.574219,0 -1.007812,0.125 -1.296875,0.375 -0.292969,0.25 -0.515625,0.546875 -0.671875,0.890625 -0.148438,0.34375 -0.230469,0.746094 -0.25,1.203125 v 4.71875 c 0.007812,0.230469 0.035156,0.449219 0.078125,0.65625 C 0.660156,-1.472656 0.726562,-1.28125 0.8125,-1.09375 0.945312,-0.789062 1.160156,-0.507812 1.453125,-0.25 1.753906,0.0078125 2.1875,0.140625 2.75,0.140625 c 0.5625,0 0.992188,-0.125 1.296875,-0.375 0.570313,-0.46875 0.878906,-1.148437 0.921875,-2.046875 z m -1.625,-4.765625 v 4.71875 c 0.00781,0.179687 -0.00781,0.339844 -0.046875,0.484375 -0.042969,0.125 -0.105469,0.234375 -0.1875,0.328125 -0.085937,0.085937 -0.203125,0.125 -0.359375,0.125 -0.15625,0 -0.28125,-0.046875 -0.375,-0.140625 C 2.21875,-1.726562 2.144531,-1.992188 2.15625,-2.328125 v -4.71875 C 2.144531,-7.222656 2.164062,-7.382812 2.21875,-7.53125 2.25,-7.65625 2.300781,-7.765625 2.375,-7.859375 2.457031,-7.953125 2.582031,-8 2.75,-8 c 0.15625,0 0.28125,0.042969 0.375,0.125 0.15625,0.199219 0.226562,0.476562 0.21875,0.828125 z m 0,0"
                 id="path49"
                 style="fill:#ffe548;fill-opacity:1" />
            </g>
          </g>
        </g>
        <g
           fill="#000000"
           fill-opacity="1"
           id="g55"
           style="fill:#ffe548;fill-opacity:1">
          <g
             transform="translate(21.030533,15.909674)"
             id="g54"
             style="fill:#ffe548;fill-opacity:1">
            <g
               id="g53"
               style="fill:#ffe548;fill-opacity:1">
              <path
                 d="M 0.6875,-9.375 V 3.21875 h 1.734375 v -3.828125 c 0.070313,0.0625 0.144531,0.125 0.21875,0.1875 0.070313,0.0625 0.144531,0.125 0.21875,0.1875 0.125,0.085937 0.269531,0.1679688 0.4375,0.25 0.164063,0.0820312 0.328125,0.125 0.484375,0.125 0.238281,0 0.441406,-0.0585938 0.609375,-0.171875 C 4.554688,-0.15625 4.695312,-0.3125 4.8125,-0.5 4.914062,-0.664062 4.992188,-0.859375 5.046875,-1.078125 5.097656,-1.296875 5.125,-1.503906 5.125,-1.703125 v -5.96875 c 0,-0.195313 -0.027344,-0.40625 -0.078125,-0.625 -0.054687,-0.21875 -0.132813,-0.414063 -0.234375,-0.59375 -0.117188,-0.175781 -0.257812,-0.320313 -0.421875,-0.4375 -0.167969,-0.125 -0.371094,-0.1875 -0.609375,-0.1875 -0.167969,0 -0.324219,0.042969 -0.46875,0.125 -0.179688,0.085937 -0.335938,0.179687 -0.46875,0.28125 -0.136719,0.09375 -0.277344,0.210937 -0.421875,0.34375 V -9.375 Z m 1.734375,7.3125 v -5.25 c 0,-0.164062 0.050781,-0.300781 0.15625,-0.40625 0.113281,-0.113281 0.234375,-0.171875 0.359375,-0.171875 0.125,0 0.226562,0.058594 0.3125,0.171875 0.09375,0.105469 0.140625,0.242188 0.140625,0.40625 v 5.25 c 0,0.167969 -0.046875,0.308594 -0.140625,0.421875 -0.085938,0.105469 -0.1875,0.15625 -0.3125,0.15625 -0.125,0 -0.246094,-0.054687 -0.359375,-0.171875 -0.105469,-0.125 -0.15625,-0.257812 -0.15625,-0.40625 z m 0,0"
                 id="path52"
                 style="fill:#ffe548;fill-opacity:1" />
            </g>
          </g>
        </g>
        <g
           fill="#000000"
           fill-opacity="1"
           id="g58"
           style="fill:#ffe548;fill-opacity:1">
          <g
             transform="translate(26.770699,15.909674)"
             id="g57"
             style="fill:#ffe548;fill-opacity:1">
            <g
               id="g56"
               style="fill:#ffe548;fill-opacity:1">
              <path
                 d="M 5.015625,-3.359375 H 3.40625 v 1.03125 c 0,0.1875 -0.023438,0.351563 -0.0625,0.484375 -0.03125,0.125 -0.09375,0.234375 -0.1875,0.328125 -0.085938,0.085937 -0.203125,0.125 -0.359375,0.125 C 2.648438,-1.390625 2.53125,-1.4375 2.4375,-1.53125 2.257812,-1.726562 2.164062,-1.992188 2.15625,-2.328125 V -4.375 H 5.015625 V -7.09375 C 5.003906,-7.320312 4.976562,-7.53125 4.9375,-7.71875 4.894531,-7.914062 4.832031,-8.109375 4.75,-8.296875 4.613281,-8.585938 4.394531,-8.863281 4.09375,-9.125 3.789062,-9.382812 3.359375,-9.515625 2.796875,-9.515625 c -0.574219,0 -1,0.125 -1.28125,0.375 -0.605469,0.492187 -0.929687,1.1875 -0.96875,2.09375 v 4.71875 c 0.007813,0.230469 0.035156,0.449219 0.078125,0.65625 0.050781,0.199219 0.117188,0.390625 0.203125,0.578125 0.132813,0.304688 0.351563,0.585938 0.65625,0.84375 0.300781,0.2578125 0.734375,0.390625 1.296875,0.390625 0.570312,0 1.003906,-0.125 1.296875,-0.375 0.3125,-0.25 0.539063,-0.535156 0.6875,-0.859375 0.144531,-0.332031 0.226563,-0.726562 0.25,-1.1875 z M 2.15625,-5.71875 v -1.328125 c 0.00781,-0.09375 0.019531,-0.175781 0.03125,-0.25 C 2.207031,-7.378906 2.226562,-7.457031 2.25,-7.53125 2.289062,-7.65625 2.347656,-7.765625 2.421875,-7.859375 2.503906,-7.953125 2.628906,-8 2.796875,-8 c 0.15625,0 0.28125,0.042969 0.375,0.125 0.15625,0.199219 0.234375,0.476562 0.234375,0.828125 v 1.328125 z m 0,0"
                 id="path55"
                 style="fill:#ffe548;fill-opacity:1" />
            </g>
          </g>
        </g>
        <g
           fill="#000000"
           fill-opacity="1"
           id="g61"
           style="fill:#ffe548;fill-opacity:1">
          <g
             transform="translate(32.202427,15.909674)"
             id="g60"
             style="fill:#ffe548;fill-opacity:1">
            <g
               id="g59"
               style="fill:#ffe548;fill-opacity:1">
              <path
                 d="M 3.3125,-7.140625 V -6.125 C 3.269531,-6.03125 3.175781,-5.9375 3.03125,-5.84375 2.882812,-5.757812 2.703125,-5.660156 2.484375,-5.546875 2.265625,-5.429688 2.035156,-5.289062 1.796875,-5.125 1.554688,-4.96875 1.332031,-4.753906 1.125,-4.484375 c -0.199219,0.25 -0.371094,0.570313 -0.515625,0.953125 -0.136719,0.375 -0.203125,0.828125 -0.203125,1.359375 0,0.492187 0.050781,0.886719 0.15625,1.1875 0.101562,0.304687 0.226562,0.53125 0.375,0.6875 0.132812,0.179687 0.28125,0.29296875 0.4375,0.34375 0.164062,0.0625 0.304688,0.09375 0.421875,0.09375 0.175781,0 0.34375,-0.03125 0.5,-0.09375 0.15625,-0.0625 0.289063,-0.140625 0.40625,-0.234375 C 2.828125,-0.28125 2.925781,-0.378906 3,-0.484375 3.082031,-0.585938 3.144531,-0.675781 3.1875,-0.75 h 0.125 c 0,0.054688 0.00391,0.167969 0.015625,0.34375 C 3.335938,-0.226562 3.382812,-0.09375 3.46875,0 h 1.6875 C 5.125,-0.207031 5.097656,-0.425781 5.078125,-0.65625 5.054688,-0.882812 5.046875,-1.207031 5.046875,-1.625 v -5.765625 c 0,-0.300781 -0.058594,-0.582031 -0.171875,-0.84375 C 4.757812,-8.503906 4.601562,-8.726562 4.40625,-8.90625 3.976562,-9.3125 3.488281,-9.515625 2.9375,-9.515625 c -0.679688,0 -1.234375,0.246094 -1.671875,0.734375 -0.210937,0.230469 -0.375,0.496094 -0.5,0.796875 -0.117187,0.304687 -0.171875,0.625 -0.171875,0.96875 v 0.40625 h 1.734375 c 0,-0.070313 0,-0.144531 0,-0.21875 0,-0.070313 0,-0.148437 0,-0.234375 0,-0.082031 0,-0.160156 0,-0.234375 C 2.335938,-7.367188 2.347656,-7.4375 2.359375,-7.5 2.390625,-7.644531 2.4375,-7.765625 2.5,-7.859375 2.570312,-7.953125 2.679688,-8 2.828125,-8 3.035156,-8 3.175781,-7.90625 3.25,-7.71875 c 0.03125,0.085938 0.046875,0.183594 0.046875,0.296875 0.00781,0.105469 0.015625,0.199219 0.015625,0.28125 z m 0,2.609375 V -2.125 c 0,0.15625 -0.074219,0.292969 -0.21875,0.40625 -0.148438,0.105469 -0.3125,0.15625 -0.5,0.15625 -0.105469,0 -0.1875,-0.03125 -0.25,-0.09375 C 2.28125,-1.726562 2.226562,-1.816406 2.1875,-1.921875 2.15625,-2.015625 2.132812,-2.109375 2.125,-2.203125 2.113281,-2.296875 2.109375,-2.375 2.109375,-2.4375 c 0,-0.445312 0.09375,-0.859375 0.28125,-1.234375 0.1875,-0.382813 0.492187,-0.671875 0.921875,-0.859375 z m 0,0"
                 id="path58"
                 style="fill:#ffe548;fill-opacity:1" />
            </g>
          </g>
        </g>
        <g
           fill="#000000"
           fill-opacity="1"
           id="g64"
           style="fill:#ffe548;fill-opacity:1">
          <g
             transform="translate(37.685551,15.909674)"
             id="g63"
             style="fill:#ffe548;fill-opacity:1">
            <g
               id="g62"
               style="fill:#ffe548;fill-opacity:1">
              <path
                 d="M 2.421875,0 V -7.390625 C 2.441406,-7.429688 2.460938,-7.46875 2.484375,-7.5 c 0.03125,-0.039062 0.0625,-0.078125 0.09375,-0.109375 0.050781,-0.0625 0.109375,-0.113281 0.171875,-0.15625 0.0625,-0.039063 0.140625,-0.0625 0.234375,-0.0625 0.101563,0 0.195313,0.023437 0.28125,0.0625 0.082031,0.042969 0.125,0.15625 0.125,0.34375 V 0 H 5.125 v -7.671875 c 0,-0.195313 -0.027344,-0.40625 -0.078125,-0.625 -0.054687,-0.21875 -0.132813,-0.414063 -0.234375,-0.59375 -0.105469,-0.175781 -0.242188,-0.320313 -0.40625,-0.4375 -0.15625,-0.125 -0.351562,-0.1875 -0.578125,-0.1875 -0.15625,0 -0.308594,0.042969 -0.453125,0.125 -0.148438,0.085937 -0.289062,0.1875 -0.421875,0.3125 -0.125,0.117187 -0.234375,0.214844 -0.328125,0.296875 -0.117188,0.117188 -0.183594,0.179688 -0.203125,0.1875 V -9.375 H 0.6875 V 0 Z m 0,0"
                 id="path61"
                 style="fill:#ffe548;fill-opacity:1" />
            </g>
          </g>
        </g>
        <g
           fill="#000000"
           fill-opacity="1"
           id="g67"
           style="fill:#ffe548;fill-opacity:1">
          <g
             transform="translate(43.459988,15.909674)"
             id="g66"
             style="fill:#ffe548;fill-opacity:1">
            <g
               id="g65"
               style="fill:#ffe548;fill-opacity:1" />
          </g>
        </g>
        <g
           fill="#000000"
           fill-opacity="1"
           id="g70"
           style="fill:#ffe548;fill-opacity:1">
          <g
             transform="translate(46.098748,15.909674)"
             id="g69"
             style="fill:#ffe548;fill-opacity:1">
            <g
               id="g68"
               style="fill:#ffe548;fill-opacity:1">
              <path
                 d="m 4,0 h 1.84375 l -1.1875,-6.109375 c 0.351562,-0.238281 0.613281,-0.613281 0.78125,-1.125 0.164062,-0.519531 0.25,-1.097656 0.25,-1.734375 0,-1.1875 -0.25,-2.085938 -0.75,-2.703125 C 4.445312,-12.285156 3.644531,-12.59375 2.53125,-12.59375 H 0.6875 V 0 h 1.84375 v -5.3125 h 0.5 z M 2.53125,-7.03125 v -3.734375 c 0.125,0 0.265625,0.01172 0.421875,0.03125 0.164063,0.02344 0.316406,0.101563 0.453125,0.234375 0.132812,0.117188 0.25,0.304688 0.34375,0.5625 0.101562,0.25 0.15625,0.601562 0.15625,1.046875 0,0.4375 -0.054688,0.78125 -0.15625,1.03125 -0.09375,0.25 -0.210938,0.4375 -0.34375,0.5625 -0.136719,0.117187 -0.289062,0.1875 -0.453125,0.21875 -0.15625,0.03125 -0.296875,0.046875 -0.421875,0.046875 z m 0,0"
                 id="path67"
                 style="fill:#ffe548;fill-opacity:1" />
            </g>
          </g>
        </g>
        <g
           fill="#000000"
           fill-opacity="1"
           id="g73"
           style="fill:#ffe548;fill-opacity:1">
          <g
             transform="translate(52.284416,15.909674)"
             id="g72"
             style="fill:#ffe548;fill-opacity:1">
            <g
               id="g71"
               style="fill:#ffe548;fill-opacity:1">
              <path
                 d="M 5.015625,-3.359375 H 3.40625 v 1.03125 c 0,0.1875 -0.023438,0.351563 -0.0625,0.484375 -0.03125,0.125 -0.09375,0.234375 -0.1875,0.328125 -0.085938,0.085937 -0.203125,0.125 -0.359375,0.125 C 2.648438,-1.390625 2.53125,-1.4375 2.4375,-1.53125 2.257812,-1.726562 2.164062,-1.992188 2.15625,-2.328125 V -4.375 H 5.015625 V -7.09375 C 5.003906,-7.320312 4.976562,-7.53125 4.9375,-7.71875 4.894531,-7.914062 4.832031,-8.109375 4.75,-8.296875 4.613281,-8.585938 4.394531,-8.863281 4.09375,-9.125 3.789062,-9.382812 3.359375,-9.515625 2.796875,-9.515625 c -0.574219,0 -1,0.125 -1.28125,0.375 -0.605469,0.492187 -0.929687,1.1875 -0.96875,2.09375 v 4.71875 c 0.007813,0.230469 0.035156,0.449219 0.078125,0.65625 0.050781,0.199219 0.117188,0.390625 0.203125,0.578125 0.132813,0.304688 0.351563,0.585938 0.65625,0.84375 0.300781,0.2578125 0.734375,0.390625 1.296875,0.390625 0.570312,0 1.003906,-0.125 1.296875,-0.375 0.3125,-0.25 0.539063,-0.535156 0.6875,-0.859375 0.144531,-0.332031 0.226563,-0.726562 0.25,-1.1875 z M 2.15625,-5.71875 v -1.328125 c 0.00781,-0.09375 0.019531,-0.175781 0.03125,-0.25 C 2.207031,-7.378906 2.226562,-7.457031 2.25,-7.53125 2.289062,-7.65625 2.347656,-7.765625 2.421875,-7.859375 2.503906,-7.953125 2.628906,-8 2.796875,-8 c 0.15625,0 0.28125,0.042969 0.375,0.125 0.15625,0.199219 0.234375,0.476562 0.234375,0.828125 v 1.328125 z m 0,0"
                 id="path70"
                 style="fill:#ffe548;fill-opacity:1" />
            </g>
          </g>
        </g>
        <g
           fill="#000000"
           fill-opacity="1"
           id="g76"
           style="fill:#ffe548;fill-opacity:1">
          <g
             transform="translate(57.733289,15.909674)"
             id="g75"
             style="fill:#ffe548;fill-opacity:1">
            <g
               id="g74"
               style="fill:#ffe548;fill-opacity:1">
              <path
                 d="m 3.3125,-6.96875 h 1.609375 c 0,-0.269531 -0.023437,-0.554688 -0.0625,-0.859375 C 4.816406,-8.128906 4.722656,-8.40625 4.578125,-8.65625 4.429688,-8.90625 4.207031,-9.113281 3.90625,-9.28125 3.613281,-9.445312 3.210938,-9.523438 2.703125,-9.515625 2.296875,-9.503906 1.953125,-9.414062 1.671875,-9.25 1.398438,-9.09375 1.1875,-8.894531 1.03125,-8.65625 0.863281,-8.40625 0.75,-8.128906 0.6875,-7.828125 0.625,-7.535156 0.59375,-7.25 0.59375,-6.96875 c 0,0.335938 0.050781,0.636719 0.15625,0.90625 0.101562,0.273438 0.226562,0.523438 0.375,0.75 0.164062,0.230469 0.34375,0.445312 0.53125,0.640625 0.1875,0.1875 0.382812,0.382813 0.59375,0.578125 0.257812,0.261719 0.503906,0.53125 0.734375,0.8125 0.226563,0.28125 0.34375,0.5625 0.34375,0.84375 0,0.28125 -0.039063,0.542969 -0.109375,0.78125 -0.074219,0.242188 -0.242188,0.359375 -0.5,0.359375 -0.179688,0 -0.320312,-0.050781 -0.421875,-0.15625 C 2.191406,-1.554688 2.113281,-1.679688 2.0625,-1.828125 2,-1.972656 1.957031,-2.125 1.9375,-2.28125 1.925781,-2.445312 1.921875,-2.59375 1.921875,-2.71875 H 0.3125 c 0,0.25 0.023438,0.539062 0.078125,0.859375 0.050781,0.324219 0.160156,0.636719 0.328125,0.9375 0.175781,0.28125 0.421875,0.53125 0.734375,0.75 0.320313,0.2070312 0.742187,0.3125 1.265625,0.3125 0.414062,0 0.765625,-0.078125 1.046875,-0.234375 0.28125,-0.164062 0.507813,-0.375 0.6875,-0.625 0.175781,-0.238281 0.300781,-0.507812 0.375,-0.8125 C 4.898438,-1.832031 4.9375,-2.132812 4.9375,-2.4375 4.9375,-2.738281 4.882812,-3.023438 4.78125,-3.296875 4.6875,-3.566406 4.566406,-3.820312 4.421875,-4.0625 4.273438,-4.289062 4.101562,-4.503906 3.90625,-4.703125 3.707031,-4.910156 3.519531,-5.109375 3.34375,-5.296875 3.207031,-5.421875 3.070312,-5.550781 2.9375,-5.6875 2.8125,-5.820312 2.695312,-5.960938 2.59375,-6.109375 2.476562,-6.242188 2.382812,-6.382812 2.3125,-6.53125 2.25,-6.675781 2.21875,-6.820312 2.21875,-6.96875 c 0,-0.113281 0.00391,-0.238281 0.015625,-0.375 0.00781,-0.132812 0.035156,-0.253906 0.078125,-0.359375 0.03125,-0.09375 0.082031,-0.175781 0.15625,-0.25 0.070312,-0.082031 0.164062,-0.125 0.28125,-0.125 0.132812,0 0.238281,0.042969 0.3125,0.125 0.070312,0.074219 0.128906,0.15625 0.171875,0.25 0.039063,0.117187 0.0625,0.242187 0.0625,0.375 0.00781,0.125 0.015625,0.246094 0.015625,0.359375 z m 0,0"
                 id="path73"
                 style="fill:#ffe548;fill-opacity:1" />
            </g>
          </g>
        </g>
        <g
           fill="#000000"
           fill-opacity="1"
           id="g79"
           style="fill:#ffe548;fill-opacity:1">
          <g
             transform="translate(63.010808,15.909674)"
             id="g78"
             style="fill:#ffe548;fill-opacity:1">
            <g
               id="g77"
               style="fill:#ffe548;fill-opacity:1">
              <path
                 d="M 5.015625,-3.359375 H 3.40625 v 1.03125 c 0,0.1875 -0.023438,0.351563 -0.0625,0.484375 -0.03125,0.125 -0.09375,0.234375 -0.1875,0.328125 -0.085938,0.085937 -0.203125,0.125 -0.359375,0.125 C 2.648438,-1.390625 2.53125,-1.4375 2.4375,-1.53125 2.257812,-1.726562 2.164062,-1.992188 2.15625,-2.328125 V -4.375 H 5.015625 V -7.09375 C 5.003906,-7.320312 4.976562,-7.53125 4.9375,-7.71875 4.894531,-7.914062 4.832031,-8.109375 4.75,-8.296875 4.613281,-8.585938 4.394531,-8.863281 4.09375,-9.125 3.789062,-9.382812 3.359375,-9.515625 2.796875,-9.515625 c -0.574219,0 -1,0.125 -1.28125,0.375 -0.605469,0.492187 -0.929687,1.1875 -0.96875,2.09375 v 4.71875 c 0.007813,0.230469 0.035156,0.449219 0.078125,0.65625 0.050781,0.199219 0.117188,0.390625 0.203125,0.578125 0.132813,0.304688 0.351563,0.585938 0.65625,0.84375 0.300781,0.2578125 0.734375,0.390625 1.296875,0.390625 0.570312,0 1.003906,-0.125 1.296875,-0.375 0.3125,-0.25 0.539063,-0.535156 0.6875,-0.859375 0.144531,-0.332031 0.226563,-0.726562 0.25,-1.1875 z M 2.15625,-5.71875 v -1.328125 c 0.00781,-0.09375 0.019531,-0.175781 0.03125,-0.25 C 2.207031,-7.378906 2.226562,-7.457031 2.25,-7.53125 2.289062,-7.65625 2.347656,-7.765625 2.421875,-7.859375 2.503906,-7.953125 2.628906,-8 2.796875,-8 c 0.15625,0 0.28125,0.042969 0.375,0.125 0.15625,0.199219 0.234375,0.476562 0.234375,0.828125 v 1.328125 z m 0,0"
                 id="path76"
                 style="fill:#ffe548;fill-opacity:1" />
            </g>
          </g>
        </g>
        <g
           fill="#000000"
           fill-opacity="1"
           id="g82"
           style="fill:#ffe548;fill-opacity:1">
          <g
             transform="translate(68.442536,15.909674)"
             id="g81"
             style="fill:#ffe548;fill-opacity:1">
            <g
               id="g80"
               style="fill:#ffe548;fill-opacity:1">
              <path
                 d="M 3.3125,-7.140625 V -6.125 C 3.269531,-6.03125 3.175781,-5.9375 3.03125,-5.84375 2.882812,-5.757812 2.703125,-5.660156 2.484375,-5.546875 2.265625,-5.429688 2.035156,-5.289062 1.796875,-5.125 1.554688,-4.96875 1.332031,-4.753906 1.125,-4.484375 c -0.199219,0.25 -0.371094,0.570313 -0.515625,0.953125 -0.136719,0.375 -0.203125,0.828125 -0.203125,1.359375 0,0.492187 0.050781,0.886719 0.15625,1.1875 0.101562,0.304687 0.226562,0.53125 0.375,0.6875 0.132812,0.179687 0.28125,0.29296875 0.4375,0.34375 0.164062,0.0625 0.304688,0.09375 0.421875,0.09375 0.175781,0 0.34375,-0.03125 0.5,-0.09375 0.15625,-0.0625 0.289063,-0.140625 0.40625,-0.234375 C 2.828125,-0.28125 2.925781,-0.378906 3,-0.484375 3.082031,-0.585938 3.144531,-0.675781 3.1875,-0.75 h 0.125 c 0,0.054688 0.00391,0.167969 0.015625,0.34375 C 3.335938,-0.226562 3.382812,-0.09375 3.46875,0 h 1.6875 C 5.125,-0.207031 5.097656,-0.425781 5.078125,-0.65625 5.054688,-0.882812 5.046875,-1.207031 5.046875,-1.625 v -5.765625 c 0,-0.300781 -0.058594,-0.582031 -0.171875,-0.84375 C 4.757812,-8.503906 4.601562,-8.726562 4.40625,-8.90625 3.976562,-9.3125 3.488281,-9.515625 2.9375,-9.515625 c -0.679688,0 -1.234375,0.246094 -1.671875,0.734375 -0.210937,0.230469 -0.375,0.496094 -0.5,0.796875 -0.117187,0.304687 -0.171875,0.625 -0.171875,0.96875 v 0.40625 h 1.734375 c 0,-0.070313 0,-0.144531 0,-0.21875 0,-0.070313 0,-0.148437 0,-0.234375 0,-0.082031 0,-0.160156 0,-0.234375 C 2.335938,-7.367188 2.347656,-7.4375 2.359375,-7.5 2.390625,-7.644531 2.4375,-7.765625 2.5,-7.859375 2.570312,-7.953125 2.679688,-8 2.828125,-8 3.035156,-8 3.175781,-7.90625 3.25,-7.71875 c 0.03125,0.085938 0.046875,0.183594 0.046875,0.296875 0.00781,0.105469 0.015625,0.199219 0.015625,0.28125 z m 0,2.609375 V -2.125 c 0,0.15625 -0.074219,0.292969 -0.21875,0.40625 -0.148438,0.105469 -0.3125,0.15625 -0.5,0.15625 -0.105469,0 -0.1875,-0.03125 -0.25,-0.09375 C 2.28125,-1.726562 2.226562,-1.816406 2.1875,-1.921875 2.15625,-2.015625 2.132812,-2.109375 2.125,-2.203125 2.113281,-2.296875 2.109375,-2.375 2.109375,-2.4375 c 0,-0.445312 0.09375,-0.859375 0.28125,-1.234375 0.1875,-0.382813 0.492187,-0.671875 0.921875,-0.859375 z m 0,0"
                 id="path79"
                 style="fill:#ffe548;fill-opacity:1" />
            </g>
          </g>
        </g>
        <g
           fill="#000000"
           fill-opacity="1"
           id="g85"
           style="fill:#ffe548;fill-opacity:1">
          <g
             transform="translate(73.92566,15.909674)"
             id="g84"
             style="fill:#ffe548;fill-opacity:1">
            <g
               id="g83"
               style="fill:#ffe548;fill-opacity:1">
              <path
                 d="m 4.140625,-7.59375 v -1.921875 c -0.3125,0 -0.578125,0.054687 -0.796875,0.15625 -0.210938,0.105469 -0.382812,0.21875 -0.515625,0.34375 -0.136719,0.136719 -0.234375,0.273437 -0.296875,0.40625 -0.0625,0.125 -0.101562,0.21875 -0.109375,0.28125 V -9.375 H 0.6875 V 0 h 1.734375 v -6.515625 c 0,-0.144531 0.019531,-0.289063 0.0625,-0.4375 0.039063,-0.144531 0.144531,-0.285156 0.3125,-0.421875 0.132813,-0.125 0.28125,-0.203125 0.4375,-0.234375 0.15625,-0.03125 0.300781,-0.046875 0.4375,-0.046875 0.070313,0 0.148437,0.00781 0.234375,0.015625 0.082031,0.011719 0.160156,0.027344 0.234375,0.046875 z m 0,0"
                 id="path82"
                 style="fill:#ffe548;fill-opacity:1" />
            </g>
          </g>
        </g>
        <g
           fill="#000000"
           fill-opacity="1"
           id="g88"
           style="fill:#ffe548;fill-opacity:1">
          <g
             transform="translate(78.07228,15.909674)"
             id="g87"
             style="fill:#ffe548;fill-opacity:1">
            <g
               id="g86"
               style="fill:#ffe548;fill-opacity:1">
              <path
                 d="m 2.28125,-2.15625 v -5.0625 c 0,-0.164062 0.019531,-0.332031 0.0625,-0.5 0.050781,-0.164062 0.191406,-0.25 0.421875,-0.25 0.1875,0 0.3125,0.058594 0.375,0.171875 C 3.210938,-7.691406 3.25,-7.5 3.25,-7.21875 v 1.140625 h 1.734375 v -0.75 C 4.984375,-7.347656 4.9375,-7.78125 4.84375,-8.125 4.757812,-8.46875 4.617188,-8.742188 4.421875,-8.953125 4.234375,-9.148438 4,-9.289062 3.71875,-9.375 3.445312,-9.46875 3.128906,-9.515625 2.765625,-9.515625 c -0.3125,0 -0.609375,0.046875 -0.890625,0.140625 -0.273438,0.09375 -0.5,0.25 -0.6875,0.46875 -0.199219,0.210938 -0.355469,0.492188 -0.46875,0.84375 -0.117188,0.355469 -0.171875,0.796875 -0.171875,1.328125 v 4.09375 c 0,0.53125 0.054687,0.976563 0.171875,1.328125 0.113281,0.355469 0.269531,0.636719 0.46875,0.84375 C 1.375,-0.25 1.601562,-0.09375 1.875,0 2.15625,0.09375 2.453125,0.140625 2.765625,0.140625 3.128906,0.140625 3.445312,0.09375 3.71875,0 4,-0.0820312 4.234375,-0.222656 4.421875,-0.421875 4.617188,-0.628906 4.757812,-0.90625 4.84375,-1.25 4.9375,-1.59375 4.984375,-2.023438 4.984375,-2.546875 V -3.46875 H 3.25 v 1.3125 c 0,0.28125 -0.039062,0.480469 -0.109375,0.59375 -0.0625,0.105469 -0.1875,0.15625 -0.375,0.15625 -0.230469,0 -0.371094,-0.082031 -0.421875,-0.25 -0.042969,-0.164062 -0.0625,-0.332031 -0.0625,-0.5 z m 0,0"
                 id="path85"
                 style="fill:#ffe548;fill-opacity:1" />
            </g>
          </g>
        </g>
        <g
           fill="#000000"
           fill-opacity="1"
           id="g91"
           style="fill:#ffe548;fill-opacity:1">
          <g
             transform="translate(83.469756,15.909674)"
             id="g90"
             style="fill:#ffe548;fill-opacity:1">
            <g
               id="g89"
               style="fill:#ffe548;fill-opacity:1">
              <path
                 d="M 2.421875,0 V -7.390625 C 2.441406,-7.429688 2.460938,-7.46875 2.484375,-7.5 c 0.03125,-0.039062 0.0625,-0.078125 0.09375,-0.109375 0.050781,-0.0625 0.109375,-0.113281 0.171875,-0.15625 0.0625,-0.039063 0.140625,-0.0625 0.234375,-0.0625 0.101563,0 0.195313,0.023437 0.28125,0.0625 0.082031,0.042969 0.125,0.15625 0.125,0.34375 V 0 H 5.125 v -7.671875 c 0,-0.195313 -0.027344,-0.40625 -0.078125,-0.625 -0.054687,-0.21875 -0.132813,-0.414063 -0.234375,-0.59375 -0.105469,-0.175781 -0.242188,-0.320313 -0.40625,-0.4375 -0.15625,-0.125 -0.351562,-0.1875 -0.578125,-0.1875 -0.15625,0 -0.308594,0.042969 -0.453125,0.125 -0.148438,0.085937 -0.289062,0.1875 -0.421875,0.3125 -0.125,0.117187 -0.234375,0.214844 -0.328125,0.296875 -0.117188,0.117188 -0.183594,0.179688 -0.203125,0.1875 v -4 H 0.6875 V 0 Z m 0,0"
                 id="path88"
                 style="fill:#ffe548;fill-opacity:1" />
            </g>
          </g>
        </g>
        <g
           fill="#000000"
           fill-opacity="1"
           id="g94"
           style="fill:#ffe548;fill-opacity:1">
          <g
             transform="translate(89.244193,15.909674)"
             id="g93"
             style="fill:#ffe548;fill-opacity:1">
            <g
               id="g92"
               style="fill:#ffe548;fill-opacity:1">
              <path
                 d="M 5.015625,-3.359375 H 3.40625 v 1.03125 c 0,0.1875 -0.023438,0.351563 -0.0625,0.484375 -0.03125,0.125 -0.09375,0.234375 -0.1875,0.328125 -0.085938,0.085937 -0.203125,0.125 -0.359375,0.125 C 2.648438,-1.390625 2.53125,-1.4375 2.4375,-1.53125 2.257812,-1.726562 2.164062,-1.992188 2.15625,-2.328125 V -4.375 H 5.015625 V -7.09375 C 5.003906,-7.320312 4.976562,-7.53125 4.9375,-7.71875 4.894531,-7.914062 4.832031,-8.109375 4.75,-8.296875 4.613281,-8.585938 4.394531,-8.863281 4.09375,-9.125 3.789062,-9.382812 3.359375,-9.515625 2.796875,-9.515625 c -0.574219,0 -1,0.125 -1.28125,0.375 -0.605469,0.492187 -0.929687,1.1875 -0.96875,2.09375 v 4.71875 c 0.007813,0.230469 0.035156,0.449219 0.078125,0.65625 0.050781,0.199219 0.117188,0.390625 0.203125,0.578125 0.132813,0.304688 0.351563,0.585938 0.65625,0.84375 0.300781,0.2578125 0.734375,0.390625 1.296875,0.390625 0.570312,0 1.003906,-0.125 1.296875,-0.375 0.3125,-0.25 0.539063,-0.535156 0.6875,-0.859375 0.144531,-0.332031 0.226563,-0.726562 0.25,-1.1875 z M 2.15625,-5.71875 v -1.328125 c 0.00781,-0.09375 0.019531,-0.175781 0.03125,-0.25 C 2.207031,-7.378906 2.226562,-7.457031 2.25,-7.53125 2.289062,-7.65625 2.347656,-7.765625 2.421875,-7.859375 2.503906,-7.953125 2.628906,-8 2.796875,-8 c 0.15625,0 0.28125,0.042969 0.375,0.125 0.15625,0.199219 0.234375,0.476562 0.234375,0.828125 v 1.328125 z m 0,0"
                 id="path91"
                 style="fill:#ffe548;fill-opacity:1" />
            </g>
          </g>
        </g>
        <g
           fill="#000000"
           fill-opacity="1"
           id="g97"
           style="fill:#ffe548;fill-opacity:1">
          <g
             transform="translate(94.727337,15.909674)"
             id="g96"
             style="fill:#ffe548;fill-opacity:1">
            <g
               id="g95"
               style="fill:#ffe548;fill-opacity:1">
              <path
                 d="m 4.140625,-7.59375 v -1.921875 c -0.3125,0 -0.578125,0.054687 -0.796875,0.15625 -0.210938,0.105469 -0.382812,0.21875 -0.515625,0.34375 -0.136719,0.136719 -0.234375,0.273437 -0.296875,0.40625 -0.0625,0.125 -0.101562,0.21875 -0.109375,0.28125 V -9.375 H 0.6875 V 0 h 1.734375 v -6.515625 c 0,-0.144531 0.019531,-0.289063 0.0625,-0.4375 0.039063,-0.144531 0.144531,-0.285156 0.3125,-0.421875 0.132813,-0.125 0.28125,-0.203125 0.4375,-0.234375 0.15625,-0.03125 0.300781,-0.046875 0.4375,-0.046875 0.070313,0 0.148437,0.00781 0.234375,0.015625 0.082031,0.011719 0.160156,0.027344 0.234375,0.046875 z m 0,0"
                 id="path94"
                 style="fill:#ffe548;fill-opacity:1" />
            </g>
          </g>
        </g>
        <g
           fill="#000000"
           fill-opacity="1"
           id="g100"
           style="fill:#ffe548;fill-opacity:1">
          <g
             transform="translate(98.856811,15.909674)"
             id="g99"
             style="fill:#ffe548;fill-opacity:1">
            <g
               id="g98"
               style="fill:#ffe548;fill-opacity:1">
              <path
                 d="m 3.3125,-6.96875 h 1.609375 c 0,-0.269531 -0.023437,-0.554688 -0.0625,-0.859375 C 4.816406,-8.128906 4.722656,-8.40625 4.578125,-8.65625 4.429688,-8.90625 4.207031,-9.113281 3.90625,-9.28125 3.613281,-9.445312 3.210938,-9.523438 2.703125,-9.515625 2.296875,-9.503906 1.953125,-9.414062 1.671875,-9.25 1.398438,-9.09375 1.1875,-8.894531 1.03125,-8.65625 0.863281,-8.40625 0.75,-8.128906 0.6875,-7.828125 0.625,-7.535156 0.59375,-7.25 0.59375,-6.96875 c 0,0.335938 0.050781,0.636719 0.15625,0.90625 0.101562,0.273438 0.226562,0.523438 0.375,0.75 0.164062,0.230469 0.34375,0.445312 0.53125,0.640625 0.1875,0.1875 0.382812,0.382813 0.59375,0.578125 0.257812,0.261719 0.503906,0.53125 0.734375,0.8125 0.226563,0.28125 0.34375,0.5625 0.34375,0.84375 0,0.28125 -0.039063,0.542969 -0.109375,0.78125 -0.074219,0.242188 -0.242188,0.359375 -0.5,0.359375 -0.179688,0 -0.320312,-0.050781 -0.421875,-0.15625 C 2.191406,-1.554688 2.113281,-1.679688 2.0625,-1.828125 2,-1.972656 1.957031,-2.125 1.9375,-2.28125 1.925781,-2.445312 1.921875,-2.59375 1.921875,-2.71875 H 0.3125 c 0,0.25 0.023438,0.539062 0.078125,0.859375 0.050781,0.324219 0.160156,0.636719 0.328125,0.9375 0.175781,0.28125 0.421875,0.53125 0.734375,0.75 0.320313,0.2070312 0.742187,0.3125 1.265625,0.3125 0.414062,0 0.765625,-0.078125 1.046875,-0.234375 0.28125,-0.164062 0.507813,-0.375 0.6875,-0.625 0.175781,-0.238281 0.300781,-0.507812 0.375,-0.8125 C 4.898438,-1.832031 4.9375,-2.132812 4.9375,-2.4375 4.9375,-2.738281 4.882812,-3.023438 4.78125,-3.296875 4.6875,-3.566406 4.566406,-3.820312 4.421875,-4.0625 4.273438,-4.289062 4.101562,-4.503906 3.90625,-4.703125 3.707031,-4.910156 3.519531,-5.109375 3.34375,-5.296875 3.207031,-5.421875 3.070312,-5.550781 2.9375,-5.6875 2.8125,-5.820312 2.695312,-5.960938 2.59375,-6.109375 2.476562,-6.242188 2.382812,-6.382812 2.3125,-6.53125 2.25,-6.675781 2.21875,-6.820312 2.21875,-6.96875 c 0,-0.113281 0.00391,-0.238281 0.015625,-0.375 0.00781,-0.132812 0.035156,-0.253906 0.078125,-0.359375 0.03125,-0.09375 0.082031,-0.175781 0.15625,-0.25 0.070312,-0.082031 0.164062,-0.125 0.28125,-0.125 0.132812,0 0.238281,0.042969 0.3125,0.125 0.070312,0.074219 0.128906,0.15625 0.171875,0.25 0.039063,0.117187 0.0625,0.242187 0.0625,0.375 0.00781,0.125 0.015625,0.246094 0.015625,0.359375 z m 0,0"
                 id="path97"
                 style="fill:#ffe548;fill-opacity:1" />
            </g>
          </g>
        </g>
        <g
           fill="#000000"
           fill-opacity="1"
           id="g103"
           style="fill:#ffe548;fill-opacity:1">
          <g
             transform="translate(104.13433,15.909674)"
             id="g102"
             style="fill:#ffe548;fill-opacity:1">
            <g
               id="g101"
               style="fill:#ffe548;fill-opacity:1">
              <path
                 d="M 2.171875,-10.703125 V -12.59375 H 0.375 v 1.890625 H 0.984375 L 0.375,-8.46875 h 0.859375 z m 0,0"
                 id="path100"
                 style="fill:#ffe548;fill-opacity:1" />
            </g>
          </g>
        </g>
        <g
           fill="#000000"
           fill-opacity="1"
           id="g106"
           style="fill:#ffe548;fill-opacity:1">
          <g
             transform="translate(106.72169,15.909674)"
             id="g105"
             style="fill:#ffe548;fill-opacity:1">
            <g
               id="g104"
               style="fill:#ffe548;fill-opacity:1" />
          </g>
        </g>
        <g
           fill="#000000"
           fill-opacity="1"
           id="g109"
           style="fill:#ffe548;fill-opacity:1">
          <g
             transform="translate(109.36045,15.909674)"
             id="g108"
             style="fill:#ffe548;fill-opacity:1">
            <g
               id="g107"
               style="fill:#ffe548;fill-opacity:1">
              <path
                 d="M 2.640625,-6.5625 4.4375,0 h 1.640625 v -12.59375 h -1.6875 v 7.140625 H 4.28125 L 4.125,-6.03125 2.328125,-12.59375 H 0.6875 V 0 H 2.375 v -7.140625 h 0.109375 z m 0,0"
                 id="path106"
                 style="fill:#ffe548;fill-opacity:1" />
            </g>
          </g>
        </g>
        <g
           fill="#000000"
           fill-opacity="1"
           id="g112"
           style="fill:#ffe548;fill-opacity:1">
          <g
             transform="translate(116.12871,15.909674)"
             id="g111"
             style="fill:#ffe548;fill-opacity:1">
            <g
               id="g110"
               style="fill:#ffe548;fill-opacity:1">
              <path
                 d="m 0.6875,-12.59375 v 1.734375 H 2.421875 V -12.59375 Z M 0.6875,0 H 2.421875 V -9.375 H 0.6875 Z m 0,0"
                 id="path109"
                 style="fill:#ffe548;fill-opacity:1" />
            </g>
          </g>
        </g>
        <g
           fill="#000000"
           fill-opacity="1"
           id="g115"
           style="fill:#ffe548;fill-opacity:1">
          <g
             transform="translate(119.23011,15.909674)"
             id="g114"
             style="fill:#ffe548;fill-opacity:1">
            <g
               id="g113"
               style="fill:#ffe548;fill-opacity:1">
              <path
                 d="M 4.921875,-4.53125 V -7.1875 c 0,-0.019531 0,-0.046875 0,-0.078125 0,-0.03125 -0.00781,-0.0625 -0.015625,-0.09375 -0.011719,-0.03125 -0.015625,-0.09375 -0.015625,-0.1875 -0.011719,-0.019531 -0.023437,-0.050781 -0.03125,-0.09375 -0.011719,-0.039063 -0.023437,-0.082031 -0.03125,-0.125 0.101563,-0.050781 0.238281,-0.097656 0.40625,-0.140625 0.175781,-0.039062 0.378906,-0.0625 0.609375,-0.0625 v -1.546875 c -0.136719,0 -0.277344,0.039063 -0.421875,0.109375 -0.148437,0.0625 -0.28125,0.140625 -0.40625,0.234375 C 4.878906,-9.078125 4.757812,-8.976562 4.65625,-8.875 4.5625,-8.78125 4.484375,-8.707031 4.421875,-8.65625 4.265625,-8.882812 4.046875,-9.082031 3.765625,-9.25 3.484375,-9.425781 3.125,-9.515625 2.6875,-9.515625 c -0.542969,0 -0.960938,0.125 -1.25,0.375 -0.292969,0.25 -0.515625,0.542969 -0.671875,0.875 C 0.617188,-7.941406 0.53125,-7.5625 0.5,-7.125 v 2.546875 c 0.007812,0.125 0.023438,0.257813 0.046875,0.390625 0.019531,0.125 0.050781,0.25 0.09375,0.375 0.050781,0.21875 0.140625,0.449219 0.265625,0.6875 0.132812,0.230469 0.328125,0.429688 0.578125,0.59375 C 1.210938,-2.382812 0.972656,-2.1875 0.765625,-1.9375 0.660156,-1.8125 0.570312,-1.679688 0.5,-1.546875 0.4375,-1.410156 0.40625,-1.269531 0.40625,-1.125 c 0,0.367188 0.101562,0.648438 0.3125,0.84375 0.207031,0.1875 0.453125,0.3203125 0.734375,0.40625 -0.15625,0.070312 -0.320313,0.15625 -0.484375,0.25 -0.167969,0.09375 -0.3125,0.203125 -0.4375,0.328125 -0.125,0.113281 -0.230469,0.238281 -0.3125,0.375 -0.074219,0.144531 -0.109375,0.300781 -0.109375,0.46875 0,0.34375 0.0625,0.628906 0.1875,0.859375 C 0.429688,2.632812 0.625,2.816406 0.875,2.953125 1.113281,3.085938 1.40625,3.1875 1.75,3.25 c 0.34375,0.0625 0.71875,0.097656 1.125,0.109375 0.351562,0 0.707031,-0.042969 1.0625,-0.125 C 4.289062,3.160156 4.613281,3.03125 4.90625,2.84375 5.175781,2.664062 5.398438,2.421875 5.578125,2.109375 5.753906,1.796875 5.84375,1.410156 5.84375,0.953125 c 0,-0.40625 -0.074219,-0.742187 -0.21875,-1 C 5.476562,-0.316406 5.289062,-0.53125 5.0625,-0.6875 4.820312,-0.84375 4.5625,-0.960938 4.28125,-1.046875 4,-1.128906 3.71875,-1.1875 3.4375,-1.21875 3.28125,-1.238281 3.125,-1.265625 2.96875,-1.296875 2.820312,-1.328125 2.679688,-1.363281 2.546875,-1.40625 2.265625,-1.488281 2.125,-1.617188 2.125,-1.796875 c 0,-0.144531 0.078125,-0.289063 0.234375,-0.4375 0.03125,0.011719 0.0625,0.015625 0.09375,0.015625 0.03125,0 0.054687,0 0.078125,0 0.03125,0 0.054688,0 0.078125,0 0.03125,0 0.054687,0 0.078125,0 0.539062,0 0.960938,-0.117188 1.265625,-0.359375 0.59375,-0.445313 0.914063,-1.097656 0.96875,-1.953125 z M 3.21875,-7.0625 v 2.578125 c 0,0.15625 -0.015625,0.296875 -0.046875,0.421875 -0.03125,0.105469 -0.085937,0.199219 -0.15625,0.28125 -0.074219,0.085938 -0.183594,0.125 -0.328125,0.125 -0.136719,0 -0.242188,-0.039062 -0.3125,-0.125 C 2.238281,-3.945312 2.175781,-4.179688 2.1875,-4.484375 V -7.0625 C 2.175781,-7.207031 2.191406,-7.347656 2.234375,-7.484375 2.253906,-7.585938 2.300781,-7.6875 2.375,-7.78125 2.445312,-7.875 2.550781,-7.921875 2.6875,-7.921875 c 0.144531,0 0.253906,0.046875 0.328125,0.140625 0.132813,0.1875 0.203125,0.429688 0.203125,0.71875 z M 2.421875,0.421875 3.3125,0.59375 c 0.21875,0.039062 0.382812,0.082031 0.5,0.125 0.125,0.039062 0.21875,0.09375 0.28125,0.15625 0.0625,0.050781 0.097656,0.109375 0.109375,0.171875 0.019531,0.0625 0.03125,0.132813 0.03125,0.21875 0,0.113281 -0.042969,0.207031 -0.125,0.28125 C 4.023438,1.617188 3.914062,1.6875 3.78125,1.75 c -0.25,0.101562 -0.542969,0.15625 -0.875,0.15625 -0.398438,0 -0.683594,-0.0625 -0.859375,-0.1875 C 1.867188,1.59375 1.78125,1.4375 1.78125,1.25 c 0,-0.179688 0.054688,-0.335938 0.171875,-0.46875 0.125,-0.136719 0.28125,-0.257812 0.46875,-0.359375 z m 0,0"
                 id="path112"
                 style="fill:#ffe548;fill-opacity:1" />
            </g>
          </g>
        </g>
        <g
           fill="#000000"
           fill-opacity="1"
           id="g118"
           style="fill:#ffe548;fill-opacity:1">
          <g
             transform="translate(125.09022,15.909674)"
             id="g117"
             style="fill:#ffe548;fill-opacity:1">
            <g
               id="g116"
               style="fill:#ffe548;fill-opacity:1">
              <path
                 d="M 2.421875,0 V -7.390625 C 2.441406,-7.429688 2.460938,-7.46875 2.484375,-7.5 c 0.03125,-0.039062 0.0625,-0.078125 0.09375,-0.109375 0.050781,-0.0625 0.109375,-0.113281 0.171875,-0.15625 0.0625,-0.039063 0.140625,-0.0625 0.234375,-0.0625 0.101563,0 0.195313,0.023437 0.28125,0.0625 0.082031,0.042969 0.125,0.15625 0.125,0.34375 V 0 H 5.125 v -7.671875 c 0,-0.195313 -0.027344,-0.40625 -0.078125,-0.625 -0.054687,-0.21875 -0.132813,-0.414063 -0.234375,-0.59375 -0.105469,-0.175781 -0.242188,-0.320313 -0.40625,-0.4375 -0.15625,-0.125 -0.351562,-0.1875 -0.578125,-0.1875 -0.15625,0 -0.308594,0.042969 -0.453125,0.125 -0.148438,0.085937 -0.289062,0.1875 -0.421875,0.3125 -0.125,0.117187 -0.234375,0.214844 -0.328125,0.296875 -0.117188,0.117188 -0.183594,0.179688 -0.203125,0.1875 v -4 H 0.6875 V 0 Z m 0,0"
                 id="path115"
                 style="fill:#ffe548;fill-opacity:1" />
            </g>
          </g>
        </g>
        <g
           fill="#000000"
           fill-opacity="1"
           id="g121"
           style="fill:#ffe548;fill-opacity:1">
          <g
             transform="translate(130.76182,15.909674)"
             id="g120"
             style="fill:#ffe548;fill-opacity:1">
            <g
               id="g119"
               style="fill:#ffe548;fill-opacity:1">
              <path
                 d="M 2.78125,-11.6875 H 1.046875 v 2.3125 h -0.875 v 1.5625 h 0.875 v 4.796875 c 0,0.273437 0.00781,0.589844 0.03125,0.953125 0.03125,0.355469 0.101563,0.699219 0.21875,1.03125 0.125,0.324219 0.316406,0.601562 0.578125,0.828125 0.269531,0.2265625 0.65625,0.34375 1.15625,0.34375 0.269531,0 0.492188,-0.023437 0.671875,-0.0625 0.039063,-0.0117188 0.082031,-0.0234375 0.125,-0.03125 0.039063,-0.0117188 0.082031,-0.0234375 0.125,-0.03125 V -1.6875 c -0.03125,0.023438 -0.0625,0.03125 -0.09375,0.03125 -0.03125,0 -0.070313,0.00781 -0.109375,0.015625 -0.054688,0.011719 -0.121094,0.023437 -0.203125,0.03125 -0.085937,0 -0.15625,0 -0.21875,0 C 3.191406,-1.609375 3.082031,-1.664062 3,-1.78125 2.925781,-1.894531 2.875,-2.023438 2.84375,-2.171875 c -0.03125,-0.164063 -0.054688,-0.332031 -0.0625,-0.5 0,-0.175781 0,-0.335937 0,-0.484375 V -7.8125 H 3.953125 V -9.375 H 2.78125 Z m 0,0"
                 id="path118"
                 style="fill:#ffe548;fill-opacity:1" />
            </g>
          </g>
        </g>
        <g
           fill="#000000"
           fill-opacity="1"
           id="g124"
           style="fill:#ffe548;fill-opacity:1">
          <g
             transform="translate(0.383085,39.050814)"
             id="g123"
             style="fill:#ffe548;fill-opacity:1">
            <g
               id="g122"
               style="fill:#ffe548;fill-opacity:1">
              <path
                 d="M 0.6875,-12.59375 V 0 H 4.921875 V -1.90625 H 2.53125 V -5.359375 H 4.25 v -2.03125 H 2.53125 v -3.3125 h 2.390625 v -1.890625 z m 0,0"
                 id="path121"
                 style="fill:#ffe548;fill-opacity:1" />
            </g>
          </g>
        </g>
        <g
           fill="#000000"
           fill-opacity="1"
           id="g127"
           style="fill:#ffe548;fill-opacity:1">
          <g
             transform="translate(5.643478,39.050814)"
             id="g126"
             style="fill:#ffe548;fill-opacity:1">
            <g
               id="g125"
               style="fill:#ffe548;fill-opacity:1">
              <path
                 d="m 3.3125,-6.96875 h 1.609375 c 0,-0.269531 -0.023437,-0.554688 -0.0625,-0.859375 C 4.816406,-8.128906 4.722656,-8.40625 4.578125,-8.65625 4.429688,-8.90625 4.207031,-9.113281 3.90625,-9.28125 3.613281,-9.445312 3.210938,-9.523438 2.703125,-9.515625 2.296875,-9.503906 1.953125,-9.414062 1.671875,-9.25 1.398438,-9.09375 1.1875,-8.894531 1.03125,-8.65625 0.863281,-8.40625 0.75,-8.128906 0.6875,-7.828125 0.625,-7.535156 0.59375,-7.25 0.59375,-6.96875 c 0,0.335938 0.050781,0.636719 0.15625,0.90625 0.101562,0.273438 0.226562,0.523438 0.375,0.75 0.164062,0.230469 0.34375,0.445312 0.53125,0.640625 0.1875,0.1875 0.382812,0.382813 0.59375,0.578125 0.257812,0.261719 0.503906,0.53125 0.734375,0.8125 0.226563,0.28125 0.34375,0.5625 0.34375,0.84375 0,0.28125 -0.039063,0.542969 -0.109375,0.78125 -0.074219,0.242188 -0.242188,0.359375 -0.5,0.359375 -0.179688,0 -0.320312,-0.050781 -0.421875,-0.15625 C 2.191406,-1.554688 2.113281,-1.679688 2.0625,-1.828125 2,-1.972656 1.957031,-2.125 1.9375,-2.28125 1.925781,-2.445312 1.921875,-2.59375 1.921875,-2.71875 H 0.3125 c 0,0.25 0.023438,0.539062 0.078125,0.859375 0.050781,0.324219 0.160156,0.636719 0.328125,0.9375 0.175781,0.28125 0.421875,0.53125 0.734375,0.75 0.320313,0.2070312 0.742187,0.3125 1.265625,0.3125 0.414062,0 0.765625,-0.078125 1.046875,-0.234375 0.28125,-0.164062 0.507813,-0.375 0.6875,-0.625 0.175781,-0.238281 0.300781,-0.507812 0.375,-0.8125 C 4.898438,-1.832031 4.9375,-2.132812 4.9375,-2.4375 4.9375,-2.738281 4.882812,-3.023438 4.78125,-3.296875 4.6875,-3.566406 4.566406,-3.820312 4.421875,-4.0625 4.273438,-4.289062 4.101562,-4.503906 3.90625,-4.703125 3.707031,-4.910156 3.519531,-5.109375 3.34375,-5.296875 3.207031,-5.421875 3.070312,-5.550781 2.9375,-5.6875 2.8125,-5.820312 2.695312,-5.960938 2.59375,-6.109375 2.476562,-6.242188 2.382812,-6.382812 2.3125,-6.53125 2.25,-6.675781 2.21875,-6.820312 2.21875,-6.96875 c 0,-0.113281 0.00391,-0.238281 0.015625,-0.375 0.00781,-0.132812 0.035156,-0.253906 0.078125,-0.359375 0.03125,-0.09375 0.082031,-0.175781 0.15625,-0.25 0.070312,-0.082031 0.164062,-0.125 0.28125,-0.125 0.132812,0 0.238281,0.042969 0.3125,0.125 0.070312,0.074219 0.128906,0.15625 0.171875,0.25 0.039063,0.117187 0.0625,0.242187 0.0625,0.375 0.00781,0.125 0.015625,0.246094 0.015625,0.359375 z m 0,0"
                 id="path124"
                 style="fill:#ffe548;fill-opacity:1" />
            </g>
          </g>
        </g>
        <g
           fill="#000000"
           fill-opacity="1"
           id="g130"
           style="fill:#ffe548;fill-opacity:1">
          <g
             transform="translate(10.920997,39.050814)"
             id="g129"
             style="fill:#ffe548;fill-opacity:1">
            <g
               id="g128"
               style="fill:#ffe548;fill-opacity:1">
              <path
                 d="m 2.28125,-2.15625 v -5.0625 c 0,-0.164062 0.019531,-0.332031 0.0625,-0.5 0.050781,-0.164062 0.191406,-0.25 0.421875,-0.25 0.1875,0 0.3125,0.058594 0.375,0.171875 C 3.210938,-7.691406 3.25,-7.5 3.25,-7.21875 v 1.140625 h 1.734375 v -0.75 C 4.984375,-7.347656 4.9375,-7.78125 4.84375,-8.125 4.757812,-8.46875 4.617188,-8.742188 4.421875,-8.953125 4.234375,-9.148438 4,-9.289062 3.71875,-9.375 3.445312,-9.46875 3.128906,-9.515625 2.765625,-9.515625 c -0.3125,0 -0.609375,0.046875 -0.890625,0.140625 -0.273438,0.09375 -0.5,0.25 -0.6875,0.46875 -0.199219,0.210938 -0.355469,0.492188 -0.46875,0.84375 -0.117188,0.355469 -0.171875,0.796875 -0.171875,1.328125 v 4.09375 c 0,0.53125 0.054687,0.976563 0.171875,1.328125 0.113281,0.355469 0.269531,0.636719 0.46875,0.84375 C 1.375,-0.25 1.601562,-0.09375 1.875,0 2.15625,0.09375 2.453125,0.140625 2.765625,0.140625 3.128906,0.140625 3.445312,0.09375 3.71875,0 4,-0.0820312 4.234375,-0.222656 4.421875,-0.421875 4.617188,-0.628906 4.757812,-0.90625 4.84375,-1.25 4.9375,-1.59375 4.984375,-2.023438 4.984375,-2.546875 V -3.46875 H 3.25 v 1.3125 c 0,0.28125 -0.039062,0.480469 -0.109375,0.59375 -0.0625,0.105469 -0.1875,0.15625 -0.375,0.15625 -0.230469,0 -0.371094,-0.082031 -0.421875,-0.25 -0.042969,-0.164062 -0.0625,-0.332031 -0.0625,-0.5 z m 0,0"
                 id="path127"
                 style="fill:#ffe548;fill-opacity:1" />
            </g>
          </g>
        </g>
        <g
           fill="#000000"
           fill-opacity="1"
           id="g133"
           style="fill:#ffe548;fill-opacity:1">
          <g
             transform="translate(16.232787,39.050814)"
             id="g132"
             style="fill:#ffe548;fill-opacity:1">
            <g
               id="g131"
               style="fill:#ffe548;fill-opacity:1">
              <path
                 d="M 3.3125,-7.140625 V -6.125 C 3.269531,-6.03125 3.175781,-5.9375 3.03125,-5.84375 2.882812,-5.757812 2.703125,-5.660156 2.484375,-5.546875 2.265625,-5.429688 2.035156,-5.289062 1.796875,-5.125 1.554688,-4.96875 1.332031,-4.753906 1.125,-4.484375 c -0.199219,0.25 -0.371094,0.570313 -0.515625,0.953125 -0.136719,0.375 -0.203125,0.828125 -0.203125,1.359375 0,0.492187 0.050781,0.886719 0.15625,1.1875 0.101562,0.304687 0.226562,0.53125 0.375,0.6875 0.132812,0.179687 0.28125,0.29296875 0.4375,0.34375 0.164062,0.0625 0.304688,0.09375 0.421875,0.09375 0.175781,0 0.34375,-0.03125 0.5,-0.09375 0.15625,-0.0625 0.289063,-0.140625 0.40625,-0.234375 C 2.828125,-0.28125 2.925781,-0.378906 3,-0.484375 3.082031,-0.585938 3.144531,-0.675781 3.1875,-0.75 h 0.125 c 0,0.054688 0.00391,0.167969 0.015625,0.34375 C 3.335938,-0.226562 3.382812,-0.09375 3.46875,0 h 1.6875 C 5.125,-0.207031 5.097656,-0.425781 5.078125,-0.65625 5.054688,-0.882812 5.046875,-1.207031 5.046875,-1.625 v -5.765625 c 0,-0.300781 -0.058594,-0.582031 -0.171875,-0.84375 C 4.757812,-8.503906 4.601562,-8.726562 4.40625,-8.90625 3.976562,-9.3125 3.488281,-9.515625 2.9375,-9.515625 c -0.679688,0 -1.234375,0.246094 -1.671875,0.734375 -0.210937,0.230469 -0.375,0.496094 -0.5,0.796875 -0.117187,0.304687 -0.171875,0.625 -0.171875,0.96875 v 0.40625 h 1.734375 c 0,-0.070313 0,-0.144531 0,-0.21875 0,-0.070313 0,-0.148437 0,-0.234375 0,-0.082031 0,-0.160156 0,-0.234375 C 2.335938,-7.367188 2.347656,-7.4375 2.359375,-7.5 2.390625,-7.644531 2.4375,-7.765625 2.5,-7.859375 2.570312,-7.953125 2.679688,-8 2.828125,-8 3.035156,-8 3.175781,-7.90625 3.25,-7.71875 c 0.03125,0.085938 0.046875,0.183594 0.046875,0.296875 0.00781,0.105469 0.015625,0.199219 0.015625,0.28125 z m 0,2.609375 V -2.125 c 0,0.15625 -0.074219,0.292969 -0.21875,0.40625 -0.148438,0.105469 -0.3125,0.15625 -0.5,0.15625 -0.105469,0 -0.1875,-0.03125 -0.25,-0.09375 C 2.28125,-1.726562 2.226562,-1.816406 2.1875,-1.921875 2.15625,-2.015625 2.132812,-2.109375 2.125,-2.203125 2.113281,-2.296875 2.109375,-2.375 2.109375,-2.4375 c 0,-0.445312 0.09375,-0.859375 0.28125,-1.234375 0.1875,-0.382813 0.492187,-0.671875 0.921875,-0.859375 z m 0,0"
                 id="path130"
                 style="fill:#ffe548;fill-opacity:1" />
            </g>
          </g>
        </g>
        <g
           fill="#000000"
           fill-opacity="1"
           id="g136"
           style="fill:#ffe548;fill-opacity:1">
          <g
             transform="translate(21.715911,39.050814)"
             id="g135"
             style="fill:#ffe548;fill-opacity:1">
            <g
               id="g134"
               style="fill:#ffe548;fill-opacity:1">
              <path
                 d="M 0.6875,-9.375 V 3.21875 h 1.734375 v -3.828125 c 0.070313,0.0625 0.144531,0.125 0.21875,0.1875 0.070313,0.0625 0.144531,0.125 0.21875,0.1875 0.125,0.085937 0.269531,0.1679688 0.4375,0.25 0.164063,0.0820312 0.328125,0.125 0.484375,0.125 0.238281,0 0.441406,-0.0585938 0.609375,-0.171875 C 4.554688,-0.15625 4.695312,-0.3125 4.8125,-0.5 4.914062,-0.664062 4.992188,-0.859375 5.046875,-1.078125 5.097656,-1.296875 5.125,-1.503906 5.125,-1.703125 v -5.96875 c 0,-0.195313 -0.027344,-0.40625 -0.078125,-0.625 -0.054687,-0.21875 -0.132813,-0.414063 -0.234375,-0.59375 -0.117188,-0.175781 -0.257812,-0.320313 -0.421875,-0.4375 -0.167969,-0.125 -0.371094,-0.1875 -0.609375,-0.1875 -0.167969,0 -0.324219,0.042969 -0.46875,0.125 -0.179688,0.085937 -0.335938,0.179687 -0.46875,0.28125 -0.136719,0.09375 -0.277344,0.210937 -0.421875,0.34375 V -9.375 Z m 1.734375,7.3125 v -5.25 c 0,-0.164062 0.050781,-0.300781 0.15625,-0.40625 0.113281,-0.113281 0.234375,-0.171875 0.359375,-0.171875 0.125,0 0.226562,0.058594 0.3125,0.171875 0.09375,0.105469 0.140625,0.242188 0.140625,0.40625 v 5.25 c 0,0.167969 -0.046875,0.308594 -0.140625,0.421875 -0.085938,0.105469 -0.1875,0.15625 -0.3125,0.15625 -0.125,0 -0.246094,-0.054687 -0.359375,-0.171875 -0.105469,-0.125 -0.15625,-0.257812 -0.15625,-0.40625 z m 0,0"
                 id="path133"
                 style="fill:#ffe548;fill-opacity:1" />
            </g>
          </g>
        </g>
        <g
           fill="#000000"
           fill-opacity="1"
           id="g139"
           style="fill:#ffe548;fill-opacity:1">
          <g
             transform="translate(27.456077,39.050814)"
             id="g138"
             style="fill:#ffe548;fill-opacity:1">
            <g
               id="g137"
               style="fill:#ffe548;fill-opacity:1">
              <path
                 d="M 5.015625,-3.359375 H 3.40625 v 1.03125 c 0,0.1875 -0.023438,0.351563 -0.0625,0.484375 -0.03125,0.125 -0.09375,0.234375 -0.1875,0.328125 -0.085938,0.085937 -0.203125,0.125 -0.359375,0.125 C 2.648438,-1.390625 2.53125,-1.4375 2.4375,-1.53125 2.257812,-1.726562 2.164062,-1.992188 2.15625,-2.328125 V -4.375 H 5.015625 V -7.09375 C 5.003906,-7.320312 4.976562,-7.53125 4.9375,-7.71875 4.894531,-7.914062 4.832031,-8.109375 4.75,-8.296875 4.613281,-8.585938 4.394531,-8.863281 4.09375,-9.125 3.789062,-9.382812 3.359375,-9.515625 2.796875,-9.515625 c -0.574219,0 -1,0.125 -1.28125,0.375 -0.605469,0.492187 -0.929687,1.1875 -0.96875,2.09375 v 4.71875 c 0.007813,0.230469 0.035156,0.449219 0.078125,0.65625 0.050781,0.199219 0.117188,0.390625 0.203125,0.578125 0.132813,0.304688 0.351563,0.585938 0.65625,0.84375 0.300781,0.2578125 0.734375,0.390625 1.296875,0.390625 0.570312,0 1.003906,-0.125 1.296875,-0.375 0.3125,-0.25 0.539063,-0.535156 0.6875,-0.859375 0.144531,-0.332031 0.226563,-0.726562 0.25,-1.1875 z M 2.15625,-5.71875 v -1.328125 c 0.00781,-0.09375 0.019531,-0.175781 0.03125,-0.25 C 2.207031,-7.378906 2.226562,-7.457031 2.25,-7.53125 2.289062,-7.65625 2.347656,-7.765625 2.421875,-7.859375 2.503906,-7.953125 2.628906,-8 2.796875,-8 c 0.15625,0 0.28125,0.042969 0.375,0.125 0.15625,0.199219 0.234375,0.476562 0.234375,0.828125 v 1.328125 z m 0,0"
                 id="path136"
                 style="fill:#ffe548;fill-opacity:1" />
            </g>
          </g>
        </g>
        <g
           fill="#000000"
           fill-opacity="1"
           id="g142"
           style="fill:#ffe548;fill-opacity:1">
          <g
             transform="translate(32.973492,39.050814)"
             id="g141"
             style="fill:#ffe548;fill-opacity:1">
            <g
               id="g140"
               style="fill:#ffe548;fill-opacity:1" />
          </g>
        </g>
        <g
           fill="#000000"
           fill-opacity="1"
           id="g145"
           style="fill:#ffe548;fill-opacity:1">
          <g
             transform="translate(35.617077,39.050814)"
             id="g144"
             style="fill:#ffe548;fill-opacity:1">
            <g
               id="g143"
               style="fill:#ffe548;fill-opacity:1">
              <path
                 d="m 3.75,-9.21875 1.828125,-0.171875 c 0,-0.351563 -0.039063,-0.726563 -0.109375,-1.125 -0.0625,-0.394531 -0.183594,-0.765625 -0.359375,-1.109375 -0.1875,-0.332031 -0.449219,-0.601562 -0.78125,-0.8125 -0.335937,-0.207031 -0.78125,-0.304688 -1.34375,-0.296875 -0.4375,0.01172 -0.8125,0.105469 -1.125,0.28125 -0.304687,0.179687 -0.554687,0.402344 -0.75,0.671875 -0.1875,0.292969 -0.328125,0.617188 -0.421875,0.96875 -0.085938,0.34375 -0.125,0.6875 -0.125,1.03125 0,0.34375 0.050781,0.679688 0.15625,1 0.1875,0.65625 0.488281,1.308594 0.90625,1.953125 0.207031,0.324219 0.40625,0.632813 0.59375,0.921875 0.195312,0.28125 0.390625,0.554688 0.578125,0.8125 0.09375,0.125 0.175781,0.25 0.25,0.375 0.070313,0.125 0.148437,0.25 0.234375,0.375 0.132812,0.261719 0.242188,0.511719 0.328125,0.75 0.09375,0.230469 0.140625,0.445312 0.140625,0.640625 0,0.40625 -0.058594,0.742187 -0.171875,1 C 3.460938,-1.691406 3.269531,-1.5625 3,-1.5625 2.800781,-1.5625 2.644531,-1.625 2.53125,-1.75 2.414062,-1.875 2.332031,-2.039062 2.28125,-2.25 2.207031,-2.4375 2.160156,-2.660156 2.140625,-2.921875 2.128906,-3.179688 2.125,-3.441406 2.125,-3.703125 L 0.3125,-3.53125 c 0,0.46875 0.03125,0.921875 0.09375,1.359375 0.0625,0.4375 0.179688,0.828125 0.359375,1.171875 0.195313,0.34375 0.46875,0.621094 0.8125,0.828125 0.351563,0.2070312 0.828125,0.3125 1.421875,0.3125 0.5,0 0.914062,-0.0898438 1.25,-0.265625 0.332031,-0.175781 0.597656,-0.410156 0.796875,-0.703125 0.1875,-0.289063 0.320313,-0.625 0.40625,-1 0.082031,-0.382813 0.125,-0.785156 0.125,-1.203125 0,-0.34375 -0.054687,-0.675781 -0.15625,-1 C 5.316406,-4.363281 5.179688,-4.6875 5.015625,-5 4.859375,-5.320312 4.675781,-5.640625 4.46875,-5.953125 4.269531,-6.273438 4.0625,-6.597656 3.84375,-6.921875 3.65625,-7.179688 3.472656,-7.4375 3.296875,-7.6875 3.128906,-7.945312 2.976562,-8.195312 2.84375,-8.4375 2.707031,-8.675781 2.59375,-8.90625 2.5,-9.125 2.414062,-9.351562 2.375,-9.570312 2.375,-9.78125 c 0,-0.363281 0.046875,-0.660156 0.140625,-0.890625 0.09375,-0.226563 0.257813,-0.347656 0.5,-0.359375 0.144531,0 0.265625,0.05469 0.359375,0.15625 0.101562,0.105469 0.179688,0.246094 0.234375,0.421875 0.0625,0.179687 0.097656,0.375 0.109375,0.59375 C 3.738281,-9.640625 3.75,-9.425781 3.75,-9.21875 Z m 0,0"
                 id="path142"
                 style="fill:#ffe548;fill-opacity:1" />
            </g>
          </g>
        </g>
        <g
           fill="#000000"
           fill-opacity="1"
           id="g148"
           style="fill:#ffe548;fill-opacity:1">
          <g
             transform="translate(41.494327,39.050814)"
             id="g147"
             style="fill:#ffe548;fill-opacity:1">
            <g
               id="g146"
               style="fill:#ffe548;fill-opacity:1">
              <path
                 d="m 2.28125,-2.15625 v -5.0625 c 0,-0.164062 0.019531,-0.332031 0.0625,-0.5 0.050781,-0.164062 0.191406,-0.25 0.421875,-0.25 0.1875,0 0.3125,0.058594 0.375,0.171875 C 3.210938,-7.691406 3.25,-7.5 3.25,-7.21875 v 1.140625 h 1.734375 v -0.75 C 4.984375,-7.347656 4.9375,-7.78125 4.84375,-8.125 4.757812,-8.46875 4.617188,-8.742188 4.421875,-8.953125 4.234375,-9.148438 4,-9.289062 3.71875,-9.375 3.445312,-9.46875 3.128906,-9.515625 2.765625,-9.515625 c -0.3125,0 -0.609375,0.046875 -0.890625,0.140625 -0.273438,0.09375 -0.5,0.25 -0.6875,0.46875 -0.199219,0.210938 -0.355469,0.492188 -0.46875,0.84375 -0.117188,0.355469 -0.171875,0.796875 -0.171875,1.328125 v 4.09375 c 0,0.53125 0.054687,0.976563 0.171875,1.328125 0.113281,0.355469 0.269531,0.636719 0.46875,0.84375 C 1.375,-0.25 1.601562,-0.09375 1.875,0 2.15625,0.09375 2.453125,0.140625 2.765625,0.140625 3.128906,0.140625 3.445312,0.09375 3.71875,0 4,-0.0820312 4.234375,-0.222656 4.421875,-0.421875 4.617188,-0.628906 4.757812,-0.90625 4.84375,-1.25 4.9375,-1.59375 4.984375,-2.023438 4.984375,-2.546875 V -3.46875 H 3.25 v 1.3125 c 0,0.28125 -0.039062,0.480469 -0.109375,0.59375 -0.0625,0.105469 -0.1875,0.15625 -0.375,0.15625 -0.230469,0 -0.371094,-0.082031 -0.421875,-0.25 -0.042969,-0.164062 -0.0625,-0.332031 -0.0625,-0.5 z m 0,0"
                 id="path145"
                 style="fill:#ffe548;fill-opacity:1" />
            </g>
          </g>
        </g>
        <g
           fill="#000000"
           fill-opacity="1"
           id="g151"
           style="fill:#ffe548;fill-opacity:1">
          <g
             transform="translate(46.857533,39.050814)"
             id="g150"
             style="fill:#ffe548;fill-opacity:1">
            <g
               id="g149"
               style="fill:#ffe548;fill-opacity:1">
              <path
                 d="m 0.6875,-12.59375 v 1.734375 H 2.421875 V -12.59375 Z M 0.6875,0 H 2.421875 V -9.375 H 0.6875 Z m 0,0"
                 id="path148"
                 style="fill:#ffe548;fill-opacity:1" />
            </g>
          </g>
        </g>
        <g
           fill="#000000"
           fill-opacity="1"
           id="g154"
           style="fill:#ffe548;fill-opacity:1">
          <g
             transform="translate(49.924668,39.050814)"
             id="g153"
             style="fill:#ffe548;fill-opacity:1">
            <g
               id="g152"
               style="fill:#ffe548;fill-opacity:1">
              <path
                 d="M 5.015625,-3.359375 H 3.40625 v 1.03125 c 0,0.1875 -0.023438,0.351563 -0.0625,0.484375 -0.03125,0.125 -0.09375,0.234375 -0.1875,0.328125 -0.085938,0.085937 -0.203125,0.125 -0.359375,0.125 C 2.648438,-1.390625 2.53125,-1.4375 2.4375,-1.53125 2.257812,-1.726562 2.164062,-1.992188 2.15625,-2.328125 V -4.375 H 5.015625 V -7.09375 C 5.003906,-7.320312 4.976562,-7.53125 4.9375,-7.71875 4.894531,-7.914062 4.832031,-8.109375 4.75,-8.296875 4.613281,-8.585938 4.394531,-8.863281 4.09375,-9.125 3.789062,-9.382812 3.359375,-9.515625 2.796875,-9.515625 c -0.574219,0 -1,0.125 -1.28125,0.375 -0.605469,0.492187 -0.929687,1.1875 -0.96875,2.09375 v 4.71875 c 0.007813,0.230469 0.035156,0.449219 0.078125,0.65625 0.050781,0.199219 0.117188,0.390625 0.203125,0.578125 0.132813,0.304688 0.351563,0.585938 0.65625,0.84375 0.300781,0.2578125 0.734375,0.390625 1.296875,0.390625 0.570312,0 1.003906,-0.125 1.296875,-0.375 0.3125,-0.25 0.539063,-0.535156 0.6875,-0.859375 0.144531,-0.332031 0.226563,-0.726562 0.25,-1.1875 z M 2.15625,-5.71875 v -1.328125 c 0.00781,-0.09375 0.019531,-0.175781 0.03125,-0.25 C 2.207031,-7.378906 2.226562,-7.457031 2.25,-7.53125 2.289062,-7.65625 2.347656,-7.765625 2.421875,-7.859375 2.503906,-7.953125 2.628906,-8 2.796875,-8 c 0.15625,0 0.28125,0.042969 0.375,0.125 0.15625,0.199219 0.234375,0.476562 0.234375,0.828125 v 1.328125 z m 0,0"
                 id="path151"
                 style="fill:#ffe548;fill-opacity:1" />
            </g>
          </g>
        </g>
        <g
           fill="#000000"
           fill-opacity="1"
           id="g157"
           style="fill:#ffe548;fill-opacity:1">
          <g
             transform="translate(55.407813,39.050814)"
             id="g156"
             style="fill:#ffe548;fill-opacity:1">
            <g
               id="g155"
               style="fill:#ffe548;fill-opacity:1">
              <path
                 d="M 2.421875,0 V -7.390625 C 2.441406,-7.429688 2.460938,-7.46875 2.484375,-7.5 c 0.03125,-0.039062 0.0625,-0.078125 0.09375,-0.109375 0.050781,-0.0625 0.109375,-0.113281 0.171875,-0.15625 0.0625,-0.039063 0.140625,-0.0625 0.234375,-0.0625 0.101563,0 0.195313,0.023437 0.28125,0.0625 0.082031,0.042969 0.125,0.15625 0.125,0.34375 V 0 H 5.125 v -7.671875 c 0,-0.195313 -0.027344,-0.40625 -0.078125,-0.625 -0.054687,-0.21875 -0.132813,-0.414063 -0.234375,-0.59375 -0.105469,-0.175781 -0.242188,-0.320313 -0.40625,-0.4375 -0.15625,-0.125 -0.351562,-0.1875 -0.578125,-0.1875 -0.15625,0 -0.308594,0.042969 -0.453125,0.125 -0.148438,0.085937 -0.289062,0.1875 -0.421875,0.3125 -0.125,0.117187 -0.234375,0.214844 -0.328125,0.296875 -0.117188,0.117188 -0.183594,0.179688 -0.203125,0.1875 V -9.375 H 0.6875 V 0 Z m 0,0"
                 id="path154"
                 style="fill:#ffe548;fill-opacity:1" />
            </g>
          </g>
        </g>
        <g
           fill="#000000"
           fill-opacity="1"
           id="g160"
           style="fill:#ffe548;fill-opacity:1">
          <g
             transform="translate(61.182249,39.050814)"
             id="g159"
             style="fill:#ffe548;fill-opacity:1">
            <g
               id="g158"
               style="fill:#ffe548;fill-opacity:1">
              <path
                 d="m 2.28125,-2.15625 v -5.0625 c 0,-0.164062 0.019531,-0.332031 0.0625,-0.5 0.050781,-0.164062 0.191406,-0.25 0.421875,-0.25 0.1875,0 0.3125,0.058594 0.375,0.171875 C 3.210938,-7.691406 3.25,-7.5 3.25,-7.21875 v 1.140625 h 1.734375 v -0.75 C 4.984375,-7.347656 4.9375,-7.78125 4.84375,-8.125 4.757812,-8.46875 4.617188,-8.742188 4.421875,-8.953125 4.234375,-9.148438 4,-9.289062 3.71875,-9.375 3.445312,-9.46875 3.128906,-9.515625 2.765625,-9.515625 c -0.3125,0 -0.609375,0.046875 -0.890625,0.140625 -0.273438,0.09375 -0.5,0.25 -0.6875,0.46875 -0.199219,0.210938 -0.355469,0.492188 -0.46875,0.84375 -0.117188,0.355469 -0.171875,0.796875 -0.171875,1.328125 v 4.09375 c 0,0.53125 0.054687,0.976563 0.171875,1.328125 0.113281,0.355469 0.269531,0.636719 0.46875,0.84375 C 1.375,-0.25 1.601562,-0.09375 1.875,0 2.15625,0.09375 2.453125,0.140625 2.765625,0.140625 3.128906,0.140625 3.445312,0.09375 3.71875,0 4,-0.0820312 4.234375,-0.222656 4.421875,-0.421875 4.617188,-0.628906 4.757812,-0.90625 4.84375,-1.25 4.9375,-1.59375 4.984375,-2.023438 4.984375,-2.546875 V -3.46875 H 3.25 v 1.3125 c 0,0.28125 -0.039062,0.480469 -0.109375,0.59375 -0.0625,0.105469 -0.1875,0.15625 -0.375,0.15625 -0.230469,0 -0.371094,-0.082031 -0.421875,-0.25 -0.042969,-0.164062 -0.0625,-0.332031 -0.0625,-0.5 z m 0,0"
                 id="path157"
                 style="fill:#ffe548;fill-opacity:1" />
            </g>
          </g>
        </g>
        <g
           fill="#000000"
           fill-opacity="1"
           id="g163"
           style="fill:#ffe548;fill-opacity:1">
          <g
             transform="translate(66.579726,39.050814)"
             id="g162"
             style="fill:#ffe548;fill-opacity:1">
            <g
               id="g161"
               style="fill:#ffe548;fill-opacity:1">
              <path
                 d="M 5.015625,-3.359375 H 3.40625 v 1.03125 c 0,0.1875 -0.023438,0.351563 -0.0625,0.484375 -0.03125,0.125 -0.09375,0.234375 -0.1875,0.328125 -0.085938,0.085937 -0.203125,0.125 -0.359375,0.125 C 2.648438,-1.390625 2.53125,-1.4375 2.4375,-1.53125 2.257812,-1.726562 2.164062,-1.992188 2.15625,-2.328125 V -4.375 H 5.015625 V -7.09375 C 5.003906,-7.320312 4.976562,-7.53125 4.9375,-7.71875 4.894531,-7.914062 4.832031,-8.109375 4.75,-8.296875 4.613281,-8.585938 4.394531,-8.863281 4.09375,-9.125 3.789062,-9.382812 3.359375,-9.515625 2.796875,-9.515625 c -0.574219,0 -1,0.125 -1.28125,0.375 -0.605469,0.492187 -0.929687,1.1875 -0.96875,2.09375 v 4.71875 c 0.007813,0.230469 0.035156,0.449219 0.078125,0.65625 0.050781,0.199219 0.117188,0.390625 0.203125,0.578125 0.132813,0.304688 0.351563,0.585938 0.65625,0.84375 0.300781,0.2578125 0.734375,0.390625 1.296875,0.390625 0.570312,0 1.003906,-0.125 1.296875,-0.375 0.3125,-0.25 0.539063,-0.535156 0.6875,-0.859375 0.144531,-0.332031 0.226563,-0.726562 0.25,-1.1875 z M 2.15625,-5.71875 v -1.328125 c 0.00781,-0.09375 0.019531,-0.175781 0.03125,-0.25 C 2.207031,-7.378906 2.226562,-7.457031 2.25,-7.53125 2.289062,-7.65625 2.347656,-7.765625 2.421875,-7.859375 2.503906,-7.953125 2.628906,-8 2.796875,-8 c 0.15625,0 0.28125,0.042969 0.375,0.125 0.15625,0.199219 0.234375,0.476562 0.234375,0.828125 v 1.328125 z m 0,0"
                 id="path160"
                 style="fill:#ffe548;fill-opacity:1" />
            </g>
          </g>
        </g>
        <g
           fill="#000000"
           fill-opacity="1"
           id="g166"
           style="fill:#ffe548;fill-opacity:1">
          <g
             transform="translate(72.097141,39.050814)"
             id="g165"
             style="fill:#ffe548;fill-opacity:1">
            <g
               id="g164"
               style="fill:#ffe548;fill-opacity:1" />
          </g>
        </g>
        <g
           fill="#000000"
           fill-opacity="1"
           id="g169"
           style="fill:#ffe548;fill-opacity:1">
          <g
             transform="translate(74.735901,39.050814)"
             id="g168"
             style="fill:#ffe548;fill-opacity:1">
            <g
               id="g167"
               style="fill:#ffe548;fill-opacity:1">
              <path
                 d="m 0.03125,-10.703125 h 1.75 V 0 H 3.640625 V -10.703125 H 5.375 V -12.59375 H 0.03125 Z m 0,0"
                 id="path166"
                 style="fill:#ffe548;fill-opacity:1" />
            </g>
          </g>
        </g>
        <g
           fill="#000000"
           fill-opacity="1"
           id="g172"
           style="fill:#ffe548;fill-opacity:1">
          <g
             transform="translate(79.670652,39.050814)"
             id="g171"
             style="fill:#ffe548;fill-opacity:1">
            <g
               id="g170"
               style="fill:#ffe548;fill-opacity:1">
              <path
                 d="M 5.015625,-3.359375 H 3.40625 v 1.03125 c 0,0.1875 -0.023438,0.351563 -0.0625,0.484375 -0.03125,0.125 -0.09375,0.234375 -0.1875,0.328125 -0.085938,0.085937 -0.203125,0.125 -0.359375,0.125 C 2.648438,-1.390625 2.53125,-1.4375 2.4375,-1.53125 2.257812,-1.726562 2.164062,-1.992188 2.15625,-2.328125 V -4.375 H 5.015625 V -7.09375 C 5.003906,-7.320312 4.976562,-7.53125 4.9375,-7.71875 4.894531,-7.914062 4.832031,-8.109375 4.75,-8.296875 4.613281,-8.585938 4.394531,-8.863281 4.09375,-9.125 3.789062,-9.382812 3.359375,-9.515625 2.796875,-9.515625 c -0.574219,0 -1,0.125 -1.28125,0.375 -0.605469,0.492187 -0.929687,1.1875 -0.96875,2.09375 v 4.71875 c 0.007813,0.230469 0.035156,0.449219 0.078125,0.65625 0.050781,0.199219 0.117188,0.390625 0.203125,0.578125 0.132813,0.304688 0.351563,0.585938 0.65625,0.84375 0.300781,0.2578125 0.734375,0.390625 1.296875,0.390625 0.570312,0 1.003906,-0.125 1.296875,-0.375 0.3125,-0.25 0.539063,-0.535156 0.6875,-0.859375 0.144531,-0.332031 0.226563,-0.726562 0.25,-1.1875 z M 2.15625,-5.71875 v -1.328125 c 0.00781,-0.09375 0.019531,-0.175781 0.03125,-0.25 C 2.207031,-7.378906 2.226562,-7.457031 2.25,-7.53125 2.289062,-7.65625 2.347656,-7.765625 2.421875,-7.859375 2.503906,-7.953125 2.628906,-8 2.796875,-8 c 0.15625,0 0.28125,0.042969 0.375,0.125 0.15625,0.199219 0.234375,0.476562 0.234375,0.828125 v 1.328125 z m 0,0"
                 id="path169"
                 style="fill:#ffe548;fill-opacity:1" />
            </g>
          </g>
        </g>
        <g
           fill="#000000"
           fill-opacity="1"
           id="g175"
           style="fill:#ffe548;fill-opacity:1">
          <g
             transform="translate(85.10238,39.050814)"
             id="g174"
             style="fill:#ffe548;fill-opacity:1">
            <g
               id="g173"
               style="fill:#ffe548;fill-opacity:1">
              <path
                 d="M 3.3125,-7.140625 V -6.125 C 3.269531,-6.03125 3.175781,-5.9375 3.03125,-5.84375 2.882812,-5.757812 2.703125,-5.660156 2.484375,-5.546875 2.265625,-5.429688 2.035156,-5.289062 1.796875,-5.125 1.554688,-4.96875 1.332031,-4.753906 1.125,-4.484375 c -0.199219,0.25 -0.371094,0.570313 -0.515625,0.953125 -0.136719,0.375 -0.203125,0.828125 -0.203125,1.359375 0,0.492187 0.050781,0.886719 0.15625,1.1875 0.101562,0.304687 0.226562,0.53125 0.375,0.6875 0.132812,0.179687 0.28125,0.29296875 0.4375,0.34375 0.164062,0.0625 0.304688,0.09375 0.421875,0.09375 0.175781,0 0.34375,-0.03125 0.5,-0.09375 0.15625,-0.0625 0.289063,-0.140625 0.40625,-0.234375 C 2.828125,-0.28125 2.925781,-0.378906 3,-0.484375 3.082031,-0.585938 3.144531,-0.675781 3.1875,-0.75 h 0.125 c 0,0.054688 0.00391,0.167969 0.015625,0.34375 C 3.335938,-0.226562 3.382812,-0.09375 3.46875,0 h 1.6875 C 5.125,-0.207031 5.097656,-0.425781 5.078125,-0.65625 5.054688,-0.882812 5.046875,-1.207031 5.046875,-1.625 v -5.765625 c 0,-0.300781 -0.058594,-0.582031 -0.171875,-0.84375 C 4.757812,-8.503906 4.601562,-8.726562 4.40625,-8.90625 3.976562,-9.3125 3.488281,-9.515625 2.9375,-9.515625 c -0.679688,0 -1.234375,0.246094 -1.671875,0.734375 -0.210937,0.230469 -0.375,0.496094 -0.5,0.796875 -0.117187,0.304687 -0.171875,0.625 -0.171875,0.96875 v 0.40625 h 1.734375 c 0,-0.070313 0,-0.144531 0,-0.21875 0,-0.070313 0,-0.148437 0,-0.234375 0,-0.082031 0,-0.160156 0,-0.234375 C 2.335938,-7.367188 2.347656,-7.4375 2.359375,-7.5 2.390625,-7.644531 2.4375,-7.765625 2.5,-7.859375 2.570312,-7.953125 2.679688,-8 2.828125,-8 3.035156,-8 3.175781,-7.90625 3.25,-7.71875 c 0.03125,0.085938 0.046875,0.183594 0.046875,0.296875 0.00781,0.105469 0.015625,0.199219 0.015625,0.28125 z m 0,2.609375 V -2.125 c 0,0.15625 -0.074219,0.292969 -0.21875,0.40625 -0.148438,0.105469 -0.3125,0.15625 -0.5,0.15625 -0.105469,0 -0.1875,-0.03125 -0.25,-0.09375 C 2.28125,-1.726562 2.226562,-1.816406 2.1875,-1.921875 2.15625,-2.015625 2.132812,-2.109375 2.125,-2.203125 2.113281,-2.296875 2.109375,-2.375 2.109375,-2.4375 c 0,-0.445312 0.09375,-0.859375 0.28125,-1.234375 0.1875,-0.382813 0.492187,-0.671875 0.921875,-0.859375 z m 0,0"
                 id="path172"
                 style="fill:#ffe548;fill-opacity:1" />
            </g>
          </g>
        </g>
        <g
           fill="#000000"
           fill-opacity="1"
           id="g178"
           style="fill:#ffe548;fill-opacity:1">
          <g
             transform="translate(90.585505,39.050814)"
             id="g177"
             style="fill:#ffe548;fill-opacity:1">
            <g
               id="g176"
               style="fill:#ffe548;fill-opacity:1">
              <path
                 d="M 5.15625,0 V -7.390625 C 5.175781,-7.429688 5.203125,-7.46875 5.234375,-7.5 5.273438,-7.539062 5.3125,-7.578125 5.34375,-7.609375 c 0.0625,-0.0625 0.128906,-0.113281 0.203125,-0.15625 0.082031,-0.039063 0.171875,-0.0625 0.265625,-0.0625 0.09375,0 0.191406,0.023437 0.296875,0.0625 0.113281,0.042969 0.171875,0.15625 0.171875,0.34375 V 0 h 1.625 v -7.671875 c 0,-0.195313 -0.027344,-0.40625 -0.078125,-0.625 -0.054687,-0.21875 -0.132813,-0.414063 -0.234375,-0.59375 -0.105469,-0.175781 -0.242188,-0.320313 -0.40625,-0.4375 -0.167969,-0.125 -0.367188,-0.1875 -0.59375,-0.1875 -0.148438,0 -0.296875,0.046875 -0.453125,0.140625 -0.34375,0.199219 -0.625,0.417969 -0.84375,0.65625 -0.0625,0.054688 -0.117187,0.105469 -0.15625,0.15625 -0.042969,0.042969 -0.085937,0.074219 -0.125,0.09375 C 4.929688,-8.738281 4.789062,-8.976562 4.59375,-9.1875 4.40625,-9.40625 4.160156,-9.515625 3.859375,-9.515625 c -0.148437,0 -0.296875,0.042969 -0.453125,0.125 -0.148438,0.085937 -0.292969,0.1875 -0.4375,0.3125 -0.136719,0.117187 -0.25,0.214844 -0.34375,0.296875 -0.117188,0.117188 -0.183594,0.179688 -0.203125,0.1875 V -9.375 H 0.6875 V 0 H 2.421875 V -7.390625 C 2.441406,-7.429688 2.46875,-7.46875 2.5,-7.5 c 0.03125,-0.039062 0.066406,-0.078125 0.109375,-0.109375 0.050781,-0.0625 0.117187,-0.113281 0.203125,-0.15625 0.082031,-0.039063 0.164062,-0.0625 0.25,-0.0625 0.09375,0 0.191406,0.023437 0.296875,0.0625 0.113281,0.042969 0.171875,0.15625 0.171875,0.34375 V 0 Z m 0,0"
                 id="path175"
                 style="fill:#ffe548;fill-opacity:1" />
            </g>
          </g>
        </g>
      </g>
    </g>
    <path
       fill="#231f20"
       d="m 85.269531,104.32422 c 0.03125,0.29297 0.113281,0.57422 0.242188,0.84375 0.128906,0.26953 0.296875,0.50781 0.507812,0.71875 0.207031,0.21094 0.449219,0.37891 0.714844,0.50781 0.269531,0.12891 0.550781,0.20703 0.84375,0.24219 0.933594,0.0937 1.871094,0.13281 2.808594,0.125 -0.9375,-0.008 -1.875,0.0352 -2.808594,0.12891 -0.292969,0.0352 -0.574219,0.11328 -0.84375,0.24218 -0.265625,0.12891 -0.507813,0.29688 -0.714844,0.50782 -0.210937,0.21093 -0.378906,0.44921 -0.507812,0.71875 -0.128907,0.26953 -0.210938,0.55078 -0.242188,0.84375 -0.09375,0.9375 -0.136719,1.87109 -0.128906,2.8125 0.0078,-0.94141 -0.03516,-1.875 -0.128906,-2.8125 -0.03125,-0.29297 -0.109375,-0.57422 -0.238281,-0.84375 -0.128907,-0.26954 -0.296876,-0.50782 -0.507813,-0.71875 -0.210937,-0.21094 -0.449219,-0.37891 -0.71875,-0.50782 -0.265625,-0.1289 -0.546875,-0.20703 -0.84375,-0.24218 -0.933594,-0.0937 -1.867187,-0.13672 -2.804687,-0.12891 0.9375,0.008 1.871093,-0.0312 2.804687,-0.125 0.296875,-0.0352 0.578125,-0.11328 0.84375,-0.24219 0.269531,-0.1289 0.507813,-0.29687 0.71875,-0.50781 0.207031,-0.21094 0.378906,-0.44922 0.507813,-0.71875 0.125,-0.26953 0.207031,-0.55078 0.238281,-0.84375 0.09375,-0.9375 0.136719,-1.875 0.128906,-2.8125 -0.0078,0.9375 0.03516,1.875 0.128906,2.8125 z m 0,0"
       fill-opacity="1"
       fill-rule="nonzero"
       id="path40"
       style="display:inline;fill:#ffe548;fill-opacity:1"
       transform="translate(1)" />
    <g
       clip-path="url(#788694aeb0)"
       id="g40"
       style="display:inline;fill:#1f2041;fill-opacity:1"
       transform="translate(1)">
      <path
         fill="#231f20"
         d="m 91.726562,121.29297 c 0.05078,0.48437 0.183594,0.94531 0.394532,1.38672 0.210937,0.4375 0.484375,0.83203 0.828125,1.17578 0.347656,0.34375 0.738281,0.62109 1.175781,0.83203 0.4375,0.21094 0.898438,0.34375 1.382812,0.39453 1.527344,0.15235 3.058594,0.22266 4.597658,0.21094 -1.539064,-0.0117 -3.070314,0.0586 -4.597658,0.21094 -0.484374,0.0508 -0.945312,0.18359 -1.382812,0.39453 -0.4375,0.21094 -0.828125,0.48828 -1.175781,0.83203 -0.34375,0.34375 -0.617188,0.73437 -0.828125,1.17578 -0.210938,0.4375 -0.34375,0.89844 -0.394532,1.38281 -0.152343,1.53125 -0.222656,3.06641 -0.210937,4.60547 0.01172,-1.53906 -0.05859,-3.07422 -0.210937,-4.60547 -0.05078,-0.48437 -0.183594,-0.94531 -0.394532,-1.38281 -0.210937,-0.44141 -0.484375,-0.83203 -0.832031,-1.17578 -0.34375,-0.34375 -0.734375,-0.62109 -1.171875,-0.83203 -0.4375,-0.21094 -0.898438,-0.34375 -1.382812,-0.39453 -1.527344,-0.15235 -3.058594,-0.22266 -4.597657,-0.21094 1.539063,0.0117 3.070313,-0.0586 4.597657,-0.21094 0.484374,-0.0508 0.945312,-0.18359 1.382812,-0.39453 0.4375,-0.21094 0.828125,-0.48828 1.171875,-0.83203 0.347656,-0.34375 0.621094,-0.73828 0.832031,-1.17578 0.210938,-0.44141 0.34375,-0.90235 0.394532,-1.38672 0.152343,-1.52734 0.222656,-3.0625 0.210937,-4.60156 -0.01172,1.53906 0.05859,3.07422 0.210937,4.60156 z m 0,0"
         fill-opacity="1"
         fill-rule="nonzero"
         id="path39"
         style="fill:#ffe548;fill-opacity:1" />
    </g>
    <g
       clip-path="url(#74ea05e29a)"
       id="g39"
       style="display:inline;fill:#1f2041;fill-opacity:1"
       transform="translate(1)">
      <path
         fill="#231f20"
         d="m 72.777344,108.79297 c 0.05078,0.47266 0.144531,0.94141 0.273437,1.39844 0.132813,0.46093 0.300781,0.90625 0.507813,1.33593 0.207031,0.4336 0.445312,0.84375 0.722656,1.23047 0.273438,0.39063 0.582031,0.75391 0.917969,1.09375 0.339843,0.33594 0.703125,0.64453 1.089843,0.92188 0.390626,0.27344 0.800782,0.51562 1.230469,0.72265 0.429688,0.20704 0.875,0.375 1.335938,0.50782 0.457031,0.1289 0.925781,0.22265 1.398437,0.27343 3.019532,0.30079 6.046875,0.44141 9.082032,0.41407 -3.035157,-0.0234 -6.0625,0.11328 -9.082032,0.41406 -0.472656,0.0547 -0.941406,0.14453 -1.398437,0.27734 -0.460938,0.12891 -0.90625,0.29688 -1.335938,0.50391 -0.429687,0.20703 -0.839843,0.44922 -1.230469,0.72656 -0.386718,0.27344 -0.75,0.58203 -1.089843,0.91797 -0.335938,0.33984 -0.644531,0.70313 -0.917969,1.09375 -0.277344,0.39063 -0.515625,0.80078 -0.722656,1.23047 -0.207032,0.42969 -0.375,0.875 -0.507813,1.33594 -0.128906,0.46093 -0.222656,0.92578 -0.273437,1.40234 -0.300782,3.02344 -0.4375,6.05469 -0.414063,9.09375 0.02734,-3.03906 -0.113281,-6.07031 -0.414062,-9.09375 -0.05078,-0.47656 -0.140625,-0.94141 -0.273438,-1.40234 -0.128906,-0.46094 -0.300781,-0.90625 -0.503906,-1.33594 -0.207031,-0.42969 -0.449219,-0.83984 -0.726563,-1.23047 -0.273437,-0.39062 -0.582031,-0.75391 -0.917968,-1.09375 -0.335938,-0.33594 -0.699219,-0.64453 -1.089844,-0.91797 -0.390625,-0.27734 -0.800781,-0.51953 -1.230469,-0.72656 -0.429687,-0.20703 -0.875,-0.375 -1.332031,-0.50391 -0.460938,-0.13281 -0.925781,-0.22265 -1.402344,-0.27734 -3.019531,-0.30078 -6.046875,-0.4375 -9.078125,-0.41406 3.03125,0.0273 6.058594,-0.11328 9.078125,-0.41407 0.476563,-0.0508 0.941406,-0.14453 1.402344,-0.27343 0.457031,-0.13282 0.902344,-0.30078 1.332031,-0.50782 0.429688,-0.20703 0.839844,-0.44921 1.230469,-0.72265 0.390625,-0.27735 0.753906,-0.58594 1.089844,-0.92188 0.335937,-0.33984 0.644531,-0.70312 0.917968,-1.09375 0.277344,-0.38672 0.519532,-0.79687 0.726563,-1.23047 0.203125,-0.42968 0.375,-0.875 0.503906,-1.33593 0.132813,-0.45703 0.222657,-0.92578 0.273438,-1.39844 0.300781,-3.02734 0.441406,-6.05859 0.414062,-9.097658 -0.02344,3.039068 0.113281,6.070318 0.414063,9.097658 z m 0,0"
         fill-opacity="1"
         fill-rule="nonzero"
         id="path38"
         style="fill:#ffe548;fill-opacity:1" />
    </g>
    <g
       transform="matrix(1.9864668,0,0,1.9864668,129.20445,9.9089066)"
       id="g38"
       style="display:inline;fill:#ffe548;fill-opacity:1">
      <g
         clip-path="url(#757956b0b6)"
         id="g37"
         style="fill:#ffe548;fill-opacity:1">
        <g
           fill="#000000"
           fill-opacity="1"
           id="g21"
           style="fill:#ffe548;fill-opacity:1">
          <g
             transform="translate(1.066373,64.441538)"
             id="g20"
             style="fill:#ffe548;fill-opacity:1">
            <g
               id="g19"
               style="fill:#ffe548;fill-opacity:1">
              <path
                 d="M 2.78125,-51.125 V 0 h 17.1875 V -7.71875 H 10.296875 V -21.765625 H 17.25 v -8.21875 H 10.296875 V -43.40625 H 19.96875 V -51.125 Z m 0,0"
                 id="path18"
                 style="fill:#ffe548;fill-opacity:1" />
            </g>
          </g>
        </g>
        <g
           fill="#000000"
           fill-opacity="1"
           id="g24"
           style="fill:#ffe548;fill-opacity:1">
          <g
             transform="translate(22.420911,64.441538)"
             id="g23"
             style="fill:#ffe548;fill-opacity:1">
            <g
               id="g22"
               style="fill:#ffe548;fill-opacity:1">
              <path
                 d="m 16.203125,0 h 7.515625 l -4.796875,-24.765625 c 1.4375,-0.96875 2.488281,-2.507813 3.15625,-4.625 0.675781,-2.113281 1.015625,-4.441406 1.015625,-6.984375 0,-4.820312 -1.011719,-8.484375 -3.03125,-10.984375 C 18.050781,-49.867188 14.796875,-51.125 10.296875,-51.125 H 2.78125 V 0 h 7.515625 V -21.5625 H 12.3125 Z m -5.90625,-28.515625 V -43.6875 c 0.507813,0 1.085937,0.04687 1.734375,0.140625 0.65625,0.09375 1.257812,0.398437 1.8125,0.90625 0.550781,0.460937 1.023438,1.214844 1.421875,2.265625 0.394531,1.042969 0.59375,2.464844 0.59375,4.265625 0,1.8125 -0.199219,3.21875 -0.59375,4.21875 -0.398437,0.992187 -0.871094,1.742187 -1.421875,2.25 -0.554688,0.46875 -1.15625,0.777344 -1.8125,0.921875 -0.648438,0.136719 -1.226562,0.203125 -1.734375,0.203125 z m 0,0"
                 id="path21"
                 style="fill:#ffe548;fill-opacity:1" />
            </g>
          </g>
        </g>
        <g
           fill="#000000"
           fill-opacity="1"
           id="g27"
           style="fill:#ffe548;fill-opacity:1">
          <g
             transform="translate(47.531624,64.441538)"
             id="g26"
             style="fill:#ffe548;fill-opacity:1">
            <g
               id="g25"
               style="fill:#ffe548;fill-opacity:1">
              <path
                 d="M 10.71875,-26.640625 18.015625,0 H 24.6875 v -51.125 h -6.875 v 29 h -0.421875 l -0.625,-2.359375 L 9.453125,-51.125 H 2.78125 V 0 h 6.890625 v -29 h 0.421875 z m 0,0"
                 id="path24"
                 style="fill:#ffe548;fill-opacity:1" />
            </g>
          </g>
        </g>
        <g
           fill="#000000"
           fill-opacity="1"
           id="g30"
           style="fill:#ffe548;fill-opacity:1">
          <g
             transform="translate(75.007339,64.441538)"
             id="g29"
             style="fill:#ffe548;fill-opacity:1">
            <g
               id="g28"
               style="fill:#ffe548;fill-opacity:1">
              <path
                 d="M 2.78125,-51.125 V 0 h 17.1875 V -7.71875 H 10.296875 V -21.765625 H 17.25 v -8.21875 H 10.296875 V -43.40625 H 19.96875 V -51.125 Z m 0,0"
                 id="path27"
                 style="fill:#ffe548;fill-opacity:1" />
            </g>
          </g>
        </g>
        <g
           fill="#000000"
           fill-opacity="1"
           id="g33"
           style="fill:#ffe548;fill-opacity:1">
          <g
             transform="translate(96.361877,64.441538)"
             id="g32"
             style="fill:#ffe548;fill-opacity:1">
            <g
               id="g31"
               style="fill:#ffe548;fill-opacity:1">
              <path
                 d="m 15.234375,-37.421875 7.375,-0.703125 c 0,-1.4375 -0.132813,-2.953125 -0.390625,-4.546875 -0.25,-1.601563 -0.746094,-3.097656 -1.484375,-4.484375 -0.75,-1.351562 -1.808594,-2.457031 -3.171875,-3.3125 -1.367188,-0.851562 -3.183594,-1.257812 -5.453125,-1.21875 -1.773437,0.05469 -3.28125,0.4375 -4.53125,1.15625 -1.25,0.71875 -2.273437,1.632812 -3.0625,2.734375 -0.78125,1.167969 -1.351563,2.460937 -1.703125,3.875 -0.34375,1.40625 -0.515625,2.808594 -0.515625,4.203125 0,1.386719 0.207031,2.757812 0.625,4.109375 0.738281,2.636719 1.96875,5.277344 3.6875,7.921875 0.832031,1.304688 1.640625,2.53125 2.421875,3.6875 0.789062,1.15625 1.5625,2.273438 2.3125,3.34375 0.363281,0.511719 0.695312,1.023438 1,1.53125 0.300781,0.511719 0.613281,1.023438 0.9375,1.53125 0.5625,1.023438 1.023438,2.007812 1.390625,2.953125 0.375,0.949219 0.5625,1.839844 0.5625,2.671875 0,1.625 -0.234375,2.976562 -0.703125,4.046875 -0.460938,1.0625 -1.246094,1.59375 -2.359375,1.59375 -0.792969,0 -1.421875,-0.253906 -1.890625,-0.765625 C 9.820312,-7.601562 9.476562,-8.273438 9.25,-9.109375 8.96875,-9.898438 8.789062,-10.816406 8.71875,-11.859375 8.65625,-12.898438 8.625,-13.957031 8.625,-15.03125 l -7.375,0.703125 c 0,1.898437 0.125,3.742187 0.375,5.53125 0.257812,1.78125 0.757812,3.371094 1.5,4.765625 0.789062,1.386719 1.894531,2.5 3.3125,3.34375 1.414062,0.832031 3.328125,1.25 5.734375,1.25 2.039063,0 3.734375,-0.359375 5.078125,-1.078125 1.34375,-0.71875 2.410156,-1.660156 3.203125,-2.828125 0.789063,-1.195312 1.347656,-2.5625 1.671875,-4.09375 0.320312,-1.53125 0.484375,-3.15625 0.484375,-4.875 0,-1.394531 -0.210937,-2.75 -0.625,-4.0625 -0.417969,-1.320312 -0.953125,-2.632812 -1.609375,-3.9375 -0.648438,-1.300781 -1.386719,-2.597656 -2.21875,-3.890625 -0.835938,-1.300781 -1.695312,-2.601563 -2.578125,-3.90625 -0.742187,-1.0625 -1.460937,-2.101563 -2.15625,-3.125 -0.699219,-1.019531 -1.324219,-2.015625 -1.875,-2.984375 -0.554687,-0.976562 -1.007813,-1.921875 -1.359375,-2.828125 -0.34375,-0.90625 -0.515625,-1.796875 -0.515625,-2.671875 0,-1.488281 0.179687,-2.695312 0.546875,-3.625 0.375,-0.925781 1.050781,-1.410156 2.03125,-1.453125 0.59375,0 1.085938,0.226563 1.484375,0.671875 0.394531,0.4375 0.707031,1 0.9375,1.6875 0.238281,0.75 0.390625,1.570312 0.453125,2.453125 0.07031,0.875 0.109375,1.730469 0.109375,2.5625 z m 0,0"
                 id="path30"
                 style="fill:#ffe548;fill-opacity:1" />
            </g>
          </g>
        </g>
        <g
           fill="#000000"
           fill-opacity="1"
           id="g36"
           style="fill:#ffe548;fill-opacity:1">
          <g
             transform="translate(120.22054,64.441538)"
             id="g35"
             style="fill:#ffe548;fill-opacity:1">
            <g
               id="g34"
               style="fill:#ffe548;fill-opacity:1">
              <path
                 d="m 0.140625,-43.40625 h 7.09375 V 0 H 14.75 v -43.40625 h 7.09375 V -51.125 H 0.140625 Z m 0,0"
                 id="path33"
                 style="fill:#ffe548;fill-opacity:1" />
            </g>
          </g>
        </g>
      </g>
    </g>
    <g
       clip-path="url(#5750090980)"
       id="g18"
       style="display:inline"
       transform="translate(1)">
      <g
         transform="translate(65,16)"
         id="g17">
        <g
           clip-path="url(#4fc663427f)"
           id="g16"
           style="fill:#ffe548;fill-opacity:1">
          <g
             clip-path="url(#51a997000e)"
             id="g9"
             style="fill:#ffe548;fill-opacity:1">
            <path
               fill="#151516"
               d="m 2.703125,18.484375 c 4.386719,-5.050781 13.898437,3.980469 17.667969,6.96875 0.675781,0.539063 1.390625,1.078125 2.230468,1.296875 0.90625,0.234375 1.878907,0.05859 2.742188,-0.308594 1.300781,-0.550781 2.453125,-1.453125 3.703125,-2.117187 1.304687,-0.695313 2.640625,-1.332031 4,-1.910157 1.378906,-0.585937 2.785156,-1.117187 4.210937,-1.582031 1.378907,-0.457031 2.957032,-0.660156 4.285157,-1.222656 1.25,-0.53125 2.113281,-1.695313 2.257812,-3.042969 0.511719,-4.773437 2.261719,-15.8125 7.585938,-16.238281 3.488281,-0.28125 6.949219,9.121094 7.824219,11.390625 0.964843,2.507812 2.570312,6.035156 3.398437,8.582031 0.5625,1.722657 0.53125,101.933599 0.53125,101.933599 -1.894531,-0.34375 -3.28125,-3.96875 -4.082031,-7.6875 -1.175782,-5.45704 -3.773438,-9.19532 -7.945313,-13.05079 C 44.625,95.488281 41.632812,89.507812 39.871094,81.136719 38.484375,74.527344 31.300781,73.777344 26.605469,70.238281 17.84375,63.625 16.375,53.648438 11.59375,44.617188 9.136719,39.976562 6.214844,35.605469 4.109375,30.804688 2.898438,28.046875 0.734375,20.753906 2.703125,18.484375"
               fill-opacity="1"
               fill-rule="nonzero"
               id="path8"
               style="fill:#ffe548;fill-opacity:1" />
          </g>
          <path
             fill="#ffffff"
             d="m 30.933594,55.207031 c -3.835938,-0.03906 -6.90625,-4.074219 -6.90625,-4.074219 0,0 3.152344,-3.976562 6.988281,-3.9375 3.839844,0.03906 6.90625,4.078126 6.90625,4.078126 0,0 -3.148437,3.972656 -6.988281,3.933593"
             fill-opacity="1"
             fill-rule="nonzero"
             id="path9"
             style="fill:#1f2041;fill-opacity:1" />
          <path
             fill="#151516"
             d="m 29.539062,51.914062 c 0.929688,1.878907 3.199219,2.648438 3.199219,2.648438 0,0 0.753907,-2.273438 -0.175781,-4.152344 -0.933594,-1.875 -3.199219,-2.648437 -3.199219,-2.648437 0,0 -0.757812,2.273437 0.175781,4.152343"
             fill-opacity="1"
             fill-rule="nonzero"
             id="path10"
             style="fill:#ffe548;fill-opacity:1" />
          <path
             fill="#ffffff"
             d="m 58.402344,43.140625 c 2.550781,-2.871094 1.625,-7.859375 1.625,-7.859375 0,0 -5.058594,-0.335938 -7.609375,2.535156 -2.550781,2.867188 -1.625,7.855469 -1.625,7.855469 0,0 5.058593,0.335937 7.609375,-2.53125"
             fill-opacity="1"
             fill-rule="nonzero"
             id="path11"
             style="fill:#1f2041;fill-opacity:1" />
          <path
             fill="#151516"
             d="m 53.910156,41.222656 c 0.933594,1.878906 3.199219,2.648438 3.199219,2.648438 0,0 0.753906,-2.273438 -0.175781,-4.152344 C 56,37.84375 53.734375,37.074219 53.734375,37.074219 c 0,0 -0.757813,2.269531 0.175781,4.148437"
             fill-opacity="1"
             fill-rule="nonzero"
             id="path12"
             style="fill:#ffe548;fill-opacity:1" />
          <path
             fill="#151516"
             d="m 17.199219,87.929688 c -0.03125,0.132812 -0.05859,0.265624 -0.08594,0.398437 0,0 0.02734,-0.140625 0.08594,-0.398437"
             fill-opacity="1"
             fill-rule="nonzero"
             id="path13"
             style="fill:#ffe548;fill-opacity:1" />
          <path
             fill="#151516"
             d="m 39.816406,62.601562 c -0.304687,-0.05469 -0.597656,-0.183593 -0.894531,-0.253906 -0.839844,-0.203125 -1.714844,-0.34375 -2.601563,-0.433594 -2.015624,-0.199218 -4.171874,-0.07812 -6.277343,0.222657 -4.636719,0.664062 -9.195313,2.367187 -13.242188,4.808593 -1.578125,0.949219 -3.03125,2.019532 -4.515625,3.074219 3.59375,-2.054687 7.34375,-3.917969 11.269532,-5.292969 4.269531,-1.5 8.660156,-2.316406 12.984374,-2.316406 0.695313,0 1.414063,-0.02344 2.082032,0.07422 0.769531,0.03906 1.195312,0.117187 1.195312,0.117187"
             fill-opacity="1"
             fill-rule="nonzero"
             id="path14"
             style="fill:#ffe548;fill-opacity:1" />
          <path
             fill="#151516"
             d="m 38.929688,63.757812 c -0.292969,0.0078 -0.59375,-0.04687 -0.882813,-0.05469 -0.820313,-0.02734 -1.652344,0.0078 -2.488281,0.07813 -2.199219,0.191406 -4.441406,0.734375 -6.589844,1.457031 -4.484375,1.507813 -8.515625,3.914063 -11.902344,6.949219 -1.003906,0.902344 -1.960937,1.839844 -2.890625,2.792969 -0.363281,0.375 -0.730469,0.746093 -1.082031,1.125 0.234375,-0.203125 0.53125,-0.402344 0.765625,-0.589844 0.671875,-0.519531 1.359375,-1.039063 2,-1.585937 1.539063,-1.320313 3.203125,-2.472657 4.933594,-3.605469 1.589843,-1.042969 3.191406,-1.910157 4.90625,-2.761719 1.0625,-0.527344 2.152343,-1.007812 3.257812,-1.433594 2.21875,-0.859375 4.515625,-1.511718 6.820313,-1.941406 0.636718,-0.121094 1.265625,-0.210938 1.902344,-0.300781 0.796874,-0.117188 1.25,-0.128907 1.25,-0.128907"
             fill-opacity="1"
             fill-rule="nonzero"
             id="path15"
             style="fill:#ffe548;fill-opacity:1" />
          <path
             fill="#151516"
             d="m 38.199219,65.15625 c -0.289063,0.06641 -0.605469,0.08203 -0.898438,0.136719 -0.828125,0.148437 -1.652343,0.355469 -2.464843,0.597656 -2.09375,0.625 -4.144532,1.558594 -6.03125,2.640625 -3.714844,2.125 -6.867188,4.925781 -9.277344,8.027344 -1.113282,1.433594 -2.03125,2.984375 -2.925782,4.496094 0.210938,-0.285157 0.523438,-0.597657 0.753907,-0.867188 0.589843,-0.691406 1.171875,-1.382812 1.734375,-2.085938 1.171875,-1.464843 2.492187,-2.867187 3.9375,-4.1875 2.886718,-2.640624 6.269531,-4.945312 9.9375,-6.757812 1.308594,-0.648438 2.683594,-1.148438 4.058594,-1.636719 0.734374,-0.261719 1.175781,-0.363281 1.175781,-0.363281"
             fill-opacity="1"
             fill-rule="nonzero"
             id="path16"
             style="fill:#ffe548;fill-opacity:1" />
        </g>
      </g>
    </g>
    <g
       clip-path="url(#35a8eb73f8)"
       id="g8"
       style="display:inline"
       transform="translate(1)" />
  </g>
</svg>
