<?xml version="1.0" encoding="UTF-8" standalone="no"?>
<svg
   width="47.201946"
   zoomAndPan="magnify"
   viewBox="0 0 33.941408 33.992189"
   height="47.272568"
   preserveAspectRatio="xMidYMid"
   version="1.0"
   id="svg183"
   sodipodi:docname="Star_blue.svg"
   inkscape:version="1.4.2 (ebf0e940, 2025-05-08)"
   xmlns:inkscape="http://www.inkscape.org/namespaces/inkscape"
   xmlns:sodipodi="http://sodipodi.sourceforge.net/DTD/sodipodi-0.dtd"
   xmlns="http://www.w3.org/2000/svg"
   xmlns:svg="http://www.w3.org/2000/svg">
  <sodipodi:namedview
     id="namedview183"
     pagecolor="#ffffff"
     bordercolor="#000000"
     borderopacity="0.25"
     inkscape:showpageshadow="2"
     inkscape:pageopacity="0.0"
     inkscape:pagecheckerboard="0"
     inkscape:deskcolor="#d1d1d1"
     inkscape:zoom="1.8738739"
     inkscape:cx="144.88702"
     inkscape:cy="85.651441"
     inkscape:window-width="1576"
     inkscape:window-height="1022"
     inkscape:window-x="2362"
     inkscape:window-y="44"
     inkscape:window-maximized="0"
     inkscape:current-layer="g181"
     inkscape:clip-to-page="false" />
  <defs
     id="defs8">
    <g
       id="g1" />
    <clipPath
       id="9c3bfe207c">
      <path
         d="M 1,0 H 332 V 160.50391 H 1 Z m 0,0"
         clip-rule="nonzero"
         id="path1" />
    </clipPath>
    <clipPath
       id="00f0aa38d9">
      <path
         d="M 1.515625,0 H 331.48437 V 160.50391 H 1.515625 Z m 0,0"
         clip-rule="nonzero"
         id="path2" />
    </clipPath>
    <clipPath
       id="35a8eb73f8">
      <path
         d="M 0.515625,0 H 330.48437 V 160.17969 H 0.515625 Z m 0,0"
         clip-rule="nonzero"
         id="path3" />
    </clipPath>
    <clipPath
       id="5750090980">
      <path
         d="M 65.761719,16.050781 H 128.34375 V 138.23437 H 65.761719 Z m 0,0"
         clip-rule="nonzero"
         id="path4" />
    </clipPath>
    <clipPath
       id="51a997000e">
      <path
         d="M 1,0.0507812 H 63.25 V 122.23438 H 1 Z m 0,0"
         clip-rule="nonzero"
         id="path5" />
    </clipPath>
    <clipPath
       id="4fc663427f">
      <rect
         x="0"
         width="64"
         y="0"
         height="123"
         id="rect5" />
    </clipPath>
    <clipPath
       id="757956b0b6">
      <rect
         x="0"
         width="144"
         y="0"
         height="85"
         id="rect6" />
    </clipPath>
    <clipPath
       id="74ea05e29a">
      <path
         d="M 55.394531,99.660156 H 90 V 133.93359 H 55.394531 Z m 0,0"
         clip-rule="nonzero"
         id="path6" />
    </clipPath>
    <clipPath
       id="788694aeb0">
      <path
         d="m 82,116 h 18.09375 v 17.93359 H 82 Z m 0,0"
         clip-rule="nonzero"
         id="path7" />
    </clipPath>
    <clipPath
       id="013393d7bc">
      <rect
         x="0"
         width="137"
         y="0"
         height="45"
         id="rect7" />
    </clipPath>
    <clipPath
       id="5654850c32">
      <rect
         x="0"
         width="331"
         y="0"
         height="161"
         id="rect8" />
    </clipPath>
  </defs>
  <g
     clip-path="url(#00f0aa38d9)"
     id="g183"
     transform="translate(-56.778264,-16.425168)">
    <g
       transform="translate(1)"
       id="g182">
      <g
         clip-path="url(#5654850c32)"
         id="g181">
        <g
           clip-path="url(#74ea05e29a)"
           id="g39"
           transform="translate(0.38373338,-83.270144)">
          <path
             fill="#231f20"
             d="m 72.777344,108.79297 c 0.05078,0.47266 0.144531,0.94141 0.273437,1.39844 0.132813,0.46093 0.300781,0.90625 0.507813,1.33593 0.207031,0.4336 0.445312,0.84375 0.722656,1.23047 0.273438,0.39063 0.582031,0.75391 0.917969,1.09375 0.339843,0.33594 0.703125,0.64453 1.089843,0.92188 0.390626,0.27344 0.800782,0.51562 1.230469,0.72265 0.429688,0.20704 0.875,0.375 1.335938,0.50782 0.457031,0.1289 0.925781,0.22265 1.398437,0.27343 3.019532,0.30079 6.046875,0.44141 9.082032,0.41407 -3.035157,-0.0234 -6.0625,0.11328 -9.082032,0.41406 -0.472656,0.0547 -0.941406,0.14453 -1.398437,0.27734 -0.460938,0.12891 -0.90625,0.29688 -1.335938,0.50391 -0.429687,0.20703 -0.839843,0.44922 -1.230469,0.72656 -0.386718,0.27344 -0.75,0.58203 -1.089843,0.91797 -0.335938,0.33984 -0.644531,0.70313 -0.917969,1.09375 -0.277344,0.39063 -0.515625,0.80078 -0.722656,1.23047 -0.207032,0.42969 -0.375,0.875 -0.507813,1.33594 -0.128906,0.46093 -0.222656,0.92578 -0.273437,1.40234 -0.300782,3.02344 -0.4375,6.05469 -0.414063,9.09375 0.02734,-3.03906 -0.113281,-6.07031 -0.414062,-9.09375 -0.05078,-0.47656 -0.140625,-0.94141 -0.273438,-1.40234 -0.128906,-0.46094 -0.300781,-0.90625 -0.503906,-1.33594 -0.207031,-0.42969 -0.449219,-0.83984 -0.726563,-1.23047 -0.273437,-0.39062 -0.582031,-0.75391 -0.917968,-1.09375 -0.335938,-0.33594 -0.699219,-0.64453 -1.089844,-0.91797 -0.390625,-0.27734 -0.800781,-0.51953 -1.230469,-0.72656 -0.429687,-0.20703 -0.875,-0.375 -1.332031,-0.50391 -0.460938,-0.13281 -0.925781,-0.22265 -1.402344,-0.27734 -3.019531,-0.30078 -6.046875,-0.4375 -9.078125,-0.41406 3.03125,0.0273 6.058594,-0.11328 9.078125,-0.41407 0.476563,-0.0508 0.941406,-0.14453 1.402344,-0.27343 0.457031,-0.13282 0.902344,-0.30078 1.332031,-0.50782 0.429688,-0.20703 0.839844,-0.44921 1.230469,-0.72265 0.390625,-0.27735 0.753906,-0.58594 1.089844,-0.92188 0.335937,-0.33984 0.644531,-0.70312 0.917968,-1.09375 0.277344,-0.38672 0.519532,-0.79687 0.726563,-1.23047 0.203125,-0.42968 0.375,-0.875 0.503906,-1.33593 0.132813,-0.45703 0.222657,-0.92578 0.273438,-1.39844 0.300781,-3.02734 0.441406,-6.05859 0.414062,-9.097658 -0.02344,3.039068 0.113281,6.070318 0.414063,9.097658 z m 0,0"
             fill-opacity="1"
             fill-rule="nonzero"
             id="path38"
             style="fill:#1f2041;fill-opacity:1" />
        </g>
      </g>
    </g>
  </g>
</svg>
