<svg xmlns="http://www.w3.org/2000/svg" xmlns:xlink="http://www.w3.org/1999/xlink" width="444" zoomAndPan="magnify" viewBox="0 0 333 161.249994" height="215" preserveAspectRatio="xMidYMid meet" version="1.0"><defs><g/><clipPath id="9c3bfe207c"><path d="M 1 0 L 332 0 L 332 160.503906 L 1 160.503906 Z M 1 0 " clip-rule="nonzero"/></clipPath><clipPath id="00f0aa38d9"><path d="M 1.515625 0 L 331.484375 0 L 331.484375 160.503906 L 1.515625 160.503906 Z M 1.515625 0 " clip-rule="nonzero"/></clipPath><clipPath id="35a8eb73f8"><path d="M 0.515625 0 L 330.484375 0 L 330.484375 160.179688 L 0.515625 160.179688 Z M 0.515625 0 " clip-rule="nonzero"/></clipPath><clipPath id="5750090980"><path d="M 65.761719 16.050781 L 128.34375 16.050781 L 128.34375 138.234375 L 65.761719 138.234375 Z M 65.761719 16.050781 " clip-rule="nonzero"/></clipPath><clipPath id="51a997000e"><path d="M 1 0.0507812 L 63.25 0.0507812 L 63.25 122.234375 L 1 122.234375 Z M 1 0.0507812 " clip-rule="nonzero"/></clipPath><clipPath id="4fc663427f"><rect x="0" width="64" y="0" height="123"/></clipPath><clipPath id="757956b0b6"><rect x="0" width="144" y="0" height="85"/></clipPath><clipPath id="74ea05e29a"><path d="M 55.394531 99.660156 L 90 99.660156 L 90 133.933594 L 55.394531 133.933594 Z M 55.394531 99.660156 " clip-rule="nonzero"/></clipPath><clipPath id="788694aeb0"><path d="M 82 116 L 100.09375 116 L 100.09375 133.933594 L 82 133.933594 Z M 82 116 " clip-rule="nonzero"/></clipPath><clipPath id="013393d7bc"><rect x="0" width="137" y="0" height="45"/></clipPath><clipPath id="5654850c32"><rect x="0" width="331" y="0" height="161"/></clipPath></defs><g clip-path="url(#9c3bfe207c)"><path fill="#ffffff" d="M 1.515625 0 L 331.484375 0 L 331.484375 160.503906 L 1.515625 160.503906 Z M 1.515625 0 " fill-opacity="1" fill-rule="nonzero"/></g><g clip-path="url(#00f0aa38d9)"><g transform="matrix(1, 0, 0, 1, 1, 0)"><g clip-path="url(#5654850c32)"><g clip-path="url(#35a8eb73f8)"><path fill="#ffffff" d="M 0.515625 0 L 331.308594 0 L 331.308594 160.179688 L 0.515625 160.179688 Z M 0.515625 0 " fill-opacity="1" fill-rule="nonzero"/></g><g clip-path="url(#5750090980)"><g transform="matrix(1, 0, 0, 1, 65, 16)"><g clip-path="url(#4fc663427f)"><g clip-path="url(#51a997000e)"><path fill="#151516" d="M 2.703125 18.484375 C 7.089844 13.433594 16.601562 22.464844 20.371094 25.453125 C 21.046875 25.992188 21.761719 26.53125 22.601562 26.75 C 23.507812 26.984375 24.480469 26.808594 25.34375 26.441406 C 26.644531 25.890625 27.796875 24.988281 29.046875 24.324219 C 30.351562 23.628906 31.6875 22.992188 33.046875 22.414062 C 34.425781 21.828125 35.832031 21.296875 37.257812 20.832031 C 38.636719 20.375 40.214844 20.171875 41.542969 19.609375 C 42.792969 19.078125 43.65625 17.914062 43.800781 16.566406 C 44.3125 11.792969 46.0625 0.753906 51.386719 0.328125 C 54.875 0.046875 58.335938 9.449219 59.210938 11.71875 C 60.175781 14.226562 61.78125 17.753906 62.609375 20.300781 C 63.171875 22.023438 63.140625 122.234375 63.140625 122.234375 C 61.246094 121.890625 59.859375 118.265625 59.058594 114.546875 C 57.882812 109.089844 55.285156 105.351562 51.113281 101.496094 C 44.625 95.488281 41.632812 89.507812 39.871094 81.136719 C 38.484375 74.527344 31.300781 73.777344 26.605469 70.238281 C 17.84375 63.625 16.375 53.648438 11.59375 44.617188 C 9.136719 39.976562 6.214844 35.605469 4.109375 30.804688 C 2.898438 28.046875 0.734375 20.753906 2.703125 18.484375 " fill-opacity="1" fill-rule="nonzero"/></g><path fill="#ffffff" d="M 30.933594 55.207031 C 27.097656 55.167969 24.027344 51.132812 24.027344 51.132812 C 24.027344 51.132812 27.179688 47.15625 31.015625 47.195312 C 34.855469 47.234375 37.921875 51.273438 37.921875 51.273438 C 37.921875 51.273438 34.773438 55.246094 30.933594 55.207031 " fill-opacity="1" fill-rule="nonzero"/><path fill="#151516" d="M 29.539062 51.914062 C 30.46875 53.792969 32.738281 54.5625 32.738281 54.5625 C 32.738281 54.5625 33.492188 52.289062 32.5625 50.410156 C 31.628906 48.535156 29.363281 47.761719 29.363281 47.761719 C 29.363281 47.761719 28.605469 50.035156 29.539062 51.914062 " fill-opacity="1" fill-rule="nonzero"/><path fill="#ffffff" d="M 58.402344 43.140625 C 60.953125 40.269531 60.027344 35.28125 60.027344 35.28125 C 60.027344 35.28125 54.96875 34.945312 52.417969 37.816406 C 49.867188 40.683594 50.792969 45.671875 50.792969 45.671875 C 50.792969 45.671875 55.851562 46.007812 58.402344 43.140625 " fill-opacity="1" fill-rule="nonzero"/><path fill="#151516" d="M 53.910156 41.222656 C 54.84375 43.101562 57.109375 43.871094 57.109375 43.871094 C 57.109375 43.871094 57.863281 41.597656 56.933594 39.71875 C 56 37.84375 53.734375 37.074219 53.734375 37.074219 C 53.734375 37.074219 52.976562 39.34375 53.910156 41.222656 " fill-opacity="1" fill-rule="nonzero"/><path fill="#151516" d="M 17.199219 87.929688 C 17.167969 88.0625 17.140625 88.195312 17.113281 88.328125 C 17.113281 88.328125 17.140625 88.1875 17.199219 87.929688 " fill-opacity="1" fill-rule="nonzero"/><path fill="#151516" d="M 39.816406 62.601562 C 39.511719 62.546875 39.21875 62.417969 38.921875 62.347656 C 38.082031 62.144531 37.207031 62.003906 36.320312 61.914062 C 34.304688 61.714844 32.148438 61.835938 30.042969 62.136719 C 25.40625 62.800781 20.847656 64.503906 16.800781 66.945312 C 15.222656 67.894531 13.769531 68.964844 12.285156 70.019531 C 15.878906 67.964844 19.628906 66.101562 23.554688 64.726562 C 27.824219 63.226562 32.214844 62.410156 36.539062 62.410156 C 37.234375 62.410156 37.953125 62.386719 38.621094 62.484375 C 39.390625 62.523438 39.816406 62.601562 39.816406 62.601562 " fill-opacity="1" fill-rule="nonzero"/><path fill="#151516" d="M 38.929688 63.757812 C 38.636719 63.765625 38.335938 63.710938 38.046875 63.703125 C 37.226562 63.675781 36.394531 63.710938 35.558594 63.78125 C 33.359375 63.972656 31.117188 64.515625 28.96875 65.238281 C 24.484375 66.746094 20.453125 69.152344 17.066406 72.1875 C 16.0625 73.089844 15.105469 74.027344 14.175781 74.980469 C 13.8125 75.355469 13.445312 75.726562 13.09375 76.105469 C 13.328125 75.902344 13.625 75.703125 13.859375 75.515625 C 14.53125 74.996094 15.21875 74.476562 15.859375 73.929688 C 17.398438 72.609375 19.0625 71.457031 20.792969 70.324219 C 22.382812 69.28125 23.984375 68.414062 25.699219 67.5625 C 26.761719 67.035156 27.851562 66.554688 28.957031 66.128906 C 31.175781 65.269531 33.472656 64.617188 35.777344 64.1875 C 36.414062 64.066406 37.042969 63.976562 37.679688 63.886719 C 38.476562 63.769531 38.929688 63.757812 38.929688 63.757812 " fill-opacity="1" fill-rule="nonzero"/><path fill="#151516" d="M 38.199219 65.15625 C 37.910156 65.222656 37.59375 65.238281 37.300781 65.292969 C 36.472656 65.441406 35.648438 65.648438 34.835938 65.890625 C 32.742188 66.515625 30.691406 67.449219 28.804688 68.53125 C 25.089844 70.65625 21.9375 73.457031 19.527344 76.558594 C 18.414062 77.992188 17.496094 79.542969 16.601562 81.054688 C 16.8125 80.769531 17.125 80.457031 17.355469 80.1875 C 17.945312 79.496094 18.527344 78.804688 19.089844 78.101562 C 20.261719 76.636719 21.582031 75.234375 23.027344 73.914062 C 25.914062 71.273438 29.296875 68.96875 32.964844 67.15625 C 34.273438 66.507812 35.648438 66.007812 37.023438 65.519531 C 37.757812 65.257812 38.199219 65.15625 38.199219 65.15625 " fill-opacity="1" fill-rule="nonzero"/></g></g></g><g transform="matrix(1, 0, 0, 1, 130, 24)"><g clip-path="url(#757956b0b6)"><g fill="#000000" fill-opacity="1"><g transform="translate(1.066373, 64.441538)"><g><path d="M 2.78125 -51.125 L 2.78125 0 L 19.96875 0 L 19.96875 -7.71875 L 10.296875 -7.71875 L 10.296875 -21.765625 L 17.25 -21.765625 L 17.25 -29.984375 L 10.296875 -29.984375 L 10.296875 -43.40625 L 19.96875 -43.40625 L 19.96875 -51.125 Z M 2.78125 -51.125 "/></g></g></g><g fill="#000000" fill-opacity="1"><g transform="translate(22.420911, 64.441538)"><g><path d="M 16.203125 0 L 23.71875 0 L 18.921875 -24.765625 C 20.359375 -25.734375 21.410156 -27.273438 22.078125 -29.390625 C 22.753906 -31.503906 23.09375 -33.832031 23.09375 -36.375 C 23.09375 -41.195312 22.082031 -44.859375 20.0625 -47.359375 C 18.050781 -49.867188 14.796875 -51.125 10.296875 -51.125 L 2.78125 -51.125 L 2.78125 0 L 10.296875 0 L 10.296875 -21.5625 L 12.3125 -21.5625 Z M 10.296875 -28.515625 L 10.296875 -43.6875 C 10.804688 -43.6875 11.382812 -43.640625 12.03125 -43.546875 C 12.6875 -43.453125 13.289062 -43.148438 13.84375 -42.640625 C 14.394531 -42.179688 14.867188 -41.425781 15.265625 -40.375 C 15.660156 -39.332031 15.859375 -37.910156 15.859375 -36.109375 C 15.859375 -34.296875 15.660156 -32.890625 15.265625 -31.890625 C 14.867188 -30.898438 14.394531 -30.148438 13.84375 -29.640625 C 13.289062 -29.171875 12.6875 -28.863281 12.03125 -28.71875 C 11.382812 -28.582031 10.804688 -28.515625 10.296875 -28.515625 Z M 10.296875 -28.515625 "/></g></g></g><g fill="#000000" fill-opacity="1"><g transform="translate(47.531624, 64.441538)"><g><path d="M 10.71875 -26.640625 L 18.015625 0 L 24.6875 0 L 24.6875 -51.125 L 17.8125 -51.125 L 17.8125 -22.125 L 17.390625 -22.125 L 16.765625 -24.484375 L 9.453125 -51.125 L 2.78125 -51.125 L 2.78125 0 L 9.671875 0 L 9.671875 -29 L 10.09375 -29 Z M 10.71875 -26.640625 "/></g></g></g><g fill="#000000" fill-opacity="1"><g transform="translate(75.007339, 64.441538)"><g><path d="M 2.78125 -51.125 L 2.78125 0 L 19.96875 0 L 19.96875 -7.71875 L 10.296875 -7.71875 L 10.296875 -21.765625 L 17.25 -21.765625 L 17.25 -29.984375 L 10.296875 -29.984375 L 10.296875 -43.40625 L 19.96875 -43.40625 L 19.96875 -51.125 Z M 2.78125 -51.125 "/></g></g></g><g fill="#000000" fill-opacity="1"><g transform="translate(96.361877, 64.441538)"><g><path d="M 15.234375 -37.421875 L 22.609375 -38.125 C 22.609375 -39.5625 22.476562 -41.078125 22.21875 -42.671875 C 21.96875 -44.273438 21.472656 -45.769531 20.734375 -47.15625 C 19.984375 -48.507812 18.925781 -49.613281 17.5625 -50.46875 C 16.195312 -51.320312 14.378906 -51.726562 12.109375 -51.6875 C 10.335938 -51.632812 8.828125 -51.25 7.578125 -50.53125 C 6.328125 -49.8125 5.304688 -48.898438 4.515625 -47.796875 C 3.734375 -46.628906 3.164062 -45.335938 2.8125 -43.921875 C 2.46875 -42.515625 2.296875 -41.113281 2.296875 -39.71875 C 2.296875 -38.332031 2.503906 -36.960938 2.921875 -35.609375 C 3.660156 -32.972656 4.890625 -30.332031 6.609375 -27.6875 C 7.441406 -26.382812 8.25 -25.15625 9.03125 -24 C 9.820312 -22.84375 10.59375 -21.726562 11.34375 -20.65625 C 11.707031 -20.144531 12.039062 -19.632812 12.34375 -19.125 C 12.644531 -18.613281 12.957031 -18.101562 13.28125 -17.59375 C 13.84375 -16.570312 14.304688 -15.585938 14.671875 -14.640625 C 15.046875 -13.691406 15.234375 -12.800781 15.234375 -11.96875 C 15.234375 -10.34375 15 -8.992188 14.53125 -7.921875 C 14.070312 -6.859375 13.285156 -6.328125 12.171875 -6.328125 C 11.378906 -6.328125 10.75 -6.582031 10.28125 -7.09375 C 9.820312 -7.601562 9.476562 -8.273438 9.25 -9.109375 C 8.96875 -9.898438 8.789062 -10.816406 8.71875 -11.859375 C 8.65625 -12.898438 8.625 -13.957031 8.625 -15.03125 L 1.25 -14.328125 C 1.25 -12.429688 1.375 -10.585938 1.625 -8.796875 C 1.882812 -7.015625 2.382812 -5.425781 3.125 -4.03125 C 3.914062 -2.644531 5.019531 -1.53125 6.4375 -0.6875 C 7.851562 0.144531 9.765625 0.5625 12.171875 0.5625 C 14.210938 0.5625 15.90625 0.203125 17.25 -0.515625 C 18.59375 -1.234375 19.660156 -2.175781 20.453125 -3.34375 C 21.242188 -4.539062 21.800781 -5.90625 22.125 -7.4375 C 22.445312 -8.96875 22.609375 -10.59375 22.609375 -12.3125 C 22.609375 -13.707031 22.398438 -15.0625 21.984375 -16.375 C 21.566406 -17.695312 21.03125 -19.007812 20.375 -20.3125 C 19.726562 -21.613281 18.988281 -22.910156 18.15625 -24.203125 C 17.320312 -25.503906 16.460938 -26.804688 15.578125 -28.109375 C 14.835938 -29.171875 14.117188 -30.210938 13.421875 -31.234375 C 12.722656 -32.253906 12.097656 -33.25 11.546875 -34.21875 C 10.992188 -35.195312 10.539062 -36.140625 10.1875 -37.046875 C 9.84375 -37.953125 9.671875 -38.84375 9.671875 -39.71875 C 9.671875 -41.207031 9.851562 -42.414062 10.21875 -43.34375 C 10.59375 -44.269531 11.269531 -44.753906 12.25 -44.796875 C 12.84375 -44.796875 13.335938 -44.570312 13.734375 -44.125 C 14.128906 -43.6875 14.441406 -43.125 14.671875 -42.4375 C 14.910156 -41.6875 15.0625 -40.867188 15.125 -39.984375 C 15.195312 -39.109375 15.234375 -38.253906 15.234375 -37.421875 Z M 15.234375 -37.421875 "/></g></g></g><g fill="#000000" fill-opacity="1"><g transform="translate(120.220538, 64.441538)"><g><path d="M 0.140625 -43.40625 L 7.234375 -43.40625 L 7.234375 0 L 14.75 0 L 14.75 -43.40625 L 21.84375 -43.40625 L 21.84375 -51.125 L 0.140625 -51.125 Z M 0.140625 -43.40625 "/></g></g></g></g></g><g clip-path="url(#74ea05e29a)"><path fill="#231f20" d="M 72.777344 108.792969 C 72.828125 109.265625 72.921875 109.734375 73.050781 110.191406 C 73.183594 110.652344 73.351562 111.097656 73.558594 111.527344 C 73.765625 111.960938 74.003906 112.371094 74.28125 112.757812 C 74.554688 113.148438 74.863281 113.511719 75.199219 113.851562 C 75.539062 114.1875 75.902344 114.496094 76.289062 114.773438 C 76.679688 115.046875 77.089844 115.289062 77.519531 115.496094 C 77.949219 115.703125 78.394531 115.871094 78.855469 116.003906 C 79.3125 116.132812 79.78125 116.226562 80.253906 116.277344 C 83.273438 116.578125 86.300781 116.71875 89.335938 116.691406 C 86.300781 116.667969 83.273438 116.804688 80.253906 117.105469 C 79.78125 117.160156 79.3125 117.25 78.855469 117.382812 C 78.394531 117.511719 77.949219 117.679688 77.519531 117.886719 C 77.089844 118.09375 76.679688 118.335938 76.289062 118.613281 C 75.902344 118.886719 75.539062 119.195312 75.199219 119.53125 C 74.863281 119.871094 74.554688 120.234375 74.28125 120.625 C 74.003906 121.015625 73.765625 121.425781 73.558594 121.855469 C 73.351562 122.285156 73.183594 122.730469 73.050781 123.191406 C 72.921875 123.652344 72.828125 124.117188 72.777344 124.59375 C 72.476562 127.617188 72.339844 130.648438 72.363281 133.6875 C 72.390625 130.648438 72.25 127.617188 71.949219 124.59375 C 71.898438 124.117188 71.808594 123.652344 71.675781 123.191406 C 71.546875 122.730469 71.375 122.285156 71.171875 121.855469 C 70.964844 121.425781 70.722656 121.015625 70.445312 120.625 C 70.171875 120.234375 69.863281 119.871094 69.527344 119.53125 C 69.191406 119.195312 68.828125 118.886719 68.4375 118.613281 C 68.046875 118.335938 67.636719 118.09375 67.207031 117.886719 C 66.777344 117.679688 66.332031 117.511719 65.875 117.382812 C 65.414062 117.25 64.949219 117.160156 64.472656 117.105469 C 61.453125 116.804688 58.425781 116.667969 55.394531 116.691406 C 58.425781 116.71875 61.453125 116.578125 64.472656 116.277344 C 64.949219 116.226562 65.414062 116.132812 65.875 116.003906 C 66.332031 115.871094 66.777344 115.703125 67.207031 115.496094 C 67.636719 115.289062 68.046875 115.046875 68.4375 114.773438 C 68.828125 114.496094 69.191406 114.1875 69.527344 113.851562 C 69.863281 113.511719 70.171875 113.148438 70.445312 112.757812 C 70.722656 112.371094 70.964844 111.960938 71.171875 111.527344 C 71.375 111.097656 71.546875 110.652344 71.675781 110.191406 C 71.808594 109.734375 71.898438 109.265625 71.949219 108.792969 C 72.25 105.765625 72.390625 102.734375 72.363281 99.695312 C 72.339844 102.734375 72.476562 105.765625 72.777344 108.792969 Z M 72.777344 108.792969 " fill-opacity="1" fill-rule="nonzero"/></g><g clip-path="url(#788694aeb0)"><path fill="#231f20" d="M 91.726562 121.292969 C 91.777344 121.777344 91.910156 122.238281 92.121094 122.679688 C 92.332031 123.117188 92.605469 123.511719 92.949219 123.855469 C 93.296875 124.199219 93.6875 124.476562 94.125 124.6875 C 94.5625 124.898438 95.023438 125.03125 95.507812 125.082031 C 97.035156 125.234375 98.566406 125.304688 100.105469 125.292969 C 98.566406 125.28125 97.035156 125.351562 95.507812 125.503906 C 95.023438 125.554688 94.5625 125.6875 94.125 125.898438 C 93.6875 126.109375 93.296875 126.386719 92.949219 126.730469 C 92.605469 127.074219 92.332031 127.464844 92.121094 127.90625 C 91.910156 128.34375 91.777344 128.804688 91.726562 129.289062 C 91.574219 130.820312 91.503906 132.355469 91.515625 133.894531 C 91.527344 132.355469 91.457031 130.820312 91.304688 129.289062 C 91.253906 128.804688 91.121094 128.34375 90.910156 127.90625 C 90.699219 127.464844 90.425781 127.074219 90.078125 126.730469 C 89.734375 126.386719 89.34375 126.109375 88.90625 125.898438 C 88.46875 125.6875 88.007812 125.554688 87.523438 125.503906 C 85.996094 125.351562 84.464844 125.28125 82.925781 125.292969 C 84.464844 125.304688 85.996094 125.234375 87.523438 125.082031 C 88.007812 125.03125 88.46875 124.898438 88.90625 124.6875 C 89.34375 124.476562 89.734375 124.199219 90.078125 123.855469 C 90.425781 123.511719 90.699219 123.117188 90.910156 122.679688 C 91.121094 122.238281 91.253906 121.777344 91.304688 121.292969 C 91.457031 119.765625 91.527344 118.230469 91.515625 116.691406 C 91.503906 118.230469 91.574219 119.765625 91.726562 121.292969 Z M 91.726562 121.292969 " fill-opacity="1" fill-rule="nonzero"/></g><path fill="#231f20" d="M 85.269531 104.324219 C 85.300781 104.617188 85.382812 104.898438 85.511719 105.167969 C 85.640625 105.4375 85.808594 105.675781 86.019531 105.886719 C 86.226562 106.097656 86.46875 106.265625 86.734375 106.394531 C 87.003906 106.523438 87.285156 106.601562 87.578125 106.636719 C 88.511719 106.730469 89.449219 106.769531 90.386719 106.761719 C 89.449219 106.753906 88.511719 106.796875 87.578125 106.890625 C 87.285156 106.925781 87.003906 107.003906 86.734375 107.132812 C 86.46875 107.261719 86.226562 107.429688 86.019531 107.640625 C 85.808594 107.851562 85.640625 108.089844 85.511719 108.359375 C 85.382812 108.628906 85.300781 108.910156 85.269531 109.203125 C 85.175781 110.140625 85.132812 111.074219 85.140625 112.015625 C 85.148438 111.074219 85.105469 110.140625 85.011719 109.203125 C 84.980469 108.910156 84.902344 108.628906 84.773438 108.359375 C 84.644531 108.089844 84.476562 107.851562 84.265625 107.640625 C 84.054688 107.429688 83.816406 107.261719 83.546875 107.132812 C 83.28125 107.003906 83 106.925781 82.703125 106.890625 C 81.769531 106.796875 80.835938 106.753906 79.898438 106.761719 C 80.835938 106.769531 81.769531 106.730469 82.703125 106.636719 C 83 106.601562 83.28125 106.523438 83.546875 106.394531 C 83.816406 106.265625 84.054688 106.097656 84.265625 105.886719 C 84.472656 105.675781 84.644531 105.4375 84.773438 105.167969 C 84.898438 104.898438 84.980469 104.617188 85.011719 104.324219 C 85.105469 103.386719 85.148438 102.449219 85.140625 101.511719 C 85.132812 102.449219 85.175781 103.386719 85.269531 104.324219 Z M 85.269531 104.324219 " fill-opacity="1" fill-rule="nonzero"/><g transform="matrix(1, 0, 0, 1, 134, 97)"><g clip-path="url(#013393d7bc)"><g fill="#000000" fill-opacity="1"><g transform="translate(0.383085, 15.909674)"><g><path d="M 0.6875 -12.59375 L 0.6875 0 L 4.921875 0 L 4.921875 -1.90625 L 2.53125 -1.90625 L 2.53125 -5.359375 L 4.25 -5.359375 L 4.25 -7.390625 L 2.53125 -7.390625 L 2.53125 -10.703125 L 4.921875 -10.703125 L 4.921875 -12.59375 Z M 0.6875 -12.59375 "/></g></g></g><g fill="#000000" fill-opacity="1"><g transform="translate(5.643478, 15.909674)"><g><path d="M 3.359375 -9.375 L 3.359375 -1.984375 C 3.335938 -1.941406 3.3125 -1.898438 3.28125 -1.859375 C 3.25 -1.816406 3.222656 -1.785156 3.203125 -1.765625 C 3.148438 -1.710938 3.09375 -1.660156 3.03125 -1.609375 C 2.96875 -1.566406 2.890625 -1.546875 2.796875 -1.546875 C 2.691406 -1.546875 2.59375 -1.566406 2.5 -1.609375 C 2.414062 -1.660156 2.375 -1.773438 2.375 -1.953125 L 2.375 -9.375 L 0.65625 -9.375 L 0.65625 -1.703125 C 0.65625 -1.503906 0.679688 -1.296875 0.734375 -1.078125 C 0.785156 -0.859375 0.859375 -0.664062 0.953125 -0.5 C 1.054688 -0.3125 1.191406 -0.15625 1.359375 -0.03125 C 1.523438 0.0820312 1.722656 0.140625 1.953125 0.140625 C 2.097656 0.140625 2.253906 0.09375 2.421875 0 C 2.578125 -0.09375 2.710938 -0.191406 2.828125 -0.296875 C 2.953125 -0.410156 3.066406 -0.515625 3.171875 -0.609375 C 3.273438 -0.710938 3.335938 -0.769531 3.359375 -0.78125 L 3.359375 0 L 5.09375 0 L 5.09375 -9.375 Z M 3.359375 -9.375 "/></g></g></g><g fill="#000000" fill-opacity="1"><g transform="translate(11.417915, 15.909674)"><g><path d="M 4.140625 -7.59375 L 4.140625 -9.515625 C 3.828125 -9.515625 3.5625 -9.460938 3.34375 -9.359375 C 3.132812 -9.253906 2.960938 -9.140625 2.828125 -9.015625 C 2.691406 -8.878906 2.59375 -8.742188 2.53125 -8.609375 C 2.46875 -8.484375 2.429688 -8.390625 2.421875 -8.328125 L 2.421875 -9.375 L 0.6875 -9.375 L 0.6875 0 L 2.421875 0 L 2.421875 -6.515625 C 2.421875 -6.660156 2.441406 -6.804688 2.484375 -6.953125 C 2.523438 -7.097656 2.628906 -7.238281 2.796875 -7.375 C 2.929688 -7.5 3.078125 -7.578125 3.234375 -7.609375 C 3.390625 -7.640625 3.535156 -7.65625 3.671875 -7.65625 C 3.742188 -7.65625 3.820312 -7.648438 3.90625 -7.640625 C 3.988281 -7.628906 4.066406 -7.613281 4.140625 -7.59375 Z M 4.140625 -7.59375 "/></g></g></g><g fill="#000000" fill-opacity="1"><g transform="translate(15.564534, 15.909674)"><g><path d="M 4.96875 -2.28125 L 4.96875 -7.09375 C 4.957031 -7.320312 4.925781 -7.53125 4.875 -7.71875 C 4.832031 -7.914062 4.773438 -8.109375 4.703125 -8.296875 C 4.554688 -8.585938 4.332031 -8.863281 4.03125 -9.125 C 3.726562 -9.382812 3.300781 -9.515625 2.75 -9.515625 C 2.175781 -9.515625 1.742188 -9.390625 1.453125 -9.140625 C 1.160156 -8.890625 0.9375 -8.59375 0.78125 -8.25 C 0.632812 -7.90625 0.550781 -7.503906 0.53125 -7.046875 L 0.53125 -2.328125 C 0.539062 -2.097656 0.566406 -1.878906 0.609375 -1.671875 C 0.660156 -1.472656 0.726562 -1.28125 0.8125 -1.09375 C 0.945312 -0.789062 1.160156 -0.507812 1.453125 -0.25 C 1.753906 0.0078125 2.1875 0.140625 2.75 0.140625 C 3.3125 0.140625 3.742188 0.015625 4.046875 -0.234375 C 4.617188 -0.703125 4.925781 -1.382812 4.96875 -2.28125 Z M 3.34375 -7.046875 L 3.34375 -2.328125 C 3.351562 -2.148438 3.335938 -1.988281 3.296875 -1.84375 C 3.253906 -1.71875 3.191406 -1.609375 3.109375 -1.515625 C 3.023438 -1.429688 2.90625 -1.390625 2.75 -1.390625 C 2.59375 -1.390625 2.46875 -1.4375 2.375 -1.53125 C 2.21875 -1.726562 2.144531 -1.992188 2.15625 -2.328125 L 2.15625 -7.046875 C 2.144531 -7.222656 2.164062 -7.382812 2.21875 -7.53125 C 2.25 -7.65625 2.300781 -7.765625 2.375 -7.859375 C 2.457031 -7.953125 2.582031 -8 2.75 -8 C 2.90625 -8 3.03125 -7.957031 3.125 -7.875 C 3.28125 -7.675781 3.351562 -7.398438 3.34375 -7.046875 Z M 3.34375 -7.046875 "/></g></g></g><g fill="#000000" fill-opacity="1"><g transform="translate(21.030533, 15.909674)"><g><path d="M 0.6875 -9.375 L 0.6875 3.21875 L 2.421875 3.21875 L 2.421875 -0.609375 C 2.492188 -0.546875 2.566406 -0.484375 2.640625 -0.421875 C 2.710938 -0.359375 2.785156 -0.296875 2.859375 -0.234375 C 2.984375 -0.148438 3.128906 -0.0664062 3.296875 0.015625 C 3.460938 0.0976562 3.625 0.140625 3.78125 0.140625 C 4.019531 0.140625 4.222656 0.0820312 4.390625 -0.03125 C 4.554688 -0.15625 4.695312 -0.3125 4.8125 -0.5 C 4.914062 -0.664062 4.992188 -0.859375 5.046875 -1.078125 C 5.097656 -1.296875 5.125 -1.503906 5.125 -1.703125 L 5.125 -7.671875 C 5.125 -7.867188 5.097656 -8.078125 5.046875 -8.296875 C 4.992188 -8.515625 4.914062 -8.710938 4.8125 -8.890625 C 4.695312 -9.066406 4.554688 -9.210938 4.390625 -9.328125 C 4.222656 -9.453125 4.019531 -9.515625 3.78125 -9.515625 C 3.613281 -9.515625 3.457031 -9.472656 3.3125 -9.390625 C 3.132812 -9.304688 2.976562 -9.210938 2.84375 -9.109375 C 2.707031 -9.015625 2.566406 -8.898438 2.421875 -8.765625 L 2.421875 -9.375 Z M 2.421875 -2.0625 L 2.421875 -7.3125 C 2.421875 -7.476562 2.472656 -7.613281 2.578125 -7.71875 C 2.691406 -7.832031 2.8125 -7.890625 2.9375 -7.890625 C 3.0625 -7.890625 3.164062 -7.832031 3.25 -7.71875 C 3.34375 -7.613281 3.390625 -7.476562 3.390625 -7.3125 L 3.390625 -2.0625 C 3.390625 -1.894531 3.34375 -1.753906 3.25 -1.640625 C 3.164062 -1.535156 3.0625 -1.484375 2.9375 -1.484375 C 2.8125 -1.484375 2.691406 -1.539062 2.578125 -1.65625 C 2.472656 -1.78125 2.421875 -1.914062 2.421875 -2.0625 Z M 2.421875 -2.0625 "/></g></g></g><g fill="#000000" fill-opacity="1"><g transform="translate(26.770699, 15.909674)"><g><path d="M 5.015625 -3.359375 L 3.40625 -3.359375 L 3.40625 -2.328125 C 3.40625 -2.140625 3.382812 -1.976562 3.34375 -1.84375 C 3.3125 -1.71875 3.25 -1.609375 3.15625 -1.515625 C 3.070312 -1.429688 2.953125 -1.390625 2.796875 -1.390625 C 2.648438 -1.390625 2.53125 -1.4375 2.4375 -1.53125 C 2.257812 -1.726562 2.164062 -1.992188 2.15625 -2.328125 L 2.15625 -4.375 L 5.015625 -4.375 L 5.015625 -7.09375 C 5.003906 -7.320312 4.976562 -7.53125 4.9375 -7.71875 C 4.894531 -7.914062 4.832031 -8.109375 4.75 -8.296875 C 4.613281 -8.585938 4.394531 -8.863281 4.09375 -9.125 C 3.789062 -9.382812 3.359375 -9.515625 2.796875 -9.515625 C 2.222656 -9.515625 1.796875 -9.390625 1.515625 -9.140625 C 0.910156 -8.648438 0.585938 -7.953125 0.546875 -7.046875 L 0.546875 -2.328125 C 0.554688 -2.097656 0.582031 -1.878906 0.625 -1.671875 C 0.675781 -1.472656 0.742188 -1.28125 0.828125 -1.09375 C 0.960938 -0.789062 1.179688 -0.507812 1.484375 -0.25 C 1.785156 0.0078125 2.21875 0.140625 2.78125 0.140625 C 3.351562 0.140625 3.785156 0.015625 4.078125 -0.234375 C 4.390625 -0.484375 4.617188 -0.769531 4.765625 -1.09375 C 4.910156 -1.425781 4.992188 -1.820312 5.015625 -2.28125 Z M 2.15625 -5.71875 L 2.15625 -7.046875 C 2.164062 -7.140625 2.175781 -7.222656 2.1875 -7.296875 C 2.207031 -7.378906 2.226562 -7.457031 2.25 -7.53125 C 2.289062 -7.65625 2.347656 -7.765625 2.421875 -7.859375 C 2.503906 -7.953125 2.628906 -8 2.796875 -8 C 2.953125 -8 3.078125 -7.957031 3.171875 -7.875 C 3.328125 -7.675781 3.40625 -7.398438 3.40625 -7.046875 L 3.40625 -5.71875 Z M 2.15625 -5.71875 "/></g></g></g><g fill="#000000" fill-opacity="1"><g transform="translate(32.202427, 15.909674)"><g><path d="M 3.3125 -7.140625 L 3.3125 -6.125 C 3.269531 -6.03125 3.175781 -5.9375 3.03125 -5.84375 C 2.882812 -5.757812 2.703125 -5.660156 2.484375 -5.546875 C 2.265625 -5.429688 2.035156 -5.289062 1.796875 -5.125 C 1.554688 -4.96875 1.332031 -4.753906 1.125 -4.484375 C 0.925781 -4.234375 0.753906 -3.914062 0.609375 -3.53125 C 0.472656 -3.15625 0.40625 -2.703125 0.40625 -2.171875 C 0.40625 -1.679688 0.457031 -1.285156 0.5625 -0.984375 C 0.664062 -0.679688 0.789062 -0.453125 0.9375 -0.296875 C 1.070312 -0.117188 1.21875 -0.00390625 1.375 0.046875 C 1.539062 0.109375 1.679688 0.140625 1.796875 0.140625 C 1.972656 0.140625 2.140625 0.109375 2.296875 0.046875 C 2.453125 -0.015625 2.585938 -0.09375 2.703125 -0.1875 C 2.828125 -0.28125 2.925781 -0.378906 3 -0.484375 C 3.082031 -0.585938 3.144531 -0.675781 3.1875 -0.75 L 3.3125 -0.75 C 3.3125 -0.695312 3.316406 -0.582031 3.328125 -0.40625 C 3.335938 -0.226562 3.382812 -0.09375 3.46875 0 L 5.15625 0 C 5.125 -0.207031 5.097656 -0.425781 5.078125 -0.65625 C 5.054688 -0.882812 5.046875 -1.207031 5.046875 -1.625 L 5.046875 -7.390625 C 5.046875 -7.691406 4.988281 -7.972656 4.875 -8.234375 C 4.757812 -8.503906 4.601562 -8.726562 4.40625 -8.90625 C 3.976562 -9.3125 3.488281 -9.515625 2.9375 -9.515625 C 2.257812 -9.515625 1.703125 -9.269531 1.265625 -8.78125 C 1.054688 -8.550781 0.890625 -8.285156 0.765625 -7.984375 C 0.648438 -7.679688 0.59375 -7.359375 0.59375 -7.015625 L 0.59375 -6.609375 L 2.328125 -6.609375 C 2.328125 -6.679688 2.328125 -6.753906 2.328125 -6.828125 C 2.328125 -6.898438 2.328125 -6.976562 2.328125 -7.0625 C 2.328125 -7.144531 2.328125 -7.222656 2.328125 -7.296875 C 2.335938 -7.367188 2.347656 -7.4375 2.359375 -7.5 C 2.390625 -7.644531 2.4375 -7.765625 2.5 -7.859375 C 2.570312 -7.953125 2.679688 -8 2.828125 -8 C 3.035156 -8 3.175781 -7.90625 3.25 -7.71875 C 3.28125 -7.632812 3.296875 -7.535156 3.296875 -7.421875 C 3.304688 -7.316406 3.3125 -7.222656 3.3125 -7.140625 Z M 3.3125 -4.53125 L 3.3125 -2.125 C 3.3125 -1.96875 3.238281 -1.832031 3.09375 -1.71875 C 2.945312 -1.613281 2.78125 -1.5625 2.59375 -1.5625 C 2.488281 -1.5625 2.40625 -1.59375 2.34375 -1.65625 C 2.28125 -1.726562 2.226562 -1.816406 2.1875 -1.921875 C 2.15625 -2.015625 2.132812 -2.109375 2.125 -2.203125 C 2.113281 -2.296875 2.109375 -2.375 2.109375 -2.4375 C 2.109375 -2.882812 2.203125 -3.296875 2.390625 -3.671875 C 2.578125 -4.054688 2.882812 -4.34375 3.3125 -4.53125 Z M 3.3125 -4.53125 "/></g></g></g><g fill="#000000" fill-opacity="1"><g transform="translate(37.685551, 15.909674)"><g><path d="M 2.421875 0 L 2.421875 -7.390625 C 2.441406 -7.429688 2.460938 -7.46875 2.484375 -7.5 C 2.515625 -7.539062 2.546875 -7.578125 2.578125 -7.609375 C 2.628906 -7.671875 2.6875 -7.722656 2.75 -7.765625 C 2.8125 -7.804688 2.890625 -7.828125 2.984375 -7.828125 C 3.085938 -7.828125 3.179688 -7.804688 3.265625 -7.765625 C 3.347656 -7.722656 3.390625 -7.609375 3.390625 -7.421875 L 3.390625 0 L 5.125 0 L 5.125 -7.671875 C 5.125 -7.867188 5.097656 -8.078125 5.046875 -8.296875 C 4.992188 -8.515625 4.914062 -8.710938 4.8125 -8.890625 C 4.707031 -9.066406 4.570312 -9.210938 4.40625 -9.328125 C 4.25 -9.453125 4.054688 -9.515625 3.828125 -9.515625 C 3.671875 -9.515625 3.519531 -9.472656 3.375 -9.390625 C 3.226562 -9.304688 3.085938 -9.203125 2.953125 -9.078125 C 2.828125 -8.960938 2.71875 -8.863281 2.625 -8.78125 C 2.507812 -8.664062 2.441406 -8.601562 2.421875 -8.59375 L 2.421875 -9.375 L 0.6875 -9.375 L 0.6875 0 Z M 2.421875 0 "/></g></g></g><g fill="#000000" fill-opacity="1"><g transform="translate(43.459988, 15.909674)"><g/></g></g><g fill="#000000" fill-opacity="1"><g transform="translate(46.098748, 15.909674)"><g><path d="M 4 0 L 5.84375 0 L 4.65625 -6.109375 C 5.007812 -6.347656 5.269531 -6.722656 5.4375 -7.234375 C 5.601562 -7.753906 5.6875 -8.332031 5.6875 -8.96875 C 5.6875 -10.15625 5.4375 -11.054688 4.9375 -11.671875 C 4.445312 -12.285156 3.644531 -12.59375 2.53125 -12.59375 L 0.6875 -12.59375 L 0.6875 0 L 2.53125 0 L 2.53125 -5.3125 L 3.03125 -5.3125 Z M 2.53125 -7.03125 L 2.53125 -10.765625 C 2.65625 -10.765625 2.796875 -10.753906 2.953125 -10.734375 C 3.117188 -10.710938 3.269531 -10.632812 3.40625 -10.5 C 3.539062 -10.382812 3.65625 -10.195312 3.75 -9.9375 C 3.851562 -9.6875 3.90625 -9.335938 3.90625 -8.890625 C 3.90625 -8.453125 3.851562 -8.109375 3.75 -7.859375 C 3.65625 -7.609375 3.539062 -7.421875 3.40625 -7.296875 C 3.269531 -7.179688 3.117188 -7.109375 2.953125 -7.078125 C 2.796875 -7.046875 2.65625 -7.03125 2.53125 -7.03125 Z M 2.53125 -7.03125 "/></g></g></g><g fill="#000000" fill-opacity="1"><g transform="translate(52.284416, 15.909674)"><g><path d="M 5.015625 -3.359375 L 3.40625 -3.359375 L 3.40625 -2.328125 C 3.40625 -2.140625 3.382812 -1.976562 3.34375 -1.84375 C 3.3125 -1.71875 3.25 -1.609375 3.15625 -1.515625 C 3.070312 -1.429688 2.953125 -1.390625 2.796875 -1.390625 C 2.648438 -1.390625 2.53125 -1.4375 2.4375 -1.53125 C 2.257812 -1.726562 2.164062 -1.992188 2.15625 -2.328125 L 2.15625 -4.375 L 5.015625 -4.375 L 5.015625 -7.09375 C 5.003906 -7.320312 4.976562 -7.53125 4.9375 -7.71875 C 4.894531 -7.914062 4.832031 -8.109375 4.75 -8.296875 C 4.613281 -8.585938 4.394531 -8.863281 4.09375 -9.125 C 3.789062 -9.382812 3.359375 -9.515625 2.796875 -9.515625 C 2.222656 -9.515625 1.796875 -9.390625 1.515625 -9.140625 C 0.910156 -8.648438 0.585938 -7.953125 0.546875 -7.046875 L 0.546875 -2.328125 C 0.554688 -2.097656 0.582031 -1.878906 0.625 -1.671875 C 0.675781 -1.472656 0.742188 -1.28125 0.828125 -1.09375 C 0.960938 -0.789062 1.179688 -0.507812 1.484375 -0.25 C 1.785156 0.0078125 2.21875 0.140625 2.78125 0.140625 C 3.351562 0.140625 3.785156 0.015625 4.078125 -0.234375 C 4.390625 -0.484375 4.617188 -0.769531 4.765625 -1.09375 C 4.910156 -1.425781 4.992188 -1.820312 5.015625 -2.28125 Z M 2.15625 -5.71875 L 2.15625 -7.046875 C 2.164062 -7.140625 2.175781 -7.222656 2.1875 -7.296875 C 2.207031 -7.378906 2.226562 -7.457031 2.25 -7.53125 C 2.289062 -7.65625 2.347656 -7.765625 2.421875 -7.859375 C 2.503906 -7.953125 2.628906 -8 2.796875 -8 C 2.953125 -8 3.078125 -7.957031 3.171875 -7.875 C 3.328125 -7.675781 3.40625 -7.398438 3.40625 -7.046875 L 3.40625 -5.71875 Z M 2.15625 -5.71875 "/></g></g></g><g fill="#000000" fill-opacity="1"><g transform="translate(57.733289, 15.909674)"><g><path d="M 3.3125 -6.96875 L 4.921875 -6.96875 C 4.921875 -7.238281 4.898438 -7.523438 4.859375 -7.828125 C 4.816406 -8.128906 4.722656 -8.40625 4.578125 -8.65625 C 4.429688 -8.90625 4.207031 -9.113281 3.90625 -9.28125 C 3.613281 -9.445312 3.210938 -9.523438 2.703125 -9.515625 C 2.296875 -9.503906 1.953125 -9.414062 1.671875 -9.25 C 1.398438 -9.09375 1.1875 -8.894531 1.03125 -8.65625 C 0.863281 -8.40625 0.75 -8.128906 0.6875 -7.828125 C 0.625 -7.535156 0.59375 -7.25 0.59375 -6.96875 C 0.59375 -6.632812 0.644531 -6.332031 0.75 -6.0625 C 0.851562 -5.789062 0.976562 -5.539062 1.125 -5.3125 C 1.289062 -5.082031 1.46875 -4.867188 1.65625 -4.671875 C 1.84375 -4.484375 2.039062 -4.289062 2.25 -4.09375 C 2.507812 -3.832031 2.753906 -3.5625 2.984375 -3.28125 C 3.210938 -3 3.328125 -2.71875 3.328125 -2.4375 C 3.328125 -2.15625 3.289062 -1.894531 3.21875 -1.65625 C 3.144531 -1.414062 2.976562 -1.296875 2.71875 -1.296875 C 2.539062 -1.296875 2.398438 -1.347656 2.296875 -1.453125 C 2.191406 -1.554688 2.113281 -1.679688 2.0625 -1.828125 C 2 -1.972656 1.957031 -2.125 1.9375 -2.28125 C 1.925781 -2.445312 1.921875 -2.59375 1.921875 -2.71875 L 0.3125 -2.71875 C 0.3125 -2.46875 0.335938 -2.179688 0.390625 -1.859375 C 0.441406 -1.535156 0.550781 -1.222656 0.71875 -0.921875 C 0.894531 -0.640625 1.140625 -0.390625 1.453125 -0.171875 C 1.773438 0.0351562 2.195312 0.140625 2.71875 0.140625 C 3.132812 0.140625 3.484375 0.0625 3.765625 -0.09375 C 4.046875 -0.257812 4.273438 -0.46875 4.453125 -0.71875 C 4.628906 -0.957031 4.753906 -1.226562 4.828125 -1.53125 C 4.898438 -1.832031 4.9375 -2.132812 4.9375 -2.4375 C 4.9375 -2.738281 4.882812 -3.023438 4.78125 -3.296875 C 4.6875 -3.566406 4.566406 -3.820312 4.421875 -4.0625 C 4.273438 -4.289062 4.101562 -4.503906 3.90625 -4.703125 C 3.707031 -4.910156 3.519531 -5.109375 3.34375 -5.296875 C 3.207031 -5.421875 3.070312 -5.550781 2.9375 -5.6875 C 2.8125 -5.820312 2.695312 -5.960938 2.59375 -6.109375 C 2.476562 -6.242188 2.382812 -6.382812 2.3125 -6.53125 C 2.25 -6.675781 2.21875 -6.820312 2.21875 -6.96875 C 2.21875 -7.082031 2.222656 -7.207031 2.234375 -7.34375 C 2.242188 -7.476562 2.269531 -7.597656 2.3125 -7.703125 C 2.34375 -7.796875 2.394531 -7.878906 2.46875 -7.953125 C 2.539062 -8.035156 2.632812 -8.078125 2.75 -8.078125 C 2.882812 -8.078125 2.988281 -8.035156 3.0625 -7.953125 C 3.132812 -7.878906 3.191406 -7.796875 3.234375 -7.703125 C 3.273438 -7.585938 3.296875 -7.460938 3.296875 -7.328125 C 3.304688 -7.203125 3.3125 -7.082031 3.3125 -6.96875 Z M 3.3125 -6.96875 "/></g></g></g><g fill="#000000" fill-opacity="1"><g transform="translate(63.010808, 15.909674)"><g><path d="M 5.015625 -3.359375 L 3.40625 -3.359375 L 3.40625 -2.328125 C 3.40625 -2.140625 3.382812 -1.976562 3.34375 -1.84375 C 3.3125 -1.71875 3.25 -1.609375 3.15625 -1.515625 C 3.070312 -1.429688 2.953125 -1.390625 2.796875 -1.390625 C 2.648438 -1.390625 2.53125 -1.4375 2.4375 -1.53125 C 2.257812 -1.726562 2.164062 -1.992188 2.15625 -2.328125 L 2.15625 -4.375 L 5.015625 -4.375 L 5.015625 -7.09375 C 5.003906 -7.320312 4.976562 -7.53125 4.9375 -7.71875 C 4.894531 -7.914062 4.832031 -8.109375 4.75 -8.296875 C 4.613281 -8.585938 4.394531 -8.863281 4.09375 -9.125 C 3.789062 -9.382812 3.359375 -9.515625 2.796875 -9.515625 C 2.222656 -9.515625 1.796875 -9.390625 1.515625 -9.140625 C 0.910156 -8.648438 0.585938 -7.953125 0.546875 -7.046875 L 0.546875 -2.328125 C 0.554688 -2.097656 0.582031 -1.878906 0.625 -1.671875 C 0.675781 -1.472656 0.742188 -1.28125 0.828125 -1.09375 C 0.960938 -0.789062 1.179688 -0.507812 1.484375 -0.25 C 1.785156 0.0078125 2.21875 0.140625 2.78125 0.140625 C 3.351562 0.140625 3.785156 0.015625 4.078125 -0.234375 C 4.390625 -0.484375 4.617188 -0.769531 4.765625 -1.09375 C 4.910156 -1.425781 4.992188 -1.820312 5.015625 -2.28125 Z M 2.15625 -5.71875 L 2.15625 -7.046875 C 2.164062 -7.140625 2.175781 -7.222656 2.1875 -7.296875 C 2.207031 -7.378906 2.226562 -7.457031 2.25 -7.53125 C 2.289062 -7.65625 2.347656 -7.765625 2.421875 -7.859375 C 2.503906 -7.953125 2.628906 -8 2.796875 -8 C 2.953125 -8 3.078125 -7.957031 3.171875 -7.875 C 3.328125 -7.675781 3.40625 -7.398438 3.40625 -7.046875 L 3.40625 -5.71875 Z M 2.15625 -5.71875 "/></g></g></g><g fill="#000000" fill-opacity="1"><g transform="translate(68.442536, 15.909674)"><g><path d="M 3.3125 -7.140625 L 3.3125 -6.125 C 3.269531 -6.03125 3.175781 -5.9375 3.03125 -5.84375 C 2.882812 -5.757812 2.703125 -5.660156 2.484375 -5.546875 C 2.265625 -5.429688 2.035156 -5.289062 1.796875 -5.125 C 1.554688 -4.96875 1.332031 -4.753906 1.125 -4.484375 C 0.925781 -4.234375 0.753906 -3.914062 0.609375 -3.53125 C 0.472656 -3.15625 0.40625 -2.703125 0.40625 -2.171875 C 0.40625 -1.679688 0.457031 -1.285156 0.5625 -0.984375 C 0.664062 -0.679688 0.789062 -0.453125 0.9375 -0.296875 C 1.070312 -0.117188 1.21875 -0.00390625 1.375 0.046875 C 1.539062 0.109375 1.679688 0.140625 1.796875 0.140625 C 1.972656 0.140625 2.140625 0.109375 2.296875 0.046875 C 2.453125 -0.015625 2.585938 -0.09375 2.703125 -0.1875 C 2.828125 -0.28125 2.925781 -0.378906 3 -0.484375 C 3.082031 -0.585938 3.144531 -0.675781 3.1875 -0.75 L 3.3125 -0.75 C 3.3125 -0.695312 3.316406 -0.582031 3.328125 -0.40625 C 3.335938 -0.226562 3.382812 -0.09375 3.46875 0 L 5.15625 0 C 5.125 -0.207031 5.097656 -0.425781 5.078125 -0.65625 C 5.054688 -0.882812 5.046875 -1.207031 5.046875 -1.625 L 5.046875 -7.390625 C 5.046875 -7.691406 4.988281 -7.972656 4.875 -8.234375 C 4.757812 -8.503906 4.601562 -8.726562 4.40625 -8.90625 C 3.976562 -9.3125 3.488281 -9.515625 2.9375 -9.515625 C 2.257812 -9.515625 1.703125 -9.269531 1.265625 -8.78125 C 1.054688 -8.550781 0.890625 -8.285156 0.765625 -7.984375 C 0.648438 -7.679688 0.59375 -7.359375 0.59375 -7.015625 L 0.59375 -6.609375 L 2.328125 -6.609375 C 2.328125 -6.679688 2.328125 -6.753906 2.328125 -6.828125 C 2.328125 -6.898438 2.328125 -6.976562 2.328125 -7.0625 C 2.328125 -7.144531 2.328125 -7.222656 2.328125 -7.296875 C 2.335938 -7.367188 2.347656 -7.4375 2.359375 -7.5 C 2.390625 -7.644531 2.4375 -7.765625 2.5 -7.859375 C 2.570312 -7.953125 2.679688 -8 2.828125 -8 C 3.035156 -8 3.175781 -7.90625 3.25 -7.71875 C 3.28125 -7.632812 3.296875 -7.535156 3.296875 -7.421875 C 3.304688 -7.316406 3.3125 -7.222656 3.3125 -7.140625 Z M 3.3125 -4.53125 L 3.3125 -2.125 C 3.3125 -1.96875 3.238281 -1.832031 3.09375 -1.71875 C 2.945312 -1.613281 2.78125 -1.5625 2.59375 -1.5625 C 2.488281 -1.5625 2.40625 -1.59375 2.34375 -1.65625 C 2.28125 -1.726562 2.226562 -1.816406 2.1875 -1.921875 C 2.15625 -2.015625 2.132812 -2.109375 2.125 -2.203125 C 2.113281 -2.296875 2.109375 -2.375 2.109375 -2.4375 C 2.109375 -2.882812 2.203125 -3.296875 2.390625 -3.671875 C 2.578125 -4.054688 2.882812 -4.34375 3.3125 -4.53125 Z M 3.3125 -4.53125 "/></g></g></g><g fill="#000000" fill-opacity="1"><g transform="translate(73.92566, 15.909674)"><g><path d="M 4.140625 -7.59375 L 4.140625 -9.515625 C 3.828125 -9.515625 3.5625 -9.460938 3.34375 -9.359375 C 3.132812 -9.253906 2.960938 -9.140625 2.828125 -9.015625 C 2.691406 -8.878906 2.59375 -8.742188 2.53125 -8.609375 C 2.46875 -8.484375 2.429688 -8.390625 2.421875 -8.328125 L 2.421875 -9.375 L 0.6875 -9.375 L 0.6875 0 L 2.421875 0 L 2.421875 -6.515625 C 2.421875 -6.660156 2.441406 -6.804688 2.484375 -6.953125 C 2.523438 -7.097656 2.628906 -7.238281 2.796875 -7.375 C 2.929688 -7.5 3.078125 -7.578125 3.234375 -7.609375 C 3.390625 -7.640625 3.535156 -7.65625 3.671875 -7.65625 C 3.742188 -7.65625 3.820312 -7.648438 3.90625 -7.640625 C 3.988281 -7.628906 4.066406 -7.613281 4.140625 -7.59375 Z M 4.140625 -7.59375 "/></g></g></g><g fill="#000000" fill-opacity="1"><g transform="translate(78.07228, 15.909674)"><g><path d="M 2.28125 -2.15625 L 2.28125 -7.21875 C 2.28125 -7.382812 2.300781 -7.550781 2.34375 -7.71875 C 2.394531 -7.882812 2.535156 -7.96875 2.765625 -7.96875 C 2.953125 -7.96875 3.078125 -7.910156 3.140625 -7.796875 C 3.210938 -7.691406 3.25 -7.5 3.25 -7.21875 L 3.25 -6.078125 L 4.984375 -6.078125 L 4.984375 -6.828125 C 4.984375 -7.347656 4.9375 -7.78125 4.84375 -8.125 C 4.757812 -8.46875 4.617188 -8.742188 4.421875 -8.953125 C 4.234375 -9.148438 4 -9.289062 3.71875 -9.375 C 3.445312 -9.46875 3.128906 -9.515625 2.765625 -9.515625 C 2.453125 -9.515625 2.15625 -9.46875 1.875 -9.375 C 1.601562 -9.28125 1.375 -9.125 1.1875 -8.90625 C 0.988281 -8.695312 0.832031 -8.414062 0.71875 -8.0625 C 0.601562 -7.707031 0.546875 -7.265625 0.546875 -6.734375 L 0.546875 -2.640625 C 0.546875 -2.109375 0.601562 -1.664062 0.71875 -1.3125 C 0.832031 -0.957031 0.988281 -0.675781 1.1875 -0.46875 C 1.375 -0.25 1.601562 -0.09375 1.875 0 C 2.15625 0.09375 2.453125 0.140625 2.765625 0.140625 C 3.128906 0.140625 3.445312 0.09375 3.71875 0 C 4 -0.0820312 4.234375 -0.222656 4.421875 -0.421875 C 4.617188 -0.628906 4.757812 -0.90625 4.84375 -1.25 C 4.9375 -1.59375 4.984375 -2.023438 4.984375 -2.546875 L 4.984375 -3.46875 L 3.25 -3.46875 L 3.25 -2.15625 C 3.25 -1.875 3.210938 -1.675781 3.140625 -1.5625 C 3.078125 -1.457031 2.953125 -1.40625 2.765625 -1.40625 C 2.535156 -1.40625 2.394531 -1.488281 2.34375 -1.65625 C 2.300781 -1.820312 2.28125 -1.988281 2.28125 -2.15625 Z M 2.28125 -2.15625 "/></g></g></g><g fill="#000000" fill-opacity="1"><g transform="translate(83.469756, 15.909674)"><g><path d="M 2.421875 0 L 2.421875 -7.390625 C 2.441406 -7.429688 2.460938 -7.46875 2.484375 -7.5 C 2.515625 -7.539062 2.546875 -7.578125 2.578125 -7.609375 C 2.628906 -7.671875 2.6875 -7.722656 2.75 -7.765625 C 2.8125 -7.804688 2.890625 -7.828125 2.984375 -7.828125 C 3.085938 -7.828125 3.179688 -7.804688 3.265625 -7.765625 C 3.347656 -7.722656 3.390625 -7.609375 3.390625 -7.421875 L 3.390625 0 L 5.125 0 L 5.125 -7.671875 C 5.125 -7.867188 5.097656 -8.078125 5.046875 -8.296875 C 4.992188 -8.515625 4.914062 -8.710938 4.8125 -8.890625 C 4.707031 -9.066406 4.570312 -9.210938 4.40625 -9.328125 C 4.25 -9.453125 4.054688 -9.515625 3.828125 -9.515625 C 3.671875 -9.515625 3.519531 -9.472656 3.375 -9.390625 C 3.226562 -9.304688 3.085938 -9.203125 2.953125 -9.078125 C 2.828125 -8.960938 2.71875 -8.863281 2.625 -8.78125 C 2.507812 -8.664062 2.441406 -8.601562 2.421875 -8.59375 L 2.421875 -12.59375 L 0.6875 -12.59375 L 0.6875 0 Z M 2.421875 0 "/></g></g></g><g fill="#000000" fill-opacity="1"><g transform="translate(89.244193, 15.909674)"><g><path d="M 5.015625 -3.359375 L 3.40625 -3.359375 L 3.40625 -2.328125 C 3.40625 -2.140625 3.382812 -1.976562 3.34375 -1.84375 C 3.3125 -1.71875 3.25 -1.609375 3.15625 -1.515625 C 3.070312 -1.429688 2.953125 -1.390625 2.796875 -1.390625 C 2.648438 -1.390625 2.53125 -1.4375 2.4375 -1.53125 C 2.257812 -1.726562 2.164062 -1.992188 2.15625 -2.328125 L 2.15625 -4.375 L 5.015625 -4.375 L 5.015625 -7.09375 C 5.003906 -7.320312 4.976562 -7.53125 4.9375 -7.71875 C 4.894531 -7.914062 4.832031 -8.109375 4.75 -8.296875 C 4.613281 -8.585938 4.394531 -8.863281 4.09375 -9.125 C 3.789062 -9.382812 3.359375 -9.515625 2.796875 -9.515625 C 2.222656 -9.515625 1.796875 -9.390625 1.515625 -9.140625 C 0.910156 -8.648438 0.585938 -7.953125 0.546875 -7.046875 L 0.546875 -2.328125 C 0.554688 -2.097656 0.582031 -1.878906 0.625 -1.671875 C 0.675781 -1.472656 0.742188 -1.28125 0.828125 -1.09375 C 0.960938 -0.789062 1.179688 -0.507812 1.484375 -0.25 C 1.785156 0.0078125 2.21875 0.140625 2.78125 0.140625 C 3.351562 0.140625 3.785156 0.015625 4.078125 -0.234375 C 4.390625 -0.484375 4.617188 -0.769531 4.765625 -1.09375 C 4.910156 -1.425781 4.992188 -1.820312 5.015625 -2.28125 Z M 2.15625 -5.71875 L 2.15625 -7.046875 C 2.164062 -7.140625 2.175781 -7.222656 2.1875 -7.296875 C 2.207031 -7.378906 2.226562 -7.457031 2.25 -7.53125 C 2.289062 -7.65625 2.347656 -7.765625 2.421875 -7.859375 C 2.503906 -7.953125 2.628906 -8 2.796875 -8 C 2.953125 -8 3.078125 -7.957031 3.171875 -7.875 C 3.328125 -7.675781 3.40625 -7.398438 3.40625 -7.046875 L 3.40625 -5.71875 Z M 2.15625 -5.71875 "/></g></g></g><g fill="#000000" fill-opacity="1"><g transform="translate(94.727337, 15.909674)"><g><path d="M 4.140625 -7.59375 L 4.140625 -9.515625 C 3.828125 -9.515625 3.5625 -9.460938 3.34375 -9.359375 C 3.132812 -9.253906 2.960938 -9.140625 2.828125 -9.015625 C 2.691406 -8.878906 2.59375 -8.742188 2.53125 -8.609375 C 2.46875 -8.484375 2.429688 -8.390625 2.421875 -8.328125 L 2.421875 -9.375 L 0.6875 -9.375 L 0.6875 0 L 2.421875 0 L 2.421875 -6.515625 C 2.421875 -6.660156 2.441406 -6.804688 2.484375 -6.953125 C 2.523438 -7.097656 2.628906 -7.238281 2.796875 -7.375 C 2.929688 -7.5 3.078125 -7.578125 3.234375 -7.609375 C 3.390625 -7.640625 3.535156 -7.65625 3.671875 -7.65625 C 3.742188 -7.65625 3.820312 -7.648438 3.90625 -7.640625 C 3.988281 -7.628906 4.066406 -7.613281 4.140625 -7.59375 Z M 4.140625 -7.59375 "/></g></g></g><g fill="#000000" fill-opacity="1"><g transform="translate(98.856811, 15.909674)"><g><path d="M 3.3125 -6.96875 L 4.921875 -6.96875 C 4.921875 -7.238281 4.898438 -7.523438 4.859375 -7.828125 C 4.816406 -8.128906 4.722656 -8.40625 4.578125 -8.65625 C 4.429688 -8.90625 4.207031 -9.113281 3.90625 -9.28125 C 3.613281 -9.445312 3.210938 -9.523438 2.703125 -9.515625 C 2.296875 -9.503906 1.953125 -9.414062 1.671875 -9.25 C 1.398438 -9.09375 1.1875 -8.894531 1.03125 -8.65625 C 0.863281 -8.40625 0.75 -8.128906 0.6875 -7.828125 C 0.625 -7.535156 0.59375 -7.25 0.59375 -6.96875 C 0.59375 -6.632812 0.644531 -6.332031 0.75 -6.0625 C 0.851562 -5.789062 0.976562 -5.539062 1.125 -5.3125 C 1.289062 -5.082031 1.46875 -4.867188 1.65625 -4.671875 C 1.84375 -4.484375 2.039062 -4.289062 2.25 -4.09375 C 2.507812 -3.832031 2.753906 -3.5625 2.984375 -3.28125 C 3.210938 -3 3.328125 -2.71875 3.328125 -2.4375 C 3.328125 -2.15625 3.289062 -1.894531 3.21875 -1.65625 C 3.144531 -1.414062 2.976562 -1.296875 2.71875 -1.296875 C 2.539062 -1.296875 2.398438 -1.347656 2.296875 -1.453125 C 2.191406 -1.554688 2.113281 -1.679688 2.0625 -1.828125 C 2 -1.972656 1.957031 -2.125 1.9375 -2.28125 C 1.925781 -2.445312 1.921875 -2.59375 1.921875 -2.71875 L 0.3125 -2.71875 C 0.3125 -2.46875 0.335938 -2.179688 0.390625 -1.859375 C 0.441406 -1.535156 0.550781 -1.222656 0.71875 -0.921875 C 0.894531 -0.640625 1.140625 -0.390625 1.453125 -0.171875 C 1.773438 0.0351562 2.195312 0.140625 2.71875 0.140625 C 3.132812 0.140625 3.484375 0.0625 3.765625 -0.09375 C 4.046875 -0.257812 4.273438 -0.46875 4.453125 -0.71875 C 4.628906 -0.957031 4.753906 -1.226562 4.828125 -1.53125 C 4.898438 -1.832031 4.9375 -2.132812 4.9375 -2.4375 C 4.9375 -2.738281 4.882812 -3.023438 4.78125 -3.296875 C 4.6875 -3.566406 4.566406 -3.820312 4.421875 -4.0625 C 4.273438 -4.289062 4.101562 -4.503906 3.90625 -4.703125 C 3.707031 -4.910156 3.519531 -5.109375 3.34375 -5.296875 C 3.207031 -5.421875 3.070312 -5.550781 2.9375 -5.6875 C 2.8125 -5.820312 2.695312 -5.960938 2.59375 -6.109375 C 2.476562 -6.242188 2.382812 -6.382812 2.3125 -6.53125 C 2.25 -6.675781 2.21875 -6.820312 2.21875 -6.96875 C 2.21875 -7.082031 2.222656 -7.207031 2.234375 -7.34375 C 2.242188 -7.476562 2.269531 -7.597656 2.3125 -7.703125 C 2.34375 -7.796875 2.394531 -7.878906 2.46875 -7.953125 C 2.539062 -8.035156 2.632812 -8.078125 2.75 -8.078125 C 2.882812 -8.078125 2.988281 -8.035156 3.0625 -7.953125 C 3.132812 -7.878906 3.191406 -7.796875 3.234375 -7.703125 C 3.273438 -7.585938 3.296875 -7.460938 3.296875 -7.328125 C 3.304688 -7.203125 3.3125 -7.082031 3.3125 -6.96875 Z M 3.3125 -6.96875 "/></g></g></g><g fill="#000000" fill-opacity="1"><g transform="translate(104.13433, 15.909674)"><g><path d="M 2.171875 -10.703125 L 2.171875 -12.59375 L 0.375 -12.59375 L 0.375 -10.703125 L 0.984375 -10.703125 L 0.375 -8.46875 L 1.234375 -8.46875 Z M 2.171875 -10.703125 "/></g></g></g><g fill="#000000" fill-opacity="1"><g transform="translate(106.721693, 15.909674)"><g/></g></g><g fill="#000000" fill-opacity="1"><g transform="translate(109.360453, 15.909674)"><g><path d="M 2.640625 -6.5625 L 4.4375 0 L 6.078125 0 L 6.078125 -12.59375 L 4.390625 -12.59375 L 4.390625 -5.453125 L 4.28125 -5.453125 L 4.125 -6.03125 L 2.328125 -12.59375 L 0.6875 -12.59375 L 0.6875 0 L 2.375 0 L 2.375 -7.140625 L 2.484375 -7.140625 Z M 2.640625 -6.5625 "/></g></g></g><g fill="#000000" fill-opacity="1"><g transform="translate(116.128706, 15.909674)"><g><path d="M 0.6875 -12.59375 L 0.6875 -10.859375 L 2.421875 -10.859375 L 2.421875 -12.59375 Z M 0.6875 0 L 2.421875 0 L 2.421875 -9.375 L 0.6875 -9.375 Z M 0.6875 0 "/></g></g></g><g fill="#000000" fill-opacity="1"><g transform="translate(119.230112, 15.909674)"><g><path d="M 4.921875 -4.53125 L 4.921875 -7.1875 C 4.921875 -7.207031 4.921875 -7.234375 4.921875 -7.265625 C 4.921875 -7.296875 4.914062 -7.328125 4.90625 -7.359375 C 4.894531 -7.390625 4.890625 -7.453125 4.890625 -7.546875 C 4.878906 -7.566406 4.867188 -7.597656 4.859375 -7.640625 C 4.847656 -7.679688 4.835938 -7.722656 4.828125 -7.765625 C 4.929688 -7.816406 5.066406 -7.863281 5.234375 -7.90625 C 5.410156 -7.945312 5.613281 -7.96875 5.84375 -7.96875 L 5.84375 -9.515625 C 5.707031 -9.515625 5.566406 -9.476562 5.421875 -9.40625 C 5.273438 -9.34375 5.140625 -9.265625 5.015625 -9.171875 C 4.878906 -9.078125 4.757812 -8.976562 4.65625 -8.875 C 4.5625 -8.78125 4.484375 -8.707031 4.421875 -8.65625 C 4.265625 -8.882812 4.046875 -9.082031 3.765625 -9.25 C 3.484375 -9.425781 3.125 -9.515625 2.6875 -9.515625 C 2.144531 -9.515625 1.726562 -9.390625 1.4375 -9.140625 C 1.144531 -8.890625 0.921875 -8.597656 0.765625 -8.265625 C 0.617188 -7.941406 0.53125 -7.5625 0.5 -7.125 L 0.5 -4.578125 C 0.507812 -4.453125 0.523438 -4.320312 0.546875 -4.1875 C 0.566406 -4.0625 0.597656 -3.9375 0.640625 -3.8125 C 0.691406 -3.59375 0.78125 -3.363281 0.90625 -3.125 C 1.039062 -2.894531 1.234375 -2.695312 1.484375 -2.53125 C 1.210938 -2.382812 0.972656 -2.1875 0.765625 -1.9375 C 0.660156 -1.8125 0.570312 -1.679688 0.5 -1.546875 C 0.4375 -1.410156 0.40625 -1.269531 0.40625 -1.125 C 0.40625 -0.757812 0.507812 -0.476562 0.71875 -0.28125 C 0.925781 -0.09375 1.171875 0.0390625 1.453125 0.125 C 1.296875 0.195312 1.132812 0.28125 0.96875 0.375 C 0.800781 0.46875 0.65625 0.578125 0.53125 0.703125 C 0.40625 0.816406 0.300781 0.941406 0.21875 1.078125 C 0.144531 1.222656 0.109375 1.378906 0.109375 1.546875 C 0.109375 1.890625 0.171875 2.175781 0.296875 2.40625 C 0.429688 2.632812 0.625 2.816406 0.875 2.953125 C 1.113281 3.085938 1.40625 3.1875 1.75 3.25 C 2.09375 3.3125 2.46875 3.347656 2.875 3.359375 C 3.226562 3.359375 3.582031 3.316406 3.9375 3.234375 C 4.289062 3.160156 4.613281 3.03125 4.90625 2.84375 C 5.175781 2.664062 5.398438 2.421875 5.578125 2.109375 C 5.753906 1.796875 5.84375 1.410156 5.84375 0.953125 C 5.84375 0.546875 5.769531 0.210938 5.625 -0.046875 C 5.476562 -0.316406 5.289062 -0.53125 5.0625 -0.6875 C 4.820312 -0.84375 4.5625 -0.960938 4.28125 -1.046875 C 4 -1.128906 3.71875 -1.1875 3.4375 -1.21875 C 3.28125 -1.238281 3.125 -1.265625 2.96875 -1.296875 C 2.820312 -1.328125 2.679688 -1.363281 2.546875 -1.40625 C 2.265625 -1.488281 2.125 -1.617188 2.125 -1.796875 C 2.125 -1.941406 2.203125 -2.085938 2.359375 -2.234375 C 2.390625 -2.222656 2.421875 -2.21875 2.453125 -2.21875 C 2.484375 -2.21875 2.507812 -2.21875 2.53125 -2.21875 C 2.5625 -2.21875 2.585938 -2.21875 2.609375 -2.21875 C 2.640625 -2.21875 2.664062 -2.21875 2.6875 -2.21875 C 3.226562 -2.21875 3.648438 -2.335938 3.953125 -2.578125 C 4.546875 -3.023438 4.867188 -3.675781 4.921875 -4.53125 Z M 3.21875 -7.0625 L 3.21875 -4.484375 C 3.21875 -4.328125 3.203125 -4.1875 3.171875 -4.0625 C 3.140625 -3.957031 3.085938 -3.863281 3.015625 -3.78125 C 2.941406 -3.695312 2.832031 -3.65625 2.6875 -3.65625 C 2.550781 -3.65625 2.445312 -3.695312 2.375 -3.78125 C 2.238281 -3.945312 2.175781 -4.179688 2.1875 -4.484375 L 2.1875 -7.0625 C 2.175781 -7.207031 2.191406 -7.347656 2.234375 -7.484375 C 2.253906 -7.585938 2.300781 -7.6875 2.375 -7.78125 C 2.445312 -7.875 2.550781 -7.921875 2.6875 -7.921875 C 2.832031 -7.921875 2.941406 -7.875 3.015625 -7.78125 C 3.148438 -7.59375 3.21875 -7.351562 3.21875 -7.0625 Z M 2.421875 0.421875 L 3.3125 0.59375 C 3.53125 0.632812 3.695312 0.675781 3.8125 0.71875 C 3.9375 0.757812 4.03125 0.8125 4.09375 0.875 C 4.15625 0.925781 4.191406 0.984375 4.203125 1.046875 C 4.222656 1.109375 4.234375 1.179688 4.234375 1.265625 C 4.234375 1.378906 4.191406 1.472656 4.109375 1.546875 C 4.023438 1.617188 3.914062 1.6875 3.78125 1.75 C 3.53125 1.851562 3.238281 1.90625 2.90625 1.90625 C 2.507812 1.90625 2.222656 1.84375 2.046875 1.71875 C 1.867188 1.59375 1.78125 1.4375 1.78125 1.25 C 1.78125 1.070312 1.835938 0.914062 1.953125 0.78125 C 2.078125 0.644531 2.234375 0.523438 2.421875 0.421875 Z M 2.421875 0.421875 "/></g></g></g><g fill="#000000" fill-opacity="1"><g transform="translate(125.090216, 15.909674)"><g><path d="M 2.421875 0 L 2.421875 -7.390625 C 2.441406 -7.429688 2.460938 -7.46875 2.484375 -7.5 C 2.515625 -7.539062 2.546875 -7.578125 2.578125 -7.609375 C 2.628906 -7.671875 2.6875 -7.722656 2.75 -7.765625 C 2.8125 -7.804688 2.890625 -7.828125 2.984375 -7.828125 C 3.085938 -7.828125 3.179688 -7.804688 3.265625 -7.765625 C 3.347656 -7.722656 3.390625 -7.609375 3.390625 -7.421875 L 3.390625 0 L 5.125 0 L 5.125 -7.671875 C 5.125 -7.867188 5.097656 -8.078125 5.046875 -8.296875 C 4.992188 -8.515625 4.914062 -8.710938 4.8125 -8.890625 C 4.707031 -9.066406 4.570312 -9.210938 4.40625 -9.328125 C 4.25 -9.453125 4.054688 -9.515625 3.828125 -9.515625 C 3.671875 -9.515625 3.519531 -9.472656 3.375 -9.390625 C 3.226562 -9.304688 3.085938 -9.203125 2.953125 -9.078125 C 2.828125 -8.960938 2.71875 -8.863281 2.625 -8.78125 C 2.507812 -8.664062 2.441406 -8.601562 2.421875 -8.59375 L 2.421875 -12.59375 L 0.6875 -12.59375 L 0.6875 0 Z M 2.421875 0 "/></g></g></g><g fill="#000000" fill-opacity="1"><g transform="translate(130.761821, 15.909674)"><g><path d="M 2.78125 -11.6875 L 1.046875 -11.6875 L 1.046875 -9.375 L 0.171875 -9.375 L 0.171875 -7.8125 L 1.046875 -7.8125 L 1.046875 -3.015625 C 1.046875 -2.742188 1.054688 -2.425781 1.078125 -2.0625 C 1.109375 -1.707031 1.179688 -1.363281 1.296875 -1.03125 C 1.421875 -0.707031 1.613281 -0.429688 1.875 -0.203125 C 2.144531 0.0234375 2.53125 0.140625 3.03125 0.140625 C 3.300781 0.140625 3.523438 0.117188 3.703125 0.078125 C 3.742188 0.0664062 3.785156 0.0546875 3.828125 0.046875 C 3.867188 0.0351562 3.910156 0.0234375 3.953125 0.015625 L 3.953125 -1.6875 C 3.921875 -1.664062 3.890625 -1.65625 3.859375 -1.65625 C 3.828125 -1.65625 3.789062 -1.648438 3.75 -1.640625 C 3.695312 -1.628906 3.628906 -1.617188 3.546875 -1.609375 C 3.460938 -1.609375 3.390625 -1.609375 3.328125 -1.609375 C 3.191406 -1.609375 3.082031 -1.664062 3 -1.78125 C 2.925781 -1.894531 2.875 -2.023438 2.84375 -2.171875 C 2.8125 -2.335938 2.789062 -2.503906 2.78125 -2.671875 C 2.78125 -2.847656 2.78125 -3.007812 2.78125 -3.15625 L 2.78125 -7.8125 L 3.953125 -7.8125 L 3.953125 -9.375 L 2.78125 -9.375 Z M 2.78125 -11.6875 "/></g></g></g><g fill="#000000" fill-opacity="1"><g transform="translate(0.383085, 39.050814)"><g><path d="M 0.6875 -12.59375 L 0.6875 0 L 4.921875 0 L 4.921875 -1.90625 L 2.53125 -1.90625 L 2.53125 -5.359375 L 4.25 -5.359375 L 4.25 -7.390625 L 2.53125 -7.390625 L 2.53125 -10.703125 L 4.921875 -10.703125 L 4.921875 -12.59375 Z M 0.6875 -12.59375 "/></g></g></g><g fill="#000000" fill-opacity="1"><g transform="translate(5.643478, 39.050814)"><g><path d="M 3.3125 -6.96875 L 4.921875 -6.96875 C 4.921875 -7.238281 4.898438 -7.523438 4.859375 -7.828125 C 4.816406 -8.128906 4.722656 -8.40625 4.578125 -8.65625 C 4.429688 -8.90625 4.207031 -9.113281 3.90625 -9.28125 C 3.613281 -9.445312 3.210938 -9.523438 2.703125 -9.515625 C 2.296875 -9.503906 1.953125 -9.414062 1.671875 -9.25 C 1.398438 -9.09375 1.1875 -8.894531 1.03125 -8.65625 C 0.863281 -8.40625 0.75 -8.128906 0.6875 -7.828125 C 0.625 -7.535156 0.59375 -7.25 0.59375 -6.96875 C 0.59375 -6.632812 0.644531 -6.332031 0.75 -6.0625 C 0.851562 -5.789062 0.976562 -5.539062 1.125 -5.3125 C 1.289062 -5.082031 1.46875 -4.867188 1.65625 -4.671875 C 1.84375 -4.484375 2.039062 -4.289062 2.25 -4.09375 C 2.507812 -3.832031 2.753906 -3.5625 2.984375 -3.28125 C 3.210938 -3 3.328125 -2.71875 3.328125 -2.4375 C 3.328125 -2.15625 3.289062 -1.894531 3.21875 -1.65625 C 3.144531 -1.414062 2.976562 -1.296875 2.71875 -1.296875 C 2.539062 -1.296875 2.398438 -1.347656 2.296875 -1.453125 C 2.191406 -1.554688 2.113281 -1.679688 2.0625 -1.828125 C 2 -1.972656 1.957031 -2.125 1.9375 -2.28125 C 1.925781 -2.445312 1.921875 -2.59375 1.921875 -2.71875 L 0.3125 -2.71875 C 0.3125 -2.46875 0.335938 -2.179688 0.390625 -1.859375 C 0.441406 -1.535156 0.550781 -1.222656 0.71875 -0.921875 C 0.894531 -0.640625 1.140625 -0.390625 1.453125 -0.171875 C 1.773438 0.0351562 2.195312 0.140625 2.71875 0.140625 C 3.132812 0.140625 3.484375 0.0625 3.765625 -0.09375 C 4.046875 -0.257812 4.273438 -0.46875 4.453125 -0.71875 C 4.628906 -0.957031 4.753906 -1.226562 4.828125 -1.53125 C 4.898438 -1.832031 4.9375 -2.132812 4.9375 -2.4375 C 4.9375 -2.738281 4.882812 -3.023438 4.78125 -3.296875 C 4.6875 -3.566406 4.566406 -3.820312 4.421875 -4.0625 C 4.273438 -4.289062 4.101562 -4.503906 3.90625 -4.703125 C 3.707031 -4.910156 3.519531 -5.109375 3.34375 -5.296875 C 3.207031 -5.421875 3.070312 -5.550781 2.9375 -5.6875 C 2.8125 -5.820312 2.695312 -5.960938 2.59375 -6.109375 C 2.476562 -6.242188 2.382812 -6.382812 2.3125 -6.53125 C 2.25 -6.675781 2.21875 -6.820312 2.21875 -6.96875 C 2.21875 -7.082031 2.222656 -7.207031 2.234375 -7.34375 C 2.242188 -7.476562 2.269531 -7.597656 2.3125 -7.703125 C 2.34375 -7.796875 2.394531 -7.878906 2.46875 -7.953125 C 2.539062 -8.035156 2.632812 -8.078125 2.75 -8.078125 C 2.882812 -8.078125 2.988281 -8.035156 3.0625 -7.953125 C 3.132812 -7.878906 3.191406 -7.796875 3.234375 -7.703125 C 3.273438 -7.585938 3.296875 -7.460938 3.296875 -7.328125 C 3.304688 -7.203125 3.3125 -7.082031 3.3125 -6.96875 Z M 3.3125 -6.96875 "/></g></g></g><g fill="#000000" fill-opacity="1"><g transform="translate(10.920997, 39.050814)"><g><path d="M 2.28125 -2.15625 L 2.28125 -7.21875 C 2.28125 -7.382812 2.300781 -7.550781 2.34375 -7.71875 C 2.394531 -7.882812 2.535156 -7.96875 2.765625 -7.96875 C 2.953125 -7.96875 3.078125 -7.910156 3.140625 -7.796875 C 3.210938 -7.691406 3.25 -7.5 3.25 -7.21875 L 3.25 -6.078125 L 4.984375 -6.078125 L 4.984375 -6.828125 C 4.984375 -7.347656 4.9375 -7.78125 4.84375 -8.125 C 4.757812 -8.46875 4.617188 -8.742188 4.421875 -8.953125 C 4.234375 -9.148438 4 -9.289062 3.71875 -9.375 C 3.445312 -9.46875 3.128906 -9.515625 2.765625 -9.515625 C 2.453125 -9.515625 2.15625 -9.46875 1.875 -9.375 C 1.601562 -9.28125 1.375 -9.125 1.1875 -8.90625 C 0.988281 -8.695312 0.832031 -8.414062 0.71875 -8.0625 C 0.601562 -7.707031 0.546875 -7.265625 0.546875 -6.734375 L 0.546875 -2.640625 C 0.546875 -2.109375 0.601562 -1.664062 0.71875 -1.3125 C 0.832031 -0.957031 0.988281 -0.675781 1.1875 -0.46875 C 1.375 -0.25 1.601562 -0.09375 1.875 0 C 2.15625 0.09375 2.453125 0.140625 2.765625 0.140625 C 3.128906 0.140625 3.445312 0.09375 3.71875 0 C 4 -0.0820312 4.234375 -0.222656 4.421875 -0.421875 C 4.617188 -0.628906 4.757812 -0.90625 4.84375 -1.25 C 4.9375 -1.59375 4.984375 -2.023438 4.984375 -2.546875 L 4.984375 -3.46875 L 3.25 -3.46875 L 3.25 -2.15625 C 3.25 -1.875 3.210938 -1.675781 3.140625 -1.5625 C 3.078125 -1.457031 2.953125 -1.40625 2.765625 -1.40625 C 2.535156 -1.40625 2.394531 -1.488281 2.34375 -1.65625 C 2.300781 -1.820312 2.28125 -1.988281 2.28125 -2.15625 Z M 2.28125 -2.15625 "/></g></g></g><g fill="#000000" fill-opacity="1"><g transform="translate(16.232787, 39.050814)"><g><path d="M 3.3125 -7.140625 L 3.3125 -6.125 C 3.269531 -6.03125 3.175781 -5.9375 3.03125 -5.84375 C 2.882812 -5.757812 2.703125 -5.660156 2.484375 -5.546875 C 2.265625 -5.429688 2.035156 -5.289062 1.796875 -5.125 C 1.554688 -4.96875 1.332031 -4.753906 1.125 -4.484375 C 0.925781 -4.234375 0.753906 -3.914062 0.609375 -3.53125 C 0.472656 -3.15625 0.40625 -2.703125 0.40625 -2.171875 C 0.40625 -1.679688 0.457031 -1.285156 0.5625 -0.984375 C 0.664062 -0.679688 0.789062 -0.453125 0.9375 -0.296875 C 1.070312 -0.117188 1.21875 -0.00390625 1.375 0.046875 C 1.539062 0.109375 1.679688 0.140625 1.796875 0.140625 C 1.972656 0.140625 2.140625 0.109375 2.296875 0.046875 C 2.453125 -0.015625 2.585938 -0.09375 2.703125 -0.1875 C 2.828125 -0.28125 2.925781 -0.378906 3 -0.484375 C 3.082031 -0.585938 3.144531 -0.675781 3.1875 -0.75 L 3.3125 -0.75 C 3.3125 -0.695312 3.316406 -0.582031 3.328125 -0.40625 C 3.335938 -0.226562 3.382812 -0.09375 3.46875 0 L 5.15625 0 C 5.125 -0.207031 5.097656 -0.425781 5.078125 -0.65625 C 5.054688 -0.882812 5.046875 -1.207031 5.046875 -1.625 L 5.046875 -7.390625 C 5.046875 -7.691406 4.988281 -7.972656 4.875 -8.234375 C 4.757812 -8.503906 4.601562 -8.726562 4.40625 -8.90625 C 3.976562 -9.3125 3.488281 -9.515625 2.9375 -9.515625 C 2.257812 -9.515625 1.703125 -9.269531 1.265625 -8.78125 C 1.054688 -8.550781 0.890625 -8.285156 0.765625 -7.984375 C 0.648438 -7.679688 0.59375 -7.359375 0.59375 -7.015625 L 0.59375 -6.609375 L 2.328125 -6.609375 C 2.328125 -6.679688 2.328125 -6.753906 2.328125 -6.828125 C 2.328125 -6.898438 2.328125 -6.976562 2.328125 -7.0625 C 2.328125 -7.144531 2.328125 -7.222656 2.328125 -7.296875 C 2.335938 -7.367188 2.347656 -7.4375 2.359375 -7.5 C 2.390625 -7.644531 2.4375 -7.765625 2.5 -7.859375 C 2.570312 -7.953125 2.679688 -8 2.828125 -8 C 3.035156 -8 3.175781 -7.90625 3.25 -7.71875 C 3.28125 -7.632812 3.296875 -7.535156 3.296875 -7.421875 C 3.304688 -7.316406 3.3125 -7.222656 3.3125 -7.140625 Z M 3.3125 -4.53125 L 3.3125 -2.125 C 3.3125 -1.96875 3.238281 -1.832031 3.09375 -1.71875 C 2.945312 -1.613281 2.78125 -1.5625 2.59375 -1.5625 C 2.488281 -1.5625 2.40625 -1.59375 2.34375 -1.65625 C 2.28125 -1.726562 2.226562 -1.816406 2.1875 -1.921875 C 2.15625 -2.015625 2.132812 -2.109375 2.125 -2.203125 C 2.113281 -2.296875 2.109375 -2.375 2.109375 -2.4375 C 2.109375 -2.882812 2.203125 -3.296875 2.390625 -3.671875 C 2.578125 -4.054688 2.882812 -4.34375 3.3125 -4.53125 Z M 3.3125 -4.53125 "/></g></g></g><g fill="#000000" fill-opacity="1"><g transform="translate(21.715911, 39.050814)"><g><path d="M 0.6875 -9.375 L 0.6875 3.21875 L 2.421875 3.21875 L 2.421875 -0.609375 C 2.492188 -0.546875 2.566406 -0.484375 2.640625 -0.421875 C 2.710938 -0.359375 2.785156 -0.296875 2.859375 -0.234375 C 2.984375 -0.148438 3.128906 -0.0664062 3.296875 0.015625 C 3.460938 0.0976562 3.625 0.140625 3.78125 0.140625 C 4.019531 0.140625 4.222656 0.0820312 4.390625 -0.03125 C 4.554688 -0.15625 4.695312 -0.3125 4.8125 -0.5 C 4.914062 -0.664062 4.992188 -0.859375 5.046875 -1.078125 C 5.097656 -1.296875 5.125 -1.503906 5.125 -1.703125 L 5.125 -7.671875 C 5.125 -7.867188 5.097656 -8.078125 5.046875 -8.296875 C 4.992188 -8.515625 4.914062 -8.710938 4.8125 -8.890625 C 4.695312 -9.066406 4.554688 -9.210938 4.390625 -9.328125 C 4.222656 -9.453125 4.019531 -9.515625 3.78125 -9.515625 C 3.613281 -9.515625 3.457031 -9.472656 3.3125 -9.390625 C 3.132812 -9.304688 2.976562 -9.210938 2.84375 -9.109375 C 2.707031 -9.015625 2.566406 -8.898438 2.421875 -8.765625 L 2.421875 -9.375 Z M 2.421875 -2.0625 L 2.421875 -7.3125 C 2.421875 -7.476562 2.472656 -7.613281 2.578125 -7.71875 C 2.691406 -7.832031 2.8125 -7.890625 2.9375 -7.890625 C 3.0625 -7.890625 3.164062 -7.832031 3.25 -7.71875 C 3.34375 -7.613281 3.390625 -7.476562 3.390625 -7.3125 L 3.390625 -2.0625 C 3.390625 -1.894531 3.34375 -1.753906 3.25 -1.640625 C 3.164062 -1.535156 3.0625 -1.484375 2.9375 -1.484375 C 2.8125 -1.484375 2.691406 -1.539062 2.578125 -1.65625 C 2.472656 -1.78125 2.421875 -1.914062 2.421875 -2.0625 Z M 2.421875 -2.0625 "/></g></g></g><g fill="#000000" fill-opacity="1"><g transform="translate(27.456077, 39.050814)"><g><path d="M 5.015625 -3.359375 L 3.40625 -3.359375 L 3.40625 -2.328125 C 3.40625 -2.140625 3.382812 -1.976562 3.34375 -1.84375 C 3.3125 -1.71875 3.25 -1.609375 3.15625 -1.515625 C 3.070312 -1.429688 2.953125 -1.390625 2.796875 -1.390625 C 2.648438 -1.390625 2.53125 -1.4375 2.4375 -1.53125 C 2.257812 -1.726562 2.164062 -1.992188 2.15625 -2.328125 L 2.15625 -4.375 L 5.015625 -4.375 L 5.015625 -7.09375 C 5.003906 -7.320312 4.976562 -7.53125 4.9375 -7.71875 C 4.894531 -7.914062 4.832031 -8.109375 4.75 -8.296875 C 4.613281 -8.585938 4.394531 -8.863281 4.09375 -9.125 C 3.789062 -9.382812 3.359375 -9.515625 2.796875 -9.515625 C 2.222656 -9.515625 1.796875 -9.390625 1.515625 -9.140625 C 0.910156 -8.648438 0.585938 -7.953125 0.546875 -7.046875 L 0.546875 -2.328125 C 0.554688 -2.097656 0.582031 -1.878906 0.625 -1.671875 C 0.675781 -1.472656 0.742188 -1.28125 0.828125 -1.09375 C 0.960938 -0.789062 1.179688 -0.507812 1.484375 -0.25 C 1.785156 0.0078125 2.21875 0.140625 2.78125 0.140625 C 3.351562 0.140625 3.785156 0.015625 4.078125 -0.234375 C 4.390625 -0.484375 4.617188 -0.769531 4.765625 -1.09375 C 4.910156 -1.425781 4.992188 -1.820312 5.015625 -2.28125 Z M 2.15625 -5.71875 L 2.15625 -7.046875 C 2.164062 -7.140625 2.175781 -7.222656 2.1875 -7.296875 C 2.207031 -7.378906 2.226562 -7.457031 2.25 -7.53125 C 2.289062 -7.65625 2.347656 -7.765625 2.421875 -7.859375 C 2.503906 -7.953125 2.628906 -8 2.796875 -8 C 2.953125 -8 3.078125 -7.957031 3.171875 -7.875 C 3.328125 -7.675781 3.40625 -7.398438 3.40625 -7.046875 L 3.40625 -5.71875 Z M 2.15625 -5.71875 "/></g></g></g><g fill="#000000" fill-opacity="1"><g transform="translate(32.973492, 39.050814)"><g/></g></g><g fill="#000000" fill-opacity="1"><g transform="translate(35.617077, 39.050814)"><g><path d="M 3.75 -9.21875 L 5.578125 -9.390625 C 5.578125 -9.742188 5.539062 -10.117188 5.46875 -10.515625 C 5.40625 -10.910156 5.285156 -11.28125 5.109375 -11.625 C 4.921875 -11.957031 4.660156 -12.226562 4.328125 -12.4375 C 3.992188 -12.644531 3.546875 -12.742188 2.984375 -12.734375 C 2.546875 -12.722656 2.171875 -12.628906 1.859375 -12.453125 C 1.554688 -12.273438 1.304688 -12.050781 1.109375 -11.78125 C 0.921875 -11.488281 0.78125 -11.164062 0.6875 -10.8125 C 0.601562 -10.46875 0.5625 -10.125 0.5625 -9.78125 C 0.5625 -9.4375 0.613281 -9.101562 0.71875 -8.78125 C 0.90625 -8.125 1.207031 -7.472656 1.625 -6.828125 C 1.832031 -6.503906 2.03125 -6.195312 2.21875 -5.90625 C 2.414062 -5.625 2.609375 -5.351562 2.796875 -5.09375 C 2.890625 -4.96875 2.972656 -4.84375 3.046875 -4.71875 C 3.117188 -4.59375 3.195312 -4.46875 3.28125 -4.34375 C 3.414062 -4.082031 3.523438 -3.832031 3.609375 -3.59375 C 3.703125 -3.363281 3.75 -3.148438 3.75 -2.953125 C 3.75 -2.546875 3.691406 -2.210938 3.578125 -1.953125 C 3.460938 -1.691406 3.269531 -1.5625 3 -1.5625 C 2.800781 -1.5625 2.644531 -1.625 2.53125 -1.75 C 2.414062 -1.875 2.332031 -2.039062 2.28125 -2.25 C 2.207031 -2.4375 2.160156 -2.660156 2.140625 -2.921875 C 2.128906 -3.179688 2.125 -3.441406 2.125 -3.703125 L 0.3125 -3.53125 C 0.3125 -3.0625 0.34375 -2.609375 0.40625 -2.171875 C 0.46875 -1.734375 0.585938 -1.34375 0.765625 -1 C 0.960938 -0.65625 1.234375 -0.378906 1.578125 -0.171875 C 1.929688 0.0351562 2.40625 0.140625 3 0.140625 C 3.5 0.140625 3.914062 0.0507812 4.25 -0.125 C 4.582031 -0.300781 4.847656 -0.535156 5.046875 -0.828125 C 5.234375 -1.117188 5.367188 -1.453125 5.453125 -1.828125 C 5.535156 -2.210938 5.578125 -2.613281 5.578125 -3.03125 C 5.578125 -3.375 5.523438 -3.707031 5.421875 -4.03125 C 5.316406 -4.363281 5.179688 -4.6875 5.015625 -5 C 4.859375 -5.320312 4.675781 -5.640625 4.46875 -5.953125 C 4.269531 -6.273438 4.0625 -6.597656 3.84375 -6.921875 C 3.65625 -7.179688 3.472656 -7.4375 3.296875 -7.6875 C 3.128906 -7.945312 2.976562 -8.195312 2.84375 -8.4375 C 2.707031 -8.675781 2.59375 -8.90625 2.5 -9.125 C 2.414062 -9.351562 2.375 -9.570312 2.375 -9.78125 C 2.375 -10.144531 2.421875 -10.441406 2.515625 -10.671875 C 2.609375 -10.898438 2.773438 -11.019531 3.015625 -11.03125 C 3.160156 -11.03125 3.28125 -10.976562 3.375 -10.875 C 3.476562 -10.769531 3.554688 -10.628906 3.609375 -10.453125 C 3.671875 -10.273438 3.707031 -10.078125 3.71875 -9.859375 C 3.738281 -9.640625 3.75 -9.425781 3.75 -9.21875 Z M 3.75 -9.21875 "/></g></g></g><g fill="#000000" fill-opacity="1"><g transform="translate(41.494327, 39.050814)"><g><path d="M 2.28125 -2.15625 L 2.28125 -7.21875 C 2.28125 -7.382812 2.300781 -7.550781 2.34375 -7.71875 C 2.394531 -7.882812 2.535156 -7.96875 2.765625 -7.96875 C 2.953125 -7.96875 3.078125 -7.910156 3.140625 -7.796875 C 3.210938 -7.691406 3.25 -7.5 3.25 -7.21875 L 3.25 -6.078125 L 4.984375 -6.078125 L 4.984375 -6.828125 C 4.984375 -7.347656 4.9375 -7.78125 4.84375 -8.125 C 4.757812 -8.46875 4.617188 -8.742188 4.421875 -8.953125 C 4.234375 -9.148438 4 -9.289062 3.71875 -9.375 C 3.445312 -9.46875 3.128906 -9.515625 2.765625 -9.515625 C 2.453125 -9.515625 2.15625 -9.46875 1.875 -9.375 C 1.601562 -9.28125 1.375 -9.125 1.1875 -8.90625 C 0.988281 -8.695312 0.832031 -8.414062 0.71875 -8.0625 C 0.601562 -7.707031 0.546875 -7.265625 0.546875 -6.734375 L 0.546875 -2.640625 C 0.546875 -2.109375 0.601562 -1.664062 0.71875 -1.3125 C 0.832031 -0.957031 0.988281 -0.675781 1.1875 -0.46875 C 1.375 -0.25 1.601562 -0.09375 1.875 0 C 2.15625 0.09375 2.453125 0.140625 2.765625 0.140625 C 3.128906 0.140625 3.445312 0.09375 3.71875 0 C 4 -0.0820312 4.234375 -0.222656 4.421875 -0.421875 C 4.617188 -0.628906 4.757812 -0.90625 4.84375 -1.25 C 4.9375 -1.59375 4.984375 -2.023438 4.984375 -2.546875 L 4.984375 -3.46875 L 3.25 -3.46875 L 3.25 -2.15625 C 3.25 -1.875 3.210938 -1.675781 3.140625 -1.5625 C 3.078125 -1.457031 2.953125 -1.40625 2.765625 -1.40625 C 2.535156 -1.40625 2.394531 -1.488281 2.34375 -1.65625 C 2.300781 -1.820312 2.28125 -1.988281 2.28125 -2.15625 Z M 2.28125 -2.15625 "/></g></g></g><g fill="#000000" fill-opacity="1"><g transform="translate(46.857533, 39.050814)"><g><path d="M 0.6875 -12.59375 L 0.6875 -10.859375 L 2.421875 -10.859375 L 2.421875 -12.59375 Z M 0.6875 0 L 2.421875 0 L 2.421875 -9.375 L 0.6875 -9.375 Z M 0.6875 0 "/></g></g></g><g fill="#000000" fill-opacity="1"><g transform="translate(49.924668, 39.050814)"><g><path d="M 5.015625 -3.359375 L 3.40625 -3.359375 L 3.40625 -2.328125 C 3.40625 -2.140625 3.382812 -1.976562 3.34375 -1.84375 C 3.3125 -1.71875 3.25 -1.609375 3.15625 -1.515625 C 3.070312 -1.429688 2.953125 -1.390625 2.796875 -1.390625 C 2.648438 -1.390625 2.53125 -1.4375 2.4375 -1.53125 C 2.257812 -1.726562 2.164062 -1.992188 2.15625 -2.328125 L 2.15625 -4.375 L 5.015625 -4.375 L 5.015625 -7.09375 C 5.003906 -7.320312 4.976562 -7.53125 4.9375 -7.71875 C 4.894531 -7.914062 4.832031 -8.109375 4.75 -8.296875 C 4.613281 -8.585938 4.394531 -8.863281 4.09375 -9.125 C 3.789062 -9.382812 3.359375 -9.515625 2.796875 -9.515625 C 2.222656 -9.515625 1.796875 -9.390625 1.515625 -9.140625 C 0.910156 -8.648438 0.585938 -7.953125 0.546875 -7.046875 L 0.546875 -2.328125 C 0.554688 -2.097656 0.582031 -1.878906 0.625 -1.671875 C 0.675781 -1.472656 0.742188 -1.28125 0.828125 -1.09375 C 0.960938 -0.789062 1.179688 -0.507812 1.484375 -0.25 C 1.785156 0.0078125 2.21875 0.140625 2.78125 0.140625 C 3.351562 0.140625 3.785156 0.015625 4.078125 -0.234375 C 4.390625 -0.484375 4.617188 -0.769531 4.765625 -1.09375 C 4.910156 -1.425781 4.992188 -1.820312 5.015625 -2.28125 Z M 2.15625 -5.71875 L 2.15625 -7.046875 C 2.164062 -7.140625 2.175781 -7.222656 2.1875 -7.296875 C 2.207031 -7.378906 2.226562 -7.457031 2.25 -7.53125 C 2.289062 -7.65625 2.347656 -7.765625 2.421875 -7.859375 C 2.503906 -7.953125 2.628906 -8 2.796875 -8 C 2.953125 -8 3.078125 -7.957031 3.171875 -7.875 C 3.328125 -7.675781 3.40625 -7.398438 3.40625 -7.046875 L 3.40625 -5.71875 Z M 2.15625 -5.71875 "/></g></g></g><g fill="#000000" fill-opacity="1"><g transform="translate(55.407813, 39.050814)"><g><path d="M 2.421875 0 L 2.421875 -7.390625 C 2.441406 -7.429688 2.460938 -7.46875 2.484375 -7.5 C 2.515625 -7.539062 2.546875 -7.578125 2.578125 -7.609375 C 2.628906 -7.671875 2.6875 -7.722656 2.75 -7.765625 C 2.8125 -7.804688 2.890625 -7.828125 2.984375 -7.828125 C 3.085938 -7.828125 3.179688 -7.804688 3.265625 -7.765625 C 3.347656 -7.722656 3.390625 -7.609375 3.390625 -7.421875 L 3.390625 0 L 5.125 0 L 5.125 -7.671875 C 5.125 -7.867188 5.097656 -8.078125 5.046875 -8.296875 C 4.992188 -8.515625 4.914062 -8.710938 4.8125 -8.890625 C 4.707031 -9.066406 4.570312 -9.210938 4.40625 -9.328125 C 4.25 -9.453125 4.054688 -9.515625 3.828125 -9.515625 C 3.671875 -9.515625 3.519531 -9.472656 3.375 -9.390625 C 3.226562 -9.304688 3.085938 -9.203125 2.953125 -9.078125 C 2.828125 -8.960938 2.71875 -8.863281 2.625 -8.78125 C 2.507812 -8.664062 2.441406 -8.601562 2.421875 -8.59375 L 2.421875 -9.375 L 0.6875 -9.375 L 0.6875 0 Z M 2.421875 0 "/></g></g></g><g fill="#000000" fill-opacity="1"><g transform="translate(61.182249, 39.050814)"><g><path d="M 2.28125 -2.15625 L 2.28125 -7.21875 C 2.28125 -7.382812 2.300781 -7.550781 2.34375 -7.71875 C 2.394531 -7.882812 2.535156 -7.96875 2.765625 -7.96875 C 2.953125 -7.96875 3.078125 -7.910156 3.140625 -7.796875 C 3.210938 -7.691406 3.25 -7.5 3.25 -7.21875 L 3.25 -6.078125 L 4.984375 -6.078125 L 4.984375 -6.828125 C 4.984375 -7.347656 4.9375 -7.78125 4.84375 -8.125 C 4.757812 -8.46875 4.617188 -8.742188 4.421875 -8.953125 C 4.234375 -9.148438 4 -9.289062 3.71875 -9.375 C 3.445312 -9.46875 3.128906 -9.515625 2.765625 -9.515625 C 2.453125 -9.515625 2.15625 -9.46875 1.875 -9.375 C 1.601562 -9.28125 1.375 -9.125 1.1875 -8.90625 C 0.988281 -8.695312 0.832031 -8.414062 0.71875 -8.0625 C 0.601562 -7.707031 0.546875 -7.265625 0.546875 -6.734375 L 0.546875 -2.640625 C 0.546875 -2.109375 0.601562 -1.664062 0.71875 -1.3125 C 0.832031 -0.957031 0.988281 -0.675781 1.1875 -0.46875 C 1.375 -0.25 1.601562 -0.09375 1.875 0 C 2.15625 0.09375 2.453125 0.140625 2.765625 0.140625 C 3.128906 0.140625 3.445312 0.09375 3.71875 0 C 4 -0.0820312 4.234375 -0.222656 4.421875 -0.421875 C 4.617188 -0.628906 4.757812 -0.90625 4.84375 -1.25 C 4.9375 -1.59375 4.984375 -2.023438 4.984375 -2.546875 L 4.984375 -3.46875 L 3.25 -3.46875 L 3.25 -2.15625 C 3.25 -1.875 3.210938 -1.675781 3.140625 -1.5625 C 3.078125 -1.457031 2.953125 -1.40625 2.765625 -1.40625 C 2.535156 -1.40625 2.394531 -1.488281 2.34375 -1.65625 C 2.300781 -1.820312 2.28125 -1.988281 2.28125 -2.15625 Z M 2.28125 -2.15625 "/></g></g></g><g fill="#000000" fill-opacity="1"><g transform="translate(66.579726, 39.050814)"><g><path d="M 5.015625 -3.359375 L 3.40625 -3.359375 L 3.40625 -2.328125 C 3.40625 -2.140625 3.382812 -1.976562 3.34375 -1.84375 C 3.3125 -1.71875 3.25 -1.609375 3.15625 -1.515625 C 3.070312 -1.429688 2.953125 -1.390625 2.796875 -1.390625 C 2.648438 -1.390625 2.53125 -1.4375 2.4375 -1.53125 C 2.257812 -1.726562 2.164062 -1.992188 2.15625 -2.328125 L 2.15625 -4.375 L 5.015625 -4.375 L 5.015625 -7.09375 C 5.003906 -7.320312 4.976562 -7.53125 4.9375 -7.71875 C 4.894531 -7.914062 4.832031 -8.109375 4.75 -8.296875 C 4.613281 -8.585938 4.394531 -8.863281 4.09375 -9.125 C 3.789062 -9.382812 3.359375 -9.515625 2.796875 -9.515625 C 2.222656 -9.515625 1.796875 -9.390625 1.515625 -9.140625 C 0.910156 -8.648438 0.585938 -7.953125 0.546875 -7.046875 L 0.546875 -2.328125 C 0.554688 -2.097656 0.582031 -1.878906 0.625 -1.671875 C 0.675781 -1.472656 0.742188 -1.28125 0.828125 -1.09375 C 0.960938 -0.789062 1.179688 -0.507812 1.484375 -0.25 C 1.785156 0.0078125 2.21875 0.140625 2.78125 0.140625 C 3.351562 0.140625 3.785156 0.015625 4.078125 -0.234375 C 4.390625 -0.484375 4.617188 -0.769531 4.765625 -1.09375 C 4.910156 -1.425781 4.992188 -1.820312 5.015625 -2.28125 Z M 2.15625 -5.71875 L 2.15625 -7.046875 C 2.164062 -7.140625 2.175781 -7.222656 2.1875 -7.296875 C 2.207031 -7.378906 2.226562 -7.457031 2.25 -7.53125 C 2.289062 -7.65625 2.347656 -7.765625 2.421875 -7.859375 C 2.503906 -7.953125 2.628906 -8 2.796875 -8 C 2.953125 -8 3.078125 -7.957031 3.171875 -7.875 C 3.328125 -7.675781 3.40625 -7.398438 3.40625 -7.046875 L 3.40625 -5.71875 Z M 2.15625 -5.71875 "/></g></g></g><g fill="#000000" fill-opacity="1"><g transform="translate(72.097141, 39.050814)"><g/></g></g><g fill="#000000" fill-opacity="1"><g transform="translate(74.735901, 39.050814)"><g><path d="M 0.03125 -10.703125 L 1.78125 -10.703125 L 1.78125 0 L 3.640625 0 L 3.640625 -10.703125 L 5.375 -10.703125 L 5.375 -12.59375 L 0.03125 -12.59375 Z M 0.03125 -10.703125 "/></g></g></g><g fill="#000000" fill-opacity="1"><g transform="translate(79.670652, 39.050814)"><g><path d="M 5.015625 -3.359375 L 3.40625 -3.359375 L 3.40625 -2.328125 C 3.40625 -2.140625 3.382812 -1.976562 3.34375 -1.84375 C 3.3125 -1.71875 3.25 -1.609375 3.15625 -1.515625 C 3.070312 -1.429688 2.953125 -1.390625 2.796875 -1.390625 C 2.648438 -1.390625 2.53125 -1.4375 2.4375 -1.53125 C 2.257812 -1.726562 2.164062 -1.992188 2.15625 -2.328125 L 2.15625 -4.375 L 5.015625 -4.375 L 5.015625 -7.09375 C 5.003906 -7.320312 4.976562 -7.53125 4.9375 -7.71875 C 4.894531 -7.914062 4.832031 -8.109375 4.75 -8.296875 C 4.613281 -8.585938 4.394531 -8.863281 4.09375 -9.125 C 3.789062 -9.382812 3.359375 -9.515625 2.796875 -9.515625 C 2.222656 -9.515625 1.796875 -9.390625 1.515625 -9.140625 C 0.910156 -8.648438 0.585938 -7.953125 0.546875 -7.046875 L 0.546875 -2.328125 C 0.554688 -2.097656 0.582031 -1.878906 0.625 -1.671875 C 0.675781 -1.472656 0.742188 -1.28125 0.828125 -1.09375 C 0.960938 -0.789062 1.179688 -0.507812 1.484375 -0.25 C 1.785156 0.0078125 2.21875 0.140625 2.78125 0.140625 C 3.351562 0.140625 3.785156 0.015625 4.078125 -0.234375 C 4.390625 -0.484375 4.617188 -0.769531 4.765625 -1.09375 C 4.910156 -1.425781 4.992188 -1.820312 5.015625 -2.28125 Z M 2.15625 -5.71875 L 2.15625 -7.046875 C 2.164062 -7.140625 2.175781 -7.222656 2.1875 -7.296875 C 2.207031 -7.378906 2.226562 -7.457031 2.25 -7.53125 C 2.289062 -7.65625 2.347656 -7.765625 2.421875 -7.859375 C 2.503906 -7.953125 2.628906 -8 2.796875 -8 C 2.953125 -8 3.078125 -7.957031 3.171875 -7.875 C 3.328125 -7.675781 3.40625 -7.398438 3.40625 -7.046875 L 3.40625 -5.71875 Z M 2.15625 -5.71875 "/></g></g></g><g fill="#000000" fill-opacity="1"><g transform="translate(85.10238, 39.050814)"><g><path d="M 3.3125 -7.140625 L 3.3125 -6.125 C 3.269531 -6.03125 3.175781 -5.9375 3.03125 -5.84375 C 2.882812 -5.757812 2.703125 -5.660156 2.484375 -5.546875 C 2.265625 -5.429688 2.035156 -5.289062 1.796875 -5.125 C 1.554688 -4.96875 1.332031 -4.753906 1.125 -4.484375 C 0.925781 -4.234375 0.753906 -3.914062 0.609375 -3.53125 C 0.472656 -3.15625 0.40625 -2.703125 0.40625 -2.171875 C 0.40625 -1.679688 0.457031 -1.285156 0.5625 -0.984375 C 0.664062 -0.679688 0.789062 -0.453125 0.9375 -0.296875 C 1.070312 -0.117188 1.21875 -0.00390625 1.375 0.046875 C 1.539062 0.109375 1.679688 0.140625 1.796875 0.140625 C 1.972656 0.140625 2.140625 0.109375 2.296875 0.046875 C 2.453125 -0.015625 2.585938 -0.09375 2.703125 -0.1875 C 2.828125 -0.28125 2.925781 -0.378906 3 -0.484375 C 3.082031 -0.585938 3.144531 -0.675781 3.1875 -0.75 L 3.3125 -0.75 C 3.3125 -0.695312 3.316406 -0.582031 3.328125 -0.40625 C 3.335938 -0.226562 3.382812 -0.09375 3.46875 0 L 5.15625 0 C 5.125 -0.207031 5.097656 -0.425781 5.078125 -0.65625 C 5.054688 -0.882812 5.046875 -1.207031 5.046875 -1.625 L 5.046875 -7.390625 C 5.046875 -7.691406 4.988281 -7.972656 4.875 -8.234375 C 4.757812 -8.503906 4.601562 -8.726562 4.40625 -8.90625 C 3.976562 -9.3125 3.488281 -9.515625 2.9375 -9.515625 C 2.257812 -9.515625 1.703125 -9.269531 1.265625 -8.78125 C 1.054688 -8.550781 0.890625 -8.285156 0.765625 -7.984375 C 0.648438 -7.679688 0.59375 -7.359375 0.59375 -7.015625 L 0.59375 -6.609375 L 2.328125 -6.609375 C 2.328125 -6.679688 2.328125 -6.753906 2.328125 -6.828125 C 2.328125 -6.898438 2.328125 -6.976562 2.328125 -7.0625 C 2.328125 -7.144531 2.328125 -7.222656 2.328125 -7.296875 C 2.335938 -7.367188 2.347656 -7.4375 2.359375 -7.5 C 2.390625 -7.644531 2.4375 -7.765625 2.5 -7.859375 C 2.570312 -7.953125 2.679688 -8 2.828125 -8 C 3.035156 -8 3.175781 -7.90625 3.25 -7.71875 C 3.28125 -7.632812 3.296875 -7.535156 3.296875 -7.421875 C 3.304688 -7.316406 3.3125 -7.222656 3.3125 -7.140625 Z M 3.3125 -4.53125 L 3.3125 -2.125 C 3.3125 -1.96875 3.238281 -1.832031 3.09375 -1.71875 C 2.945312 -1.613281 2.78125 -1.5625 2.59375 -1.5625 C 2.488281 -1.5625 2.40625 -1.59375 2.34375 -1.65625 C 2.28125 -1.726562 2.226562 -1.816406 2.1875 -1.921875 C 2.15625 -2.015625 2.132812 -2.109375 2.125 -2.203125 C 2.113281 -2.296875 2.109375 -2.375 2.109375 -2.4375 C 2.109375 -2.882812 2.203125 -3.296875 2.390625 -3.671875 C 2.578125 -4.054688 2.882812 -4.34375 3.3125 -4.53125 Z M 3.3125 -4.53125 "/></g></g></g><g fill="#000000" fill-opacity="1"><g transform="translate(90.585505, 39.050814)"><g><path d="M 5.15625 0 L 5.15625 -7.390625 C 5.175781 -7.429688 5.203125 -7.46875 5.234375 -7.5 C 5.273438 -7.539062 5.3125 -7.578125 5.34375 -7.609375 C 5.40625 -7.671875 5.472656 -7.722656 5.546875 -7.765625 C 5.628906 -7.804688 5.71875 -7.828125 5.8125 -7.828125 C 5.90625 -7.828125 6.003906 -7.804688 6.109375 -7.765625 C 6.222656 -7.722656 6.28125 -7.609375 6.28125 -7.421875 L 6.28125 0 L 7.90625 0 L 7.90625 -7.671875 C 7.90625 -7.867188 7.878906 -8.078125 7.828125 -8.296875 C 7.773438 -8.515625 7.695312 -8.710938 7.59375 -8.890625 C 7.488281 -9.066406 7.351562 -9.210938 7.1875 -9.328125 C 7.019531 -9.453125 6.820312 -9.515625 6.59375 -9.515625 C 6.445312 -9.515625 6.296875 -9.46875 6.140625 -9.375 C 5.796875 -9.175781 5.515625 -8.957031 5.296875 -8.71875 C 5.234375 -8.664062 5.179688 -8.613281 5.140625 -8.5625 C 5.097656 -8.519531 5.054688 -8.488281 5.015625 -8.46875 C 4.929688 -8.738281 4.789062 -8.976562 4.59375 -9.1875 C 4.40625 -9.40625 4.160156 -9.515625 3.859375 -9.515625 C 3.710938 -9.515625 3.5625 -9.472656 3.40625 -9.390625 C 3.257812 -9.304688 3.113281 -9.203125 2.96875 -9.078125 C 2.832031 -8.960938 2.71875 -8.863281 2.625 -8.78125 C 2.507812 -8.664062 2.441406 -8.601562 2.421875 -8.59375 L 2.421875 -9.375 L 0.6875 -9.375 L 0.6875 0 L 2.421875 0 L 2.421875 -7.390625 C 2.441406 -7.429688 2.46875 -7.46875 2.5 -7.5 C 2.53125 -7.539062 2.566406 -7.578125 2.609375 -7.609375 C 2.660156 -7.671875 2.726562 -7.722656 2.8125 -7.765625 C 2.894531 -7.804688 2.976562 -7.828125 3.0625 -7.828125 C 3.15625 -7.828125 3.253906 -7.804688 3.359375 -7.765625 C 3.472656 -7.722656 3.53125 -7.609375 3.53125 -7.421875 L 3.53125 0 Z M 5.15625 0 "/></g></g></g></g></g></g></g></g></svg>