<?xml version="1.0" encoding="UTF-8" standalone="no"?>
<svg
   width="273.33652"
   height="278.82959"
   viewBox="0 0 273.33651 278.82959"
   version="1.1"
   id="svg1"
   xmlns="http://www.w3.org/2000/svg"
   xmlns:svg="http://www.w3.org/2000/svg">
  <defs
     id="defs1" />
  <g
     id="Raggruppa_3070"
     data-name="Raggruppa 3070"
     transform="matrix(5,0,0,5,0.01652379,0)">
    <path
       id="Tracciato_115"
       data-name="Tracciato 115"
       d="m 47.322,128.637 0.794,-2.386 -1.391,-0.18 0.072,-0.218 a 6.333,6.333 0 0 0 1.46,-0.13 2.485,2.485 0 0 0 0.642,-0.178 l 0.217,0.072 -1.082,3.256 0.732,0.527 -0.063,0.188 -2.311,-0.769 0.063,-0.188 z"
       transform="translate(-27.968,-75.682)"
       fill="#00366a" />
    <path
       id="Tracciato_116"
       data-name="Tracciato 116"
       d="m 56.9,132.423 0.131,-1.123 0.282,0.033 0.2,0.819 a 3.322,3.322 0 0 0 0.528,0.1 1.427,1.427 0 0 0 1,-0.145 1.048,1.048 0 0 0 0.471,-0.758 1,1 0 0 0 -0.989,-1.142 l -0.259,-0.031 0.041,-0.353 0.094,0.011 c 0.746,0.088 1.155,-0.2 1.231,-0.859 0.07,-0.6 -0.239,-0.952 -0.883,-1.027 a 4.923,4.923 0 0 0 -0.609,-0.031 l -0.462,0.885 -0.275,-0.032 0.127,-1.092 a 6.823,6.823 0 0 1 1.505,-0.071 c 0.974,0.114 1.52,0.624 1.437,1.331 -0.074,0.635 -0.592,1.045 -1.4,1.126 0.852,0.147 1.346,0.682 1.264,1.382 -0.1,0.88 -0.954,1.353 -2.171,1.211 a 8.351,8.351 0 0 1 -1.145,-0.213 z"
       transform="translate(-34.303,-76.916)"
       fill="#00366a" />
    <path
       id="Tracciato_117"
       data-name="Tracciato 117"
       d="m 72.92,132.57 0.668,-0.07 -0.125,-1.172 0.74,-0.079 -0.054,-0.512 -0.74,0.079 -0.356,-3.366 -0.315,0.034 -2.391,3.916 0.027,0.252 2.426,-0.252 z m -1.92,-1.498 0.128,-0.212 0.385,-0.63 0.415,-0.728 0.485,-0.84 0.072,-0.134 0.252,2.358 z"
       transform="translate(-42.407,-76.831)"
       fill="#00366a" />
    <path
       id="Tracciato_118"
       data-name="Tracciato 118"
       d="m 83.852,130.335 -0.366,-1.07 0.27,-0.092 0.533,0.654 a 3.244,3.244 0 0 0 0.521,-0.137 1.433,1.433 0 0 0 0.844,-0.564 1.054,1.054 0 0 0 0.1,-0.886 1,1 0 0 0 -1.386,-0.6 l -0.246,0.084 -0.122,-0.342 0.091,-0.031 c 0.71,-0.243 0.954,-0.677 0.74,-1.306 a 0.858,0.858 0 0 0 -1.24,-0.545 4.817,4.817 0 0 0 -0.564,0.234 l -0.034,1 -0.262,0.09 -0.357,-1.04 a 6.833,6.833 0 0 1 1.328,-0.713 c 0.927,-0.317 1.64,-0.093 1.87,0.579 a 1.365,1.365 0 0 1 -0.775,1.62 1.294,1.294 0 0 1 1.736,0.7 c 0.287,0.838 -0.276,1.632 -1.436,2.03 a 8.446,8.446 0 0 1 -1.126,0.3 z"
       transform="translate(-49.659,-75.31)"
       fill="#00366a" />
    <path
       id="Tracciato_119"
       data-name="Tracciato 119"
       d="m 26.714,119.093 a 1.139,1.139 0 1 1 1.594,-0.135 1.133,1.133 0 0 1 -1.594,0.135"
       transform="translate(-15.873,-70.591)"
       fill="#00366a" />
    <path
       id="Tracciato_120"
       data-name="Tracciato 120"
       d="m 15.315,101.29 -0.172,0.108 -0.606,-0.427 -3.767,2.374 0.122,0.73 -0.172,0.108 -1.144,-1.819 0.172,-0.108 0.609,0.434 3.768,-2.372 L 14,99.581 14.172,99.473 Z"
       transform="translate(-5.773,-59.965)"
       fill="#00366a" />
    <path
       id="Tracciato_121"
       data-name="Tracciato 121"
       d="m 9.34,91.275 -0.19,0.073 -0.511,-0.537 -4.157,1.6 -0.021,0.74 -0.19,0.073 -0.481,-1.253 2.6,-4.172 -3.205,1.226 -0.021,0.74 -0.19,0.073 -0.653,-1.7 0.19,-0.073 0.514,0.545 4.689,-1.8 0.087,0.228 -3.015,4.772 3.694,-1.416 0.018,-0.748 0.19,-0.073 z"
       transform="translate(-1.4,-52.33)"
       fill="#00366a" />
    <path
       id="Tracciato_122"
       data-name="Tracciato 122"
       d="m 5.3,72.015 -1.2,0.041 v -0.293 l 1,-0.433 a 3.81,3.81 0 0 0 0.02,-0.6 C 5.093,69.974 4.779,69.585 4.21,69.604 3.81,69.618 3.629,69.763 3.281,70.336 L 2.796,71.151 A 1.878,1.878 0 0 1 2.178,71.897 1.258,1.258 0 0 1 1.492,72.108 1.422,1.422 0 0 1 0,70.591 C 0,70.453 0.012,70.208 0.027,69.98 0.046,69.8 0.066,69.653 0.087,69.554 L 0.149,69.21 0.17,69.1 l 1.156,-0.041 0.01,0.3 -0.963,0.416 -0.006,0.065 c -0.008,0.212 -0.015,0.269 -0.01,0.416 0.028,0.813 0.292,1.187 0.829,1.168 0.375,-0.013 0.533,-0.14 0.871,-0.713 L 2.573,69.83 c 0.316,-0.531 0.363,-0.6 0.585,-0.761 a 1.46,1.46 0 0 1 0.814,-0.264 c 0.9,-0.031 1.5,0.625 1.54,1.683 a 4.711,4.711 0 0 1 -0.1,0.98 l -0.091,0.46 z"
       transform="translate(0,-41.475)"
       fill="#00366a" />
    <path
       id="Tracciato_123"
       data-name="Tracciato 123"
       d="m 0.235,56.149 -0.2,-0.038 0.395,-2.1 0.2,0.039 0.153,0.724 3.2,0.6 c 0.96,0.181 1.462,-0.156 1.636,-1.083 0.183,-0.975 -0.152,-1.486 -1.08,-1.66 L 1.3,52.018 0.9,52.637 0.7,52.6 1.051,50.728 1.251,50.765 1.4,51.5 4.464,52.076 A 1.658,1.658 0 0 1 5.926,53.112 2.34,2.34 0 0 1 5.987,54.5 C 5.733,55.852 5.082,56.367 3.906,56.146 L 0.642,55.529 Z"
       transform="translate(-0.022,-30.58)"
       fill="#00366a" />
    <path
       id="Tracciato_124"
       data-name="Tracciato 124"
       d="M 10,41.784 9.815,41.7 9.215,42.361 7.546,41.629 7.774,41.107 c 0.485,-1.1 0.222,-2.045 -0.679,-2.441 a 1.388,1.388 0 0 0 -1.2,-0.012 2.013,2.013 0 0 0 -0.958,1.171 L 4.1,41.713 4.287,41.795 4.823,41.283 8.9,43.072 8.886,43.813 9.073,43.895 Z M 4.988,40.51 5.214,39.995 A 1,1 0 0 1 5.905,39.311 1.406,1.406 0 0 1 6.789,39.423 1.351,1.351 0 0 1 7.462,39.994 1.221,1.221 0 0 1 7.4,41.16 l -0.151,0.344 z"
       transform="translate(-2.474,-23.224)"
       fill="#00366a" />
    <path
       id="Tracciato_125"
       data-name="Tracciato 125"
       d="m 13.644,29.707 3.142,0.076 0.764,-1.055 -0.166,-0.119 -0.609,0.342 L 14,28.962 a 1.4,1.4 0 0 0 -0.363,-1.871 1.23,1.23 0 0 0 -1.082,-0.212 c -0.369,0.106 -0.569,0.272 -0.946,0.793 l -1.3,1.786 0.165,0.119 0.632,-0.386 3.6,2.613 -0.171,0.721 0.164,0.12 1.274,-1.745 -0.166,-0.119 -0.636,0.393 -1.7,-1.232 z m -2.209,-1.239 0.334,-0.462 a 0.926,0.926 0 0 1 1.427,-0.181 1.026,1.026 0 0 1 0.331,1.486 l -0.321,0.441 z"
       transform="translate(-6.219,-16.175)"
       fill="#00366a" />
    <path
       id="Tracciato_126"
       data-name="Tracciato 126"
       d="m 23.111,18.146 1.471,1.665 1.348,-1.191 -0.221,-0.989 0.2,-0.177 0.739,1.02 -2.916,2.576 -0.132,-0.15 0.324,-0.666 -2.951,-3.334 -0.7,0.239 -0.135,-0.153 2.891,-2.555 0.809,0.915 -0.2,0.178 -0.88,-0.417 -1.311,1.158 1.453,1.635 1.1,-0.975 -0.278,-0.732 0.183,-0.162 1.18,1.335 -0.183,0.161 -0.687,-0.359 z"
       transform="translate(-12.14,-8.697)"
       fill="#00366a" />
    <path
       id="Tracciato_127"
       data-name="Tracciato 127"
       d="m 36.672,8.751 -0.319,-4.386 1.388,-0.68 0.089,0.183 -0.5,0.56 1.962,4 0.746,-0.049 0.091,0.182 -1.93,0.947 -0.09,-0.183 0.5,-0.561 -1.767,-3.6 0.342,4.892 -0.145,0.071 -3.63,-3.277 1.767,3.6 0.746,-0.049 0.089,0.183 -1.636,0.8 -0.089,-0.182 0.489,-0.556 -1.962,-4 L 32.074,6.69 31.985,6.507 33.422,5.8 Z"
       transform="translate(-19.28,-2.222)"
       fill="#00366a" />
    <path
       id="Tracciato_128"
       data-name="Tracciato 128"
       d="M 56.088,5.294 55.522,5.667 55.55,5.867 59.179,5.376 59.149,4.115 58.858,4.154 58.485,5.1 56.864,5.32 56.576,3.2 57.883,3.024 58.255,3.704 58.504,3.67 58.265,1.9 58.014,1.934 57.839,2.697 56.532,2.873 56.227,0.626 57.808,0.412 58.308,1.248 58.59,1.21 58.426,0 l -3.194,0.432 -1.9,5.236 -0.566,0.373 0.027,0.2 L 54.557,6 54.53,5.8 53.885,5.584 l 0.65,-1.994 1.3,-0.175 z m -1.4,-2.086 0.785,-2.447 0.312,2.3 z"
       transform="translate(-31.808)"
       fill="#00366a" />
    <path
       id="Tracciato_129"
       data-name="Tracciato 129"
       d="m 79.325,6.974 a 2.8,2.8 0 0 0 1.912,0 2.831,2.831 0 0 0 1.6,-1.946 2.668,2.668 0 0 0 -0.108,-1.961 2.407,2.407 0 0 0 -1.8,-1.284 L 78.6,1.12 l -0.055,0.2 0.579,0.462 -1.224,4.277 -0.736,0.086 -0.055,0.2 z m 0.576,-5.1 0.837,0.24 A 1.7,1.7 0 0 1 82.05,3.207 2.6,2.6 0 0 1 82.045,4.889 2.487,2.487 0 0 1 80.923,6.473 1.755,1.755 0 0 1 79.355,6.6 L 78.612,6.388 Z"
       transform="translate(-46.484,-0.675)"
       fill="#00366a" />
    <path
       id="Tracciato_130"
       data-name="Tracciato 130"
       d="m 91.369,11.658 0.095,-0.18 0.738,0.067 L 94.273,7.6 93.8,7.032 l 0.095,-0.179 1.9,1 -0.095,0.179 -0.745,-0.069 -2.069,3.937 0.48,0.573 -0.095,0.18 z"
       transform="translate(-55.08,-4.131)"
       fill="#00366a" />
    <path
       id="Tracciato_131"
       data-name="Tracciato 131"
       d="m 104.045,18.943 -0.965,1.188 -0.1,-0.041 a 6.1,6.1 0 0 1 -1.508,-0.88 2.417,2.417 0 0 1 -1.061,-1.817 2.8,2.8 0 0 1 0.7,-1.924 2.712,2.712 0 0 1 4.137,-0.393 5.566,5.566 0 0 1 1.036,1.073 l 0.067,0.086 -0.764,0.941 -0.24,-0.194 0.346,-1.008 a 2.854,2.854 0 0 0 -0.469,-0.454 2.167,2.167 0 0 0 -1.756,-0.641 2.561,2.561 0 0 0 -1.679,1.048 2.016,2.016 0 0 0 0.184,3.129 4.871,4.871 0 0 0 0.625,0.445 l 0.847,-1.043 -0.355,-0.646 0.127,-0.158 1.667,1.355 -0.129,0.158 z"
       transform="translate(-60.527,-8.618)"
       fill="#00366a" />
    <path
       id="Tracciato_132"
       data-name="Tracciato 132"
       d="m 108.975,26.579 0.164,-0.12 0.632,0.386 3.6,-2.615 -0.171,-0.72 0.164,-0.119 0.789,1.087 -1.435,4.7 2.78,-2.016 -0.17,-0.721 0.164,-0.12 1.071,1.475 -0.164,0.12 -0.637,-0.393 -4.062,2.951 -0.142,-0.2 1.678,-5.392 -3.2,2.323 0.176,0.727 -0.166,0.119 z"
       transform="translate(-65.694,-14.1)"
       fill="#00366a" />
    <path
       id="Tracciato_133"
       data-name="Tracciato 133"
       d="m 117.47,40.645 0.185,-0.085 0.546,0.5 4.042,-1.865 -0.027,-0.741 0.185,-0.085 0.9,1.951 -0.185,0.086 -0.549,-0.509 -4.042,1.866 0.031,0.747 -0.184,0.085 z"
       transform="translate(-70.814,-23.131)"
       fill="#00366a" />
    <path
       id="Tracciato_134"
       data-name="Tracciato 134"
       d="m 121.783,49.665 4.414,-1.2 -0.322,-1.186 -1.033,-0.107 -0.077,-0.283 1.288,-0.35 1.182,4.353 -1.288,0.349 -0.074,-0.275 0.836,-0.616 -0.309,-1.15 -4.414,1.2 -0.051,0.9 -0.2,0.053 -0.648,-2.387 0.2,-0.054 z"
       transform="translate(-72.995,-28.055)"
       fill="#00366a" />
    <path
       id="Tracciato_135"
       data-name="Tracciato 135"
       d="m 125.857,64.418 -1.655,0.669 -0.331,-0.6 -0.2,0.01 0.1,2.066 0.2,-0.011 0.27,-0.632 4.872,-2.023 -0.021,-0.455 -5.059,-1.8 -0.331,-0.611 -0.2,0.01 0.087,1.781 0.2,-0.011 0.27,-0.632 1.713,0.536 z m 2.334,-0.913 c -0.256,0.086 -0.384,0.134 -0.72,0.264 l -1.3,0.512 -0.072,-1.455 z"
       transform="translate(-74.449,-36.789)"
       fill="#00366a" />
    <path
       id="Tracciato_136"
       data-name="Tracciato 136"
       d="m 123.355,77.837 4.514,0.743 0.2,-1.213 -0.895,-0.526 0.048,-0.29 1.316,0.218 -0.732,4.449 -1.317,-0.218 0.046,-0.281 1.017,-0.212 0.193,-1.173 -4.514,-0.743 -0.42,0.8 -0.2,-0.033 0.4,-2.442 0.2,0.034 z"
       transform="translate(-73.913,-46.147)"
       fill="#00366a" />
    <path
       id="Tracciato_137"
       data-name="Tracciato 137"
       d="m 120.614,87.194 0.192,0.066 0.049,0.739 4.214,1.439 0.49,-0.555 0.193,0.066 -0.7,2.034 -0.192,-0.066 -0.046,-0.747 -4.214,-1.439 -0.492,0.562 -0.192,-0.066 z"
       transform="translate(-72.291,-52.563)"
       fill="#00366a" />
    <path
       id="Tracciato_138"
       data-name="Tracciato 138"
       d="m 117.625,94.972 1.056,0.562 -0.138,0.259 -1.079,-0.123 a 3.626,3.626 0 0 0 -0.319,0.513 c -0.355,0.668 -0.278,1.161 0.225,1.43 0.352,0.188 0.583,0.153 1.17,-0.17 l 0.828,-0.463 a 1.862,1.862 0 0 1 0.908,-0.336 1.243,1.243 0 0 1 0.7,0.16 1.422,1.422 0 0 1 0.53,2.053 c -0.065,0.123 -0.2,0.327 -0.331,0.516 a 4.226,4.226 0 0 1 -0.263,0.34 l -0.226,0.267 -0.074,0.089 -1.02,-0.544 0.141,-0.266 1.042,0.123 0.039,-0.054 c 0.113,-0.18 0.147,-0.225 0.216,-0.355 0.382,-0.718 0.34,-1.175 -0.134,-1.427 -0.33,-0.176 -0.532,-0.145 -1.111,0.182 l -0.888,0.505 c -0.539,0.3 -0.612,0.336 -0.886,0.366 a 1.456,1.456 0 0 1 -0.836,-0.178 1.515,1.515 0 0 1 -0.491,-2.227 4.736,4.736 0 0 1 0.574,-0.8 l 0.308,-0.353 z"
       transform="translate(-70.173,-57.252)"
       fill="#00366a" />
    <path
       id="Tracciato_139"
       data-name="Tracciato 139"
       d="m 109.451,117.362 a 1.14,1.14 0 1 1 0.047,-1.6 1.132,1.132 0 0 1 -0.047,1.6"
       transform="translate(-64.835,-69.564)"
       fill="#00366a" />
    <path
       id="Tracciato_140"
       data-name="Tracciato 140"
       d="m 65.237,73.832 a 0.279,0.279 0 0 0 0.013,0.06 0.4,0.4 0 0 0 -0.006,0.06 0.473,0.473 0 0 0 0.147,0.307 l 0.083,0.108 a 0.74,0.74 0 0 0 0.376,0.3 0.43,0.43 0 0 0 0.317,-0.006 0.305,0.305 0 0 1 0.2,-0.016 l 0.1,0.066 0.164,0.1 a 0.4,0.4 0 0 0 0.332,-0.062 l 0.176,-0.069 0.192,-0.013 0.257,-0.021 0.067,-0.01 c 0.2,-0.03 0.4,-0.058 0.464,-0.158 l 0.021,-0.1 -0.14,-0.148 -0.049,-0.031 -0.214,-0.095 -0.054,-0.015 -0.119,-0.054 -0.246,-0.073 -0.224,0.062 -0.15,0.051 -0.286,-0.017 -0.054,-0.01 -0.153,-0.07 -0.247,-0.094 a 0.678,0.678 0 0 0 -0.353,0.091 l -0.1,0.05 -0.085,0.027 c -0.129,0.005 -0.155,-0.009 -0.24,-0.166 0.019,-0.038 0.11,-0.208 0.11,-0.208 l 0.328,-0.409 h 0.005 v 0 0 c 0,-0.006 0.005,-0.015 0.01,-0.021 a 0.144,0.144 0 0 0 0.039,-0.079 0.078,0.078 0 0 0 -0.023,-0.055 c -0.053,-0.057 -0.124,-0.009 -0.147,0.008 -0.074,0.052 -0.515,0.437 -0.515,0.71"
       transform="translate(-39.327,-44.059)"
       fill="#00366a" />
    <path
       id="Tracciato_141"
       data-name="Tracciato 141"
       d="m 60.166,66.366 -0.143,0.033 a 0.831,0.831 0 0 0 0.086,-0.86 1.675,1.675 0 0 1 0.172,0.077 1.074,1.074 0 0 1 0.129,0.124 1.12,1.12 0 0 1 0.27,0.548 c 0,0.017 0,0.031 0,0.047 a 1.077,1.077 0 0 0 -0.51,0.03 m -0.557,-0.481 a 0.109,0.109 0 1 1 0.1,-0.108 0.105,0.105 0 0 1 -0.1,0.108 m -1.072,0.475 a 3.328,3.328 0 0 1 -0.305,-0.21 0.918,0.918 0 0 1 0.029,-0.131 c 0.008,-0.015 0.016,-0.029 0.023,-0.044 l 0.143,-0.227 a 2.378,2.378 0 0 1 0.2,-0.194 l 0.043,-0.023 a 0.823,0.823 0 0 0 0.115,0.908 0.791,0.791 0 0 1 -0.249,-0.079 m 1.744,0.569 0.169,-0.018 -0.019,0.021 c -0.074,0.068 -0.133,0.121 -0.109,0.193 a 0.108,0.108 0 0 0 0.1,0.072 0.225,0.225 0 0 0 0.207,-0.109 l 0.05,-0.054 0.128,-0.087 0.183,-0.136 0.188,-0.264 a 0.886,0.886 0 0 0 0.062,-0.4 l -0.07,-0.349 -0.014,-0.041 -0.028,-0.092 -0.11,-0.268 c -0.077,-0.134 -0.272,-0.435 -0.4,-0.362 a 0.159,0.159 0 0 0 -0.077,0.152 v 0.024 l -0.071,0.03 a 0.5,0.5 0 0 1 -0.357,-0.108 1.142,1.142 0 0 0 -0.388,-0.159 1.99,1.99 0 0 0 -0.777,0.007 1.182,1.182 0 0 0 -0.639,0.312 0.908,0.908 0 0 0 -0.3,0.384 l -0.128,0.425 v -0.007 a 0.123,0.123 0 0 0 0.042,0.114 0.128,0.128 0 0 0 0.066,0.025 c 0.03,0.079 0.142,0.158 0.426,0.337 a 2.222,2.222 0 0 0 0.834,0.168 h 0.006 0.064 v -0.013 h 0.021 0.011 c 0.016,0 0.029,0 0.044,0 a 0.781,0.781 0 0 0 0.182,-0.023 l 0.341,-0.027 0.326,-0.072 a 0.769,0.769 0 0 1 0.4,-0.042 2.03,2.03 0 0 1 -0.077,0.22 v 0 a 0.125,0.125 0 0 0 -0.138,-0.108 l -0.16,0.017 -0.307,0.046 -0.443,0.108 a 0.123,0.123 0 0 0 0.058,0.239 l 0.443,-0.108 z"
       transform="translate(-34.886,-39.145)"
       fill="#00366a" />
    <path
       id="Tracciato_142"
       data-name="Tracciato 142"
       d="m 58.656,62.466 a 2.72,2.72 0 0 1 1.009,-0.062 l 0.2,0.013 0.336,0.044 0.395,0.136 0.236,0.091 a 0.12,0.12 0 0 0 0.156,-0.071 0.127,0.127 0 0 0 -0.072,-0.16 L 60.689,62.37 60.262,62.223 59.877,62.172 59.695,62.159 a 3.025,3.025 0 0 0 -1.088,0.067 0.123,0.123 0 0 0 0.054,0.24"
       transform="translate(-35.269,-37.459)"
       fill="#00366a" />
    <path
       id="Tracciato_143"
       data-name="Tracciato 143"
       d="m 68.332,83.752 v 0 a 0.7,0.7 0 0 1 -0.287,0.169 l -0.071,0.021 a 0.783,0.783 0 0 1 -0.465,0.012 l -0.2,-0.048 -0.325,-0.056 H 66.9 c -0.163,-0.007 -0.213,-0.01 -0.237,0.058 l -0.017,0.051 0.046,0.042 0.112,0.1 a 0.96,0.96 0 0 0 0.769,0.321 l 0.157,-0.015 h 0.187 l 0.24,0.105 0.233,0.131 -0.044,-0.188 -0.071,-0.324 a 0.071,0.071 0 0 1 0,-0.016 c 0,-0.091 0.058,-0.15 0.164,-0.228 v 0 z"
       transform="translate(-40.172,-50.488)"
       fill="#00366a" />
    <path
       id="Tracciato_144"
       data-name="Tracciato 144"
       d="m 67.135,80.439 v 0 L 67.102,80.375 C 67.045,80.243 67.02,80.164 67.073,80.088 l -0.11,-0.117 c -0.008,0.006 -0.014,0.016 -0.022,0.022 v 0 a 0.327,0.327 0 0 0 -0.131,0.282 0.793,0.793 0 0 0 0.019,0.153 0.509,0.509 0 0 1 -0.185,-0.02 l -0.293,-0.141 -0.258,-0.248 -0.1,-0.111 A 0.325,0.325 0 0 0 65.745,79.825 L 65.663,79.82 a 1.282,1.282 0 0 0 -0.237,0.025 h -0.052 c 0.006,0 0.01,0.007 0.017,0.008 h -0.012 v -0.008 l -0.193,0.053 -0.053,-0.009 -0.074,-0.017 -0.083,-0.015 -0.182,-0.017 -0.3,0.1 -0.2,0.162 -0.091,0.089 -0.088,0.085 -0.212,0.147 a 0.623,0.623 0 0 1 -0.336,0.013 l -0.182,-0.049 a 0.472,0.472 0 0 0 -0.02,-0.353 l -0.025,-0.076 -0.16,0.033 a 1.638,1.638 0 0 1 0.013,0.17 0.28,0.28 0 0 1 -0.046,0.16 L 63.1,80.379 a 0.412,0.412 0 0 1 -0.264,0.125 0.485,0.485 0 0 1 -0.117,-0.024 l -0.065,0.151 a 0.444,0.444 0 0 0 0.181,0.038 0.543,0.543 0 0 0 0.406,-0.1 0.709,0.709 0 0 0 0.282,0.2 0.99,0.99 0 0 0 0.527,0.057 l 0.084,-0.006 0.277,-0.04 0.339,-0.034 0.171,0.043 0.247,0.052 0.227,-0.075 a 0.248,0.248 0 0 1 0.167,-0.047 l 0.211,0.058 0.046,0.015 a 0.13,0.13 0 0 0 0.068,0 l 0.317,0.048 a 0.927,0.927 0 0 0 0.7,-0.149 l 0.041,-0.049 a 0.464,0.464 0 0 0 0.251,0.122 0.385,0.385 0 0 0 0.38,-0.143 l 0.09,-0.131 h -0.253 c -0.159,0.005 -0.237,0 -0.279,-0.072"
       transform="translate(-37.771,-48.119)"
       fill="#00366a" />
    <path
       id="Tracciato_145"
       data-name="Tracciato 145"
       d="m 50.005,57.557 c -0.017,0 0.017,0 0,0"
       transform="translate(-30.142,-34.697)"
       fill="#00366a" />
    <path
       id="Tracciato_146"
       data-name="Tracciato 146"
       d="m 75.011,66.767 a 0.853,0.853 0 0 1 -0.3,0.075 0.833,0.833 0 0 0 0.3,-0.637 0.842,0.842 0 0 0 -0.056,-0.3 1.8,1.8 0 0 1 0.207,0.168 0.832,0.832 0 0 1 0.188,0.379 1.077,1.077 0 0 1 0.013,0.108 l -0.351,0.2 m -0.554,-0.547 a 0.109,0.109 0 1 1 0.1,-0.11 0.106,0.106 0 0 1 -0.1,0.11 m -0.9,0.473 -0.191,-0.051 a 0.874,0.874 0 0 0 -0.4,-0.036 1.15,1.15 0 0 1 0.178,-0.5 1.017,1.017 0 0 1 0.071,-0.091 l 0.123,-0.1 a 1.134,1.134 0 0 1 0.183,-0.129 0.829,0.829 0 0 0 0.043,0.913 z M 74.929,65.4 a 1.867,1.867 0 0 0 -0.614,-0.112 2.163,2.163 0 0 0 -0.917,0.113 1.35,1.35 0 0 0 -0.556,0.331 l -0.1,0.093 a 0.749,0.749 0 0 0 -0.29,0.448 1.033,1.033 0 0 0 0,0.432 l 0.037,0.188 0.221,-0.315 c -0.006,0.055 -0.012,0.11 -0.014,0.174 l -0.006,0.171 0.164,-0.05 a 0.592,0.592 0 0 1 0.431,0 l 0.226,0.06 0.3,0.07 0.521,0.085 h 0.133 a 1.329,1.329 0 0 0 0.639,-0.1 l 0.515,-0.3 -0.008,-0.066 V 66.62 l 0.068,-0.053 c 0.119,-0.093 -0.023,-0.522 -0.138,-0.7 a 0.9,0.9 0 0 0 -0.618,-0.465"
       transform="translate(-43.664,-39.356)"
       fill="#00366a" />
    <path
       id="Tracciato_147"
       data-name="Tracciato 147"
       d="m 74.425,69.785 -0.2,-0.076 -0.4,-0.121 -0.52,0.016 -0.131,0.018 a 0.123,0.123 0 0 0 -0.106,0.138 0.121,0.121 0 0 0 0.136,0.1 l 0.135,-0.018 0.454,-0.015 0.333,0.1 0.213,0.083 a 0.118,0.118 0 0 0 0.154,-0.072 0.127,0.127 0 0 0 -0.075,-0.16"
       transform="translate(-44.051,-41.95)"
       fill="#00366a" />
    <path
       id="Tracciato_148"
       data-name="Tracciato 148"
       d="m 56.884,32.064 a 1.209,1.209 0 0 1 -0.378,0.879 1.112,1.112 0 0 1 -0.767,0.314 1.321,1.321 0 0 1 -0.567,-0.224 0.328,0.328 0 0 0 -0.489,0.246 0.94,0.94 0 0 1 -0.93,0.953 1.06,1.06 0 0 1 -0.9,-0.5 0.327,0.327 0 0 0 -0.6,0.175 1.107,1.107 0 0 1 -1.019,1.175 1.056,1.056 0 0 1 -0.889,-0.5 0.327,0.327 0 1 0 -0.551,0.352 1.705,1.705 0 0 0 1.44,0.8 1.679,1.679 0 0 0 1.551,-1.166 1.687,1.687 0 0 0 0.968,0.321 1.51,1.51 0 0 0 1.462,-1.1 1.31,1.31 0 0 0 0.524,0.122 1.764,1.764 0 0 0 1.057,-0.355 1.855,1.855 0 0 0 0.591,-0.754 14.8,14.8 0 0 1 0.662,1.978 c 0,0.006 0,0.012 0,0.019 a 1.156,1.156 0 0 1 -0.471,0.81 1.232,1.232 0 0 1 -0.722,0.255 0.969,0.969 0 0 1 -0.556,-0.22 0.328,0.328 0 0 0 -0.5,0.2 1.192,1.192 0 0 1 -1.1,0.95 1.107,1.107 0 0 1 -1.107,-0.7 0.327,0.327 0 0 0 -0.416,-0.2 0.33,0.33 0 0 0 -0.114,0.068 0.323,0.323 0 0 0 -0.151,0.238 1.165,1.165 0 0 1 -1.144,1.075 1.149,1.149 0 0 1 -1,-0.6 0.329,0.329 0 0 0 -0.444,-0.129 0.319,0.319 0 0 0 -0.079,0.067 v -0.006 a 0.357,0.357 0 0 0 -0.291,-0.145 0.331,0.331 0 0 0 -0.273,0.148 0.431,0.431 0 0 1 -0.112,0.133 c -0.121,-0.014 -0.161,-0.05 -0.175,-0.067 a 0.669,0.669 0 0 1 -0.086,-0.413 2.863,2.863 0 0 1 0.029,-0.387 1.458,1.458 0 0 0 0.014,-0.2 1.473,1.473 0 0 0 -0.069,-0.416 1.261,1.261 0 0 0 0.15,-0.647 1.529,1.529 0 0 0 -0.2,-0.526 0.413,0.413 0 0 0 -0.071,-0.086 6,6 0 0 0 0.746,-0.957 3.6,3.6 0 0 0 0.519,-1.555 l 0.027,-0.183 a 3.1,3.1 0 0 1 0.189,-0.61 2.7,2.7 0 0 1 2.897,-1.896 c 0.016,0 0.1,0.014 0.166,0.022 l 0.042,0.005 a 5.576,5.576 0 0 1 3.112,2.884 z m 1.74,6.236 v 0 a 1.327,1.327 0 0 1 -0.32,0.827 1.16,1.16 0 0 1 -0.857,0.46 1.078,1.078 0 0 1 -1.012,-0.913 0.327,0.327 0 0 0 -0.635,-0.022 c -0.132,0.463 -0.481,0.961 -0.933,0.961 A 1.014,1.014 0 0 1 53.8,38.61 a 0.327,0.327 0 0 0 -0.625,-0.135 0.9,0.9 0 0 1 -1.667,-0.029 0.3,0.3 0 0 0 -0.02,-0.056 1.09,1.09 0 0 1 -0.035,-0.119 0.32732629,0.32732629 0 0 0 -0.641,0.133 1.467,1.467 0 0 0 0.065,0.215 18.858,18.858 0 0 1 -0.37,4.267 3.732,3.732 0 0 0 -2.7,1.9 c 0.014,-0.02 -0.28,0.384 -0.28,0.384 a 0.276,0.276 0 0 0 -0.02,0.031 1.379,1.379 0 0 1 -0.946,0.8 h -0.089 a 0.588,0.588 0 0 1 -0.209,-0.015 c 0.047,-0.074 0.1,-0.151 0.147,-0.235 a 8.559,8.559 0 0 0 1.054,-3.36 0.859,0.859 0 0 0 0.177,-0.048 0.9,0.9 0 0 0 0.6,0.263 0.871,0.871 0 0 0 0.645,-0.277 0.906,0.906 0 0 0 0.228,-0.507 1.45,1.45 0 0 0 0.554,-0.28 1.027,1.027 0 0 0 0.371,-0.8 c 0,-0.027 0,-0.054 0,-0.081 l -0.1,-0.351 -0.065,-0.2 c -0.035,-0.109 -0.087,-0.26 -0.2,-0.287 -0.113,-0.027 -0.192,-0.058 -0.273,0.026 l -0.216,0.224 c -0.025,0.036 -0.068,0.095 -0.11,0.147 A 0.184,0.184 0 0 1 49,40.089 c 0,-0.069 0.058,-0.158 0.171,-0.329 a 2.136,2.136 0 0 0 0.409,-1.02 l 0.039,-0.371 0.019,-0.2 a 0.916,0.916 0 0 0 0.541,-0.249 0.969,0.969 0 0 0 0.272,-0.59 1.777,1.777 0 0 0 2.915,-0.411 1.876,1.876 0 0 0 1.33,0.521 1.772,1.772 0 0 0 1.575,-1.064 1.323,1.323 0 0 0 0.58,0.139 1.867,1.867 0 0 0 0.913,-0.247 1.91,1.91 0 0 0 0.526,-0.437 20.563,20.563 0 0 1 0.333,2.466 m 0.066,1.736 c 0,0.4 -0.01,0.807 -0.031,1.216 a 19.649,19.649 0 0 1 -2.131,8.316 14.359,14.359 0 0 1 -0.771,1.282 c -0.005,0.006 -1.339,2.076 -1.339,2.076 a 11.033,11.033 0 0 1 -1.54,1.755 c -0.005,0 -0.048,0.053 -0.054,0.058 l -0.166,0.158 -0.226,0.185 -0.426,0.255 a 1.441,1.441 0 0 1 -0.5,0.188 1.2,1.2 0 0 1 -0.33,-0.016 0.282,0.282 0 0 0 -0.051,0 1.14,1.14 0 0 1 -0.987,-0.59 l -0.035,-0.141 a 1.785,1.785 0 0 1 -0.081,-0.493 c 0,-0.058 0.006,-0.123 0.013,-0.194 a 17.679,17.679 0 0 0 2,-2.423 0.322,0.322 0 0 0 0.1,-0.077 25.317,25.317 0 0 0 2.194,-3.055 10.863,10.863 0 0 0 0.706,-1.589 c 0.3,-0.8 0.555,-1.629 0.72,-2.186 a 19.43,19.43 0 0 0 0.718,-4.865 1.546,1.546 0 0 0 0.976,0.354 1.681,1.681 0 0 0 0.927,-0.3 2.039,2.039 0 0 0 0.314,-0.26 c 0,0.116 0,0.23 0,0.347 M 51.8,43.645 a 1.87,1.87 0 0 1 0.936,1.042 c 0.753,1.3 0.628,3 -0.191,4.8 a 0.453,0.453 0 0 0 -0.039,0.031 0.9,0.9 0 0 1 -0.684,0.317 0.808,0.808 0 0 1 -0.908,-0.62 v -0.029 a 0.328,0.328 0 0 0 -0.449,-0.3 l -0.079,0.031 a 0.87,0.87 0 0 1 -0.326,0.063 0.929,0.929 0 0 1 -0.9,-0.857 0.263,0.263 0 0 0 0.046,-0.149 0.384,0.384 0 0 0 -0.062,-0.2 0.363,0.363 0 0 0 -0.348,-0.147 l -0.254,0.037 a 0.943,0.943 0 0 1 -0.92,-0.962 4.383,4.383 0 0 1 0.236,-0.845 v -0.008 c 0.066,-0.092 0.131,-0.192 0.2,-0.307 l 0.286,-0.394 A 3.173,3.173 0 0 1 50.7,43.523 l 0.012,0.006 a 0.328,0.328 0 0 0 0.17,-0.014 2.186,2.186 0 0 1 0.927,0.131 m 0.676,-0.376 a 1.706,1.706 0 0 0 -0.44,-0.235 2.293,2.293 0 0 0 -0.861,-0.171 20.089,20.089 0 0 0 0.36,-3.423 1.53,1.53 0 0 0 0.809,0.237 1.483,1.483 0 0 0 0.76,-0.218 19.652,19.652 0 0 1 -0.628,3.809 m 0.834,1.1 A 4.67,4.67 0 0 0 53,43.829 a 0.4,0.4 0 0 0 0.023,-0.044 20.675,20.675 0 0 0 0.713,-3.912 1.737,1.737 0 0 0 1.132,0.4 1.347,1.347 0 0 0 0.95,-0.417 18.713,18.713 0 0 1 -0.692,4.718 c -0.161,0.547 -0.416,1.363 -0.706,2.145 A 10.4,10.4 0 0 1 53.76,48.2 c -0.049,0.085 -0.106,0.177 -0.166,0.273 a 5.151,5.151 0 0 0 -0.28,-4.1 m -4.038,6.461 a 0.328,0.328 0 0 0 -0.427,-0.005 c -0.112,0.095 -0.112,0.095 -0.328,0.095 a 0.869,0.869 0 0 1 -0.847,-0.886 0.93,0.93 0 0 1 0.053,-0.311 0.325,0.325 0 0 0 0.017,-0.083 l 0.005,-0.053 a 0.327,0.327 0 0 0 -0.562,-0.255 c -0.122,0.126 -0.189,0.147 -0.477,0.147 a 0.868,0.868 0 0 1 -0.848,-0.886 0.893,0.893 0 0 1 0.375,-0.735 0.328,0.328 0 0 0 -0.379,-0.535 1.551,1.551 0 0 0 -0.651,1.269 1.523,1.523 0 0 0 1.5,1.54 2.49,2.49 0 0 0 0.324,-0.021 1.514,1.514 0 0 0 1.487,1.462 h 0.032 a 1.735,1.735 0 0 0 -0.016,0.2 1.522,1.522 0 0 0 1.351,1.525 q -0.155,0.164 -0.315,0.327 a 0.321,0.321 0 0 0 -0.141,0.142 c -0.293,0.29 -0.6,0.576 -0.918,0.858 a 0.3,0.3 0 0 0 -0.115,0.068 0.814,0.814 0 0 1 -0.551,0.216 0.857,0.857 0 0 1 -0.836,-0.874 1.186,1.186 0 0 1 0.24,-0.557 0.328,0.328 0 0 0 -0.394,-0.5 l -0.1,0.043 a 0.375,0.375 0 0 0 -0.05,0.027 c -0.037,0.025 -0.037,0.025 -0.127,0.022 H 46.46 a 0.7,0.7 0 0 1 -0.685,-0.716 0.66,0.66 0 0 1 0.158,-0.429 0.331,0.331 0 0 0 0.069,-0.173 l 0.007,-0.076 a 0.327,0.327 0 0 0 -0.59,-0.225 0.588,0.588 0 0 1 -0.478,0.247 0.62,0.62 0 0 1 -0.6,-0.633 0.66,0.66 0 0 1 0.02,-0.159 0.355,0.355 0 0 0 0.115,-0.234 0.616,0.616 0 0 1 0.13,-0.133 0.32700535,0.32700535 0 0 0 -0.379,-0.533 1.284,1.284 0 0 0 -0.419,0.512 l -0.071,0.059 v 0 a 0.965,0.965 0 0 1 -0.527,0.157 1.022,1.022 0 0 1 -1,-1.043 1.772,1.772 0 0 1 0.234,-0.66 5.5,5.5 0 0 0 1.156,-0.66 l 0.489,-0.329 a 6.7,6.7 0 0 0 1.007,-0.759 7,7 0 0 0 0.772,-0.78 0.933,0.933 0 0 0 0.61,0.137 h 0.131 a 0.356,0.356 0 0 0 0.088,-0.012 2.906,2.906 0 0 0 0.286,-0.1 1.015,1.015 0 0 0 -0.017,0.161 1.6,1.6 0 0 0 1.575,1.615 v 0 a 1.567,1.567 0 0 0 1.516,1.315 1.518,1.518 0 0 0 0.294,-0.055 1.447,1.447 0 0 0 1.469,0.915 1.419,1.419 0 0 0 0.212,-0.017 14.525,14.525 0 0 1 -1.313,1.881 0.34,0.34 0 0 0 -0.1,0.066 0.823,0.823 0 0 1 -0.587,0.247 0.869,0.869 0 0 1 -0.847,-0.886 1.936,1.936 0 0 1 0.062,-0.4 l 0.081,-0.126 A 0.325,0.325 0 0 0 49.27,50.825 M 45.445,56.9 a 23.991,23.991 0 0 1 -4.671,2.261 12.021,12.021 0 0 1 -6.719,0.7 C 34.022,59.846 33.997,59.818 33.96,59.815 h -0.033 a 0.883,0.883 0 0 1 -0.856,-0.9 0.92,0.92 0 0 1 0.961,-0.835 c 0.324,0.018 0.676,0.018 1.049,0 a 22.33,22.33 0 0 0 10.024,-3.145 l 0.3,-0.185 0.964,-0.624 a 1.516,1.516 0 0 0 1.086,1.387 23.11,23.11 0 0 1 -2.01,1.387 m 0.585,0.4 c 0.3,-0.188 0.587,-0.379 0.868,-0.577 a 0.566,0.566 0 0 1 0.042,0.16 0.58,0.58 0 0 1 -0.237,0.47 C 46.485,57.34 46.259,57.322 46.029,57.299 m 1.9,0.72 a 0.914,0.914 0 0 1 0.942,0.835 0.884,0.884 0 0 1 -0.854,0.9 h -0.034 c -0.037,0 -0.061,0.031 -0.094,0.046 a 11.183,11.183 0 0 1 -5.875,-0.423 c 0.236,-0.1 0.472,-0.2 0.708,-0.3 a 25.477,25.477 0 0 0 2.4,-1.227 18.122,18.122 0 0 0 1.989,0.176 c 0.3,0.008 0.572,0.006 0.817,-0.006 M 34.495,55.462 a 1.517,1.517 0 0 0 1.085,-1.415 c 0.225,0.159 0.454,0.314 0.685,0.467 a 1.02,1.02 0 0 0 -0.154,1.13 c -0.178,0.021 -0.358,0.041 -0.544,0.059 a 1.15,1.15 0 0 0 -0.554,0.149 c -0.176,-0.128 -0.349,-0.259 -0.519,-0.39 m -0.949,-0.809 a 0.346,0.346 0 0 0 -0.117,-0.068 c -0.492,-0.433 -0.95,-0.878 -1.375,-1.327 a 1.45,1.45 0 0 0 1.327,-1.734 c 0.015,0 0.026,0.006 0.042,0.006 a 1.517,1.517 0 0 0 1.489,-1.47 2.04,2.04 0 0 0 0.323,0.029 1.524,1.524 0 0 0 1.5,-1.541 1.554,1.554 0 0 0 -0.651,-1.269 0.32753206,0.32753206 0 1 0 -0.378,0.535 0.9,0.9 0 0 1 0.374,0.735 0.869,0.869 0 0 1 -0.847,0.886 0.627,0.627 0 0 1 -0.529,-0.18 0.327,0.327 0 0 0 -0.511,0.4 c 0,0 0.014,0.02 0.027,0.041 a 0.917,0.917 0 0 1 0.05,0.29 0.869,0.869 0 0 1 -0.848,0.886 0.608,0.608 0 0 1 -0.453,-0.161 0.322,0.322 0 0 0 -0.449,0.038 0.334,0.334 0 0 0 0.027,0.462 l 0.112,0.105 a 0.936,0.936 0 0 1 0.094,0.415 0.868,0.868 0 0 1 -0.848,0.885 0.822,0.822 0 0 1 -0.586,-0.246 0.321,0.321 0 0 0 -0.106,-0.071 14.733,14.733 0 0 1 -1.245,-1.767 0.3,0.3 0 0 0 -0.052,-0.11 1.792,1.792 0 0 0 0.2,0.018 1.448,1.448 0 0 0 1.391,-0.863 1.524,1.524 0 0 0 0.384,0.073 1.572,1.572 0 0 0 1.53,-1.39 1.6,1.6 0 0 0 1.55,-1.611 1.327,1.327 0 0 0 -0.012,-0.158 c 0.088,0.033 0.18,0.066 0.281,0.093 a 0.315,0.315 0 0 0 0.088,0.013 1.612,1.612 0 0 0 0.689,-0.158 3.974,3.974 0 0 0 0.753,0.826 4.26,4.26 0 0 0 1.38,0.834 l 0.446,0.191 0.658,0.339 a 6.082,6.082 0 0 0 0.754,0.37 2.4,2.4 0 0 1 0.288,0.741 1.023,1.023 0 0 1 -1,1.043 0.335,0.335 0 0 0 -0.079,0.01 1.846,1.846 0 0 1 -0.928,-0.187 v 0 l -0.157,-0.131 a 1.287,1.287 0 0 0 -0.419,-0.512 0.328,0.328 0 0 0 -0.38,0.534 0.622,0.622 0 0 1 0.133,0.131 0.339,0.339 0 0 0 0.112,0.234 0.671,0.671 0 0 1 0.02,0.159 0.62,0.62 0 0 1 -0.6,0.633 0.59,0.59 0 0 1 -0.477,-0.247 0.328,0.328 0 0 0 -0.59,0.225 l 0.008,0.079 a 0.333,0.333 0 0 0 0.068,0.171 0.654,0.654 0 0 1 0.158,0.429 0.7,0.7 0 0 1 -0.684,0.717 0.611,0.611 0 0 1 -0.261,-0.07 l -0.11,-0.086 v -0.005 c -0.005,-0.005 -0.012,-0.006 -0.017,-0.011 -0.076,-0.059 -0.154,-0.118 -0.228,-0.178 a 0.328,0.328 0 1 0 -0.411,0.511 c 0.062,0.05 0.127,0.1 0.19,0.147 l 0.019,0.03 a 0.3,0.3 0 0 0 0.046,0.047 0.892,0.892 0 0 1 0.228,0.579 0.857,0.857 0 0 1 -0.836,0.873 0.812,0.812 0 0 1 -0.55,-0.216 m -1.7,-0.1 -0.026,0.052 a 1.181,1.181 0 0 1 -0.994,0.645 1.311,1.311 0 0 1 -0.759,-0.149 c -0.046,-0.021 -0.095,-0.045 -0.148,-0.073 0,0 -0.36,-0.215 -0.407,-0.245 l -0.213,-0.174 -0.188,-0.182 -0.044,-0.046 a 10.948,10.948 0 0 1 -1.544,-1.762 l -1.33,-2.063 a 12.116,12.116 0 0 1 -0.7,-1.188 19.455,19.455 0 0 1 -2.07,-8.051 c -0.02,-0.409 -0.031,-0.815 -0.031,-1.215 0,-0.134 0,-0.267 0,-0.4 a 1.881,1.881 0 0 0 0.31,0.295 1.544,1.544 0 0 0 0.931,0.311 1.56,1.56 0 0 0 1.043,-0.409 18.5,18.5 0 0 0 0.651,4.921 l 0.4,1.156 c 0,-0.006 0.175,0.518 0.175,0.518 0,0 0.421,0.965 0.421,0.965 l 0.265,0.589 a 18.186,18.186 0 0 0 1.8,2.766 16.856,16.856 0 0 0 2.609,3.321 1.313,1.313 0 0 1 -0.16,0.416 m -2.86,-15.023 a 1.469,1.469 0 0 0 0.753,0.213 1.523,1.523 0 0 0 0.835,-0.256 23.149,23.149 0 0 0 0.331,3.323 2.512,2.512 0 0 0 -1.018,0.18 1.616,1.616 0 0 0 -0.307,0.151 22.588,22.588 0 0 1 -0.595,-3.611 m -0.811,8.213 c -0.061,-0.133 -0.254,-0.564 -0.254,-0.564 l -0.4,-0.9 -0.175,-0.516 -0.388,-1.125 a 17.716,17.716 0 0 1 -0.623,-4.652 1.318,1.318 0 0 0 0.881,0.353 1.731,1.731 0 0 0 1.139,-0.407 23.847,23.847 0 0 0 0.677,3.723 4.694,4.694 0 0 0 -0.415,0.686 4.828,4.828 0 0 0 -0.446,3.4 m 4.627,0.339 v 0 a 0.935,0.935 0 0 1 -0.91,0.91 0.876,0.876 0 0 1 -0.287,-0.054 l -0.069,-0.064 a 0.327,0.327 0 0 0 -0.545,0.2 0.8,0.8 0 0 1 -0.875,0.713 0.828,0.828 0 0 1 -0.666,-0.273 0.3,0.3 0 0 0 -0.037,-0.029 c -0.84,-1.828 -0.97,-3.542 -0.22,-4.832 a 4.13,4.13 0 0 1 0.362,-0.607 0.321,0.321 0 0 0 0.148,-0.172 1.115,1.115 0 0 1 0.419,-0.274 2.216,2.216 0 0 1 0.949,-0.136 2.65,2.65 0 0 1 2.489,1.568 0.355,0.355 0 0 0 0.037,0.067 l 0.287,0.394 a 3.083,3.083 0 0 0 0.294,0.437 3.279,3.279 0 0 1 0.14,0.721 0.943,0.943 0 0 1 -0.921,0.962 L 33.232,47.576 A 0.628,0.628 0 0 0 32.996,47.57 l -0.041,0.014 a 0.335,0.335 0 0 0 -0.2,0.2 0.325,0.325 0 0 0 -0.018,0.107 0.354,0.354 0 0 0 0.049,0.18 m -8.97,-12.279 a 1.8,1.8 0 0 0 0.493,0.521 1.623,1.623 0 0 0 0.923,0.274 1.509,1.509 0 0 0 0.562,-0.11 1.781,1.781 0 0 0 1.594,1.036 1.843,1.843 0 0 0 1.334,-0.557 1.753,1.753 0 0 0 2.766,0.587 0.9,0.9 0 0 0 0.218,0.353 0.914,0.914 0 0 0 0.541,0.249 l 0.018,0.2 0.04,0.371 a 2.125,2.125 0 0 0 0.409,1.019 c 0.112,0.171 0.17,0.26 0.17,0.329 a 0.181,0.181 0 0 1 -0.073,0.122 c -0.041,-0.052 -0.085,-0.11 -0.109,-0.145 l -0.218,-0.225 c -0.081,-0.084 -0.16,-0.051 -0.272,-0.024 -0.112,0.027 -0.165,0.176 -0.2,0.286 l -0.065,0.2 -0.1,0.352 c 0,0.027 0,0.054 0,0.081 a 1.028,1.028 0 0 0 0.367,0.8 1.448,1.448 0 0 0 0.557,0.281 0.9,0.9 0 0 0 0.229,0.508 0.871,0.871 0 0 0 0.645,0.277 0.922,0.922 0 0 0 0.68,-0.342 l 0.058,-0.079 a 0.891,0.891 0 0 0 0.266,0.077 c 0.031,0 0.058,0 0.086,0.006 a 5.963,5.963 0 0 0 0.758,3.266 c 0.066,0.133 0.128,0.254 0.19,0.371 a 0.986,0.986 0 0 1 -0.315,0.066 1.378,1.378 0 0 1 -0.928,-0.789 0.149,0.149 0 0 0 -0.019,-0.032 l -0.284,-0.39 a 3.257,3.257 0 0 0 -2.562,-1.884 21.134,21.134 0 0 1 -0.346,-4.231 1.428,1.428 0 0 0 0.042,-0.142 0.32732629,0.32732629 0 0 0 -0.641,-0.133 0.929,0.929 0 0 1 -0.894,0.751 0.919,0.919 0 0 1 -0.829,-0.549 0.327,0.327 0 0 0 -0.625,0.135 1.014,1.014 0 0 1 -1.064,1.007 c -0.452,0 -0.8,-0.5 -0.934,-0.962 a 0.327,0.327 0 0 0 -0.635,0.022 1.078,1.078 0 0 1 -1.012,0.914 1.028,1.028 0 0 1 -0.856,-0.54 2.178,2.178 0 0 1 -0.3,-0.892 0.2,0.2 0 0 0 -0.007,-0.019 20.491,20.491 0 0 1 0.343,-2.416 m 0.894,-2.947 a 1.815,1.815 0 0 0 0.556,0.763 1.7,1.7 0 0 0 1.08,0.373 1.748,1.748 0 0 0 0.506,-0.081 1.486,1.486 0 0 0 1.479,1.056 1.668,1.668 0 0 0 0.967,-0.321 1.682,1.682 0 0 0 1.553,1.165 1.706,1.706 0 0 0 1.441,-0.8 0.327,0.327 0 1 0 -0.551,-0.352 1.06,1.06 0 0 1 -0.89,0.5 1.106,1.106 0 0 1 -1.02,-1.174 0.327,0.327 0 0 0 -0.6,-0.175 1.06,1.06 0 0 1 -0.9,0.5 0.886,0.886 0 0 1 -0.941,-0.879 0.327,0.327 0 0 0 -0.489,-0.245 1.111,1.111 0 0 1 -0.555,0.15 A 1.057,1.057 0 0 1 25.553,33 1.437,1.437 0 0 1 25.202,32.111 c 0,0 0.016,-0.29 0.017,-0.319 A 5.63,5.63 0 0 1 28.3,28.9 l 0.037,-0.012 0.183,-0.025 a 2.7,2.7 0 0 1 2.931,1.879 3.206,3.206 0 0 1 0.19,0.619 c 0,0 0.025,0.173 0.025,0.173 a 3.615,3.615 0 0 0 0.518,1.556 5.6,5.6 0 0 0 0.606,0.819 0.343,0.343 0 0 0 -0.131,0.128 1.567,1.567 0 0 0 -0.2,0.527 1.262,1.262 0 0 0 0.15,0.647 1.462,1.462 0 0 0 -0.068,0.416 1.592,1.592 0 0 0 0.013,0.2 2.953,2.953 0 0 1 0.03,0.387 0.667,0.667 0 0 1 -0.087,0.414 c -0.014,0.017 -0.054,0.053 -0.174,0.067 a 0.459,0.459 0 0 1 -0.112,-0.134 0.329,0.329 0 0 0 -0.274,-0.149 0.358,0.358 0 0 0 -0.29,0.144 0.327,0.327 0 0 0 -0.329,0.164 1.144,1.144 0 0 1 -1,0.605 1.176,1.176 0 0 1 -1.149,-1.2 0.327,0.327 0 0 0 -0.645,-0.077 1.1,1.1 0 0 1 -1.136,0.8 1.159,1.159 0 0 1 -1.114,-0.9 0.327,0.327 0 0 0 -0.5,-0.2 0.864,0.864 0 0 1 -0.543,0.171 0.932,0.932 0 0 1 -0.727,-0.308 2.034,2.034 0 0 1 -0.427,-0.894 c 0,-0.008 -0.006,-0.012 -0.008,-0.018 a 14.636,14.636 0 0 1 0.64,-1.869 m 6.38,-6.465 a 8.193,8.193 0 0 1 1.642,-1.251 0.332,0.332 0 0 0 0.094,-0.033 0.9,0.9 0 0 1 0.388,-0.121 0.856,0.856 0 0 1 0.147,0 0.89,0.89 0 0 1 0.5,0.215 0.966,0.966 0 0 1 0.329,0.67 0.824,0.824 0 0 1 -0.18,0.531 0.327,0.327 0 0 0 0.456,0.449 0.8,0.8 0 0 1 0.388,-0.131 0.812,0.812 0 0 1 0.593,0.2 0.889,0.889 0 0 1 0.3,0.612 1.86,1.86 0 0 1 -0.144,0.456 0.33,0.33 0 0 0 0.072,0.372 0.323,0.323 0 0 0 0.37,0.054 l 0.087,-0.044 a 1.591,1.591 0 0 1 0.414,-0.17 0.825,0.825 0 0 1 0.647,0.193 0.669,0.669 0 0 1 0.2,0.527 0.971,0.971 0 0 1 -0.376,0.78 l -0.106,0.012 a 2.441,2.441 0 0 0 -1.441,0.8 v -0.031 a 1.017,1.017 0 0 0 -0.18,-0.566 0.47,0.47 0 0 0 -0.03,-0.051 c 0,0.006 0,0.011 0.008,0.015 -0.39,-0.761 -1.662,-0.984 -2.2,-1.043 l -0.658,0.01 -0.338,0.01 a 0.676,0.676 0 0 0 -0.086,0.008 1.892,1.892 0 0 1 -1.149,-0.106 1.269,1.269 0 0 1 -0.492,-0.718 1.031,1.031 0 0 1 -0.02,-0.2 2.236,2.236 0 0 1 0.764,-1.445 M 33.5,23.31 a 0.529,0.529 0 0 1 0.3,-0.422 10.778,10.778 0 0 1 4.345,-0.57 24.868,24.868 0 0 0 -3.284,1.052 l -0.039,0.008 c 0.006,0 0.013,0 0.019,0 q -0.572,0.231 -1.093,0.479 a 0.473,0.473 0 0 1 -0.249,-0.476 c 0,-0.026 0,-0.05 0,-0.07 m 4.386,1.726 a 0.351,0.351 0 0 0 0.323,0.207 h 0.34 a 0.592,0.592 0 0 1 0.449,0.729 c -0.008,0.077 -0.1,0.174 -0.189,0.268 l -0.074,0.079 a 0.313,0.313 0 0 0 -0.03,0.362 0.356,0.356 0 0 0 0.348,0.175 l 0.263,-0.025 a 0.474,0.474 0 0 1 0.43,0.575 c 0,0 -0.018,0.041 -0.04,0.1 -0.239,0.09 -0.467,0.183 -0.68,0.28 a 0.116,0.116 0 0 1 0,-0.02 1.233,1.233 0 0 0 -0.421,-0.854 1.179,1.179 0 0 0 -0.668,-0.273 0.669,0.669 0 0 0 0.032,-0.14 c 0,-0.018 0,-0.035 0,-0.053 a 1.37,1.37 0 0 0 -0.444,-0.952 1.14,1.14 0 0 0 -0.7,-0.268 1.593,1.593 0 0 0 0.057,-0.359 c 0,-0.036 0,-0.073 0,-0.11 a 1.574,1.574 0 0 0 -0.442,-0.99 1.281,1.281 0 0 0 -0.1,-0.1 1.164,1.164 0 0 0 -0.133,-0.1 q 0.564,-0.191 1.173,-0.365 h 0.006 a 0.912,0.912 0 0 1 0.591,0.2 0.729,0.729 0 0 1 0.085,0.076 0.782,0.782 0 0 1 0.185,0.622 0.948,0.948 0 0 1 -0.145,0.4 0.312,0.312 0 0 0 -0.12,0.152 c -0.01,0.01 -0.017,0.02 -0.027,0.03 a 0.321,0.321 0 0 0 -0.067,0.359 m 1.17,-2.261 q 0.672,-0.147 1.333,-0.257 h 0.01 a 0.305,0.305 0 0 0 0.174,-0.03 c 2.964,-0.47 5.68,-0.375 7.25,0.278 a 0.528,0.528 0 0 1 0.293,0.42 c 0,0.014 0,0.027 0,0.039 a 0.545,0.545 0 0 1 -0.491,0.554 h -0.083 l -0.29,-0.04 a 18.8,18.8 0 0 0 -2.414,-0.186 24.563,24.563 0 0 0 -2.547,0.1 22.645,22.645 0 0 0 -3.418,0.619 c 0.005,-0.031 0.017,-0.062 0.021,-0.094 a 1.828,1.828 0 0 0 0.011,-0.185 1.424,1.424 0 0 0 -0.189,-0.71 1.3,1.3 0 0 0 -0.168,-0.239 1.631,1.631 0 0 0 -0.133,-0.119 q 0.315,-0.077 0.64,-0.149 m 8.513,1.787 0.092,0.043 c -0.027,0.014 -0.054,0.023 -0.081,0.037 0,-0.027 -0.006,-0.054 -0.012,-0.081 m 0.734,9.363 -0.047,-0.095 -0.008,-0.167 a 1.981,1.981 0 0 0 -0.116,-0.7 L 48.05,32.776 c -0.26,-0.641 -0.477,-1.155 -1.126,-1.37 -0.005,-0.016 -0.011,-0.033 -0.017,-0.049 -0.052,-0.214 -0.117,-0.483 -0.13,-0.537 0.008,-0.071 0.017,-0.175 0.017,-0.175 0.011,-0.157 0.016,-0.187 0.065,-0.247 a 0.344,0.344 0 0 0 0.047,-0.079 c 0.138,-0.325 0.843,-0.617 1.713,-0.712 l 0.56,0.015 0.368,0.01 a 2.479,2.479 0 0 0 0.895,0.014 4.072,4.072 0 0 0 -0.423,0.8 3.852,3.852 0 0 0 -0.225,0.742 c 0,0.01 -0.028,0.2 -0.028,0.2 a 3.012,3.012 0 0 1 -0.442,1.33 7.77,7.77 0 0 1 -1.024,1.207 m 0.257,1 a 0.64,0.64 0 0 0 0.147,-0.018 0.651,0.651 0 0 1 -0.056,0.113 v 0 0 a 0.629,0.629 0 0 1 -0.1,0.109 1.041,1.041 0 0 0 0.01,-0.129 0.466,0.466 0 0 0 0.006,-0.057 c 0,-0.006 0,-0.013 0,-0.019 m 0.225,2.146 -0.008,-0.014 A 2.573,2.573 0 0 1 48.625,36.79 c -0.035,-0.068 -0.066,-0.14 -0.1,-0.212 -0.012,-0.029 -0.025,-0.056 -0.037,-0.085 -0.083,-0.2 -0.155,-0.415 -0.221,-0.621 h 0.049 a 0.528,0.528 0 0 0 0.13,-0.011 0.914,0.914 0 0 0 0.235,-0.055 3.632,3.632 0 0 0 -0.032,0.445 1.262,1.262 0 0 0 0.234,0.826 0.888,0.888 0 0 0 0.658,0.311 0.536,0.536 0 0 0 0.212,-0.036 c -0.013,0.032 -0.01,0.086 -0.031,0.107 a 0.369,0.369 0 0 1 -0.283,0.069 L 49.395,37.52 a 0.937,0.937 0 0 1 -0.608,-0.446 m 0.2,1.045 a 0.254,0.254 0 0 0 -0.2,0.037 l -0.076,0.056 a 0.088,0.088 0 0 1 -0.034,-0.077 1.185,1.185 0 0 1 0.033,-0.21 1.418,1.418 0 0 0 0.279,0.155 c 0,0.011 0,0.022 0,0.038 m -0.436,2.845 a 2.691,2.691 0 0 0 0.038,-0.319 1.67,1.67 0 0 0 0.206,0.185 l 0.354,0.093 a 0.535,0.535 0 0 0 0.2,-0.081 c -0.089,0.31 -0.536,0.39 -0.541,0.39 a 0.365,0.365 0 0 0 -0.327,0.331 c -0.006,0.223 -0.049,0.29 -0.067,0.309 a 0.234,0.234 0 0 1 -0.161,0.078 0.2,0.2 0 0 1 -0.094,-0.032 2.374,2.374 0 0 0 0.391,-0.955 m 0.008,-1.449 c -0.027,0.044 -0.054,0.088 -0.08,0.137 -0.011,-0.042 -0.022,-0.083 -0.033,-0.124 h 0.014 a 0.877,0.877 0 0 0 0.1,-0.01 M 47.697,38.05 a 0.311,0.311 0 0 0 -0.1,-0.226 0.3,0.3 0 0 0 -0.227,-0.08 l -0.177,0.016 a 1.075,1.075 0 0 1 -0.5,-0.018 l -0.029,-0.016 a 0.417,0.417 0 0 1 -0.073,-0.23 0.589,0.589 0 0 0 0.242,-0.056 0.624,0.624 0 0 0 0.317,-0.52 c 0,-0.036 0.005,-0.071 0.005,-0.1 A 0.57,0.57 0 0 0 47,36.4 a 1.011,1.011 0 0 0 0.2,0.02 1.242,1.242 0 0 0 0.517,-0.12 5.129,5.129 0 0 0 0.458,1.018 l -0.022,0.109 c -0.011,0.053 -0.022,0.105 -0.029,0.137 l -0.008,0.035 a 2.452,2.452 0 0 0 -0.084,0.543 0.708,0.708 0 0 0 0.339,0.642 0.727,0.727 0 0 0 0.206,0.064 0.618,0.618 0 0 1 -0.452,-0.044 C 48.096,38.792 48.067,38.779 48.067,38.779 47.837,38.658 47.726,38.44 47.698,38.05 m -0.663,-5.824 a 2.743,2.743 0 0 1 0.417,0.791 c 0,0 0.073,0.18 0.077,0.191 H 47.5 a 0.256,0.256 0 0 0 -0.251,0.161 l -0.058,0.147 c 0,0.014 -0.014,0.04 -0.022,0.064 a 4.891,4.891 0 0 1 -0.138,-1.274 c 0,0 0,-0.056 0,-0.081 M 46.643,34 a 0.326,0.326 0 0 0 0.021,0.034 0.7,0.7 0 0 0 0.223,0.221 l 0.034,0.018 a 0.579,0.579 0 0 0 0.321,0.069 0.482,0.482 0 0 0 0.286,-0.135 0.836,0.836 0 0 0 0.119,-0.141 0.2,0.2 0 0 0 0.015,0.02 l 0.113,0.216 0.047,0.163 c 0.005,0.017 0.008,0.031 0.014,0.048 0.019,0.072 0.035,0.135 0.048,0.194 l 0.01,0.052 a 1.171,1.171 0 0 1 0.017,0.166 c 0,0 0,0.011 0,0.015 a 1,1 0 0 1 -0.019,0.145 c -0.006,0.032 -0.005,0.062 -0.015,0.1 a 0.02,0.02 0 0 0 0,0.007 c 0,0 0,0 0,0 l -0.088,0.2 c 0,0 -0.125,0.161 -0.126,0.162 a 0.827,0.827 0 0 1 -0.225,0.154 0.761,0.761 0 0 1 -0.121,0.041 0.522,0.522 0 0 1 -0.12,0.014 c -0.114,0 -0.243,-0.037 -0.378,-0.321 a 0.1,0.1 0 0 1 0,-0.021 C 46.838,35.29 46.86,35.135 46.86,35.135 A 2.624,2.624 0 0 0 46.835,34.78 c 0,-0.021 -0.006,-0.044 -0.009,-0.064 a 1.932,1.932 0 0 0 -0.068,-0.3 0.015,0.015 0 0 0 0,-0.01 1.73,1.73 0 0 0 -0.226,-0.47 c 0.012,-0.033 0.025,-0.064 0.034,-0.089 A 1.171,1.171 0 0 0 46.643,34 m -12.757,4.7 -0.062,0.041 a 0.669,0.669 0 0 1 -0.514,0.07 0.753,0.753 0 0 0 0.209,-0.065 0.71,0.71 0 0 0 0.34,-0.642 2.412,2.412 0 0 0 -0.085,-0.544 l -0.049,-0.232 -0.01,-0.049 a 5.081,5.081 0 0 0 0.469,-1.052 0.946,0.946 0 0 0 0.505,0.154 1.071,1.071 0 0 0 0.2,-0.02 0.569,0.569 0 0 0 -0.159,0.416 0.964,0.964 0 0 0 0.006,0.1 0.62,0.62 0 0 0 0.317,0.52 0.582,0.582 0 0 0 0.242,0.056 0.507,0.507 0 0 1 -0.055,0.2 l -0.02,0.027 c -0.1,0.083 -0.383,0.049 -0.521,0.033 l -0.181,-0.015 a 0.294,0.294 0 0 0 -0.226,0.078 0.32,0.32 0 0 0 -0.1,0.226 0.825,0.825 0 0 1 -0.306,0.689 m -0.555,0.785 a 1.239,1.239 0 0 0 0.26,0 4.184,4.184 0 0 0 -0.089,0.429 1.288,1.288 0 0 0 -0.171,-0.428 m -0.24,1.308 a 1.164,1.164 0 0 0 0.383,-0.46 2.651,2.651 0 0 0 0.046,0.456 v 0 a 2.434,2.434 0 0 0 0.369,0.922 l -0.054,0.075 a 0.319,0.319 0 0 1 -0.2,0.123 0.236,0.236 0 0 1 -0.161,-0.079 c -0.018,-0.019 -0.061,-0.086 -0.066,-0.308 a 0.366,0.366 0 0 0 -0.327,-0.332 c -0.006,0 -0.433,-0.079 -0.534,-0.384 a 0.523,0.523 0 0 0 0.193,0.074 z m 0.084,-2.906 a 1.321,1.321 0 0 1 0.032,0.211 0.086,0.086 0 0 1 -0.034,0.076 l -0.074,-0.055 a 0.255,0.255 0 0 0 -0.2,-0.037 0.388,0.388 0 0 0 0,-0.041 1.427,1.427 0 0 0 0.28,-0.155 m 0.064,-1.674 a 3.437,3.437 0 0 0 -0.033,-0.445 0.909,0.909 0 0 0 0.235,0.055 0.541,0.541 0 0 0 0.131,0.012 h 0.033 0.015 c -0.066,0.206 -0.138,0.419 -0.221,0.622 -0.011,0.025 -0.022,0.049 -0.033,0.074 -0.033,0.074 -0.065,0.15 -0.1,0.221 a 2.555,2.555 0 0 1 -0.155,0.265 0.067,0.067 0 0 0 -0.008,0.015 0.938,0.938 0 0 1 -0.608,0.445 l -0.048,0.008 a 0.359,0.359 0 0 1 -0.28,-0.069 c -0.02,-0.02 -0.018,-0.075 -0.032,-0.107 a 0.565,0.565 0 0 0 0.213,0.036 0.885,0.885 0 0 0 0.648,-0.288 1.263,1.263 0 0 0 0.234,-0.826 m 0.214,-1.06 A 0.481,0.481 0 0 1 33.23,34.994 c -0.025,-0.035 -0.021,-0.073 -0.039,-0.11 a 0.553,0.553 0 0 0 0.182,0.006 1.807,1.807 0 0 0 0.075,0.272 m 1.2,-3.655 A 2.341,2.341 0 0 0 33.83,32.74 l -0.08,0.194 a 1.951,1.951 0 0 0 -0.116,0.7 l -0.005,0.1 c -0.018,0.023 -0.034,0.045 -0.05,0.068 A 6.188,6.188 0 0 1 32.755,32.77 3,3 0 0 1 32.313,31.441 L 32.286,31.254 A 3.808,3.808 0 0 0 32.06,30.503 4.138,4.138 0 0 0 31.521,29.538 2.4,2.4 0 0 0 32.064,29.494 L 32.431,29.484 33,29.475 c 0.868,0.095 1.572,0.387 1.71,0.712 a 0.336,0.336 0 0 0 0.047,0.077 c 0.049,0.06 0.054,0.091 0.065,0.248 0,0 0.01,0.106 0.017,0.178 -0.015,0.067 -0.126,0.552 -0.187,0.816 m 0.2,0.707 c 0,0.039 0,0.064 0,0.064 a 4.9,4.9 0 0 1 -0.138,1.273 l -0.033,-0.081 a 0.258,0.258 0 0 0 -0.253,-0.162 0.485,0.485 0 0 0 -0.1,0.011 0.709,0.709 0 0 1 0.03,-0.133 l 0.082,-0.2 a 2.746,2.746 0 0 1 0.417,-0.791 c 0,0.007 0,0.01 0,0.017 m 1.31,2.1 a 0.882,0.882 0 0 1 -0.015,0.154 0.26,0.26 0 0 0 -0.024,-0.1 0.255,0.255 0 0 1 0.039,-0.051 z m 1.779,-3.944 a 2.564,2.564 0 0 0 -0.212,0.554 1.206,1.206 0 0 0 -0.036,0.175 l -0.017,0.133 c 0,0.032 -0.026,0.216 -0.026,0.216 a 3.177,3.177 0 0 1 -0.246,1.116 c -0.121,-0.032 -0.176,-0.064 -0.176,-0.19 a 1.1,1.1 0 0 1 0.022,-0.19 l -0.03,-0.336 c -0.01,-0.1 -0.065,-0.112 -0.151,-0.168 -0.086,-0.056 -0.191,0.014 -0.287,0.047 l -0.032,0.012 a 1.589,1.589 0 0 0 -0.235,0.105 c -0.023,0.013 -0.043,0.027 -0.065,0.04 a 1.323,1.323 0 0 0 -0.138,0.1 c -0.02,0.016 -0.041,0.034 -0.06,0.052 a 1.389,1.389 0 0 0 -0.113,0.124 l -0.04,0.05 a 1.2,1.2 0 0 0 -0.114,0.2 c -0.005,0.013 -0.01,0.027 -0.014,0.041 a 1.335,1.335 0 0 0 -0.06,0.193 c -0.006,0.027 -0.012,0.055 -0.016,0.084 a 1.576,1.576 0 0 0 -0.022,0.185 c 0,0.031 -0.006,0.062 -0.006,0.094 0,0.032 0,0.035 0,0.054 0,0.05 0.006,0.1 0.01,0.155 0,0.034 0,0.067 0.005,0.1 a 3.24,3.24 0 0 0 0.051,0.336 c 0,0.015 0.01,0.027 0.013,0.042 a 0.706,0.706 0 0 0 -0.309,0.227 c 0,0 0,0.006 0,0.006 a 1.226,1.226 0 0 0 -0.11,0.169 c -0.008,0.015 -0.016,0.029 -0.023,0.044 a 1.938,1.938 0 0 0 -0.1,0.229 l -0.124,0.428 c -0.177,0.662 -0.3,0.941 -0.588,0.941 -0.154,0 -0.29,-0.152 -0.376,-0.278 l -0.043,-0.069 -0.161,-0.338 -0.039,-0.1 c 0,-0.01 -0.005,-0.017 -0.008,-0.026 -0.003,-0.009 -0.015,-0.044 -0.021,-0.066 -0.006,-0.022 0,-0.016 -0.006,-0.023 A 0.483,0.483 0 0 1 34.028,34.77 c 0,0 0,-0.005 0,-0.008 A 0.446,0.446 0 0 1 34.023,34.69 v -0.019 c 0,-0.022 0,-0.045 0,-0.069 0,-0.024 0,-0.018 0,-0.027 0,-0.009 0.005,-0.036 0.007,-0.053 a 0.307,0.307 0 0 0 0.02,-0.116 l 0.022,-0.123 a 0.378,0.378 0 0 1 0.112,-0.175 v 0 a 0.5,0.5 0 0 1 0.049,-0.037 0.525,0.525 0 0 0 0.581,0.242 c 0.622,-0.135 0.676,-1.057 0.693,-1.86 0,-0.054 0,-0.107 0,-0.159 l 0.01,-0.384 0.035,-0.2 a 1.822,1.822 0 0 1 1.457,-1.349 h 0.02 a 0.322,0.322 0 0 0 0.226,-0.019 3.778,3.778 0 0 1 0.687,0.034 m 2.248,-2.348 c 0.13,-0.046 0.267,-0.089 0.405,-0.133 0.292,0.087 0.576,0.179 0.846,0.278 a 0.312,0.312 0 0 0 0.32,0.123 9.461,9.461 0 0 1 1.222,0.575 l 0.025,0.014 a 5.2,5.2 0 0 1 0.662,0.442 c 0.006,0.037 0.015,0.075 0.024,0.114 a 1.674,1.674 0 0 0 -1.9,-0.218 0.446,0.446 0 0 0 -0.05,0.008 1.974,1.974 0 0 0 -0.585,0.331 0.985,0.985 0 0 0 -0.413,-0.464 1.872,1.872 0 0 0 -2.424,0.688 2.9,2.9 0 0 0 -0.466,-0.082 1.49,1.49 0 0 0 0.187,-0.589 4.537,4.537 0 0 1 0.492,-0.336 0.329,0.329 0 0 0 0.181,-0.1 c 0,-0.005 0.007,-0.012 0.012,-0.017 a 9.038,9.038 0 0 1 1.093,-0.5 0.315,0.315 0 0 0 0.366,-0.137 m 2.569,-0.669 a 1.235,1.235 0 0 0 -0.166,0.537 c 0,0.014 0,0.028 0,0.042 -0.212,-0.1 -0.437,-0.192 -0.671,-0.282 l -0.046,-0.111 c 0.1,-0.025 0.2,-0.05 0.307,-0.073 0.193,-0.042 0.385,-0.077 0.579,-0.112 m 2.472,-0.887 -0.2,0.013 a 14.81,14.81 0 0 0 -3,0.348 c -0.524,0.114 -1.019,0.245 -1.483,0.387 a 0.333,0.333 0 0 0 -0.157,0.041 1.083,1.083 0 0 0 -0.359,-0.76 23.5,23.5 0 0 1 2.924,-0.559 17.673,17.673 0 0 1 2.249,-0.127 0.326,0.326 0 0 0 0.139,0.091 0.246,0.246 0 0 1 0.165,0.25 0.277,0.277 0 0 1 0,0.034 c 0,0.079 -0.031,0.224 -0.289,0.283 m -3.729,6.6 c 0.044,0.01 0.089,0.018 0.134,0.024 a 1.058,1.058 0 0 0 0.149,0.329 l 0.014,0.018 a 0.7,0.7 0 0 0 0.107,0.116 c 0.013,0.011 0.025,0.023 0.038,0.032 a 0.63,0.63 0 0 0 0.178,0.094 0.327,0.327 0 0 0 0.353,-0.1 0.452,0.452 0 0 1 0.222,-0.162 0.479,0.479 0 0 1 0.061,-0.008 c 0.013,0 0.027,-0.005 0.04,-0.005 a 0.519,0.519 0 0 1 0.093,0.013 0.14,0.14 0 0 1 0.114,0.088 l 0.033,0.107 0.021,0.249 c 0,0.188 -0.371,0.437 -0.651,0.437 a 0.957,0.957 0 0 1 -0.915,-1.07 l 0.008,-0.161 m -0.644,-1.533 0.006,-0.049 c 0.011,-0.079 0.031,-0.232 0.037,-0.289 a 1.105,1.105 0 0 0 0.207,-0.284 c 0,0.038 0,0.079 0.007,0.123 0,0.013 0,0.025 0,0.039 0,0.041 0.008,0.082 0.013,0.123 0,0.015 0,0.027 0,0.041 a 2.686,2.686 0 0 0 0.061,0.326 c 0,0.014 0.007,0.027 0.012,0.041 0.011,0.037 0.023,0.073 0.037,0.107 0,0.013 0.01,0.026 0.015,0.039 a 0.706,0.706 0 0 0 0.064,0.116 0.327,0.327 0 0 0 0.557,-0.046 0.647,0.647 0 0 1 0.1,-0.167 0.74,0.74 0 0 1 0.231,0.054 c 0.034,0.015 0.132,0.068 0.132,0.068 a 0.194,0.194 0 0 1 0.064,0.085 l 0.006,0.016 a 0.451,0.451 0 0 1 0.014,0.068 0.252,0.252 0 0 1 0,0.04 0.7,0.7 0 0 1 -0.006,0.137 c -0.012,0.088 -0.046,0.352 -0.51,0.338 a 1.4,1.4 0 0 1 -0.57,-0.137 0.818,0.818 0 0 1 -0.435,-0.485 z m -1.333,1.786 a 3.644,3.644 0 0 0 0.114,-0.57 c 0.034,-0.029 0.069,-0.064 0.1,-0.064 0.24,0 0.343,0.071 0.362,0.1 l -0.012,-0.026 a 0.353,0.353 0 0 0 0.247,0.206 0.327,0.327 0 0 0 0.3,-0.079 0.609,0.609 0 0 0 0.105,-0.188 1.369,1.369 0 0 0 0.126,0.1 c 0,0.065 -0.008,0.124 -0.011,0.178 v 0.035 c 0,0.054 -0.005,0.1 -0.008,0.139 a 0.843,0.843 0 0 1 -0.421,0.474 0.879,0.879 0 0 1 -0.367,0.075 0.624,0.624 0 0 1 -0.531,-0.377 m -0.3,0.7 a 1.289,1.289 0 0 0 0.321,0.214 0.136,0.136 0 0 1 -0.048,0.013 0.664,0.664 0 0 1 -0.327,-0.149 c 0.018,-0.025 0.036,-0.051 0.054,-0.078 m 1.044,-2.091 c -0.014,0.067 -0.027,0.134 -0.043,0.2 a 1.336,1.336 0 0 0 -0.4,-0.082 0.94,0.94 0 0 1 0.392,-0.416 z M 36.706,33.8 a 0.647,0.647 0 0 1 -0.132,-0.278 2.4,2.4 0 0 1 -0.052,-0.46 0.826,0.826 0 0 1 0.105,-0.436 0.818,0.818 0 0 0 0.628,0.572 0.621,0.621 0 0 0 0.518,-0.089 c 0.377,-0.261 0.451,-0.906 0.53,-1.589 l 0.021,-0.183 c 0,-0.03 0.019,-0.156 0.019,-0.156 a 1.972,1.972 0 0 1 0.278,-0.691 c 0.086,-0.141 0.868,-1.365 1.8,-0.832 0.157,0.089 0.222,0.285 0.194,0.579 l -0.033,0.211 v 0 a 0.512,0.512 0 0 1 -0.187,0.317 c -0.014,0.014 -0.286,0.164 -0.286,0.164 a 1.76,1.76 0 0 0 -1.1,1.6 v 0 L 39,32.615 c 0,0.016 0,0.028 0,0.028 a 2.922,2.922 0 0 1 -0.124,0.6 1.53,1.53 0 0 1 -0.375,0.638 1.25,1.25 0 0 1 -0.956,0.325 1.264,1.264 0 0 1 -0.833,-0.408 m 0.014,1.218 a 0.086,0.086 0 0 1 -0.014,-0.041 0.478,0.478 0 0 1 0.013,-0.095 2.153,2.153 0 0 0 0.056,-0.223 2.023,2.023 0 0 0 0.344,0.133 0.332,0.332 0 0 0 -0.135,0.07 0.763,0.763 0 0 1 -0.265,0.155 m -0.529,0.37 a 0.626,0.626 0 0 0 0.216,0.223 0.6,0.6 0 0 0 0.456,0.042 0.69,0.69 0 0 1 -0.149,0.2 0.454,0.454 0 0 1 -0.472,0.058 L 36.176,35.865 A 2.632,2.632 0 0 0 36.2,35.508 c 0,-0.038 0,-0.081 -0.005,-0.121 m 8.559,-2.143 a 0.623,0.623 0 0 0 0.518,0.088 0.816,0.816 0 0 0 0.628,-0.571 0.825,0.825 0 0 1 0.1,0.439 2.385,2.385 0 0 1 -0.052,0.461 l -0.072,0.178 v 0.005 a 1.044,1.044 0 0 1 -0.564,0.428 l -0.328,0.073 a 1.232,1.232 0 0 1 -1.312,-0.913 c 0,0 0.011,0.04 0.013,0.045 L 43.633,33.32 43.621,33.282 a 0.044,0.044 0 0 0 0,-0.013 l -0.09,-0.489 c -0.01,-0.091 -0.022,-0.18 -0.036,-0.262 a 1.748,1.748 0 0 0 -0.743,-1.266 c 0,0 -0.15,-0.081 -0.228,-0.126 -0.008,0 -0.011,-0.01 -0.018,-0.014 l -0.091,-0.045 c -0.265,-0.128 -0.41,-0.2 -0.475,-0.484 a 1.532,1.532 0 0 1 -0.029,-0.161 c 0,-0.02 0,-0.039 0,-0.06 0,-0.021 -0.005,-0.063 -0.006,-0.091 0,-0.01 0,-0.018 0,-0.027 a 0.825,0.825 0 0 1 0.025,-0.193 c 0.022,-0.039 0.106,-0.183 0.133,-0.227 l 0.04,-0.029 a 1.24,1.24 0 0 1 1.547,0.479 2.285,2.285 0 0 1 0.535,1.044 l 0.041,0.339 c 0.079,0.684 0.153,1.328 0.529,1.59 m 1.019,-1.375 -0.032,-0.01 c -0.1,-0.034 -0.2,-0.1 -0.287,-0.047 -0.087,0.053 -0.14,0.066 -0.15,0.167 l -0.03,0.335 a 1.128,1.128 0 0 1 0.021,0.187 c 0,0.126 -0.054,0.162 -0.176,0.193 a 3.215,3.215 0 0 1 -0.246,-1.114 l -0.042,-0.351 a 1.439,1.439 0 0 0 -0.04,-0.2 0.035,0.035 0 0 1 0,-0.012 2.745,2.745 0 0 0 -0.27,-0.641 h 0.243 0.155 a 1.648,1.648 0 0 1 1.375,1.178 l 0.055,0.223 c 0,0 0,0.006 0,0.011 l 0.02,0.138 c 0,0 0.008,0.27 0.01,0.355 a 1.3,1.3 0 0 0 -0.608,-0.417 m -0.723,3.121 0.129,-0.029 a 0.3,0.3 0 0 1 0,0.042 0.075,0.075 0 0 1 -0.014,0.04 0.5,0.5 0 0 1 -0.12,-0.053 m 0.434,0.647 a 0.714,0.714 0 0 0 0.357,-0.643 0.85,0.85 0 0 0 -0.037,-0.228 1.675,1.675 0 0 0 0.317,-0.216 1.412,1.412 0 0 1 0.066,0.251 c 0,0.01 0,0.02 0,0.03 0.006,0.041 0.012,0.082 0.015,0.126 0.003,0.044 0.008,0.115 0.008,0.176 l -0.038,0.268 c 0,0 0,0 0,0.006 a 0.742,0.742 0 0 1 -0.283,0.379 l -0.241,0.147 a 0.455,0.455 0 0 1 -0.472,-0.057 0.743,0.743 0 0 1 -0.15,-0.2 0.6,0.6 0 0 0 0.458,-0.042 m -0.259,-7.951 c -0.025,-0.006 -0.052,-0.019 -0.077,-0.022 a 1.3,1.3 0 0 0 -1,0.285 1.375,1.375 0 0 0 -0.4,0.612 c -0.12,-0.081 -0.249,-0.159 -0.384,-0.238 a 0.593,0.593 0 0 1 0.083,-0.8 0.524,0.524 0 0 1 0.386,-0.131 l 0.254,0.076 a 0.359,0.359 0 0 0 0.377,-0.1 0.368,0.368 0 0 0 0.076,-0.22 c 0.174,-0.009 0.349,-0.018 0.523,-0.019 l 0.246,-0.015 h 0.026 a 1.566,1.566 0 0 0 -0.122,0.495 c 0,0.013 0,0.026 0,0.04 0,0.014 0.007,0.03 0.008,0.044 m 0.905,-1.836 0.247,0.025 0.208,0.006 a 1.051,1.051 0 0 0 0.207,-0.037 c 0,0.033 -0.015,0.065 -0.017,0.1 -0.002,0.035 0,0.062 0,0.091 a 1.029,1.029 0 0 0 0.029,0.147 1.462,1.462 0 0 0 -0.627,0.1 0.97,0.97 0 0 0 0,-0.183 1.039,1.039 0 0 0 -0.047,-0.249 M 39.2,24.865 a 20.8,20.8 0 0 1 7.4,-0.55 0.25,0.25 0 0 0 0.041,0.024 0.455,0.455 0 0 1 0.294,0.4 0.449,0.449 0 0 1 -0.4,0.489 h -0.083 l -0.687,-0.072 a 19.023,19.023 0 0 0 -2.879,0.126 23.794,23.794 0 0 0 -3.229,0.639 c 0,-0.022 0,-0.043 0,-0.065 a 1.233,1.233 0 0 0 -0.458,-0.99 m -2.8,2.615 a 1.534,1.534 0 0 0 -0.523,-1.062 1.468,1.468 0 0 0 -1.06,-0.36 1.063,1.063 0 0 0 0.029,-0.147 c 0,-0.03 0,-0.06 0,-0.093 a 1.613,1.613 0 0 0 -0.553,-1.118 1.522,1.522 0 0 0 -0.143,-0.1 1.611,1.611 0 0 0 -0.164,-0.1 0.306,0.306 0 0 0 0.11,-0.089 c 0.305,-0.143 0.627,-0.285 0.966,-0.421 -0.005,0 -0.008,0.006 -0.014,0.006 l 0.233,-0.051 a 0.838,0.838 0 0 1 0.379,0.064 0.861,0.861 0 0 1 0.248,0.147 0.93,0.93 0 0 1 0.316,0.645 0.949,0.949 0 0 1 -0.18,0.626 0.323,0.323 0 0 0 0,0.366 0.351,0.351 0 0 0 0.357,0.14 l 0.333,-0.069 a 0.5,0.5 0 0 1 0.352,0.123 0.718,0.718 0 0 1 0.22,0.5 0.662,0.662 0 0 1 -0.137,0.3 l -0.058,0.093 a 0.315,0.315 0 0 0 0.039,0.362 0.357,0.357 0 0 0 0.377,0.1 l 0.253,-0.077 a 0.533,0.533 0 0 1 0.388,0.132 0.581,0.581 0 0 1 0.2,0.4 0.6,0.6 0 0 1 -0.087,0.352 c -0.114,0.066 -0.225,0.133 -0.328,0.2 a 1.283,1.283 0 0 0 -0.309,-0.451 1.482,1.482 0 0 0 -1.166,-0.368 c -0.029,0 -0.055,0.018 -0.084,0.024 0,-0.015 0.01,-0.032 0.01,-0.045 0,-0.013 0,-0.028 0,-0.039 M 34.757,41.3 a 0.628,0.628 0 0 0 0.269,0.156 0.254,0.254 0 0 1 -0.037,0.079 0.3,0.3 0 0 1 -0.259,0.05 0.355,0.355 0 0 1 -0.2,-0.112 A 1.528,1.528 0 0 1 34.165,40.68 2.008,2.008 0 0 1 34.13,40.309 3.2,3.2 0 0 1 34.3,39.4 l 0.063,-0.234 a 1.366,1.366 0 0 0 0.43,-0.751 c 0,-0.007 0,-0.015 0.006,-0.022 0.006,-0.007 0.03,0 0.043,0 h 0.06 0.112 0.071 a 0.425,0.425 0 0 0 0.055,-0.005 c 0.019,0 0.039,0 0.058,-0.006 0.019,-0.006 0.066,-0.012 0.1,-0.019 a 0.056,0.056 0 0 1 0.016,0 c 0.008,0.09 0.023,0.193 0.023,0.268 a 1.083,1.083 0 0 1 -0.325,0.828 l -0.346,0.494 a 1.862,1.862 0 0 0 -0.156,0.7 0.852,0.852 0 0 0 0.251,0.642 m 7.327,10.611 c -0.3,0.19 -0.667,0.388 -1.073,0.59 a 12.418,12.418 0 0 1 -1.149,-0.639 5.849,5.849 0 0 1 -0.581,-0.418 h 0.031 -0.013 a 0.3,0.3 0 0 0 0.075,-0.01 1.675,1.675 0 0 0 1.58,-1.688 1.608,1.608 0 0 0 -0.129,-0.541 c 0.127,0.016 0.26,0.029 0.408,0.033 a 3.577,3.577 0 0 0 0.419,-0.012 1.559,1.559 0 0 0 -0.093,0.479 1.689,1.689 0 0 0 1.278,1.649 6.681,6.681 0 0 1 -0.752,0.558 m -4.657,0.324 a 1.274,1.274 0 0 0 0.771,-0.846 l 0.063,0.051 a 9.952,9.952 0 0 0 1.255,0.979 c 0.268,0.165 0.508,0.3 0.749,0.435 q -0.584,0.265 -1.263,0.537 l -0.708,-0.416 a 4.66,4.66 0 0 1 -0.778,-0.659 z m 0.524,1.3 0.276,0.164 c -0.4,0.153 -0.823,0.307 -1.266,0.462 a 0.249,0.249 0 0 0 -0.033,0.01 c -0.306,-0.2 -0.607,-0.4 -0.9,-0.6 a 1.356,1.356 0 0 0 0.769,-1.015 l 0.264,0.237 a 5.121,5.121 0 0 0 0.892,0.747 m 6.936,-0.7 0.263,-0.237 a 1.349,1.349 0 0 0 0.8,1.022 l -0.89,0.576 -0.3,0.185 a 21.668,21.668 0 0 1 -9.513,3.038 0.565,0.565 0 0 1 -0.071,-0.87 0.307,0.307 0 0 0 0.086,-0.073 0.579,0.579 0 0 1 0.336,-0.114 18.235,18.235 0 0 0 8.4,-2.779 5.209,5.209 0 0 0 0.892,-0.748 m -0.458,-0.468 a 4.663,4.663 0 0 1 -0.778,0.659 17.325,17.325 0 0 1 -6.761,2.511 0.361,0.361 0 0 1 0.013,-0.688 h 0.014 a 0.4,0.4 0 0 0 0.07,-0.021 l 0.16,-0.049 a 29.671,29.671 0 0 0 5.266,-2.311 9.963,9.963 0 0 0 1.257,-0.977 l 0.062,-0.053 a 1.274,1.274 0 0 0 0.772,0.846 z m 2.187,-10.206 a 0.838,0.838 0 0 0 0.2,0.145 7.967,7.967 0 0 1 -0.968,3.11 c -0.08,0.133 -0.156,0.248 -0.23,0.357 a 0.316,0.316 0 0 0 -0.064,0.091 5.463,5.463 0 0 1 -0.886,0.949 6.3,6.3 0 0 1 -0.923,0.7 l -0.51,0.341 a 3.05,3.05 0 0 1 -1.78,0.734 l 0.228,-0.041 0.309,-0.064 a 0.136,0.136 0 0 0 0.11,-0.147 0.109,0.109 0 0 0 -0.129,-0.1 l -0.358,0.073 -0.256,0.049 -0.213,-0.047 -0.415,-0.075 c -0.067,-0.012 -0.108,0.034 -0.121,0.1 a 0.143,0.143 0 0 0 0.121,0.144 l 0.344,0.065 0.2,0.044 a 0.154,0.154 0 0 0 -0.023,0 3.022,3.022 0 0 1 -0.937,-0.162 H 40.32 a 5.073,5.073 0 0 1 -0.739,-0.357 l -0.7,-0.362 -0.471,-0.2 a 3.637,3.637 0 0 1 -1.2,-0.728 4.157,4.157 0 0 1 -1.117,-1.557 5.348,5.348 0 0 1 -0.675,-3.172 c 0.018,-0.016 0.036,-0.032 0.051,-0.047 a 1.258,1.258 0 0 0 0.274,-0.975 0.33,0.33 0 0 0 -0.216,-0.237 0.359,0.359 0 0 0 -0.308,0.039 0.232,0.232 0 0 1 -0.046,-0.162 1.169,1.169 0 0 1 0.095,-0.42 c 0,0 0.255,-0.355 0.255,-0.355 a 1.9,1.9 0 0 0 0.431,-1.82 c 0,0 -0.037,-0.1 -0.071,-0.193 a 1.8,1.8 0 0 0 0.07,-0.849 0.33,0.33 0 0 0 -0.478,-0.236 0.44,0.44 0 0 1 -0.075,0.023 v 0 l 0.056,-0.022 a 1.039,1.039 0 0 0 0.481,-0.3 l 0.018,0.011 a 1.1,1.1 0 0 0 1.219,-0.16 1.16,1.16 0 0 0 0.33,-1.377 0.329,0.329 0 0 0 -0.091,-0.1 c 0.035,0 0.07,0.01 0.1,0.012 a 2,2 0 0 0 1.188,-0.306 1.323,1.323 0 0 0 0.811,0.333 1.451,1.451 0 0 0 1.3,-0.743 1.478,1.478 0 0 0 0.198,-0.168 1.461,1.461 0 0 0 2.49,0.413 1.793,1.793 0 0 0 0.925,0.531 c -0.009,0.012 -0.022,0.019 -0.029,0.033 a 1.16,1.16 0 0 0 0.33,1.379 1.1,1.1 0 0 0 1.218,0.16 l 0.017,-0.012 a 1.043,1.043 0 0 0 0.482,0.305 l 0.058,0.023 v 0 a 0.367,0.367 0 0 1 -0.077,-0.023 0.329,0.329 0 0 0 -0.477,0.235 1.461,1.461 0 0 0 0.216,1.09 l -0.032,0.091 a 3.913,3.913 0 0 0 -0.046,0.561 1.689,1.689 0 0 0 0.477,1.259 l 0.262,0.368 a 1.161,1.161 0 0 1 0.087,0.4 0.238,0.238 0 0 1 -0.046,0.165 0.362,0.362 0 0 0 -0.308,-0.039 0.325,0.325 0 0 0 -0.215,0.237 1.252,1.252 0 0 0 0.272,0.975 m 0.8,-2.021 c -0.006,-0.015 -0.352,-0.509 -0.352,-0.509 a 1.082,1.082 0 0 1 -0.325,-0.829 3.4,3.4 0 0 1 0.032,-0.374 2.127,2.127 0 0 0 0.32,0 1.312,1.312 0 0 0 0.623,0.908 c 0.03,0.11 0.063,0.235 0.063,0.235 0.025,0.089 0.05,0.177 0.072,0.264 0.006,0.027 0.013,0.054 0.02,0.082 0.016,0.07 0.029,0.14 0.041,0.211 0,0.025 0.01,0.051 0.013,0.077 a 1.927,1.927 0 0 1 0.019,0.287 c 0,0.01 0,0.019 0,0.027 a 1.989,1.989 0 0 1 -0.033,0.329 1.749,1.749 0 0 1 -0.274,0.69 0.7,0.7 0 0 1 -0.127,0.138 0.327,0.327 0 0 1 -0.164,0.076 0.309,0.309 0 0 1 -0.259,-0.049 0.254,0.254 0 0 1 -0.037,-0.078 0.653,0.653 0 0 0 0.27,-0.156 0.857,0.857 0 0 0 0.249,-0.644 1.843,1.843 0 0 0 -0.15,-0.683 M 48.4,25.1 a 0.88,0.88 0 0 1 0.386,0.12 0.289,0.289 0 0 0 0.05,0.018 c 1.543,0.921 2.452,1.91 2.452,2.711 a 0.985,0.985 0 0 1 -0.02,0.2 1.282,1.282 0 0 1 -0.491,0.719 1.911,1.911 0 0 1 -1.151,0.106 0.541,0.541 0 0 0 -0.085,-0.01 l -0.34,-0.01 -0.655,-0.01 c -0.545,0.059 -1.816,0.282 -2.205,1.044 0,-0.005 0,-0.01 0.006,-0.015 a 0.314,0.314 0 0 0 -0.033,0.056 0.872,0.872 0 0 0 -0.117,0.227 1.974,1.974 0 0 0 -1.271,-0.531 l -0.152,-0.006 h -0.282 a 1.764,1.764 0 0 1 -0.194,-0.662 0.862,0.862 0 0 1 0.267,-0.614 0.653,0.653 0 0 1 0.5,-0.135 1.7,1.7 0 0 1 0.411,0.171 l 0.085,0.044 a 0.323,0.323 0 0 0 0.37,-0.055 0.332,0.332 0 0 0 0.073,-0.372 1.733,1.733 0 0 1 -0.145,-0.458 0.879,0.879 0 0 1 0.3,-0.61 0.809,0.809 0 0 1 0.983,-0.068 0.328,0.328 0 0 0 0.457,-0.45 0.817,0.817 0 0 1 -0.181,-0.531 0.968,0.968 0 0 1 0.329,-0.669 0.885,0.885 0 0 1 0.651,-0.22 m 5.505,3.09 A 0.3,0.3 0 0 0 53.856,28.17 L 53.64,28.141 a 2.635,2.635 0 0 0 -0.63,-0.05 2.908,2.908 0 0 0 -1.134,0.28 c 0.01,-0.033 0.023,-0.065 0.031,-0.1 A 2.011,2.011 0 0 0 51.602,26.835 8.009,8.009 0 0 0 48.3,24.192 1.223,1.223 0 0 0 48.772,23.226 c 0,-0.027 0,-0.055 0,-0.083 A 1.218,1.218 0 0 0 48.38,22.336 0.326,0.326 0 0 0 48.257,22.229 l -0.027,-0.01 h 0.006 L 48.19,22.2 a 1.093,1.093 0 0 0 -0.4,-0.153 c 0,0 -0.029,-0.012 -0.029,-0.012 l 0.006,0.006 c -0.017,0 -0.033,-0.011 -0.051,-0.013 a 16.293,16.293 0 0 0 -7.339,-0.175 14.623,14.623 0 0 0 -6.493,0.3 c -0.01,0 -0.02,0.006 -0.031,0.008 -0.011,0.002 0,0 0.006,-0.006 0.006,-0.006 -0.025,0.01 -0.029,0.012 a 1.115,1.115 0 0 0 -0.4,0.153 l -0.044,0.017 h 0.006 l -0.027,0.01 a 0.316,0.316 0 0 0 -0.121,0.107 1.209,1.209 0 0 0 -0.393,0.807 c 0,0.037 0,0.074 0,0.111 a 1.236,1.236 0 0 0 0.264,0.8 c -1.935,1.025 -3.189,2.211 -3.4,3.321 a 1.679,1.679 0 0 0 0,0.66 c 0.008,0.04 0.026,0.079 0.037,0.118 a 2.823,2.823 0 0 0 -0.741,-0.11 2.728,2.728 0 0 0 -0.586,0.054 l -0.192,0.024 a 0.292,0.292 0 0 0 -0.046,0.01 6.242,6.242 0 0 0 -3.525,3.253 0.263,0.263 0 0 0 -0.066,0.126 19.251,19.251 0 0 0 -1.814,9.719 20.109,20.109 0 0 0 2.145,8.324 12.636,12.636 0 0 0 0.728,1.242 c 0,-0.005 1.33,2.063 1.33,2.063 a 11.611,11.611 0 0 0 1.67,1.9 l -0.044,-0.046 0.31,0.3 0.193,0.157 c 0.013,0.011 0.041,0.032 0.053,0.04 l 0.444,0.265 a 2.089,2.089 0 0 0 1.245,0.305 1.428,1.428 0 0 0 0.223,-0.018 1.85,1.85 0 0 0 1.333,-0.984 l 0.031,-0.062 c 0.039,-0.079 0.069,-0.141 0.095,-0.2 a 22.6,22.6 0 0 0 2.006,1.663 1.214,1.214 0 0 0 -0.183,0.628 1.242,1.242 0 0 0 0.1,0.492 c -0.137,0 -0.274,0 -0.4,-0.01 v 0 a 1.792,1.792 0 0 0 -0.373,0.042 1.475,1.475 0 0 0 -0.813,2.515 1.553,1.553 0 0 0 0.718,0.413 c 0.021,0.013 0.035,0.036 0.06,0.043 a 6.732,6.732 0 0 0 0.747,0.176 13.548,13.548 0 0 0 6.658,-0.858 0.237,0.237 0 0 0 0.041,0.025 12.25,12.25 0 0 0 7.158,0.623 c 0.018,-0.006 0.039,-0.009 0.057,-0.015 a 0.094,0.094 0 0 0 0.038,-0.024 L 48.5,60.3 a 1.479,1.479 0 0 0 0.157,-0.064 1.479,1.479 0 0 0 -0.232,-2.777 1.7,1.7 0 0 0 -0.513,-0.085 c -0.131,0.008 -0.274,0.01 -0.42,0.011 a 1.241,1.241 0 0 0 0.1,-0.492 1.383,1.383 0 0 0 -0.154,-0.552 22.429,22.429 0 0 0 1.967,-1.64 c 0.017,0.081 0.037,0.158 0.058,0.239 l 0.046,0.185 a 0.353,0.353 0 0 0 0.031,0.081 1.807,1.807 0 0 0 1.175,0.906 2.529,2.529 0 0 0 1.609,-0.2 l 0.46,-0.275 c 0.014,-0.01 0.041,-0.03 0.053,-0.041 l 0.209,-0.17 0.306,-0.3 c -0.006,0.006 -0.048,0.053 -0.054,0.058 a 11.536,11.536 0 0 0 1.665,-1.9 c 0,-0.006 1.338,-2.075 1.338,-2.075 a 14.972,14.972 0 0 0 0.8,-1.335 20.3,20.3 0 0 0 2.208,-8.591 19.264,19.264 0 0 0 -1.81,-9.711 v -0.006 a 0.287,0.287 0 0 0 -0.12,-0.216 6.171,6.171 0 0 0 -3.474,-3.164"
       transform="translate(-13.709,-12.984)"
       fill="#00366a" />
    <path
       id="Tracciato_149"
       data-name="Tracciato 149"
       d="m 73.762,62.691 0.17,-0.091 0.282,-0.144 a 1.925,1.925 0 0 1 0.988,-0.143 1.591,1.591 0 0 1 0.483,0.1 l 0.3,0.09 a 0.117,0.117 0 0 0 0.147,-0.084 0.128,0.128 0 0 0 -0.088,-0.155 l -0.28,-0.084 a 1.787,1.787 0 0 0 -0.553,-0.117 2.149,2.149 0 0 0 -1.1,0.163 l -0.3,0.155 -0.162,0.088 a 0.123,0.123 0 0 0 -0.052,0.167 0.121,0.121 0 0 0 0.164,0.051"
       transform="translate(-44.358,-37.412)"
       fill="#00366a" />
  </g>
</svg>
