<?xml version="1.0" encoding="UTF-8" standalone="no"?>
<!-- Generator: Adobe Illustrator 27.0.1, SVG Export Plug-In . SVG Version: 6.00 Build 0)  -->

<svg
   version="1.1"
   id="LOGO_UNITO_VERTICALE"
   x="0px"
   y="0px"
   viewBox="0 0 333.5 279.09449"
   width="85"
   height="85"
   xml:space="preserve"
   sodipodi:docname="logo_unito_verticale.svg"
   inkscape:version="1.4.2 (ebf0e940, 2025-05-08)"
   xmlns:inkscape="http://www.inkscape.org/namespaces/inkscape"
   xmlns:sodipodi="http://sodipodi.sourceforge.net/DTD/sodipodi-0.dtd"
   xmlns="http://www.w3.org/2000/svg"
   xmlns:svg="http://www.w3.org/2000/svg"><defs
   id="defs37" /><sodipodi:namedview
   id="namedview37"
   pagecolor="#ffffff"
   bordercolor="#000000"
   borderopacity="0.25"
   inkscape:showpageshadow="2"
   inkscape:pageopacity="0.0"
   inkscape:pagecheckerboard="0"
   inkscape:deskcolor="#d1d1d1"
   inkscape:zoom="7.6929134"
   inkscape:cx="42.441658"
   inkscape:cy="63.5"
   inkscape:window-width="1400"
   inkscape:window-height="1126"
   inkscape:window-x="2240"
   inkscape:window-y="30"
   inkscape:window-maximized="0"
   inkscape:current-layer="g37" />
<style
   type="text/css"
   id="style1">
	.st0{fill:#54565A;}
	.st1{fill:#EA0029;}
</style>

<g
   id="g37">
	
	<g
   id="g36"
   transform="translate(0.55,10.047245)">
		<g
   id="g28">
			<path
   class="st1"
   d="m 176.9,235 c -0.4,-1 -1,-1.9 -1.7,-2.4 -0.7,-0.5 -1.5,-0.8 -2.5,-0.7 -1,0 -1.7,0.4 -2.4,1 -0.6,0.6 -1.1,1.5 -1.4,2.6 -0.3,1.1 -0.4,2.4 -0.3,3.9 0.1,1.5 0.3,2.8 0.8,3.9 0.4,1 1,1.9 1.7,2.4 0.7,0.5 1.5,0.8 2.5,0.7 1,0 1.7,-0.4 2.4,-1 0.6,-0.6 1.1,-1.5 1.4,-2.6 0.3,-1.1 0.4,-2.4 0.3,-3.9 -0.1,-1.6 -0.3,-2.9 -0.8,-3.9 z"
   id="path19" />
			<path
   class="st1"
   d="m 54.5,118.9 c -0.4,-0.3 -1,-0.5 -1.5,-0.5 -0.5,0 -1.1,0 -1.6,0.3 -0.5,0.2 -0.9,0.6 -1.1,1.1 -0.2,0.5 -0.4,1 -0.5,1.6 l -0.2,4 6,0.4 0.2,-4 c 0,-0.6 0,-1.1 -0.3,-1.6 -0.2,-0.6 -0.5,-0.9 -1,-1.3 z"
   id="path20" />
			<path
   class="st1"
   d="m 192,230.7 c 0,0.2 -0.1,0.4 -0.1,0.6 l -3,7.9 c -0.1,0.2 -0.2,0.4 -0.3,0.6 -0.1,0.2 -0.3,0.3 -0.4,0.4 l 6.1,-1.5 -2.1,-8.5 c -0.2,0.1 -0.2,0.3 -0.2,0.5 z"
   id="path21" />
			<path
   class="st1"
   d="m 186.8,28 c 1.1,-0.4 2.1,-1.1 2.9,-2.1 0.8,-1 1.3,-2.1 1.5,-3.4 0.2,-1.3 0.1,-2.5 -0.3,-3.7 -0.4,-1.2 -1.1,-2.1 -2,-3 -1,-0.8 -2,-1.3 -3.3,-1.5 l -4.6,-0.8 -2.4,14 4.6,0.8 c 1.2,0.2 2.4,0.1 3.6,-0.3 z"
   id="path22" />
			<path
   class="st1"
   d="m 257.8,62 c 0.2,-0.5 0.5,-0.8 0.7,-1 0.2,-0.2 0.4,-0.4 0.7,-0.6 l -0.1,-0.1 c -0.3,0.2 -0.5,0.3 -0.8,0.5 -0.3,0.1 -0.7,0.2 -1.2,0.4 l -7.2,1.7 4.2,5.7 z"
   id="path23" />
			<path
   class="st1"
   d="M 74,63 C 73.5,62.9 73.1,62.8 72.8,62.7 72.5,62.6 72.3,62.5 72,62.3 l -0.1,0.1 c 0.2,0.2 0.5,0.4 0.7,0.6 0.2,0.2 0.4,0.6 0.7,1 l 3.8,6.3 4.1,-5.8 z"
   id="path24" />
			<path
   class="st1"
   d="m 273.9,102.3 c 0.4,0.4 0.8,0.7 1.3,0.8 0.5,0.1 1,0.1 1.6,0 0.6,-0.1 1,-0.4 1.4,-0.8 0.4,-0.4 0.6,-0.9 0.7,-1.4 0.1,-0.5 0.1,-1.1 0,-1.7 l -1,-3.9 -5.8,1.6 1,3.9 c 0.2,0.6 0.5,1.1 0.8,1.5 z"
   id="path25" />
			<path
   class="st1"
   d="m 166.2,41.6 c -48.4,0 -87.9,39.4 -87.9,87.9 0,48.5 39.4,87.9 87.9,87.9 48.5,0 87.9,-39.4 87.9,-87.9 0,-48.5 -39.5,-87.9 -87.9,-87.9 z M 181.8,80 c 6.4,-0.5 7.7,-7 4.1,-9.9 -2.6,-2.1 -3.1,-5.2 -0.7,-6.2 6.1,-2.5 8.2,-8 8.4,-13.4 1.3,0.6 2.5,1 2.2,3 -0.2,1.6 -1.7,6.7 -4.6,9.4 0.3,0.4 0.6,0.4 1,1 4.7,-3.1 6.3,-6.6 7.2,-9.5 0.9,0.8 2,1.9 1.4,3.2 -0.6,1.3 -3.3,6 -7,8.1 0.3,0.5 0.5,0.7 0.8,1.2 3.6,-1.2 8.3,-5.6 9.2,-7.7 0.4,0.8 1.6,2 0.6,3.3 -1.6,2.1 -4.9,4.9 -8.7,6.5 0.1,0.3 0.4,1.1 0.5,1.5 5.3,-1.4 8.8,-3.7 10.8,-5.4 0.6,1.5 0.8,2.3 -0.2,3.2 -1,0.8 -6.4,4.1 -10.1,4.6 0.1,0.5 0,1.1 0.1,1.5 4.6,0.1 9.8,-2.2 11.7,-3.4 0.2,0.5 0.4,2.6 -0.6,3.1 -1,0.5 -6,2.9 -11.3,2.7 0,0.1 -0.3,1.3 -0.3,1.6 4.2,1 10.6,-0.3 12.3,-1 -0.1,1.3 0,2.5 -1.8,3 -1.9,0.5 -7.5,1.3 -11.4,0.2 -0.1,0.3 -0.5,1 -0.8,1.3 2,0.9 6.8,2.5 12.3,1.6 -0.4,1 -0.8,2.5 -2.3,2.6 -3.5,0.3 -9,-0.9 -11.3,-2.3 -0.3,0.3 -0.7,0.8 -1,1 1.5,1.2 5.8,4.1 11.7,4.4 -0.4,0.9 -1.5,2.4 -3.2,2.1 -3.6,-0.8 -7.5,-2.4 -10.5,-5 -0.7,0.4 -1,0.6 -1.3,0.8 0.6,0.8 4.4,5.4 10.5,7.3 -1.6,1.1 -2.8,1.5 -4.4,0.7 -2.4,-1.2 -6,-3.8 -8.4,-7.1 -0.8,0.2 -1,0.3 -1.4,0.4 0.7,1.5 3.1,5.7 6.8,8.5 -2.4,0.6 -3.4,0.1 -4.3,-0.8 -2.2,-2.3 -4.6,-6.2 -5,-7.5 -0.8,0 -1.1,0 -1.8,0 0.6,3.5 2.5,7.1 4,9.2 -1.4,0.3 -2.7,0.3 -3,0 -1.4,-2 -3.1,-5.9 -3.5,-9.2 -0.9,0 -1.4,0.2 -1.6,0.3 -0.1,4.4 1.3,9.1 2.5,11.3 -0.8,0.6 -1.2,1.2 -1.7,1.9 -1.3,-2 -3.1,-7.1 -3.1,-12.1 -5.6,5.3 2.5,20.8 8.1,25.8 -1.4,0.5 -2.1,0.9 -3.1,1.1 -1,-0.5 -4.2,-5.5 -4.5,-5.9 -0.8,0.2 -1,0.2 -1.6,0.4 0.3,0.8 2.7,5.7 3.4,6.3 -0.5,0.2 -2.3,0.6 -3.1,0.7 -5.6,-16.8 -18.2,-29.2 -8.3,-41 0.1,-0.1 0.2,-0.2 0.3,-0.3 h -0.1 c -1.1,-0.3 -3.6,-1 -4.2,-1.2 0.7,-0.3 3.5,-5.9 3.1,-7.9 -0.1,-0.6 -2.1,-3.9 -3.9,-2.8 -0.1,0 0.5,-2.8 2.1,-2.9 1,-0.1 1.9,0.8 2.5,0.9 0.6,0 0.4,-0.2 0.4,-0.6 0.1,-0.1 0.2,0 0.3,0 8.4,2.3 7.1,9.4 7.9,11.8 -2.7,0 -3.8,1 -4.3,1.9 0,0.3 0,0.5 0,0.5 5.6,-1.3 6.8,3.6 12.2,3.2 z m 2.5,46.4 c -0.6,0 -2.1,0 -2.6,0 0,-0.2 -1.5,-3.7 -1.6,-3.9 0.7,-0.1 2.8,0.2 3.1,0.7 0.3,0.6 1,2.7 1.1,3.2 z m -4.7,0.1 c -0.3,0 -2,0 -2.5,0 -0.1,-0.3 -1.2,-3.3 -2,-4.6 0.4,0 2.7,-0.2 3.1,0.8 0.3,0.7 1.3,3 1.4,3.8 z m -9.2,-7.5 c 1.1,-0.1 2.6,-0.4 3,-0.4 0.3,0.7 0.9,3.5 0.9,3.9 -0.9,0.8 -2.5,3.9 -2.7,3.9 0.2,-2 -0.9,-6.7 -1.2,-7.4 z m -5.7,-6.8 c -0.1,0.6 -0.5,6.5 -0.7,6.9 -0.5,0 -2,-0.1 -2.7,-0.2 0.8,-3.3 3.6,-12.4 3.6,-12.4 0,0 4.2,8.2 5.4,12.5 -0.6,0 -2.5,0.2 -2.8,0.2 0,-0.3 -1.1,-6.6 -1,-7 -0.7,0.1 -1.4,0 -1.8,0 z m -10.6,8.8 c 0.4,-0.3 2.5,-0.1 2.9,0.1 -0.7,1 -2.5,3.7 -2.6,4.4 -0.8,-0.5 -1.7,-1.2 -2,-1.5 0.2,-0.4 1.4,-2.6 1.7,-3 z m -3.4,2 c -0.4,-0.2 -1.8,-1 -2,-1.2 0.2,-0.3 0.5,-0.8 0.9,-1.2 0.2,-0.2 2,-0.2 3,0.2 -0.6,0.3 -1.5,1.7 -1.9,2.2 z m 5.2,-5.2 c 0.3,-0.2 2.5,-5.7 2.8,-6.4 -0.7,-0.1 -1,-0.3 -1.4,-0.4 -0.3,0.4 -3.3,5.2 -4.3,6 -0.8,-0.3 -1.9,-0.6 -2.9,-1.1 0.7,-0.2 9.8,-12.1 9.4,-21.5 0.4,1.3 3.6,8.6 3.6,8.6 0,0 -4.5,14.1 -4.7,15.4 -1,-0.2 -1.9,-0.4 -2.5,-0.6 z m 2.3,0.7 h 0.1 v 0 c 0.3,0 1.9,0.2 2.9,0.4 -0.3,1.2 -1.2,4.8 -1.5,7.6 0,0 0,-0.2 -0.1,-0.4 0,0.1 0,0.2 0,0.4 -0.1,-0.4 -1.9,-4.4 -2.2,-4.7 0.1,-0.4 0.7,-3.1 0.8,-3.3 z m 4,-62.3 c -0.9,0.5 -1.8,0.9 -2.8,1.2 -0.3,-2 -1.9,-3.3 -2.3,-4.6 0.2,0 0.4,-0.1 0.6,-0.1 1.2,1.6 3.6,1.8 4.5,3.5 z m -2.1,-4.6 c 0.1,-0.1 0.4,-0.3 0.5,-0.4 1.8,1 4.2,0.6 5.5,1.4 -0.6,0.8 -1.2,1.5 -2,2.2 -1.2,-1.9 -2.8,-2.2 -4,-3.2 z m 10.4,4 -1.2,0.4 c 0,0 0.6,1.8 0.8,3 -1.7,1.1 1.1,2.5 1,0.4 0.3,-0.1 2.2,-0.8 2.2,-0.8 v -1 l 1,-0.2 v 1 l -1,0.2 c 0,0 0,1.8 0,2.5 -1.9,0.8 0.5,2.6 0.8,0.6 0.3,0 2.9,-0.1 2.9,-0.1 l -0.1,-1.3 c 0,0 1.2,0 1.3,0 0,0 -3.7,4.3 -4.6,5.3 -2,-3.5 -6.2,-4.8 -6.4,-4.9 0.2,-0.5 2.8,-6.3 2.8,-6.3 z m -7.1,-10 c 0.9,0 1.7,0 2.5,0 0.9,0 1.7,0 2.5,0 0,0 0,0 0,0.1 -1.9,0.1 -4.2,0.9 -5.1,0.9 0,-0.4 0.1,-0.8 0.1,-1 z m -0.9,3.4 c 1.8,0 3.6,-0.9 5.6,-0.9 -0.2,0.9 -0.5,1.8 -0.9,2.6 -2.1,-1.2 -4,-0.8 -5.1,-1.1 0.2,-0.3 0.3,-0.5 0.4,-0.6 z M 161,45.7 c -0.1,2.7 -2.3,4.9 -5,4.9 -2.3,0 -4.2,-1.6 -4.8,-3.7 3.2,-0.7 6.5,-1.1 9.8,-1.2 z m -7,6.9 c 0.3,0.1 0.5,0.1 0.8,0.2 0.5,2.5 2.2,3.5 2.4,5.1 -0.4,0 -0.8,0 -1.1,0 -0.7,0 -1.4,0 -2,-0.2 0.5,-1.9 -0.1,-3.6 -0.1,-5.1 z m -2.4,-1.2 c -0.4,2.1 0.7,4.2 0.1,5.7 -1,-0.4 -1.9,-0.9 -2.8,-1.4 1.4,-1.4 1.5,-3.5 2.2,-4.7 0.1,0.2 0.3,0.3 0.5,0.4 z m -2,-2.3 c -1.7,2.1 -1.2,4 -2.4,5 v 0 c -0.7,-0.7 -1.3,-1.6 -1.9,-2.4 1.9,-0.7 2.7,-2.3 4.1,-3 0,0.1 0.1,0.3 0.2,0.4 z m -3,-1.3 c -0.5,0.5 -1.4,1.5 -2.3,1.7 -0.1,-0.3 -0.2,-0.7 -0.3,-1.1 0.8,-0.2 1.7,-0.4 2.6,-0.6 z M 123.5,71 c 1.9,1.2 7.1,3.5 11.7,3.4 0,-0.4 0,-1 0.1,-1.5 -3.7,-0.5 -9.2,-3.8 -10.1,-4.6 -1,-0.8 -0.9,-1.7 -0.2,-3.2 2,1.7 5.4,4 10.8,5.4 0.1,-0.4 0.4,-1.2 0.5,-1.5 -3.8,-1.6 -7.1,-4.3 -8.7,-6.5 -1,-1.4 0.1,-2.6 0.6,-3.3 0.8,2 5.6,6.4 9.2,7.7 0.3,-0.5 0.5,-0.7 0.8,-1.2 -3.7,-2.1 -6.4,-6.8 -7,-8.1 -0.6,-1.3 0.5,-2.4 1.4,-3.2 0.9,2.9 2.5,6.4 7.2,9.5 0.5,-0.6 0.8,-0.5 1,-1 -3,-2.7 -4.4,-7.8 -4.6,-9.4 -0.3,-1.9 0.9,-2.3 2.2,-3 0.2,5.4 2.3,10.8 8.4,13.4 2.4,1 2,4.1 -0.7,6.2 -3.7,2.9 -2.4,9.4 4.1,9.9 3.3,0.3 5.7,-2.7 10.8,-4 -0.6,0.6 -1,1.3 -2,2.4 0.4,0.1 1,0.4 1.7,0.4 -3.1,5.3 -2,11.1 -1.7,12.4 -0.4,-1 -0.9,-1.2 -1.2,-1.2 0,5 -1.9,10.1 -3.1,12.1 -0.5,-0.7 -0.9,-1.3 -1.7,-1.9 1.2,-2.2 2.6,-6.9 2.5,-11.3 -0.2,0 -0.8,-0.2 -1.6,-0.3 -0.4,3.3 -2.1,7.2 -3.5,9.2 -0.2,0.3 -1.5,0.3 -3,0 1.5,-2.1 3.4,-5.7 4,-9.2 -0.6,0 -1,0 -1.8,0 -0.4,1.3 -2.8,5.2 -5,7.5 -0.9,0.9 -2,1.3 -4.3,0.8 3.6,-2.9 6.1,-7.1 6.8,-8.5 -0.4,-0.1 -0.7,-0.1 -1.4,-0.4 -2.5,3.3 -6,5.9 -8.4,7.1 -1.6,0.8 -2.8,0.4 -4.4,-0.7 6.1,-2 9.9,-6.6 10.5,-7.3 -0.4,-0.2 -0.7,-0.4 -1.3,-0.8 -3,2.6 -6.9,4.2 -10.5,5 -1.7,0.4 -2.8,-1.2 -3.2,-2.1 6,-0.3 10.2,-3.2 11.7,-4.4 -0.3,-0.2 -0.7,-0.7 -1,-1 -2.4,1.4 -7.8,2.5 -11.3,2.3 -1.6,-0.1 -2,-1.7 -2.3,-2.6 5.4,0.9 10.3,-0.7 12.3,-1.6 -0.2,-0.4 -0.6,-1 -0.8,-1.3 -4,1 -9.6,0.3 -11.4,-0.2 -1.8,-0.5 -1.7,-1.6 -1.8,-3 1.8,0.7 8.2,2 12.3,1 0,-0.2 -0.3,-1.4 -0.3,-1.6 -5.3,0.1 -10.3,-2.2 -11.3,-2.7 -1.4,-0.5 -1.3,-2.6 -1,-3.1 z m -3.7,25.8 c 2.8,-0.3 11.3,0.1 10.5,7.9 -3.4,1.4 -4.5,2 -4.5,2 2,-6.7 -3.1,-8.7 -6.3,-9.1 -1.2,-0.2 -1.1,-0.7 0.3,-0.8 z m 4.4,14 c 2.3,-1.6 10.2,-4.7 13.2,-5.5 1.6,-0.4 3.8,-1.6 5.3,-2 1,-0.3 2,0 2.5,0.6 0.1,0.2 0,0.8 0.2,1 0.2,0.2 3.2,2.3 3.1,3.1 -0.3,1.9 -0.8,2 -1.2,2.7 -0.9,1.8 -1.7,3.8 -3.4,6.8 -4.3,12.6 -11.8,5.6 -13.6,3.3 -1.1,1.8 -3.4,9.3 -4.9,11.9 4.9,-1.5 5.5,-5.1 5.5,-7.1 0.6,0.6 4.1,2.7 7.4,2 -2.1,2.9 -12.8,10.9 -6.6,23.1 0.1,-3.6 -0.2,-6.5 1.5,-11.8 1.9,-5.8 9.7,-9.4 11.4,-15.9 0,0 0.4,0.1 1.3,0.4 3,1 7.2,5.5 8.5,5.6 1.7,0.2 37.4,0.1 40.1,0.1 3.2,0 8.9,-3.2 15,-0.7 18.1,7.4 15.5,31.9 0.7,36.7 0.9,-1.6 1.7,-3.1 2.1,-4.3 -3,1.9 -3.7,1.6 -6.1,2.5 -0.6,0.2 -1.4,1.2 -1.1,2.9 0.3,2 0.9,4.1 -0.2,5.6 -0.9,1.1 -18.1,-0.4 -19.6,0.5 -2.1,1.3 -2.7,2.4 -6,2.4 0.2,-0.6 0.4,-2 -1.1,-1.9 -2.7,0.2 -1,4.1 -3.2,4.9 -0.5,0.2 -0.9,0 -1.2,0.1 -1.1,0.4 -1.2,1.8 -1.3,2.6 -0.7,0 -9.8,0.1 -10.8,0 1,-3.1 3.1,-4.9 3.7,-5.1 -0.4,-0.1 -0.7,0 -0.8,-0.8 3,-0.4 3,-2 4.8,-3.2 1,-0.7 2.4,-1.4 4,-2.4 1.4,-0.9 3.8,-2.2 5.1,-3 -14.9,-1.9 -13.7,-12.5 -10.9,-18.7 5.5,-0.9 5.8,-7.1 5.4,-8.5 -0.4,-1.5 -0.6,-3.9 -0.6,-6.8 -2.3,6.5 -4.5,6.3 -8,14.5 -4,9.4 -0.4,16.6 4.3,19.5 h -8.1 c 0.4,-6.8 -1.5,-8.2 -2.4,-9.7 -1,-1.6 0.1,-11.8 -1.5,-14.2 -0.6,-0.9 -3.8,-2.4 -5,-2.4 4.8,4.1 2,13.1 3.8,17.5 0.8,1.9 2.6,2.4 2.3,8.6 -2,0.2 -22.7,0.2 -23.8,0.2 1.8,-1.5 -1.1,-4.2 -3.2,0 -0.4,0.9 -0.7,1.1 -1.9,2 -1.1,-0.1 -9.2,0.1 -10.2,0 0.2,-1.2 3,-3.9 4.3,-4.7 -0.3,-0.3 -1.1,0.1 -0.9,-0.9 0.4,0 1.2,-0.1 2.3,-0.8 1.1,-0.6 1.1,-2.1 4.6,-2.6 -4,-1.6 -6.6,-7.7 -7.2,-11.6 -1.8,-2.7 -6.1,-9.7 -5.8,-16.1 8.2,0.1 10.3,-8.9 11.3,-11.4 1,-2.3 -2.6,-5.2 -4.2,-1 -1.1,3.1 -3.1,8.2 -6.7,8.7 0.5,-1.2 6.9,-13.3 7.8,-16.7 z M 226.1,177 c -1.4,-0.3 -2.5,-0.4 -3.6,-0.2 -0.9,-1.3 -5.8,-9.5 -6.6,-10.8 0.8,-0.4 2.3,-1.7 2.3,-1.7 0.9,1.2 7.1,11.5 7.9,12.7 z m -65.4,-10.6 c 0,0 -1,12.9 -1,13.8 -0.9,-0.8 -1.8,-1.2 -2.8,-1.5 0.1,-1.1 1,-12.3 1,-12.3 z m -24.4,11.2 c -2,0.8 -5.1,0.5 -5.8,0 0.8,-0.7 2.4,-2.2 2.2,-2.8 -1.1,-0.1 -3.7,0.8 -4.3,1 -0.6,-1.3 0,-3 1.4,-4.1 1.2,0.6 2.8,1.2 3.6,1 0.4,-1 -0.1,-2.3 -0.2,-2.8 0.6,-0.3 4.3,-0.7 5.4,0.1 -0.5,0.5 -2.1,1.9 -2.2,2.8 0.9,0 3.1,-0.5 4.2,-1 0.8,1.2 0,3 -1.3,4.1 -1,-0.6 -2.8,-1 -3.7,-1 -0.1,0.9 0.3,1.9 0.7,2.7 z M 106.9,126 c 0.1,-0.1 0.4,-0.2 0.6,-0.2 1.7,0.7 5.7,2.2 9.1,2.3 -0.4,1.2 -0.6,2.9 -0.5,3.7 -4.2,-0.6 -10.3,-4.8 -9.2,-5.8 z m -10.8,36.9 c 0.8,-3.1 4.4,-4.7 4,-4.9 -0.4,0 -0.9,0.1 -0.9,-0.5 1.1,0 2.4,-1.6 3.4,-2.2 1.2,-0.8 4,-1.2 5.6,-1.7 1.7,-0.5 7.4,-4 10.9,-4.4 -0.1,1.6 2.5,7.6 4,9.1 -2.5,1 -10.7,1 -11.5,1.1 1.1,-1.3 -1.3,-3.3 -3,0 -0.5,1 -0.5,2 -2,3.5 -1.3,0.1 -8.2,0 -10.5,0 z m 94.6,41.5 c -3.8,0 -48.2,0 -48.2,0 v -8.6 h -3 l 1.2,-5.6 c -14.3,0 -33.7,0 -33.7,0 v -8.6 h -3.4 l 11.7,-19.2 c 1.4,-0.1 1.8,-0.1 3.6,-0.2 -1.4,2.2 -12,19.5 -11.8,19.4 0,0 43.6,0 47.9,0 5.6,0 5.4,8.6 0.3,8.6 -1.1,0 -5.7,0 -11.6,0 l -1.2,5.6 c 0,0 43.6,0 47.9,0 5.6,-0.1 5.4,8.6 0.3,8.6 z m 34.8,-16.3 c -2.3,0 -20.3,0 -33.7,0 0.1,0.6 1,4.3 1.2,5.3 -1,-0.4 -2.4,-0.6 -3.1,-0.6 -0.2,-1 -1,-4.2 -1.1,-4.7 -6.7,0 -11.6,0 -11.6,0 v -8.6 c 0,0 43.6,0 47.9,0 5.7,0 5.5,8.6 0.4,8.6 z"
   id="path26" />
			<path
   class="st1"
   d="m 155.6,233.9 -5.6,6.3 c -0.1,0.1 -0.3,0.3 -0.5,0.4 -0.2,0.1 -0.4,0.2 -0.5,0.2 l 6.2,0.7 1,-8.7 c 0,0.2 -0.1,0.3 -0.2,0.5 -0.1,0.3 -0.3,0.5 -0.4,0.6 z"
   id="path27" />
			<path
   class="st1"
   d="M 166.2,0 C 94.7,0 36.8,58 36.8,129.5 36.8,201 94.7,259 166.2,259 237.7,259 295.6,201 295.6,129.5 295.6,58 237.7,0 166.2,0 Z m 118.9,115.1 -19.9,2.7 -0.4,-3.1 19.9,-2.7 z m -3.2,-16.5 c 0.3,1.1 0.3,2.2 0,3.2 -0.2,1 -0.8,2 -1.5,2.8 -0.8,0.8 -1.7,1.3 -2.8,1.6 -1,0.3 -1.9,0.3 -2.9,0 -0.9,-0.2 -1.7,-0.7 -2.4,-1.2 -0.7,-0.6 -1.1,-1.2 -1.3,-1.9 l -0.1,-0.4 v 0 c 0,0.4 0,0.8 0,1 0,0.3 -0.2,0.6 -0.4,0.8 l -5.9,7.5 -0.7,-2.4 c -0.1,-0.4 -0.1,-0.8 -0.1,-1.1 0,-0.4 0.2,-0.7 0.5,-1.1 l 5.3,-6.8 -0.8,-2.8 -7.6,2.1 -0.9,-3.1 19.4,-5.3 z m -10.4,-26.3 -11,5.4 c -0.9,0.4 -1.6,1 -2,1.7 -0.5,0.7 -0.8,1.5 -0.8,2.3 0,0.9 0.1,1.7 0.6,2.6 0.4,0.9 1,1.6 1.7,2.1 0.7,0.5 1.5,0.8 2.3,0.8 0.9,0 1.7,-0.1 2.6,-0.6 l 11,-5.4 1.4,2.9 -11,5.4 c -1.4,0.7 -2.9,1 -4.2,1 -1.4,0 -2.7,-0.5 -3.9,-1.3 -1.1,-0.8 -2.1,-2 -2.8,-3.4 -0.7,-1.4 -1,-2.9 -1,-4.3 0,-1.4 0.5,-2.7 1.3,-3.8 0.8,-1.1 1.9,-2.1 3.3,-2.8 l 11,-5.4 z m -10.1,-15.5 1.7,2.2 -10.9,19.1 -1.3,-1.7 c -0.2,-0.3 -0.4,-0.7 -0.4,-1.1 0,-0.4 0,-0.8 0.3,-1.1 l 1.7,-3 -5.8,-7.7 -3.4,0.8 c -0.4,0.1 -0.8,0.1 -1.1,0 -0.4,-0.1 -0.7,-0.4 -0.9,-0.7 L 240,61.9 Z M 243,41.3 l 2.2,-2.2 10.9,10.9 -2.2,2.2 -4.3,-4.3 -12,12.1 -2.2,-2.2 12,-12.1 z M 214.7,20 l -7.9,18.5 -2.9,-1.2 7.9,-18.5 z m -12.5,-4.7 3,1 -6.3,19.1 -3,-1 z m -23.8,-5.2 7.7,1.3 c 1.8,0.3 3.4,1 4.8,2.2 1.4,1.1 2.4,2.5 3,4.2 0.6,1.7 0.8,3.4 0.5,5.2 -0.3,1.8 -1,3.4 -2.2,4.8 -1.1,1.4 -2.6,2.3 -4.2,3 -1.7,0.6 -3.4,0.8 -5.2,0.5 L 175.1,30 Z m -21.3,-0.1 0.4,12.3 c 0,1 0.3,1.8 0.7,2.6 0.4,0.7 1,1.3 1.8,1.7 0.8,0.4 1.6,0.6 2.6,0.5 1,0 1.9,-0.3 2.6,-0.7 0.7,-0.4 1.3,-1 1.7,-1.8 0.4,-0.8 0.6,-1.6 0.5,-2.6 L 167,9.7 l 3.2,-0.1 0.4,12.3 c 0,1.6 -0.2,3 -0.9,4.2 -0.7,1.2 -1.6,2.2 -2.8,3 -1.2,0.7 -2.6,1.1 -4.2,1.1 -1.6,0 -3.1,-0.2 -4.3,-0.9 -1.2,-0.7 -2.2,-1.6 -3,-2.8 -0.7,-1.2 -1.1,-2.6 -1.1,-4.2 L 154,10 Z m -8.6,0.8 0.7,3.1 -6,1.3 3.6,16.6 -3.1,0.7 -3.6,-16.6 -6,1.3 -0.7,-3.1 z m -29.3,11 c 0.2,-1 0.6,-1.8 1.3,-2.6 0.7,-0.8 1.6,-1.3 2.7,-1.8 0.9,-0.3 1.9,-0.5 2.9,-0.5 1,0 2,0.2 2.8,0.6 l -0.2,1.1 c 0,0.3 -0.2,0.6 -0.3,0.9 -0.2,0.2 -0.4,0.4 -0.7,0.5 -0.2,0.1 -0.5,0.1 -0.7,0.1 -0.5,-0.1 -1,-0.1 -1.5,-0.1 -0.5,0 -0.9,0.1 -1.2,0.3 -0.8,0.3 -1.4,0.8 -1.8,1.3 -0.3,0.6 -0.4,1.2 -0.1,1.9 0.2,0.5 0.6,0.9 1.3,1.1 0.7,0.2 1.6,0.3 2.9,0.2 2.1,-0.1 3.8,0.1 5.1,0.8 1.3,0.6 2.2,1.6 2.7,3 0.4,1.1 0.5,2.2 0.3,3.3 -0.2,1.1 -0.7,2 -1.5,2.9 -0.8,0.9 -1.8,1.5 -3.1,2 -1.1,0.4 -2.4,0.6 -3.6,0.5 -1.2,-0.1 -2.4,-0.4 -3.5,-1 l 0.2,-1.3 c 0,-0.2 0.1,-0.4 0.3,-0.6 0.1,-0.2 0.4,-0.3 0.6,-0.4 0.3,-0.1 0.7,-0.1 1,0 0.7,0.1 1.4,0.2 2.1,0.3 0.8,0 1.3,0 1.8,-0.2 1,-0.4 1.8,-1 2.2,-1.7 0.4,-0.7 0.5,-1.5 0.1,-2.4 -0.2,-0.6 -0.7,-1 -1.4,-1.3 -0.7,-0.3 -1.8,-0.4 -3.1,-0.4 -2,0 -3.7,-0.2 -4.9,-0.8 -1.2,-0.5 -2,-1.4 -2.5,-2.6 -0.3,-1.2 -0.4,-2.1 -0.2,-3.1 z M 80.4,46.6 c 0.3,-1 1,-1.9 1.8,-2.7 0.7,-0.7 1.5,-1.2 2.5,-1.6 1,-0.4 1.9,-0.6 2.9,-0.6 l 0.3,1.1 c 0.1,0.3 0.1,0.7 0,1 -0.1,0.3 -0.2,0.6 -0.4,0.8 -0.2,0.2 -0.4,0.3 -0.6,0.4 -0.5,0.1 -1,0.2 -1.4,0.5 -0.4,0.2 -0.8,0.5 -1,0.8 -0.6,0.6 -1,1.2 -1,1.9 -0.1,0.7 0.1,1.3 0.6,1.8 0.4,0.4 1,0.6 1.6,0.5 0.7,0 1.6,-0.4 2.7,-0.9 1.9,-1 3.5,-1.4 5,-1.3 1.5,0.1 2.7,0.6 3.7,1.7 0.9,0.9 1.4,1.8 1.6,2.9 0.2,1.1 0.1,2.1 -0.2,3.3 -0.4,1.1 -1,2.1 -2,3.1 -0.9,0.9 -1.9,1.5 -3.1,1.9 -1.2,0.4 -2.4,0.6 -3.6,0.5 l -0.3,-1.3 c 0,-0.2 0,-0.5 0,-0.7 0.1,-0.2 0.2,-0.4 0.4,-0.6 0.2,-0.2 0.6,-0.4 0.9,-0.5 0.7,-0.1 1.4,-0.3 2,-0.6 0.7,-0.3 1.2,-0.6 1.6,-1 0.8,-0.8 1.2,-1.6 1.3,-2.4 0.1,-0.9 -0.2,-1.6 -0.9,-2.3 -0.5,-0.5 -1.1,-0.7 -1.9,-0.7 -0.8,0 -1.8,0.3 -3.1,0.9 -1.9,0.9 -3.5,1.3 -4.8,1.2 -1.3,0 -2.4,-0.5 -3.3,-1.4 -0.8,-0.8 -1.2,-1.6 -1.4,-2.6 -0.3,-1.2 -0.2,-2.2 0.1,-3.1 z m -10.8,12.2 21.5,4.5 -1.2,1.8 c -0.2,0.3 -0.5,0.6 -0.9,0.7 -0.4,0.1 -0.8,0.2 -1.1,0.1 l -3.4,-0.7 -5.7,7.8 1.8,3 c 0.2,0.3 0.3,0.7 0.3,1.1 0,0.4 -0.1,0.8 -0.4,1.1 L 79.3,80 68,61.2 Z M 63,68.2 65.8,69.6 63,75 78.2,82.7 76.8,85.5 61.6,77.8 58.8,83.3 56,81.9 Z m -8.7,18.7 18.9,6.9 -1.1,3 -18.9,-6.9 z m -4.8,14.9 c 0.2,-1 0.6,-1.8 1.2,-2.7 0.6,-0.9 1.3,-1.5 2.1,-2 l 0.8,0.8 c 0.2,0.2 0.4,0.5 0.5,0.8 0.1,0.3 0.1,0.6 0,0.9 0,0.2 -0.1,0.4 -0.3,0.7 -0.4,0.3 -0.7,0.7 -0.9,1.1 -0.2,0.4 -0.4,0.8 -0.5,1.2 -0.2,0.9 -0.1,1.6 0.1,2.2 0.3,0.6 0.8,1 1.5,1.2 0.5,0.1 1.1,0 1.6,-0.4 0.5,-0.4 1.1,-1.1 1.8,-2.2 1.1,-1.8 2.2,-3.1 3.5,-3.8 1.2,-0.7 2.6,-0.9 4,-0.6 1.1,0.3 2.1,0.8 2.9,1.6 0.8,0.8 1.3,1.8 1.6,2.9 0.2,1.1 0.2,2.4 -0.1,3.7 -0.3,1.2 -0.8,2.3 -1.6,3.3 -0.8,1 -1.8,1.8 -2.8,2.4 l -1,-1 c -0.2,-0.2 -0.3,-0.4 -0.3,-0.6 0,-0.2 0,-0.5 0,-0.8 0.1,-0.3 0.2,-0.7 0.5,-0.9 0.5,-0.5 1,-1 1.4,-1.6 0.4,-0.6 0.7,-1.1 0.8,-1.6 0.2,-1.1 0.2,-2 -0.1,-2.8 -0.3,-0.8 -1,-1.3 -2,-1.5 -0.7,-0.1 -1.3,0 -2,0.4 -0.6,0.4 -1.3,1.2 -2.1,2.4 -1.1,1.7 -2.2,3 -3.4,3.6 -1.1,0.7 -2.3,0.9 -3.5,0.6 -1,-0.2 -1.9,-0.7 -2.6,-1.4 -0.7,-0.7 -1.1,-1.5 -1.4,-2.5 0,-1.1 0,-2.2 0.3,-3.4 z m -2.8,19.3 c 0.1,-1.1 0.4,-2.2 1,-3.1 0.6,-0.9 1.4,-1.6 2.3,-2.1 1,-0.5 2,-0.7 3.1,-0.6 1,0 1.9,0.4 2.7,0.9 0.8,0.5 1.4,1.2 1.8,2 0.4,0.8 0.6,1.5 0.6,2.2 v 0.4 0 c 0.1,-0.4 0.2,-0.8 0.3,-1 0.1,-0.2 0.4,-0.5 0.7,-0.6 l 8.1,-5.1 -0.1,2.5 c 0,0.4 -0.1,0.8 -0.3,1.1 -0.2,0.3 -0.4,0.6 -0.9,0.9 l -7.2,4.7 -0.2,2.9 7.9,0.5 -0.2,3.2 -20.1,-1.3 z m -0.3,14.3 3.1,-0.3 1,9.4 5.1,-0.6 -0.8,-7.7 3.1,-0.3 0.8,7.7 5.6,-0.6 -1,-9.4 3.1,-0.3 1.3,12.6 -20,2.1 z m 7.2,35.6 c -0.1,-0.4 -0.1,-0.8 0,-1.1 0.1,-0.4 0.3,-0.7 0.6,-1 L 64.8,160 c 0.6,-0.5 1.3,-1 2.2,-1.3 v -0.1 c -1,0.2 -1.8,0.2 -2.6,0.1 L 50.6,157 c -0.4,0 -0.8,-0.2 -1,-0.5 -0.3,-0.2 -0.5,-0.6 -0.6,-1 l -0.6,-2 21.8,2.7 0.8,2.7 -16.9,14.1 z m 2.9,6.5 18.3,-8.3 1.3,2.9 -18.3,8.3 z m 13.7,24.2 -1.3,-2.1 c -0.2,-0.3 -0.3,-0.7 -0.4,-1 0,-0.3 0,-0.7 0.2,-1.1 l 6.6,-15.8 v 0 c -0.4,0.7 -1,1.2 -1.6,1.6 l -10.9,7 -1.7,-2.7 16.9,-11 1.3,2 c 0.1,0.1 0.1,0.3 0.1,0.6 0,0.3 0,0.5 -0.1,0.7 l -7.2,17 v 0 c 0.4,-0.6 0.9,-1.1 1.5,-1.5 l 11.6,-7.5 1.7,2.7 z m 27.6,5.6 c -0.4,1.3 -1.1,2.6 -2.3,3.7 l -8.7,8.6 -2.2,-2.2 8.7,-8.6 c 0.7,-0.7 1.1,-1.4 1.4,-2.2 0.2,-0.8 0.2,-1.6 0,-2.5 -0.2,-0.8 -0.7,-1.6 -1.4,-2.3 -0.7,-0.7 -1.5,-1.2 -2.3,-1.4 -0.8,-0.2 -1.7,-0.2 -2.5,0 -0.8,0.2 -1.6,0.7 -2.3,1.4 l -8.7,8.6 -2.2,-2.2 8.7,-8.6 c 1.1,-1.1 2.4,-1.9 3.7,-2.2 1.3,-0.4 2.7,-0.4 4.1,0 1.3,0.4 2.6,1.2 3.7,2.3 1.1,1.1 1.9,2.4 2.3,3.7 0.5,1.2 0.5,2.5 0,3.9 z m 40.6,39 -3,-0.8 4.1,-15.4 c -0.1,0.2 -0.4,0.4 -0.6,0.6 l -1.5,0.9 c -0.2,0.1 -0.5,0.2 -0.7,0.2 -0.2,0 -0.4,0 -0.7,0 -0.4,-0.1 -0.7,-0.3 -0.9,-0.7 l -0.7,-1.3 6.1,-3.6 2.9,0.8 z m 22.4,-1 -2.8,-0.3 -0.5,4.2 -3.1,-0.3 0.5,-4.2 -9.2,-1 0.1,-2.5 c 0,-0.1 0,-0.3 0.1,-0.5 0.1,-0.2 0.2,-0.3 0.3,-0.5 l 9.2,-10.6 c 0.2,-0.2 0.4,-0.4 0.7,-0.5 0.3,-0.1 0.5,-0.2 0.7,-0.1 l 3,0.3 -1.4,12.7 2.8,0.3 z m 19.4,-1.1 c -0.5,1.6 -1.3,2.8 -2.4,3.7 -1.1,0.9 -2.4,1.4 -4,1.5 -1.6,0.1 -3,-0.2 -4.1,-1 -1.2,-0.8 -2.1,-1.9 -2.8,-3.4 -0.7,-1.5 -1.1,-3.3 -1.2,-5.4 -0.1,-2.1 0,-4 0.6,-5.6 0.5,-1.6 1.3,-2.8 2.4,-3.7 1.1,-0.9 2.4,-1.4 4,-1.5 1.6,-0.1 3,0.2 4.1,1 1.2,0.8 2.1,1.9 2.9,3.4 0.7,1.5 1.1,3.3 1.2,5.4 0,2.1 -0.2,4 -0.7,5.6 z m 18.7,0.8 -3,0.8 -1,-4.1 -9,2.2 -0.8,-2.4 c 0,-0.1 0,-0.3 0,-0.5 0,-0.2 0,-0.4 0.1,-0.5 l 5,-13.1 c 0.1,-0.3 0.2,-0.5 0.4,-0.7 0.2,-0.2 0.4,-0.3 0.6,-0.4 l 2.9,-0.7 3.1,12.4 2.7,-0.7 0.8,3 -2.7,0.7 z m -32.7,-24.5 c -50.1,0 -91,-40.8 -91,-91 0,-50.2 40.9,-91 91,-91 50.1,0 91,40.8 91,91 0,50.2 -40.9,91 -91,91 z m 84.1,-6.3 c -0.3,1 -1,1.9 -1.8,2.7 -0.7,0.7 -1.5,1.2 -2.5,1.6 -1,0.4 -1.9,0.6 -2.9,0.5 l -0.3,-1.1 c -0.1,-0.3 -0.1,-0.7 0,-1 0.1,-0.3 0.2,-0.6 0.4,-0.8 0.2,-0.2 0.4,-0.3 0.6,-0.4 0.5,-0.1 1,-0.2 1.4,-0.5 0.4,-0.2 0.8,-0.5 1,-0.7 0.6,-0.6 1,-1.2 1.1,-1.9 0.1,-0.7 -0.1,-1.3 -0.6,-1.8 -0.4,-0.4 -0.9,-0.6 -1.6,-0.5 -0.7,0 -1.6,0.3 -2.7,0.9 -1.9,0.9 -3.6,1.3 -5,1.2 -1.4,-0.1 -2.7,-0.7 -3.7,-1.7 -0.8,-0.9 -1.3,-1.9 -1.5,-2.9 -0.2,-1.1 -0.1,-2.1 0.3,-3.2 0.4,-1.1 1.1,-2.1 2.1,-3.1 0.9,-0.9 2,-1.5 3.1,-1.8 1.2,-0.4 2.4,-0.5 3.7,-0.4 l 0.3,1.3 c 0,0.2 0,0.5 0,0.7 -0.1,0.2 -0.2,0.4 -0.4,0.6 -0.3,0.2 -0.6,0.4 -1,0.5 -0.7,0.1 -1.4,0.3 -2,0.6 -0.7,0.3 -1.2,0.6 -1.6,0.9 -0.8,0.8 -1.3,1.6 -1.4,2.4 -0.1,0.9 0.1,1.6 0.8,2.3 0.5,0.5 1.1,0.7 1.9,0.7 0.8,0 1.8,-0.3 3.1,-0.8 1.9,-0.8 3.5,-1.2 4.8,-1.1 1.3,0 2.4,0.5 3.3,1.4 0.7,0.8 1.2,1.6 1.4,2.6 0.2,0.9 0.1,1.8 -0.3,2.8 z m 6.8,-6.7 -15.4,-12.9 2,-2.4 15.4,12.9 z m 10.8,-15.4 c -0.1,1 -0.5,2 -1.1,3.1 -0.5,0.8 -1.2,1.5 -2,2.1 -0.9,0.6 -1.8,1 -2.7,1.1 l -0.5,-1 c -0.1,-0.3 -0.2,-0.6 -0.2,-0.9 0,-0.3 0.1,-0.6 0.2,-0.8 0.1,-0.2 0.3,-0.4 0.5,-0.5 0.5,-0.2 0.9,-0.5 1.2,-0.8 0.4,-0.3 0.7,-0.7 0.9,-1 0.5,-0.7 0.7,-1.4 0.6,-2.1 0,-0.7 -0.4,-1.2 -1,-1.6 -0.5,-0.3 -1,-0.3 -1.7,-0.1 -0.7,0.2 -1.5,0.7 -2.5,1.4 -1.6,1.3 -3.1,2.1 -4.6,2.4 -1.4,0.2 -2.7,0 -4,-0.8 -1,-0.7 -1.7,-1.5 -2.2,-2.5 -0.5,-1 -0.6,-2.1 -0.5,-3.2 0.1,-1.1 0.6,-2.3 1.3,-3.4 0.7,-1 1.6,-1.9 2.7,-2.5 1.1,-0.7 2.2,-1 3.4,-1.3 l 0.6,1.2 c 0.1,0.2 0.1,0.5 0.1,0.7 0,0.2 -0.1,0.5 -0.2,0.7 -0.2,0.3 -0.5,0.5 -0.8,0.7 -0.6,0.2 -1.3,0.6 -1.9,1 -0.6,0.4 -1,0.9 -1.3,1.2 -0.6,0.9 -0.9,1.8 -0.8,2.7 0,0.9 0.5,1.5 1.3,2 0.6,0.4 1.2,0.4 2,0.2 0.8,-0.2 1.7,-0.7 2.8,-1.5 1.7,-1.2 3.1,-2 4.4,-2.2 1.3,-0.2 2.5,0 3.5,0.7 0.9,0.6 1.5,1.3 2,2.2 0.4,0.8 0.6,1.8 0.5,2.8 z M 279.1,170 c -0.1,0.4 -0.4,0.7 -0.6,0.9 -0.2,0.2 -0.6,0.4 -1,0.5 l -16.8,3.5 v 0 c 0.8,0 1.6,0.1 2.2,0.4 l 12,5 -1.2,2.9 -18.6,-7.7 0.9,-2.2 c 0.1,-0.2 0.2,-0.3 0.4,-0.5 0.2,-0.1 0.4,-0.2 0.7,-0.3 l 18.1,-3.7 v 0 c -0.7,0 -1.4,-0.1 -2.1,-0.4 l -12.8,-5.3 1.2,-2.9 18.6,7.7 z m 3,-9.4 -3.1,-0.6 1.9,-9.3 -5.1,-1 -1.6,7.6 -3,-0.6 1.6,-7.6 -5.5,-1.1 -1.9,9.3 -3.1,-0.6 2.6,-12.4 19.7,4.1 z m -9.2,-24.2 13,0.2 v 3.1 l -20.1,-0.3 V 137 c 0,-0.2 0,-0.4 0.2,-0.6 0.1,-0.2 0.3,-0.4 0.5,-0.5 l 15.4,-10.1 v 0 c -0.7,0.2 -1.4,0.4 -2.1,0.4 L 265.9,126 v -3.1 l 20.1,0.3 v 2.5 c 0,0.4 -0.1,0.8 -0.2,1 -0.1,0.3 -0.4,0.6 -0.8,0.8 l -14.3,9.4 v 0 c 0.7,-0.4 1.5,-0.6 2.2,-0.5 z"
   id="path28" />
		</g>
		<path
   class="st1"
   d="m 166.3,64.6 c -0.3,0 -1,0.1 -0.6,0.4 0.3,0.2 0.7,1.3 1.3,1.4 0.3,0 0.1,-0.4 0.3,-0.4 0.2,0 0.6,0.7 0.8,0.5 0.3,-0.4 -0.8,-1.7 -1.8,-1.9 z"
   id="path29" />
		<path
   class="st1"
   d="m 143.5,109.3 c 0.3,-0.6 -0.1,-0.8 -0.2,-1.1 -0.1,-0.4 0.1,-0.6 -0.3,-0.8 -0.4,-0.1 -0.9,0.7 -0.9,1.7 0,0.6 1,1 1.4,0.2 z"
   id="path30" />
		<path
   class="st1"
   d="m 135.2,117.5 c 0.2,-0.6 0.1,-1.5 0.1,-1.9 0.1,-1 0.8,-2 0.3,-2.2 -0.6,-0.2 -0.7,1 -1.2,1.5 -0.5,0.5 -2.6,2.1 -1.4,3.6 0.5,0.5 1.8,-0.1 2.2,-1 z"
   id="path31" />
		<path
   class="st1"
   d="m 191.6,157.3 c -1.6,-2.1 -6.6,-10.9 -4.9,-16.3 1.4,-4.6 8.8,-5.3 13.8,-4.2 -7,-4.3 -16,-2 -17,4.6 -0.9,5.4 2.4,12.6 4.1,15.2 1.1,0.3 2.9,0.4 4,0.7 z"
   id="path32" />
		<path
   class="st1"
   d="m 142.5,159.7 c 3.3,-0.2 4.9,-2.5 7.9,-3.4 -3.5,0.4 -9,0.4 -10.2,0.6 -1,0.2 -5.7,2 -7.4,2.7 1.6,0 8.4,0.2 9.7,0.1 z"
   id="path33" />
		<path
   class="st1"
   d="m 142.9,153.8 c -0.3,-1.7 -0.5,-2.3 -0.8,-3.4 -7,-3.2 -4.8,-13.8 1.6,-15.1 -12.4,0.1 -10.7,17.7 -0.8,18.5 z"
   id="path34" />
		<path
   class="st1"
   d="m 186.1,166.4 c 2,-0.1 5.2,-1.4 6.3,-2.7 -2.1,0 -8,-0.3 -8.6,0 -2,0.5 -3.3,1.4 -5.5,2.7 1,-0.2 5.1,0.2 7.8,0 z"
   id="path35" />
		<path
   class="st1"
   d="m 207.3,131 c -0.2,0 -1,0.4 -0.4,1.2 6.9,8.7 7.9,22.9 5.6,28.7 11.6,-8.4 8.1,-26.6 -5.2,-29.9 z"
   id="path36" />
	</g>
</g>
</svg>
